<svg width="586" height="408" viewBox="0 0 586 408" fill="none" xmlns="http://www.w3.org/2000/svg">
<path d="M406.316 224.99L405.384 174.04L419.83 181.488L442.815 228.441L406.316 224.99Z" fill="#F6BB74"/>
<path fill-rule="evenodd" clip-rule="evenodd" d="M405.384 174.04L408.036 175.438L409.196 225.28L406.316 224.99L405.384 174.04Z" fill="#DD9B4A"/>
<path d="M142.634 117.237L182.1 119.626C187.848 119.996 193.101 116.313 194.789 110.78C196.409 105.505 193.488 99.975 188.328 98.1796L152.426 86.0831L142.634 117.237Z" fill="#FDCE97"/>
<path fill-rule="evenodd" clip-rule="evenodd" d="M152.41 86.1473L170.009 92.101C169.902 102.254 167.739 111.099 163.406 118.537L142.618 117.301L152.41 86.1473Z" fill="#F5C286"/>
<path d="M142.634 117.237C148.731 118.871 155.56 113.155 157.888 104.47C160.215 95.7849 157.158 87.42 151.061 85.7862C144.964 84.1525 138.135 89.8686 135.808 98.5535C133.481 107.238 136.537 115.603 142.634 117.237Z" fill="#FDCE97"/>
<path d="M143.407 114.348C148.37 115.678 153.933 111.009 155.833 103.919C157.733 96.8295 155.25 90.0042 150.287 88.6744C145.324 87.3446 139.761 92.0139 137.861 99.1037C135.961 106.193 138.445 113.019 143.407 114.348Z" fill="#DD9B4A"/>
<path d="M155.24 93.3032C156.529 96.194 156.82 99.9868 155.77 103.902C154.721 107.817 152.556 111.021 150.011 112.816C146.944 111.168 145.542 106.39 146.849 101.512C148.139 96.6976 151.661 93.3075 155.094 93.333L155.24 93.3032Z" fill="#FFF4E8"/>
<path d="M216.106 296.523L259.758 299.207C266.118 299.604 271.876 295.575 273.72 289.465C275.477 283.675 272.309 277.529 266.571 275.579L226.822 262.177L216.106 296.523Z" fill="#FDCE97"/>
<path fill-rule="evenodd" clip-rule="evenodd" d="M226.869 262.258L246.375 268.792C246.268 279.976 243.863 289.72 239.115 297.941L216.105 296.523L226.869 262.258Z" fill="#F5C286"/>
<path d="M216.105 296.523C222.841 298.328 230.38 292.032 232.944 282.461C235.509 272.89 232.128 263.668 225.392 261.863C218.657 260.058 211.118 266.354 208.554 275.925C205.989 285.497 209.37 294.718 216.105 296.523Z" fill="#FDCE97"/>
<path d="M216.965 293.313C222.46 294.786 228.608 289.657 230.698 281.858C232.787 274.06 230.027 266.544 224.533 265.072C219.038 263.6 212.89 268.728 210.8 276.527C208.711 284.325 211.471 291.841 216.965 293.313Z" fill="#DD9B4A"/>
<path d="M230.057 270.129C231.487 273.264 231.85 277.558 230.698 281.858C229.546 286.159 227.166 289.649 224.279 291.696C220.844 289.881 219.287 284.648 220.749 279.193C222.177 273.865 226.059 270.159 229.847 270.142L230.057 270.129Z" fill="#FFF4E8"/>
<path d="M154.937 139.693L181.816 44.2554C182.178 42.9075 183.21 41.8771 184.555 41.4807L203.879 35.858C204.932 35.5211 206.066 36.1688 206.339 37.2049C206.321 37.2691 206.386 37.2863 206.368 37.3505L235.123 181.129L154.937 139.693Z" fill="#FAE6CF"/>
<path fill-rule="evenodd" clip-rule="evenodd" d="M186.029 41.1187L160.294 142.298L154.938 139.693L181.8 44.3197C182.161 42.9718 183.194 41.9414 184.539 41.545L186.029 41.1187Z" fill="#FADDBC"/>
<path d="M459.132 237.987C275.09 175.671 174.284 142.125 156.761 137.43C130.51 130.396 95.6106 127.649 64.3301 137.842C33.0325 148.098 14.1251 159.611 47.9325 180.296C81.693 200.9 298.065 255.781 353.158 266.346C408.251 276.912 452.878 266.718 468.32 260.95C474.97 258.466 483.136 252.124 478.606 246.439C477.012 244.429 470.483 241.579 459.132 237.987Z" fill="#FFEDD9"/>
<path fill-rule="evenodd" clip-rule="evenodd" d="M479.275 252.672C477.49 256.253 472.649 259.427 468.384 260.967C452.942 266.736 408.333 276.865 353.222 266.364C298.112 255.862 81.7398 200.981 47.9965 180.314C29.0269 168.695 26.6745 160.016 33.8572 152.723C55.389 173.007 80.8886 182.592 110.438 181.429C132.697 180.514 159.705 188.576 196.399 200.541L203.228 202.783L217.574 207.522L222.576 209.137C256.224 220.148 296.949 232.987 347.409 244.925C412.158 260.279 455.874 262.981 478.641 252.984L479.275 252.672Z" fill="#FADDBC"/>
<path d="M139.757 168.028L144.25 169.231C145.662 169.61 146.508 171.075 146.129 172.487L143.894 180.831C143.515 182.243 142.05 183.089 140.638 182.71L136.145 181.506C134.733 181.128 133.887 179.663 134.266 178.251L136.502 169.907C136.88 168.495 138.345 167.649 139.757 168.028ZM155.161 172.155L159.654 173.359C161.066 173.737 161.912 175.202 161.534 176.614L159.298 184.958C158.92 186.371 157.455 187.216 156.043 186.838L151.55 185.634C150.138 185.256 149.292 183.791 149.67 182.379L151.906 174.035C152.284 172.623 153.749 171.777 155.161 172.155ZM170.566 176.283L175.059 177.487C176.471 177.865 177.317 179.33 176.938 180.742L174.702 189.086C174.324 190.498 172.859 191.344 171.447 190.966L166.954 189.762C165.542 189.383 164.696 187.918 165.075 186.506L167.31 178.162C167.689 176.75 169.154 175.904 170.566 176.283ZM185.97 180.41L190.463 181.614C191.875 181.993 192.721 183.458 192.343 184.87L190.107 193.214C189.729 194.626 188.264 195.472 186.852 195.093L182.359 193.889C180.947 193.511 180.101 192.046 180.479 190.634L182.715 182.29C183.093 180.878 184.558 180.032 185.97 180.41ZM201.375 184.538L205.868 185.742C207.28 186.12 208.126 187.585 207.747 188.997L205.511 197.341C205.133 198.753 203.668 199.599 202.256 199.221L197.763 198.017C196.351 197.639 195.505 196.174 195.884 194.762L198.119 186.417C198.498 185.005 199.963 184.16 201.375 184.538ZM227.691 191.589L232.184 192.793C233.596 193.172 234.441 194.636 234.063 196.049L231.827 204.393C231.449 205.805 229.984 206.65 228.572 206.272L224.079 205.068C222.667 204.69 221.821 203.225 222.2 201.813L224.435 193.469C224.814 192.057 226.279 191.211 227.691 191.589ZM243.095 195.717L247.588 196.921C249 197.299 249.846 198.764 249.468 200.176L247.232 208.52C246.853 209.932 245.389 210.778 243.976 210.4L239.483 209.196C238.071 208.817 237.226 207.353 237.604 205.941L239.84 197.596C240.218 196.184 241.683 195.339 243.095 195.717ZM258.5 199.845L262.993 201.048C264.405 201.427 265.25 202.892 264.872 204.304L262.636 212.648C262.258 214.06 260.793 214.906 259.381 214.527L254.888 213.323C253.476 212.945 252.63 211.48 253.008 210.068L255.244 201.724C255.623 200.312 257.088 199.466 258.5 199.845ZM273.904 203.972L278.397 205.176C279.809 205.554 280.655 207.019 280.277 208.431L278.041 216.775C277.662 218.188 276.197 219.033 274.785 218.655L270.292 217.451C268.88 217.073 268.035 215.608 268.413 214.196L270.649 205.852C271.027 204.44 272.492 203.594 273.904 203.972ZM289.309 208.1L293.801 209.304C295.214 209.682 296.059 211.147 295.681 212.559L293.445 220.903C293.067 222.315 291.602 223.161 290.19 222.783L285.697 221.579C284.285 221.2 283.439 219.735 283.817 218.323L286.053 209.979C286.432 208.567 287.896 207.721 289.309 208.1ZM315.624 215.151L320.117 216.355C321.53 216.733 322.375 218.198 321.997 219.61L319.761 227.954C319.383 229.367 317.918 230.212 316.506 229.834L312.013 228.63C310.601 228.252 309.755 226.787 310.133 225.375L312.369 217.031C312.748 215.619 314.212 214.773 315.624 215.151ZM331.029 219.279L335.522 220.483C336.934 220.861 337.78 222.326 337.401 223.738L335.166 232.082C334.787 233.494 333.322 234.34 331.91 233.962L327.417 232.758C326.005 232.379 325.159 230.914 325.538 229.502L327.774 221.158C328.152 219.746 329.617 218.9 331.029 219.279ZM346.433 223.406L350.926 224.61C352.338 224.989 353.184 226.454 352.806 227.866L350.57 236.21C350.192 237.622 348.727 238.468 347.315 238.089L342.822 236.885C341.41 236.507 340.564 235.042 340.942 233.63L343.178 225.286C343.556 223.874 345.021 223.028 346.433 223.406ZM361.838 227.534L366.331 228.738C367.743 229.116 368.589 230.581 368.21 231.993L365.975 240.337C365.596 241.749 364.131 242.595 362.719 242.217L358.226 241.013C356.814 240.635 355.968 239.17 356.347 237.758L358.583 229.413C358.961 228.001 360.426 227.156 361.838 227.534ZM377.242 231.662L381.735 232.865C383.147 233.244 383.993 234.709 383.615 236.121L381.379 244.465C381.001 245.877 379.536 246.723 378.124 246.344L373.631 245.14C372.219 244.762 371.373 243.297 371.751 241.885L373.987 233.541C374.365 232.129 375.83 231.283 377.242 231.662Z" fill="#DD9B4A"/>
<path d="M110.078 166.335C95.9098 184.553 71.0597 179.476 35.5921 151.123C38.9426 148.375 43.6113 145.842 49.1957 143.486L50.1207 143.115C50.5918 142.897 51.0457 142.744 51.581 142.543L52.5874 142.125L53.5938 141.707C53.7566 141.613 53.9021 141.583 54.1291 141.506L55.1355 141.088C55.2983 140.994 55.508 140.981 55.6708 140.887L56.7413 140.486L57.8119 140.085C57.9747 139.991 58.1844 139.979 58.3472 139.885L59.4178 139.483L60.4884 139.082L61.6231 138.699L62.7579 138.315L63.5843 138.055C67.3113 142.63 72.3955 147.02 78.8367 151.222L79.7135 151.801C84.3542 154.764 89.6585 157.561 95.6735 160.274L96.8414 160.793C97.0168 160.909 97.2093 160.961 97.4489 161.094L98.6168 161.613C99.4168 161.965 100.217 162.317 101.081 162.686L102.313 163.222C102.745 163.407 103.177 163.592 103.545 163.759L104.859 164.249C105.051 164.3 105.291 164.433 105.483 164.485L106.797 164.974C107.229 165.159 107.678 165.279 108.11 165.464L109.424 165.953C109.629 166.215 109.822 166.266 110.078 166.335Z" fill="#DD9B4A"/>
<path d="M159.6 218.322L170.033 213.275L261.94 224.83L454.714 384.215C455.334 384.725 455.414 385.709 454.904 386.329C454.69 386.616 454.381 386.74 454.073 386.863C452.035 387.281 449.955 387.342 447.913 387.002L424.735 383.13C415.783 381.626 407.247 378.307 399.625 373.375L159.6 218.322Z" fill="#FFEDD9"/>
<path fill-rule="evenodd" clip-rule="evenodd" d="M170.033 213.275L420.704 382.256C413.254 380.535 406.148 377.53 399.707 373.328L159.6 218.322L170.033 213.275Z" fill="#FADDBC"/>
<path d="M422.726 248.765L424.91 244.466L464.897 255.181L536.625 318.428C537.181 318.921 537.232 319.76 536.739 320.316C536.361 320.696 535.826 320.897 535.33 320.695L519.927 315.536C513.547 313.414 507.507 310.282 502.029 306.337L422.726 248.765Z" fill="#F6BB74"/>
<path fill-rule="evenodd" clip-rule="evenodd" d="M424.91 244.466L517.86 314.776C512.238 312.65 506.87 309.836 502.046 306.273L422.726 248.765L424.91 244.466Z" fill="#DD9B4A"/>
<path fill-rule="evenodd" clip-rule="evenodd" d="M398.6 219.223L512.475 172.412L541.67 177.964L452.766 245.569L398.6 219.223Z" fill="#FADDBC"/>
</svg>
