<svg width="295" height="369" viewBox="0 0 295 369" fill="none" xmlns="http://www.w3.org/2000/svg">
<rect x="0.5" y="0.5" width="294" height="368" rx="17.5" fill="white" stroke="#CDCDCD"/>
<path d="M65.5469 197.773V199H59.5234V197.773H65.5469ZM59.8281 187.625V199H58.3203V187.625H59.8281ZM64.75 192.516V193.742H59.5234V192.516H64.75ZM65.4688 187.625V188.859H59.5234V187.625H65.4688ZM68.6328 192.227V199H67.1797V190.547H68.5547L68.6328 192.227ZM68.3359 194.453L67.6641 194.43C67.6693 193.852 67.7448 193.318 67.8906 192.828C68.0365 192.333 68.2526 191.904 68.5391 191.539C68.8255 191.174 69.1823 190.893 69.6094 190.695C70.0365 190.492 70.5312 190.391 71.0938 190.391C71.4896 190.391 71.8542 190.448 72.1875 190.562C72.5208 190.672 72.8099 190.846 73.0547 191.086C73.2995 191.326 73.4896 191.633 73.625 192.008C73.7604 192.383 73.8281 192.836 73.8281 193.367V199H72.3828V193.438C72.3828 192.995 72.3073 192.641 72.1562 192.375C72.0104 192.109 71.8021 191.917 71.5312 191.797C71.2604 191.672 70.9427 191.609 70.5781 191.609C70.151 191.609 69.7943 191.685 69.5078 191.836C69.2214 191.987 68.9922 192.195 68.8203 192.461C68.6484 192.727 68.5234 193.031 68.4453 193.375C68.3724 193.714 68.3359 194.073 68.3359 194.453ZM73.8125 193.656L72.8438 193.953C72.849 193.49 72.9245 193.044 73.0703 192.617C73.2214 192.19 73.4375 191.81 73.7188 191.477C74.0052 191.143 74.3568 190.88 74.7734 190.688C75.1901 190.49 75.6667 190.391 76.2031 190.391C76.6562 190.391 77.0573 190.451 77.4062 190.57C77.7604 190.69 78.0573 190.875 78.2969 191.125C78.5417 191.37 78.7266 191.685 78.8516 192.07C78.9766 192.456 79.0391 192.914 79.0391 193.445V199H77.5859V193.43C77.5859 192.956 77.5104 192.589 77.3594 192.328C77.2135 192.062 77.0052 191.878 76.7344 191.773C76.4688 191.664 76.151 191.609 75.7812 191.609C75.4635 191.609 75.1823 191.664 74.9375 191.773C74.6927 191.883 74.487 192.034 74.3203 192.227C74.1536 192.414 74.026 192.63 73.9375 192.875C73.8542 193.12 73.8125 193.38 73.8125 193.656ZM84.7344 199.156C84.1458 199.156 83.612 199.057 83.1328 198.859C82.6589 198.656 82.25 198.372 81.9062 198.008C81.5677 197.643 81.3073 197.211 81.125 196.711C80.9427 196.211 80.8516 195.664 80.8516 195.07V194.742C80.8516 194.055 80.9531 193.443 81.1562 192.906C81.3594 192.365 81.6354 191.906 81.9844 191.531C82.3333 191.156 82.7292 190.872 83.1719 190.68C83.6146 190.487 84.0729 190.391 84.5469 190.391C85.151 190.391 85.6719 190.495 86.1094 190.703C86.5521 190.911 86.9141 191.203 87.1953 191.578C87.4766 191.948 87.6849 192.385 87.8203 192.891C87.9557 193.391 88.0234 193.938 88.0234 194.531V195.18H81.7109V194H86.5781V193.891C86.5573 193.516 86.4792 193.151 86.3438 192.797C86.2135 192.443 86.0052 192.151 85.7188 191.922C85.4323 191.693 85.0417 191.578 84.5469 191.578C84.2188 191.578 83.9167 191.648 83.6406 191.789C83.3646 191.924 83.1276 192.128 82.9297 192.398C82.7318 192.669 82.5781 193 82.4688 193.391C82.3594 193.781 82.3047 194.232 82.3047 194.742V195.07C82.3047 195.471 82.3594 195.849 82.4688 196.203C82.5833 196.552 82.7474 196.859 82.9609 197.125C83.1797 197.391 83.4427 197.599 83.75 197.75C84.0625 197.901 84.4167 197.977 84.8125 197.977C85.3229 197.977 85.7552 197.872 86.1094 197.664C86.4635 197.456 86.7734 197.177 87.0391 196.828L87.9141 197.523C87.7318 197.799 87.5 198.062 87.2188 198.312C86.9375 198.562 86.5911 198.766 86.1797 198.922C85.7734 199.078 85.2917 199.156 84.7344 199.156ZM91.1562 191.875V199H89.7109V190.547H91.1172L91.1562 191.875ZM93.7969 190.5L93.7891 191.844C93.6693 191.818 93.5547 191.802 93.4453 191.797C93.3411 191.786 93.2214 191.781 93.0859 191.781C92.7526 191.781 92.4583 191.833 92.2031 191.938C91.9479 192.042 91.7318 192.188 91.5547 192.375C91.3776 192.562 91.237 192.786 91.1328 193.047C91.0339 193.302 90.9688 193.583 90.9375 193.891L90.5312 194.125C90.5312 193.615 90.5807 193.135 90.6797 192.688C90.7839 192.24 90.9427 191.844 91.1562 191.5C91.3698 191.151 91.6406 190.88 91.9688 190.688C92.3021 190.49 92.6979 190.391 93.1562 190.391C93.2604 190.391 93.3802 190.404 93.5156 190.43C93.651 190.451 93.7448 190.474 93.7969 190.5ZM100.453 190.547H101.766V198.82C101.766 199.565 101.615 200.201 101.312 200.727C101.01 201.253 100.589 201.651 100.047 201.922C99.5104 202.198 98.8906 202.336 98.1875 202.336C97.8958 202.336 97.5521 202.289 97.1562 202.195C96.7656 202.107 96.3802 201.953 96 201.734C95.625 201.521 95.3099 201.232 95.0547 200.867L95.8125 200.008C96.1667 200.435 96.5365 200.732 96.9219 200.898C97.3125 201.065 97.6979 201.148 98.0781 201.148C98.5365 201.148 98.9323 201.062 99.2656 200.891C99.599 200.719 99.8568 200.464 100.039 200.125C100.227 199.792 100.32 199.38 100.32 198.891V192.406L100.453 190.547ZM94.6328 194.867V194.703C94.6328 194.057 94.7083 193.471 94.8594 192.945C95.0156 192.414 95.237 191.958 95.5234 191.578C95.8151 191.198 96.1667 190.906 96.5781 190.703C96.9896 190.495 97.4531 190.391 97.9688 190.391C98.5 190.391 98.9635 190.484 99.3594 190.672C99.7604 190.854 100.099 191.122 100.375 191.477C100.656 191.826 100.878 192.247 101.039 192.742C101.201 193.237 101.312 193.797 101.375 194.422V195.141C101.318 195.76 101.206 196.318 101.039 196.812C100.878 197.307 100.656 197.729 100.375 198.078C100.099 198.427 99.7604 198.695 99.3594 198.883C98.9583 199.065 98.4896 199.156 97.9531 199.156C97.4479 199.156 96.9896 199.049 96.5781 198.836C96.1719 198.622 95.8229 198.323 95.5312 197.938C95.2396 197.552 95.0156 197.099 94.8594 196.578C94.7083 196.052 94.6328 195.482 94.6328 194.867ZM96.0781 194.703V194.867C96.0781 195.289 96.1198 195.685 96.2031 196.055C96.2917 196.424 96.4245 196.75 96.6016 197.031C96.7839 197.312 97.0156 197.534 97.2969 197.695C97.5781 197.852 97.9141 197.93 98.3047 197.93C98.7839 197.93 99.1797 197.828 99.4922 197.625C99.8047 197.422 100.052 197.154 100.234 196.82C100.422 196.487 100.568 196.125 100.672 195.734V193.852C100.615 193.565 100.526 193.289 100.406 193.023C100.292 192.753 100.141 192.513 99.9531 192.305C99.7708 192.091 99.5443 191.922 99.2734 191.797C99.0026 191.672 98.6849 191.609 98.3203 191.609C97.9245 191.609 97.5833 191.693 97.2969 191.859C97.0156 192.021 96.7839 192.245 96.6016 192.531C96.4245 192.812 96.2917 193.141 96.2031 193.516C96.1198 193.885 96.0781 194.281 96.0781 194.703ZM107.469 199.156C106.88 199.156 106.346 199.057 105.867 198.859C105.393 198.656 104.984 198.372 104.641 198.008C104.302 197.643 104.042 197.211 103.859 196.711C103.677 196.211 103.586 195.664 103.586 195.07V194.742C103.586 194.055 103.688 193.443 103.891 192.906C104.094 192.365 104.37 191.906 104.719 191.531C105.068 191.156 105.464 190.872 105.906 190.68C106.349 190.487 106.807 190.391 107.281 190.391C107.885 190.391 108.406 190.495 108.844 190.703C109.286 190.911 109.648 191.203 109.93 191.578C110.211 191.948 110.419 192.385 110.555 192.891C110.69 193.391 110.758 193.938 110.758 194.531V195.18H104.445V194H109.312V193.891C109.292 193.516 109.214 193.151 109.078 192.797C108.948 192.443 108.74 192.151 108.453 191.922C108.167 191.693 107.776 191.578 107.281 191.578C106.953 191.578 106.651 191.648 106.375 191.789C106.099 191.924 105.862 192.128 105.664 192.398C105.466 192.669 105.312 193 105.203 193.391C105.094 193.781 105.039 194.232 105.039 194.742V195.07C105.039 195.471 105.094 195.849 105.203 196.203C105.318 196.552 105.482 196.859 105.695 197.125C105.914 197.391 106.177 197.599 106.484 197.75C106.797 197.901 107.151 197.977 107.547 197.977C108.057 197.977 108.49 197.872 108.844 197.664C109.198 197.456 109.508 197.177 109.773 196.828L110.648 197.523C110.466 197.799 110.234 198.062 109.953 198.312C109.672 198.562 109.326 198.766 108.914 198.922C108.508 199.078 108.026 199.156 107.469 199.156ZM113.891 192.352V199H112.445V190.547H113.812L113.891 192.352ZM113.547 194.453L112.945 194.43C112.951 193.852 113.036 193.318 113.203 192.828C113.37 192.333 113.604 191.904 113.906 191.539C114.208 191.174 114.568 190.893 114.984 190.695C115.406 190.492 115.872 190.391 116.383 190.391C116.799 190.391 117.174 190.448 117.508 190.562C117.841 190.672 118.125 190.849 118.359 191.094C118.599 191.339 118.781 191.656 118.906 192.047C119.031 192.432 119.094 192.904 119.094 193.461V199H117.641V193.445C117.641 193.003 117.576 192.648 117.445 192.383C117.315 192.112 117.125 191.917 116.875 191.797C116.625 191.672 116.318 191.609 115.953 191.609C115.594 191.609 115.266 191.685 114.969 191.836C114.677 191.987 114.424 192.195 114.211 192.461C114.003 192.727 113.839 193.031 113.719 193.375C113.604 193.714 113.547 194.073 113.547 194.453ZM124.672 197.969C125.016 197.969 125.333 197.898 125.625 197.758C125.917 197.617 126.156 197.424 126.344 197.18C126.531 196.93 126.638 196.646 126.664 196.328H128.039C128.013 196.828 127.844 197.294 127.531 197.727C127.224 198.154 126.82 198.5 126.32 198.766C125.82 199.026 125.271 199.156 124.672 199.156C124.036 199.156 123.482 199.044 123.008 198.82C122.539 198.596 122.148 198.289 121.836 197.898C121.529 197.508 121.297 197.06 121.141 196.555C120.99 196.044 120.914 195.505 120.914 194.938V194.609C120.914 194.042 120.99 193.505 121.141 193C121.297 192.49 121.529 192.039 121.836 191.648C122.148 191.258 122.539 190.951 123.008 190.727C123.482 190.503 124.036 190.391 124.672 190.391C125.333 190.391 125.911 190.526 126.406 190.797C126.901 191.062 127.289 191.427 127.57 191.891C127.857 192.349 128.013 192.87 128.039 193.453H126.664C126.638 193.104 126.539 192.789 126.367 192.508C126.201 192.227 125.971 192.003 125.68 191.836C125.393 191.664 125.057 191.578 124.672 191.578C124.229 191.578 123.857 191.667 123.555 191.844C123.258 192.016 123.021 192.25 122.844 192.547C122.672 192.839 122.547 193.164 122.469 193.523C122.396 193.878 122.359 194.24 122.359 194.609V194.938C122.359 195.307 122.396 195.672 122.469 196.031C122.542 196.391 122.664 196.716 122.836 197.008C123.013 197.299 123.25 197.534 123.547 197.711C123.849 197.883 124.224 197.969 124.672 197.969ZM132.039 198.125L134.391 190.547H135.938L132.547 200.305C132.469 200.513 132.365 200.737 132.234 200.977C132.109 201.221 131.948 201.453 131.75 201.672C131.552 201.891 131.312 202.068 131.031 202.203C130.755 202.344 130.424 202.414 130.039 202.414C129.924 202.414 129.779 202.398 129.602 202.367C129.424 202.336 129.299 202.31 129.227 202.289L129.219 201.117C129.26 201.122 129.326 201.128 129.414 201.133C129.508 201.143 129.573 201.148 129.609 201.148C129.938 201.148 130.216 201.104 130.445 201.016C130.674 200.932 130.867 200.789 131.023 200.586C131.185 200.388 131.323 200.115 131.438 199.766L132.039 198.125ZM130.312 190.547L132.508 197.109L132.883 198.633L131.844 199.164L128.734 190.547H130.312ZM146.195 197.555V193.203C146.195 192.87 146.128 192.581 145.992 192.336C145.862 192.086 145.664 191.893 145.398 191.758C145.133 191.622 144.805 191.555 144.414 191.555C144.049 191.555 143.729 191.617 143.453 191.742C143.182 191.867 142.969 192.031 142.812 192.234C142.661 192.438 142.586 192.656 142.586 192.891H141.141C141.141 192.589 141.219 192.289 141.375 191.992C141.531 191.695 141.755 191.427 142.047 191.188C142.344 190.943 142.698 190.75 143.109 190.609C143.526 190.464 143.99 190.391 144.5 190.391C145.115 190.391 145.656 190.495 146.125 190.703C146.599 190.911 146.969 191.227 147.234 191.648C147.505 192.065 147.641 192.589 147.641 193.219V197.156C147.641 197.438 147.664 197.737 147.711 198.055C147.763 198.372 147.839 198.646 147.938 198.875V199H146.43C146.357 198.833 146.299 198.612 146.258 198.336C146.216 198.055 146.195 197.794 146.195 197.555ZM146.445 193.875L146.461 194.891H145C144.589 194.891 144.221 194.924 143.898 194.992C143.576 195.055 143.305 195.151 143.086 195.281C142.867 195.411 142.701 195.576 142.586 195.773C142.471 195.966 142.414 196.193 142.414 196.453C142.414 196.719 142.474 196.961 142.594 197.18C142.714 197.398 142.893 197.573 143.133 197.703C143.378 197.828 143.677 197.891 144.031 197.891C144.474 197.891 144.865 197.797 145.203 197.609C145.542 197.422 145.81 197.193 146.008 196.922C146.211 196.651 146.32 196.388 146.336 196.133L146.953 196.828C146.917 197.047 146.818 197.289 146.656 197.555C146.495 197.82 146.279 198.076 146.008 198.32C145.742 198.56 145.424 198.76 145.055 198.922C144.69 199.078 144.279 199.156 143.82 199.156C143.247 199.156 142.745 199.044 142.312 198.82C141.885 198.596 141.552 198.297 141.312 197.922C141.078 197.542 140.961 197.117 140.961 196.648C140.961 196.195 141.049 195.797 141.227 195.453C141.404 195.104 141.659 194.815 141.992 194.586C142.326 194.352 142.727 194.174 143.195 194.055C143.664 193.935 144.188 193.875 144.766 193.875H146.445ZM153.297 197.969C153.641 197.969 153.958 197.898 154.25 197.758C154.542 197.617 154.781 197.424 154.969 197.18C155.156 196.93 155.263 196.646 155.289 196.328H156.664C156.638 196.828 156.469 197.294 156.156 197.727C155.849 198.154 155.445 198.5 154.945 198.766C154.445 199.026 153.896 199.156 153.297 199.156C152.661 199.156 152.107 199.044 151.633 198.82C151.164 198.596 150.773 198.289 150.461 197.898C150.154 197.508 149.922 197.06 149.766 196.555C149.615 196.044 149.539 195.505 149.539 194.938V194.609C149.539 194.042 149.615 193.505 149.766 193C149.922 192.49 150.154 192.039 150.461 191.648C150.773 191.258 151.164 190.951 151.633 190.727C152.107 190.503 152.661 190.391 153.297 190.391C153.958 190.391 154.536 190.526 155.031 190.797C155.526 191.062 155.914 191.427 156.195 191.891C156.482 192.349 156.638 192.87 156.664 193.453H155.289C155.263 193.104 155.164 192.789 154.992 192.508C154.826 192.227 154.596 192.003 154.305 191.836C154.018 191.664 153.682 191.578 153.297 191.578C152.854 191.578 152.482 191.667 152.18 191.844C151.883 192.016 151.646 192.25 151.469 192.547C151.297 192.839 151.172 193.164 151.094 193.523C151.021 193.878 150.984 194.24 150.984 194.609V194.938C150.984 195.307 151.021 195.672 151.094 196.031C151.167 196.391 151.289 196.716 151.461 197.008C151.638 197.299 151.875 197.534 152.172 197.711C152.474 197.883 152.849 197.969 153.297 197.969ZM161.672 197.969C162.016 197.969 162.333 197.898 162.625 197.758C162.917 197.617 163.156 197.424 163.344 197.18C163.531 196.93 163.638 196.646 163.664 196.328H165.039C165.013 196.828 164.844 197.294 164.531 197.727C164.224 198.154 163.82 198.5 163.32 198.766C162.82 199.026 162.271 199.156 161.672 199.156C161.036 199.156 160.482 199.044 160.008 198.82C159.539 198.596 159.148 198.289 158.836 197.898C158.529 197.508 158.297 197.06 158.141 196.555C157.99 196.044 157.914 195.505 157.914 194.938V194.609C157.914 194.042 157.99 193.505 158.141 193C158.297 192.49 158.529 192.039 158.836 191.648C159.148 191.258 159.539 190.951 160.008 190.727C160.482 190.503 161.036 190.391 161.672 190.391C162.333 190.391 162.911 190.526 163.406 190.797C163.901 191.062 164.289 191.427 164.57 191.891C164.857 192.349 165.013 192.87 165.039 193.453H163.664C163.638 193.104 163.539 192.789 163.367 192.508C163.201 192.227 162.971 192.003 162.68 191.836C162.393 191.664 162.057 191.578 161.672 191.578C161.229 191.578 160.857 191.667 160.555 191.844C160.258 192.016 160.021 192.25 159.844 192.547C159.672 192.839 159.547 193.164 159.469 193.523C159.396 193.878 159.359 194.24 159.359 194.609V194.938C159.359 195.307 159.396 195.672 159.469 196.031C159.542 196.391 159.664 196.716 159.836 197.008C160.013 197.299 160.25 197.534 160.547 197.711C160.849 197.883 161.224 197.969 161.672 197.969ZM168.234 190.547V199H166.781V190.547H168.234ZM166.672 188.305C166.672 188.07 166.742 187.872 166.883 187.711C167.029 187.549 167.242 187.469 167.523 187.469C167.799 187.469 168.01 187.549 168.156 187.711C168.307 187.872 168.383 188.07 168.383 188.305C168.383 188.529 168.307 188.721 168.156 188.883C168.01 189.039 167.799 189.117 167.523 189.117C167.242 189.117 167.029 189.039 166.883 188.883C166.742 188.721 166.672 188.529 166.672 188.305ZM175.883 197.359V187H177.336V199H176.008L175.883 197.359ZM170.195 194.867V194.703C170.195 194.057 170.273 193.471 170.43 192.945C170.591 192.414 170.818 191.958 171.109 191.578C171.406 191.198 171.758 190.906 172.164 190.703C172.576 190.495 173.034 190.391 173.539 190.391C174.07 190.391 174.534 190.484 174.93 190.672C175.331 190.854 175.669 191.122 175.945 191.477C176.227 191.826 176.448 192.247 176.609 192.742C176.771 193.237 176.883 193.797 176.945 194.422V195.141C176.888 195.76 176.776 196.318 176.609 196.812C176.448 197.307 176.227 197.729 175.945 198.078C175.669 198.427 175.331 198.695 174.93 198.883C174.529 199.065 174.06 199.156 173.523 199.156C173.029 199.156 172.576 199.049 172.164 198.836C171.758 198.622 171.406 198.323 171.109 197.938C170.818 197.552 170.591 197.099 170.43 196.578C170.273 196.052 170.195 195.482 170.195 194.867ZM171.648 194.703V194.867C171.648 195.289 171.69 195.685 171.773 196.055C171.862 196.424 171.997 196.75 172.18 197.031C172.362 197.312 172.594 197.534 172.875 197.695C173.156 197.852 173.492 197.93 173.883 197.93C174.362 197.93 174.755 197.828 175.062 197.625C175.375 197.422 175.625 197.154 175.812 196.82C176 196.487 176.146 196.125 176.25 195.734V193.852C176.188 193.565 176.096 193.289 175.977 193.023C175.862 192.753 175.711 192.513 175.523 192.305C175.341 192.091 175.115 191.922 174.844 191.797C174.578 191.672 174.263 191.609 173.898 191.609C173.503 191.609 173.161 191.693 172.875 191.859C172.594 192.021 172.362 192.245 172.18 192.531C171.997 192.812 171.862 193.141 171.773 193.516C171.69 193.885 171.648 194.281 171.648 194.703ZM183.094 199.156C182.505 199.156 181.971 199.057 181.492 198.859C181.018 198.656 180.609 198.372 180.266 198.008C179.927 197.643 179.667 197.211 179.484 196.711C179.302 196.211 179.211 195.664 179.211 195.07V194.742C179.211 194.055 179.312 193.443 179.516 192.906C179.719 192.365 179.995 191.906 180.344 191.531C180.693 191.156 181.089 190.872 181.531 190.68C181.974 190.487 182.432 190.391 182.906 190.391C183.51 190.391 184.031 190.495 184.469 190.703C184.911 190.911 185.273 191.203 185.555 191.578C185.836 191.948 186.044 192.385 186.18 192.891C186.315 193.391 186.383 193.938 186.383 194.531V195.18H180.07V194H184.938V193.891C184.917 193.516 184.839 193.151 184.703 192.797C184.573 192.443 184.365 192.151 184.078 191.922C183.792 191.693 183.401 191.578 182.906 191.578C182.578 191.578 182.276 191.648 182 191.789C181.724 191.924 181.487 192.128 181.289 192.398C181.091 192.669 180.938 193 180.828 193.391C180.719 193.781 180.664 194.232 180.664 194.742V195.07C180.664 195.471 180.719 195.849 180.828 196.203C180.943 196.552 181.107 196.859 181.32 197.125C181.539 197.391 181.802 197.599 182.109 197.75C182.422 197.901 182.776 197.977 183.172 197.977C183.682 197.977 184.115 197.872 184.469 197.664C184.823 197.456 185.133 197.177 185.398 196.828L186.273 197.523C186.091 197.799 185.859 198.062 185.578 198.312C185.297 198.562 184.951 198.766 184.539 198.922C184.133 199.078 183.651 199.156 183.094 199.156ZM189.516 192.352V199H188.07V190.547H189.438L189.516 192.352ZM189.172 194.453L188.57 194.43C188.576 193.852 188.661 193.318 188.828 192.828C188.995 192.333 189.229 191.904 189.531 191.539C189.833 191.174 190.193 190.893 190.609 190.695C191.031 190.492 191.497 190.391 192.008 190.391C192.424 190.391 192.799 190.448 193.133 190.562C193.466 190.672 193.75 190.849 193.984 191.094C194.224 191.339 194.406 191.656 194.531 192.047C194.656 192.432 194.719 192.904 194.719 193.461V199H193.266V193.445C193.266 193.003 193.201 192.648 193.07 192.383C192.94 192.112 192.75 191.917 192.5 191.797C192.25 191.672 191.943 191.609 191.578 191.609C191.219 191.609 190.891 191.685 190.594 191.836C190.302 191.987 190.049 192.195 189.836 192.461C189.628 192.727 189.464 193.031 189.344 193.375C189.229 193.714 189.172 194.073 189.172 194.453ZM200.453 190.547V191.656H195.883V190.547H200.453ZM197.43 188.492H198.875V196.906C198.875 197.193 198.919 197.409 199.008 197.555C199.096 197.701 199.211 197.797 199.352 197.844C199.492 197.891 199.643 197.914 199.805 197.914C199.924 197.914 200.049 197.904 200.18 197.883C200.315 197.857 200.417 197.836 200.484 197.82L200.492 199C200.378 199.036 200.227 199.07 200.039 199.102C199.857 199.138 199.635 199.156 199.375 199.156C199.021 199.156 198.695 199.086 198.398 198.945C198.102 198.805 197.865 198.57 197.688 198.242C197.516 197.909 197.43 197.461 197.43 196.898V188.492ZM65.5469 230.773V232H59.5234V230.773H65.5469ZM59.8281 220.625V232H58.3203V220.625H59.8281ZM64.75 225.516V226.742H59.5234V225.516H64.75ZM65.4688 220.625V221.859H59.5234V220.625H65.4688ZM68.6328 225.227V232H67.1797V223.547H68.5547L68.6328 225.227ZM68.3359 227.453L67.6641 227.43C67.6693 226.852 67.7448 226.318 67.8906 225.828C68.0365 225.333 68.2526 224.904 68.5391 224.539C68.8255 224.174 69.1823 223.893 69.6094 223.695C70.0365 223.492 70.5312 223.391 71.0938 223.391C71.4896 223.391 71.8542 223.448 72.1875 223.562C72.5208 223.672 72.8099 223.846 73.0547 224.086C73.2995 224.326 73.4896 224.633 73.625 225.008C73.7604 225.383 73.8281 225.836 73.8281 226.367V232H72.3828V226.438C72.3828 225.995 72.3073 225.641 72.1562 225.375C72.0104 225.109 71.8021 224.917 71.5312 224.797C71.2604 224.672 70.9427 224.609 70.5781 224.609C70.151 224.609 69.7943 224.685 69.5078 224.836C69.2214 224.987 68.9922 225.195 68.8203 225.461C68.6484 225.727 68.5234 226.031 68.4453 226.375C68.3724 226.714 68.3359 227.073 68.3359 227.453ZM73.8125 226.656L72.8438 226.953C72.849 226.49 72.9245 226.044 73.0703 225.617C73.2214 225.19 73.4375 224.81 73.7188 224.477C74.0052 224.143 74.3568 223.88 74.7734 223.688C75.1901 223.49 75.6667 223.391 76.2031 223.391C76.6562 223.391 77.0573 223.451 77.4062 223.57C77.7604 223.69 78.0573 223.875 78.2969 224.125C78.5417 224.37 78.7266 224.685 78.8516 225.07C78.9766 225.456 79.0391 225.914 79.0391 226.445V232H77.5859V226.43C77.5859 225.956 77.5104 225.589 77.3594 225.328C77.2135 225.062 77.0052 224.878 76.7344 224.773C76.4688 224.664 76.151 224.609 75.7812 224.609C75.4635 224.609 75.1823 224.664 74.9375 224.773C74.6927 224.883 74.487 225.034 74.3203 225.227C74.1536 225.414 74.026 225.63 73.9375 225.875C73.8542 226.12 73.8125 226.38 73.8125 226.656ZM84.7344 232.156C84.1458 232.156 83.612 232.057 83.1328 231.859C82.6589 231.656 82.25 231.372 81.9062 231.008C81.5677 230.643 81.3073 230.211 81.125 229.711C80.9427 229.211 80.8516 228.664 80.8516 228.07V227.742C80.8516 227.055 80.9531 226.443 81.1562 225.906C81.3594 225.365 81.6354 224.906 81.9844 224.531C82.3333 224.156 82.7292 223.872 83.1719 223.68C83.6146 223.487 84.0729 223.391 84.5469 223.391C85.151 223.391 85.6719 223.495 86.1094 223.703C86.5521 223.911 86.9141 224.203 87.1953 224.578C87.4766 224.948 87.6849 225.385 87.8203 225.891C87.9557 226.391 88.0234 226.938 88.0234 227.531V228.18H81.7109V227H86.5781V226.891C86.5573 226.516 86.4792 226.151 86.3438 225.797C86.2135 225.443 86.0052 225.151 85.7188 224.922C85.4323 224.693 85.0417 224.578 84.5469 224.578C84.2188 224.578 83.9167 224.648 83.6406 224.789C83.3646 224.924 83.1276 225.128 82.9297 225.398C82.7318 225.669 82.5781 226 82.4688 226.391C82.3594 226.781 82.3047 227.232 82.3047 227.742V228.07C82.3047 228.471 82.3594 228.849 82.4688 229.203C82.5833 229.552 82.7474 229.859 82.9609 230.125C83.1797 230.391 83.4427 230.599 83.75 230.75C84.0625 230.901 84.4167 230.977 84.8125 230.977C85.3229 230.977 85.7552 230.872 86.1094 230.664C86.4635 230.456 86.7734 230.177 87.0391 229.828L87.9141 230.523C87.7318 230.799 87.5 231.062 87.2188 231.312C86.9375 231.562 86.5911 231.766 86.1797 231.922C85.7734 232.078 85.2917 232.156 84.7344 232.156ZM91.1562 224.875V232H89.7109V223.547H91.1172L91.1562 224.875ZM93.7969 223.5L93.7891 224.844C93.6693 224.818 93.5547 224.802 93.4453 224.797C93.3411 224.786 93.2214 224.781 93.0859 224.781C92.7526 224.781 92.4583 224.833 92.2031 224.938C91.9479 225.042 91.7318 225.188 91.5547 225.375C91.3776 225.562 91.237 225.786 91.1328 226.047C91.0339 226.302 90.9688 226.583 90.9375 226.891L90.5312 227.125C90.5312 226.615 90.5807 226.135 90.6797 225.688C90.7839 225.24 90.9427 224.844 91.1562 224.5C91.3698 224.151 91.6406 223.88 91.9688 223.688C92.3021 223.49 92.6979 223.391 93.1562 223.391C93.2604 223.391 93.3802 223.404 93.5156 223.43C93.651 223.451 93.7448 223.474 93.7969 223.5ZM100.453 223.547H101.766V231.82C101.766 232.565 101.615 233.201 101.312 233.727C101.01 234.253 100.589 234.651 100.047 234.922C99.5104 235.198 98.8906 235.336 98.1875 235.336C97.8958 235.336 97.5521 235.289 97.1562 235.195C96.7656 235.107 96.3802 234.953 96 234.734C95.625 234.521 95.3099 234.232 95.0547 233.867L95.8125 233.008C96.1667 233.435 96.5365 233.732 96.9219 233.898C97.3125 234.065 97.6979 234.148 98.0781 234.148C98.5365 234.148 98.9323 234.062 99.2656 233.891C99.599 233.719 99.8568 233.464 100.039 233.125C100.227 232.792 100.32 232.38 100.32 231.891V225.406L100.453 223.547ZM94.6328 227.867V227.703C94.6328 227.057 94.7083 226.471 94.8594 225.945C95.0156 225.414 95.237 224.958 95.5234 224.578C95.8151 224.198 96.1667 223.906 96.5781 223.703C96.9896 223.495 97.4531 223.391 97.9688 223.391C98.5 223.391 98.9635 223.484 99.3594 223.672C99.7604 223.854 100.099 224.122 100.375 224.477C100.656 224.826 100.878 225.247 101.039 225.742C101.201 226.237 101.312 226.797 101.375 227.422V228.141C101.318 228.76 101.206 229.318 101.039 229.812C100.878 230.307 100.656 230.729 100.375 231.078C100.099 231.427 99.7604 231.695 99.3594 231.883C98.9583 232.065 98.4896 232.156 97.9531 232.156C97.4479 232.156 96.9896 232.049 96.5781 231.836C96.1719 231.622 95.8229 231.323 95.5312 230.938C95.2396 230.552 95.0156 230.099 94.8594 229.578C94.7083 229.052 94.6328 228.482 94.6328 227.867ZM96.0781 227.703V227.867C96.0781 228.289 96.1198 228.685 96.2031 229.055C96.2917 229.424 96.4245 229.75 96.6016 230.031C96.7839 230.312 97.0156 230.534 97.2969 230.695C97.5781 230.852 97.9141 230.93 98.3047 230.93C98.7839 230.93 99.1797 230.828 99.4922 230.625C99.8047 230.422 100.052 230.154 100.234 229.82C100.422 229.487 100.568 229.125 100.672 228.734V226.852C100.615 226.565 100.526 226.289 100.406 226.023C100.292 225.753 100.141 225.513 99.9531 225.305C99.7708 225.091 99.5443 224.922 99.2734 224.797C99.0026 224.672 98.6849 224.609 98.3203 224.609C97.9245 224.609 97.5833 224.693 97.2969 224.859C97.0156 225.021 96.7839 225.245 96.6016 225.531C96.4245 225.812 96.2917 226.141 96.2031 226.516C96.1198 226.885 96.0781 227.281 96.0781 227.703ZM107.469 232.156C106.88 232.156 106.346 232.057 105.867 231.859C105.393 231.656 104.984 231.372 104.641 231.008C104.302 230.643 104.042 230.211 103.859 229.711C103.677 229.211 103.586 228.664 103.586 228.07V227.742C103.586 227.055 103.688 226.443 103.891 225.906C104.094 225.365 104.37 224.906 104.719 224.531C105.068 224.156 105.464 223.872 105.906 223.68C106.349 223.487 106.807 223.391 107.281 223.391C107.885 223.391 108.406 223.495 108.844 223.703C109.286 223.911 109.648 224.203 109.93 224.578C110.211 224.948 110.419 225.385 110.555 225.891C110.69 226.391 110.758 226.938 110.758 227.531V228.18H104.445V227H109.312V226.891C109.292 226.516 109.214 226.151 109.078 225.797C108.948 225.443 108.74 225.151 108.453 224.922C108.167 224.693 107.776 224.578 107.281 224.578C106.953 224.578 106.651 224.648 106.375 224.789C106.099 224.924 105.862 225.128 105.664 225.398C105.466 225.669 105.312 226 105.203 226.391C105.094 226.781 105.039 227.232 105.039 227.742V228.07C105.039 228.471 105.094 228.849 105.203 229.203C105.318 229.552 105.482 229.859 105.695 230.125C105.914 230.391 106.177 230.599 106.484 230.75C106.797 230.901 107.151 230.977 107.547 230.977C108.057 230.977 108.49 230.872 108.844 230.664C109.198 230.456 109.508 230.177 109.773 229.828L110.648 230.523C110.466 230.799 110.234 231.062 109.953 231.312C109.672 231.562 109.326 231.766 108.914 231.922C108.508 232.078 108.026 232.156 107.469 232.156ZM113.891 225.352V232H112.445V223.547H113.812L113.891 225.352ZM113.547 227.453L112.945 227.43C112.951 226.852 113.036 226.318 113.203 225.828C113.37 225.333 113.604 224.904 113.906 224.539C114.208 224.174 114.568 223.893 114.984 223.695C115.406 223.492 115.872 223.391 116.383 223.391C116.799 223.391 117.174 223.448 117.508 223.562C117.841 223.672 118.125 223.849 118.359 224.094C118.599 224.339 118.781 224.656 118.906 225.047C119.031 225.432 119.094 225.904 119.094 226.461V232H117.641V226.445C117.641 226.003 117.576 225.648 117.445 225.383C117.315 225.112 117.125 224.917 116.875 224.797C116.625 224.672 116.318 224.609 115.953 224.609C115.594 224.609 115.266 224.685 114.969 224.836C114.677 224.987 114.424 225.195 114.211 225.461C114.003 225.727 113.839 226.031 113.719 226.375C113.604 226.714 113.547 227.073 113.547 227.453ZM124.672 230.969C125.016 230.969 125.333 230.898 125.625 230.758C125.917 230.617 126.156 230.424 126.344 230.18C126.531 229.93 126.638 229.646 126.664 229.328H128.039C128.013 229.828 127.844 230.294 127.531 230.727C127.224 231.154 126.82 231.5 126.32 231.766C125.82 232.026 125.271 232.156 124.672 232.156C124.036 232.156 123.482 232.044 123.008 231.82C122.539 231.596 122.148 231.289 121.836 230.898C121.529 230.508 121.297 230.06 121.141 229.555C120.99 229.044 120.914 228.505 120.914 227.938V227.609C120.914 227.042 120.99 226.505 121.141 226C121.297 225.49 121.529 225.039 121.836 224.648C122.148 224.258 122.539 223.951 123.008 223.727C123.482 223.503 124.036 223.391 124.672 223.391C125.333 223.391 125.911 223.526 126.406 223.797C126.901 224.062 127.289 224.427 127.57 224.891C127.857 225.349 128.013 225.87 128.039 226.453H126.664C126.638 226.104 126.539 225.789 126.367 225.508C126.201 225.227 125.971 225.003 125.68 224.836C125.393 224.664 125.057 224.578 124.672 224.578C124.229 224.578 123.857 224.667 123.555 224.844C123.258 225.016 123.021 225.25 122.844 225.547C122.672 225.839 122.547 226.164 122.469 226.523C122.396 226.878 122.359 227.24 122.359 227.609V227.938C122.359 228.307 122.396 228.672 122.469 229.031C122.542 229.391 122.664 229.716 122.836 230.008C123.013 230.299 123.25 230.534 123.547 230.711C123.849 230.883 124.224 230.969 124.672 230.969ZM132.039 231.125L134.391 223.547H135.938L132.547 233.305C132.469 233.513 132.365 233.737 132.234 233.977C132.109 234.221 131.948 234.453 131.75 234.672C131.552 234.891 131.312 235.068 131.031 235.203C130.755 235.344 130.424 235.414 130.039 235.414C129.924 235.414 129.779 235.398 129.602 235.367C129.424 235.336 129.299 235.31 129.227 235.289L129.219 234.117C129.26 234.122 129.326 234.128 129.414 234.133C129.508 234.143 129.573 234.148 129.609 234.148C129.938 234.148 130.216 234.104 130.445 234.016C130.674 233.932 130.867 233.789 131.023 233.586C131.185 233.388 131.323 233.115 131.438 232.766L132.039 231.125ZM130.312 223.547L132.508 230.109L132.883 231.633L131.844 232.164L128.734 223.547H130.312ZM142.648 225.227V232H141.195V223.547H142.57L142.648 225.227ZM142.352 227.453L141.68 227.43C141.685 226.852 141.76 226.318 141.906 225.828C142.052 225.333 142.268 224.904 142.555 224.539C142.841 224.174 143.198 223.893 143.625 223.695C144.052 223.492 144.547 223.391 145.109 223.391C145.505 223.391 145.87 223.448 146.203 223.562C146.536 223.672 146.826 223.846 147.07 224.086C147.315 224.326 147.505 224.633 147.641 225.008C147.776 225.383 147.844 225.836 147.844 226.367V232H146.398V226.438C146.398 225.995 146.323 225.641 146.172 225.375C146.026 225.109 145.818 224.917 145.547 224.797C145.276 224.672 144.958 224.609 144.594 224.609C144.167 224.609 143.81 224.685 143.523 224.836C143.237 224.987 143.008 225.195 142.836 225.461C142.664 225.727 142.539 226.031 142.461 226.375C142.388 226.714 142.352 227.073 142.352 227.453ZM147.828 226.656L146.859 226.953C146.865 226.49 146.94 226.044 147.086 225.617C147.237 225.19 147.453 224.81 147.734 224.477C148.021 224.143 148.372 223.88 148.789 223.688C149.206 223.49 149.682 223.391 150.219 223.391C150.672 223.391 151.073 223.451 151.422 223.57C151.776 223.69 152.073 223.875 152.312 224.125C152.557 224.37 152.742 224.685 152.867 225.07C152.992 225.456 153.055 225.914 153.055 226.445V232H151.602V226.43C151.602 225.956 151.526 225.589 151.375 225.328C151.229 225.062 151.021 224.878 150.75 224.773C150.484 224.664 150.167 224.609 149.797 224.609C149.479 224.609 149.198 224.664 148.953 224.773C148.708 224.883 148.503 225.034 148.336 225.227C148.169 225.414 148.042 225.63 147.953 225.875C147.87 226.12 147.828 226.38 147.828 226.656ZM158.75 232.156C158.161 232.156 157.628 232.057 157.148 231.859C156.674 231.656 156.266 231.372 155.922 231.008C155.583 230.643 155.323 230.211 155.141 229.711C154.958 229.211 154.867 228.664 154.867 228.07V227.742C154.867 227.055 154.969 226.443 155.172 225.906C155.375 225.365 155.651 224.906 156 224.531C156.349 224.156 156.745 223.872 157.188 223.68C157.63 223.487 158.089 223.391 158.562 223.391C159.167 223.391 159.688 223.495 160.125 223.703C160.568 223.911 160.93 224.203 161.211 224.578C161.492 224.948 161.701 225.385 161.836 225.891C161.971 226.391 162.039 226.938 162.039 227.531V228.18H155.727V227H160.594V226.891C160.573 226.516 160.495 226.151 160.359 225.797C160.229 225.443 160.021 225.151 159.734 224.922C159.448 224.693 159.057 224.578 158.562 224.578C158.234 224.578 157.932 224.648 157.656 224.789C157.38 224.924 157.143 225.128 156.945 225.398C156.747 225.669 156.594 226 156.484 226.391C156.375 226.781 156.32 227.232 156.32 227.742V228.07C156.32 228.471 156.375 228.849 156.484 229.203C156.599 229.552 156.763 229.859 156.977 230.125C157.195 230.391 157.458 230.599 157.766 230.75C158.078 230.901 158.432 230.977 158.828 230.977C159.339 230.977 159.771 230.872 160.125 230.664C160.479 230.456 160.789 230.177 161.055 229.828L161.93 230.523C161.747 230.799 161.516 231.062 161.234 231.312C160.953 231.562 160.607 231.766 160.195 231.922C159.789 232.078 159.307 232.156 158.75 232.156ZM169.055 230.359V220H170.508V232H169.18L169.055 230.359ZM163.367 227.867V227.703C163.367 227.057 163.445 226.471 163.602 225.945C163.763 225.414 163.99 224.958 164.281 224.578C164.578 224.198 164.93 223.906 165.336 223.703C165.747 223.495 166.206 223.391 166.711 223.391C167.242 223.391 167.706 223.484 168.102 223.672C168.503 223.854 168.841 224.122 169.117 224.477C169.398 224.826 169.62 225.247 169.781 225.742C169.943 226.237 170.055 226.797 170.117 227.422V228.141C170.06 228.76 169.948 229.318 169.781 229.812C169.62 230.307 169.398 230.729 169.117 231.078C168.841 231.427 168.503 231.695 168.102 231.883C167.701 232.065 167.232 232.156 166.695 232.156C166.201 232.156 165.747 232.049 165.336 231.836C164.93 231.622 164.578 231.323 164.281 230.938C163.99 230.552 163.763 230.099 163.602 229.578C163.445 229.052 163.367 228.482 163.367 227.867ZM164.82 227.703V227.867C164.82 228.289 164.862 228.685 164.945 229.055C165.034 229.424 165.169 229.75 165.352 230.031C165.534 230.312 165.766 230.534 166.047 230.695C166.328 230.852 166.664 230.93 167.055 230.93C167.534 230.93 167.927 230.828 168.234 230.625C168.547 230.422 168.797 230.154 168.984 229.82C169.172 229.487 169.318 229.125 169.422 228.734V226.852C169.359 226.565 169.268 226.289 169.148 226.023C169.034 225.753 168.883 225.513 168.695 225.305C168.513 225.091 168.286 224.922 168.016 224.797C167.75 224.672 167.435 224.609 167.07 224.609C166.674 224.609 166.333 224.693 166.047 224.859C165.766 225.021 165.534 225.245 165.352 225.531C165.169 225.812 165.034 226.141 164.945 226.516C164.862 226.885 164.82 227.281 164.82 227.703ZM174.328 223.547V232H172.875V223.547H174.328ZM172.766 221.305C172.766 221.07 172.836 220.872 172.977 220.711C173.122 220.549 173.336 220.469 173.617 220.469C173.893 220.469 174.104 220.549 174.25 220.711C174.401 220.872 174.477 221.07 174.477 221.305C174.477 221.529 174.401 221.721 174.25 221.883C174.104 222.039 173.893 222.117 173.617 222.117C173.336 222.117 173.122 222.039 172.977 221.883C172.836 221.721 172.766 221.529 172.766 221.305ZM180.031 230.969C180.375 230.969 180.693 230.898 180.984 230.758C181.276 230.617 181.516 230.424 181.703 230.18C181.891 229.93 181.997 229.646 182.023 229.328H183.398C183.372 229.828 183.203 230.294 182.891 230.727C182.583 231.154 182.18 231.5 181.68 231.766C181.18 232.026 180.63 232.156 180.031 232.156C179.396 232.156 178.841 232.044 178.367 231.82C177.898 231.596 177.508 231.289 177.195 230.898C176.888 230.508 176.656 230.06 176.5 229.555C176.349 229.044 176.273 228.505 176.273 227.938V227.609C176.273 227.042 176.349 226.505 176.5 226C176.656 225.49 176.888 225.039 177.195 224.648C177.508 224.258 177.898 223.951 178.367 223.727C178.841 223.503 179.396 223.391 180.031 223.391C180.693 223.391 181.271 223.526 181.766 223.797C182.26 224.062 182.648 224.427 182.93 224.891C183.216 225.349 183.372 225.87 183.398 226.453H182.023C181.997 226.104 181.898 225.789 181.727 225.508C181.56 225.227 181.331 225.003 181.039 224.836C180.753 224.664 180.417 224.578 180.031 224.578C179.589 224.578 179.216 224.667 178.914 224.844C178.617 225.016 178.38 225.25 178.203 225.547C178.031 225.839 177.906 226.164 177.828 226.523C177.755 226.878 177.719 227.24 177.719 227.609V227.938C177.719 228.307 177.755 228.672 177.828 229.031C177.901 229.391 178.023 229.716 178.195 230.008C178.372 230.299 178.609 230.534 178.906 230.711C179.208 230.883 179.583 230.969 180.031 230.969ZM190.008 230.555V226.203C190.008 225.87 189.94 225.581 189.805 225.336C189.674 225.086 189.477 224.893 189.211 224.758C188.945 224.622 188.617 224.555 188.227 224.555C187.862 224.555 187.542 224.617 187.266 224.742C186.995 224.867 186.781 225.031 186.625 225.234C186.474 225.438 186.398 225.656 186.398 225.891H184.953C184.953 225.589 185.031 225.289 185.188 224.992C185.344 224.695 185.568 224.427 185.859 224.188C186.156 223.943 186.51 223.75 186.922 223.609C187.339 223.464 187.802 223.391 188.312 223.391C188.927 223.391 189.469 223.495 189.938 223.703C190.411 223.911 190.781 224.227 191.047 224.648C191.318 225.065 191.453 225.589 191.453 226.219V230.156C191.453 230.438 191.477 230.737 191.523 231.055C191.576 231.372 191.651 231.646 191.75 231.875V232H190.242C190.169 231.833 190.112 231.612 190.07 231.336C190.029 231.055 190.008 230.794 190.008 230.555ZM190.258 226.875L190.273 227.891H188.812C188.401 227.891 188.034 227.924 187.711 227.992C187.388 228.055 187.117 228.151 186.898 228.281C186.68 228.411 186.513 228.576 186.398 228.773C186.284 228.966 186.227 229.193 186.227 229.453C186.227 229.719 186.286 229.961 186.406 230.18C186.526 230.398 186.706 230.573 186.945 230.703C187.19 230.828 187.49 230.891 187.844 230.891C188.286 230.891 188.677 230.797 189.016 230.609C189.354 230.422 189.622 230.193 189.82 229.922C190.023 229.651 190.133 229.388 190.148 229.133L190.766 229.828C190.729 230.047 190.63 230.289 190.469 230.555C190.307 230.82 190.091 231.076 189.82 231.32C189.555 231.56 189.237 231.76 188.867 231.922C188.503 232.078 188.091 232.156 187.633 232.156C187.06 232.156 186.557 232.044 186.125 231.82C185.698 231.596 185.365 231.297 185.125 230.922C184.891 230.542 184.773 230.117 184.773 229.648C184.773 229.195 184.862 228.797 185.039 228.453C185.216 228.104 185.471 227.815 185.805 227.586C186.138 227.352 186.539 227.174 187.008 227.055C187.477 226.935 188 226.875 188.578 226.875H190.258ZM195.297 220V232H193.844V220H195.297ZM209.062 232.156C208.474 232.156 207.94 232.057 207.461 231.859C206.987 231.656 206.578 231.372 206.234 231.008C205.896 230.643 205.635 230.211 205.453 229.711C205.271 229.211 205.18 228.664 205.18 228.07V227.742C205.18 227.055 205.281 226.443 205.484 225.906C205.688 225.365 205.964 224.906 206.312 224.531C206.661 224.156 207.057 223.872 207.5 223.68C207.943 223.487 208.401 223.391 208.875 223.391C209.479 223.391 210 223.495 210.438 223.703C210.88 223.911 211.242 224.203 211.523 224.578C211.805 224.948 212.013 225.385 212.148 225.891C212.284 226.391 212.352 226.938 212.352 227.531V228.18H206.039V227H210.906V226.891C210.885 226.516 210.807 226.151 210.672 225.797C210.542 225.443 210.333 225.151 210.047 224.922C209.76 224.693 209.37 224.578 208.875 224.578C208.547 224.578 208.245 224.648 207.969 224.789C207.693 224.924 207.456 225.128 207.258 225.398C207.06 225.669 206.906 226 206.797 226.391C206.688 226.781 206.633 227.232 206.633 227.742V228.07C206.633 228.471 206.688 228.849 206.797 229.203C206.911 229.552 207.076 229.859 207.289 230.125C207.508 230.391 207.771 230.599 208.078 230.75C208.391 230.901 208.745 230.977 209.141 230.977C209.651 230.977 210.083 230.872 210.438 230.664C210.792 230.456 211.102 230.177 211.367 229.828L212.242 230.523C212.06 230.799 211.828 231.062 211.547 231.312C211.266 231.562 210.919 231.766 210.508 231.922C210.102 232.078 209.62 232.156 209.062 232.156ZM215.016 223.547L216.867 226.625L218.742 223.547H220.438L217.672 227.719L220.523 232H218.852L216.898 228.828L214.945 232H213.266L216.109 227.719L213.352 223.547H215.016ZM223.422 225.172V235.25H221.969V223.547H223.297L223.422 225.172ZM229.117 227.703V227.867C229.117 228.482 229.044 229.052 228.898 229.578C228.753 230.099 228.539 230.552 228.258 230.938C227.982 231.323 227.641 231.622 227.234 231.836C226.828 232.049 226.362 232.156 225.836 232.156C225.299 232.156 224.826 232.068 224.414 231.891C224.003 231.714 223.654 231.456 223.367 231.117C223.081 230.779 222.852 230.372 222.68 229.898C222.513 229.424 222.398 228.891 222.336 228.297V227.422C222.398 226.797 222.516 226.237 222.688 225.742C222.859 225.247 223.086 224.826 223.367 224.477C223.654 224.122 224 223.854 224.406 223.672C224.812 223.484 225.281 223.391 225.812 223.391C226.344 223.391 226.815 223.495 227.227 223.703C227.638 223.906 227.984 224.198 228.266 224.578C228.547 224.958 228.758 225.414 228.898 225.945C229.044 226.471 229.117 227.057 229.117 227.703ZM227.664 227.867V227.703C227.664 227.281 227.62 226.885 227.531 226.516C227.443 226.141 227.305 225.812 227.117 225.531C226.935 225.245 226.701 225.021 226.414 224.859C226.128 224.693 225.786 224.609 225.391 224.609C225.026 224.609 224.708 224.672 224.438 224.797C224.172 224.922 223.945 225.091 223.758 225.305C223.57 225.513 223.417 225.753 223.297 226.023C223.182 226.289 223.096 226.565 223.039 226.852V228.875C223.143 229.24 223.289 229.583 223.477 229.906C223.664 230.224 223.914 230.482 224.227 230.68C224.539 230.872 224.932 230.969 225.406 230.969C225.797 230.969 226.133 230.888 226.414 230.727C226.701 230.56 226.935 230.333 227.117 230.047C227.305 229.76 227.443 229.432 227.531 229.062C227.62 228.688 227.664 228.289 227.664 227.867ZM234.469 232.156C233.88 232.156 233.346 232.057 232.867 231.859C232.393 231.656 231.984 231.372 231.641 231.008C231.302 230.643 231.042 230.211 230.859 229.711C230.677 229.211 230.586 228.664 230.586 228.07V227.742C230.586 227.055 230.688 226.443 230.891 225.906C231.094 225.365 231.37 224.906 231.719 224.531C232.068 224.156 232.464 223.872 232.906 223.68C233.349 223.487 233.807 223.391 234.281 223.391C234.885 223.391 235.406 223.495 235.844 223.703C236.286 223.911 236.648 224.203 236.93 224.578C237.211 224.948 237.419 225.385 237.555 225.891C237.69 226.391 237.758 226.938 237.758 227.531V228.18H231.445V227H236.312V226.891C236.292 226.516 236.214 226.151 236.078 225.797C235.948 225.443 235.74 225.151 235.453 224.922C235.167 224.693 234.776 224.578 234.281 224.578C233.953 224.578 233.651 224.648 233.375 224.789C233.099 224.924 232.862 225.128 232.664 225.398C232.466 225.669 232.312 226 232.203 226.391C232.094 226.781 232.039 227.232 232.039 227.742V228.07C232.039 228.471 232.094 228.849 232.203 229.203C232.318 229.552 232.482 229.859 232.695 230.125C232.914 230.391 233.177 230.599 233.484 230.75C233.797 230.901 234.151 230.977 234.547 230.977C235.057 230.977 235.49 230.872 235.844 230.664C236.198 230.456 236.508 230.177 236.773 229.828L237.648 230.523C237.466 230.799 237.234 231.062 236.953 231.312C236.672 231.562 236.326 231.766 235.914 231.922C235.508 232.078 235.026 232.156 234.469 232.156ZM240.891 225.352V232H239.445V223.547H240.812L240.891 225.352ZM240.547 227.453L239.945 227.43C239.951 226.852 240.036 226.318 240.203 225.828C240.37 225.333 240.604 224.904 240.906 224.539C241.208 224.174 241.568 223.893 241.984 223.695C242.406 223.492 242.872 223.391 243.383 223.391C243.799 223.391 244.174 223.448 244.508 223.562C244.841 223.672 245.125 223.849 245.359 224.094C245.599 224.339 245.781 224.656 245.906 225.047C246.031 225.432 246.094 225.904 246.094 226.461V232H244.641V226.445C244.641 226.003 244.576 225.648 244.445 225.383C244.315 225.112 244.125 224.917 243.875 224.797C243.625 224.672 243.318 224.609 242.953 224.609C242.594 224.609 242.266 224.685 241.969 224.836C241.677 224.987 241.424 225.195 241.211 225.461C241.003 225.727 240.839 226.031 240.719 226.375C240.604 226.714 240.547 227.073 240.547 227.453ZM253.211 229.758C253.211 229.549 253.164 229.357 253.07 229.18C252.982 228.997 252.797 228.833 252.516 228.688C252.24 228.536 251.823 228.406 251.266 228.297C250.797 228.198 250.372 228.081 249.992 227.945C249.617 227.81 249.297 227.646 249.031 227.453C248.771 227.26 248.57 227.034 248.43 226.773C248.289 226.513 248.219 226.208 248.219 225.859C248.219 225.526 248.292 225.211 248.438 224.914C248.589 224.617 248.799 224.354 249.07 224.125C249.346 223.896 249.677 223.716 250.062 223.586C250.448 223.456 250.878 223.391 251.352 223.391C252.029 223.391 252.607 223.51 253.086 223.75C253.565 223.99 253.932 224.31 254.188 224.711C254.443 225.107 254.57 225.547 254.57 226.031H253.125C253.125 225.797 253.055 225.57 252.914 225.352C252.779 225.128 252.578 224.943 252.312 224.797C252.052 224.651 251.732 224.578 251.352 224.578C250.951 224.578 250.625 224.641 250.375 224.766C250.13 224.885 249.951 225.039 249.836 225.227C249.727 225.414 249.672 225.612 249.672 225.82C249.672 225.977 249.698 226.117 249.75 226.242C249.807 226.362 249.906 226.474 250.047 226.578C250.188 226.677 250.385 226.771 250.641 226.859C250.896 226.948 251.221 227.036 251.617 227.125C252.31 227.281 252.88 227.469 253.328 227.688C253.776 227.906 254.109 228.174 254.328 228.492C254.547 228.81 254.656 229.195 254.656 229.648C254.656 230.018 254.578 230.357 254.422 230.664C254.271 230.971 254.049 231.237 253.758 231.461C253.471 231.68 253.128 231.852 252.727 231.977C252.331 232.096 251.885 232.156 251.391 232.156C250.646 232.156 250.016 232.023 249.5 231.758C248.984 231.492 248.594 231.148 248.328 230.727C248.062 230.305 247.93 229.859 247.93 229.391H249.383C249.404 229.786 249.518 230.102 249.727 230.336C249.935 230.565 250.19 230.729 250.492 230.828C250.794 230.922 251.094 230.969 251.391 230.969C251.786 230.969 252.117 230.917 252.383 230.812C252.654 230.708 252.859 230.565 253 230.383C253.141 230.201 253.211 229.992 253.211 229.758ZM260.062 232.156C259.474 232.156 258.94 232.057 258.461 231.859C257.987 231.656 257.578 231.372 257.234 231.008C256.896 230.643 256.635 230.211 256.453 229.711C256.271 229.211 256.18 228.664 256.18 228.07V227.742C256.18 227.055 256.281 226.443 256.484 225.906C256.688 225.365 256.964 224.906 257.312 224.531C257.661 224.156 258.057 223.872 258.5 223.68C258.943 223.487 259.401 223.391 259.875 223.391C260.479 223.391 261 223.495 261.438 223.703C261.88 223.911 262.242 224.203 262.523 224.578C262.805 224.948 263.013 225.385 263.148 225.891C263.284 226.391 263.352 226.938 263.352 227.531V228.18H257.039V227H261.906V226.891C261.885 226.516 261.807 226.151 261.672 225.797C261.542 225.443 261.333 225.151 261.047 224.922C260.76 224.693 260.37 224.578 259.875 224.578C259.547 224.578 259.245 224.648 258.969 224.789C258.693 224.924 258.456 225.128 258.258 225.398C258.06 225.669 257.906 226 257.797 226.391C257.688 226.781 257.633 227.232 257.633 227.742V228.07C257.633 228.471 257.688 228.849 257.797 229.203C257.911 229.552 258.076 229.859 258.289 230.125C258.508 230.391 258.771 230.599 259.078 230.75C259.391 230.901 259.745 230.977 260.141 230.977C260.651 230.977 261.083 230.872 261.438 230.664C261.792 230.456 262.102 230.177 262.367 229.828L263.242 230.523C263.06 230.799 262.828 231.062 262.547 231.312C262.266 231.562 261.919 231.766 261.508 231.922C261.102 232.078 260.62 232.156 260.062 232.156ZM269.961 229.758C269.961 229.549 269.914 229.357 269.82 229.18C269.732 228.997 269.547 228.833 269.266 228.688C268.99 228.536 268.573 228.406 268.016 228.297C267.547 228.198 267.122 228.081 266.742 227.945C266.367 227.81 266.047 227.646 265.781 227.453C265.521 227.26 265.32 227.034 265.18 226.773C265.039 226.513 264.969 226.208 264.969 225.859C264.969 225.526 265.042 225.211 265.188 224.914C265.339 224.617 265.549 224.354 265.82 224.125C266.096 223.896 266.427 223.716 266.812 223.586C267.198 223.456 267.628 223.391 268.102 223.391C268.779 223.391 269.357 223.51 269.836 223.75C270.315 223.99 270.682 224.31 270.938 224.711C271.193 225.107 271.32 225.547 271.32 226.031H269.875C269.875 225.797 269.805 225.57 269.664 225.352C269.529 225.128 269.328 224.943 269.062 224.797C268.802 224.651 268.482 224.578 268.102 224.578C267.701 224.578 267.375 224.641 267.125 224.766C266.88 224.885 266.701 225.039 266.586 225.227C266.477 225.414 266.422 225.612 266.422 225.82C266.422 225.977 266.448 226.117 266.5 226.242C266.557 226.362 266.656 226.474 266.797 226.578C266.938 226.677 267.135 226.771 267.391 226.859C267.646 226.948 267.971 227.036 268.367 227.125C269.06 227.281 269.63 227.469 270.078 227.688C270.526 227.906 270.859 228.174 271.078 228.492C271.297 228.81 271.406 229.195 271.406 229.648C271.406 230.018 271.328 230.357 271.172 230.664C271.021 230.971 270.799 231.237 270.508 231.461C270.221 231.68 269.878 231.852 269.477 231.977C269.081 232.096 268.635 232.156 268.141 232.156C267.396 232.156 266.766 232.023 266.25 231.758C265.734 231.492 265.344 231.148 265.078 230.727C264.812 230.305 264.68 229.859 264.68 229.391H266.133C266.154 229.786 266.268 230.102 266.477 230.336C266.685 230.565 266.94 230.729 267.242 230.828C267.544 230.922 267.844 230.969 268.141 230.969C268.536 230.969 268.867 230.917 269.133 230.812C269.404 230.708 269.609 230.565 269.75 230.383C269.891 230.201 269.961 229.992 269.961 229.758ZM59.8281 253.625V265H58.3203V253.625H59.8281ZM64.5938 258.742V259.977H59.5V258.742H64.5938ZM65.3672 253.625V254.859H59.5V253.625H65.3672ZM66.3906 260.867V260.688C66.3906 260.078 66.4792 259.513 66.6562 258.992C66.8333 258.466 67.0885 258.01 67.4219 257.625C67.7552 257.234 68.1589 256.932 68.6328 256.719C69.1068 256.5 69.638 256.391 70.2266 256.391C70.8203 256.391 71.3542 256.5 71.8281 256.719C72.3073 256.932 72.7135 257.234 73.0469 257.625C73.3854 258.01 73.6432 258.466 73.8203 258.992C73.9974 259.513 74.0859 260.078 74.0859 260.688V260.867C74.0859 261.477 73.9974 262.042 73.8203 262.562C73.6432 263.083 73.3854 263.539 73.0469 263.93C72.7135 264.315 72.3099 264.617 71.8359 264.836C71.3672 265.049 70.8359 265.156 70.2422 265.156C69.6484 265.156 69.1146 265.049 68.6406 264.836C68.1667 264.617 67.7604 264.315 67.4219 263.93C67.0885 263.539 66.8333 263.083 66.6562 262.562C66.4792 262.042 66.3906 261.477 66.3906 260.867ZM67.8359 260.688V260.867C67.8359 261.289 67.8854 261.688 67.9844 262.062C68.0833 262.432 68.2318 262.76 68.4297 263.047C68.6328 263.333 68.8854 263.56 69.1875 263.727C69.4896 263.888 69.8411 263.969 70.2422 263.969C70.638 263.969 70.9844 263.888 71.2812 263.727C71.5833 263.56 71.8333 263.333 72.0312 263.047C72.2292 262.76 72.3776 262.432 72.4766 262.062C72.5807 261.688 72.6328 261.289 72.6328 260.867V260.688C72.6328 260.271 72.5807 259.878 72.4766 259.508C72.3776 259.133 72.2266 258.802 72.0234 258.516C71.8255 258.224 71.5755 257.995 71.2734 257.828C70.9766 257.661 70.6276 257.578 70.2266 257.578C69.8307 257.578 69.4818 257.661 69.1797 257.828C68.8828 257.995 68.6328 258.224 68.4297 258.516C68.2318 258.802 68.0833 259.133 67.9844 259.508C67.8854 259.878 67.8359 260.271 67.8359 260.688ZM77.4688 253V265H76.0156V253H77.4688ZM81.3594 253V265H79.9062V253H81.3594ZM83.2969 260.867V260.688C83.2969 260.078 83.3854 259.513 83.5625 258.992C83.7396 258.466 83.9948 258.01 84.3281 257.625C84.6615 257.234 85.0651 256.932 85.5391 256.719C86.013 256.5 86.5443 256.391 87.1328 256.391C87.7266 256.391 88.2604 256.5 88.7344 256.719C89.2135 256.932 89.6198 257.234 89.9531 257.625C90.2917 258.01 90.5495 258.466 90.7266 258.992C90.9036 259.513 90.9922 260.078 90.9922 260.688V260.867C90.9922 261.477 90.9036 262.042 90.7266 262.562C90.5495 263.083 90.2917 263.539 89.9531 263.93C89.6198 264.315 89.2161 264.617 88.7422 264.836C88.2734 265.049 87.7422 265.156 87.1484 265.156C86.5547 265.156 86.0208 265.049 85.5469 264.836C85.0729 264.617 84.6667 264.315 84.3281 263.93C83.9948 263.539 83.7396 263.083 83.5625 262.562C83.3854 262.042 83.2969 261.477 83.2969 260.867ZM84.7422 260.688V260.867C84.7422 261.289 84.7917 261.688 84.8906 262.062C84.9896 262.432 85.138 262.76 85.3359 263.047C85.5391 263.333 85.7917 263.56 86.0938 263.727C86.3958 263.888 86.7474 263.969 87.1484 263.969C87.5443 263.969 87.8906 263.888 88.1875 263.727C88.4896 263.56 88.7396 263.333 88.9375 263.047C89.1354 262.76 89.2839 262.432 89.3828 262.062C89.487 261.688 89.5391 261.289 89.5391 260.867V260.688C89.5391 260.271 89.487 259.878 89.3828 259.508C89.2839 259.133 89.1328 258.802 88.9297 258.516C88.7318 258.224 88.4818 257.995 88.1797 257.828C87.8828 257.661 87.5339 257.578 87.1328 257.578C86.737 257.578 86.388 257.661 86.0859 257.828C85.7891 257.995 85.5391 258.224 85.3359 258.516C85.138 258.802 84.9896 259.133 84.8906 259.508C84.7917 259.878 84.7422 260.271 84.7422 260.688ZM94.9453 263.5L97.1172 256.547H98.0703L97.8828 257.93L95.6719 265H94.7422L94.9453 263.5ZM93.4844 256.547L95.3359 263.578L95.4688 265H94.4922L92.0391 256.547H93.4844ZM100.148 263.523L101.914 256.547H103.352L100.898 265H99.9297L100.148 263.523ZM98.2812 256.547L100.406 263.383L100.648 265H99.7266L97.4531 257.914L97.2656 256.547H98.2812ZM107.844 259.57V260.758H104.031V259.57H107.844ZM114.43 263.047V256.547H115.883V265H114.5L114.43 263.047ZM114.703 261.266L115.305 261.25C115.305 261.812 115.245 262.333 115.125 262.812C115.01 263.286 114.823 263.698 114.562 264.047C114.302 264.396 113.961 264.669 113.539 264.867C113.117 265.06 112.604 265.156 112 265.156C111.589 265.156 111.211 265.096 110.867 264.977C110.529 264.857 110.237 264.672 109.992 264.422C109.747 264.172 109.557 263.846 109.422 263.445C109.292 263.044 109.227 262.562 109.227 262V256.547H110.672V262.016C110.672 262.396 110.714 262.711 110.797 262.961C110.885 263.206 111.003 263.401 111.148 263.547C111.299 263.688 111.466 263.786 111.648 263.844C111.836 263.901 112.029 263.93 112.227 263.93C112.841 263.93 113.328 263.812 113.688 263.578C114.047 263.339 114.305 263.018 114.461 262.617C114.622 262.211 114.703 261.76 114.703 261.266ZM119.531 258.172V268.25H118.078V256.547H119.406L119.531 258.172ZM125.227 260.703V260.867C125.227 261.482 125.154 262.052 125.008 262.578C124.862 263.099 124.648 263.552 124.367 263.938C124.091 264.323 123.75 264.622 123.344 264.836C122.938 265.049 122.471 265.156 121.945 265.156C121.409 265.156 120.935 265.068 120.523 264.891C120.112 264.714 119.763 264.456 119.477 264.117C119.19 263.779 118.961 263.372 118.789 262.898C118.622 262.424 118.508 261.891 118.445 261.297V260.422C118.508 259.797 118.625 259.237 118.797 258.742C118.969 258.247 119.195 257.826 119.477 257.477C119.763 257.122 120.109 256.854 120.516 256.672C120.922 256.484 121.391 256.391 121.922 256.391C122.453 256.391 122.924 256.495 123.336 256.703C123.747 256.906 124.094 257.198 124.375 257.578C124.656 257.958 124.867 258.414 125.008 258.945C125.154 259.471 125.227 260.057 125.227 260.703ZM123.773 260.867V260.703C123.773 260.281 123.729 259.885 123.641 259.516C123.552 259.141 123.414 258.812 123.227 258.531C123.044 258.245 122.81 258.021 122.523 257.859C122.237 257.693 121.896 257.609 121.5 257.609C121.135 257.609 120.818 257.672 120.547 257.797C120.281 257.922 120.055 258.091 119.867 258.305C119.68 258.513 119.526 258.753 119.406 259.023C119.292 259.289 119.206 259.565 119.148 259.852V261.875C119.253 262.24 119.398 262.583 119.586 262.906C119.773 263.224 120.023 263.482 120.336 263.68C120.648 263.872 121.042 263.969 121.516 263.969C121.906 263.969 122.242 263.888 122.523 263.727C122.81 263.56 123.044 263.333 123.227 263.047C123.414 262.76 123.552 262.432 123.641 262.062C123.729 261.688 123.773 261.289 123.773 260.867ZM132.477 258.227V265H131.023V256.547H132.398L132.477 258.227ZM132.18 260.453L131.508 260.43C131.513 259.852 131.589 259.318 131.734 258.828C131.88 258.333 132.096 257.904 132.383 257.539C132.669 257.174 133.026 256.893 133.453 256.695C133.88 256.492 134.375 256.391 134.938 256.391C135.333 256.391 135.698 256.448 136.031 256.562C136.365 256.672 136.654 256.846 136.898 257.086C137.143 257.326 137.333 257.633 137.469 258.008C137.604 258.383 137.672 258.836 137.672 259.367V265H136.227V259.438C136.227 258.995 136.151 258.641 136 258.375C135.854 258.109 135.646 257.917 135.375 257.797C135.104 257.672 134.786 257.609 134.422 257.609C133.995 257.609 133.638 257.685 133.352 257.836C133.065 257.987 132.836 258.195 132.664 258.461C132.492 258.727 132.367 259.031 132.289 259.375C132.216 259.714 132.18 260.073 132.18 260.453ZM137.656 259.656L136.688 259.953C136.693 259.49 136.768 259.044 136.914 258.617C137.065 258.19 137.281 257.81 137.562 257.477C137.849 257.143 138.201 256.88 138.617 256.688C139.034 256.49 139.51 256.391 140.047 256.391C140.5 256.391 140.901 256.451 141.25 256.57C141.604 256.69 141.901 256.875 142.141 257.125C142.385 257.37 142.57 257.685 142.695 258.07C142.82 258.456 142.883 258.914 142.883 259.445V265H141.43V259.43C141.43 258.956 141.354 258.589 141.203 258.328C141.057 258.062 140.849 257.878 140.578 257.773C140.312 257.664 139.995 257.609 139.625 257.609C139.307 257.609 139.026 257.664 138.781 257.773C138.536 257.883 138.331 258.034 138.164 258.227C137.997 258.414 137.87 258.63 137.781 258.875C137.698 259.12 137.656 259.38 137.656 259.656ZM148.578 265.156C147.99 265.156 147.456 265.057 146.977 264.859C146.503 264.656 146.094 264.372 145.75 264.008C145.411 263.643 145.151 263.211 144.969 262.711C144.786 262.211 144.695 261.664 144.695 261.07V260.742C144.695 260.055 144.797 259.443 145 258.906C145.203 258.365 145.479 257.906 145.828 257.531C146.177 257.156 146.573 256.872 147.016 256.68C147.458 256.487 147.917 256.391 148.391 256.391C148.995 256.391 149.516 256.495 149.953 256.703C150.396 256.911 150.758 257.203 151.039 257.578C151.32 257.948 151.529 258.385 151.664 258.891C151.799 259.391 151.867 259.938 151.867 260.531V261.18H145.555V260H150.422V259.891C150.401 259.516 150.323 259.151 150.188 258.797C150.057 258.443 149.849 258.151 149.562 257.922C149.276 257.693 148.885 257.578 148.391 257.578C148.062 257.578 147.76 257.648 147.484 257.789C147.208 257.924 146.971 258.128 146.773 258.398C146.576 258.669 146.422 259 146.312 259.391C146.203 259.781 146.148 260.232 146.148 260.742V261.07C146.148 261.471 146.203 261.849 146.312 262.203C146.427 262.552 146.591 262.859 146.805 263.125C147.023 263.391 147.286 263.599 147.594 263.75C147.906 263.901 148.26 263.977 148.656 263.977C149.167 263.977 149.599 263.872 149.953 263.664C150.307 263.456 150.617 263.177 150.883 262.828L151.758 263.523C151.576 263.799 151.344 264.062 151.062 264.312C150.781 264.562 150.435 264.766 150.023 264.922C149.617 265.078 149.135 265.156 148.578 265.156ZM158.883 263.359V253H160.336V265H159.008L158.883 263.359ZM153.195 260.867V260.703C153.195 260.057 153.273 259.471 153.43 258.945C153.591 258.414 153.818 257.958 154.109 257.578C154.406 257.198 154.758 256.906 155.164 256.703C155.576 256.495 156.034 256.391 156.539 256.391C157.07 256.391 157.534 256.484 157.93 256.672C158.331 256.854 158.669 257.122 158.945 257.477C159.227 257.826 159.448 258.247 159.609 258.742C159.771 259.237 159.883 259.797 159.945 260.422V261.141C159.888 261.76 159.776 262.318 159.609 262.812C159.448 263.307 159.227 263.729 158.945 264.078C158.669 264.427 158.331 264.695 157.93 264.883C157.529 265.065 157.06 265.156 156.523 265.156C156.029 265.156 155.576 265.049 155.164 264.836C154.758 264.622 154.406 264.323 154.109 263.938C153.818 263.552 153.591 263.099 153.43 262.578C153.273 262.052 153.195 261.482 153.195 260.867ZM154.648 260.703V260.867C154.648 261.289 154.69 261.685 154.773 262.055C154.862 262.424 154.997 262.75 155.18 263.031C155.362 263.312 155.594 263.534 155.875 263.695C156.156 263.852 156.492 263.93 156.883 263.93C157.362 263.93 157.755 263.828 158.062 263.625C158.375 263.422 158.625 263.154 158.812 262.82C159 262.487 159.146 262.125 159.25 261.734V259.852C159.188 259.565 159.096 259.289 158.977 259.023C158.862 258.753 158.711 258.513 158.523 258.305C158.341 258.091 158.115 257.922 157.844 257.797C157.578 257.672 157.263 257.609 156.898 257.609C156.503 257.609 156.161 257.693 155.875 257.859C155.594 258.021 155.362 258.245 155.18 258.531C154.997 258.812 154.862 259.141 154.773 259.516C154.69 259.885 154.648 260.281 154.648 260.703ZM164.156 256.547V265H162.703V256.547H164.156ZM162.594 254.305C162.594 254.07 162.664 253.872 162.805 253.711C162.951 253.549 163.164 253.469 163.445 253.469C163.721 253.469 163.932 253.549 164.078 253.711C164.229 253.872 164.305 254.07 164.305 254.305C164.305 254.529 164.229 254.721 164.078 254.883C163.932 255.039 163.721 255.117 163.445 255.117C163.164 255.117 162.951 255.039 162.805 254.883C162.664 254.721 162.594 254.529 162.594 254.305ZM169.859 263.969C170.203 263.969 170.521 263.898 170.812 263.758C171.104 263.617 171.344 263.424 171.531 263.18C171.719 262.93 171.826 262.646 171.852 262.328H173.227C173.201 262.828 173.031 263.294 172.719 263.727C172.411 264.154 172.008 264.5 171.508 264.766C171.008 265.026 170.458 265.156 169.859 265.156C169.224 265.156 168.669 265.044 168.195 264.82C167.727 264.596 167.336 264.289 167.023 263.898C166.716 263.508 166.484 263.06 166.328 262.555C166.177 262.044 166.102 261.505 166.102 260.938V260.609C166.102 260.042 166.177 259.505 166.328 259C166.484 258.49 166.716 258.039 167.023 257.648C167.336 257.258 167.727 256.951 168.195 256.727C168.669 256.503 169.224 256.391 169.859 256.391C170.521 256.391 171.099 256.526 171.594 256.797C172.089 257.062 172.477 257.427 172.758 257.891C173.044 258.349 173.201 258.87 173.227 259.453H171.852C171.826 259.104 171.727 258.789 171.555 258.508C171.388 258.227 171.159 258.003 170.867 257.836C170.581 257.664 170.245 257.578 169.859 257.578C169.417 257.578 169.044 257.667 168.742 257.844C168.445 258.016 168.208 258.25 168.031 258.547C167.859 258.839 167.734 259.164 167.656 259.523C167.583 259.878 167.547 260.24 167.547 260.609V260.938C167.547 261.307 167.583 261.672 167.656 262.031C167.729 262.391 167.852 262.716 168.023 263.008C168.201 263.299 168.438 263.534 168.734 263.711C169.036 263.883 169.411 263.969 169.859 263.969ZM179.836 263.555V259.203C179.836 258.87 179.768 258.581 179.633 258.336C179.503 258.086 179.305 257.893 179.039 257.758C178.773 257.622 178.445 257.555 178.055 257.555C177.69 257.555 177.37 257.617 177.094 257.742C176.823 257.867 176.609 258.031 176.453 258.234C176.302 258.438 176.227 258.656 176.227 258.891H174.781C174.781 258.589 174.859 258.289 175.016 257.992C175.172 257.695 175.396 257.427 175.688 257.188C175.984 256.943 176.339 256.75 176.75 256.609C177.167 256.464 177.63 256.391 178.141 256.391C178.755 256.391 179.297 256.495 179.766 256.703C180.24 256.911 180.609 257.227 180.875 257.648C181.146 258.065 181.281 258.589 181.281 259.219V263.156C181.281 263.438 181.305 263.737 181.352 264.055C181.404 264.372 181.479 264.646 181.578 264.875V265H180.07C179.997 264.833 179.94 264.612 179.898 264.336C179.857 264.055 179.836 263.794 179.836 263.555ZM180.086 259.875L180.102 260.891H178.641C178.229 260.891 177.862 260.924 177.539 260.992C177.216 261.055 176.945 261.151 176.727 261.281C176.508 261.411 176.341 261.576 176.227 261.773C176.112 261.966 176.055 262.193 176.055 262.453C176.055 262.719 176.115 262.961 176.234 263.18C176.354 263.398 176.534 263.573 176.773 263.703C177.018 263.828 177.318 263.891 177.672 263.891C178.115 263.891 178.505 263.797 178.844 263.609C179.182 263.422 179.451 263.193 179.648 262.922C179.852 262.651 179.961 262.388 179.977 262.133L180.594 262.828C180.557 263.047 180.458 263.289 180.297 263.555C180.135 263.82 179.919 264.076 179.648 264.32C179.383 264.56 179.065 264.76 178.695 264.922C178.331 265.078 177.919 265.156 177.461 265.156C176.888 265.156 176.385 265.044 175.953 264.82C175.526 264.596 175.193 264.297 174.953 263.922C174.719 263.542 174.602 263.117 174.602 262.648C174.602 262.195 174.69 261.797 174.867 261.453C175.044 261.104 175.299 260.815 175.633 260.586C175.966 260.352 176.367 260.174 176.836 260.055C177.305 259.935 177.828 259.875 178.406 259.875H180.086ZM185.125 253V265H183.672V253H185.125ZM198.891 265.156C198.302 265.156 197.768 265.057 197.289 264.859C196.815 264.656 196.406 264.372 196.062 264.008C195.724 263.643 195.464 263.211 195.281 262.711C195.099 262.211 195.008 261.664 195.008 261.07V260.742C195.008 260.055 195.109 259.443 195.312 258.906C195.516 258.365 195.792 257.906 196.141 257.531C196.49 257.156 196.885 256.872 197.328 256.68C197.771 256.487 198.229 256.391 198.703 256.391C199.307 256.391 199.828 256.495 200.266 256.703C200.708 256.911 201.07 257.203 201.352 257.578C201.633 257.948 201.841 258.385 201.977 258.891C202.112 259.391 202.18 259.938 202.18 260.531V261.18H195.867V260H200.734V259.891C200.714 259.516 200.635 259.151 200.5 258.797C200.37 258.443 200.161 258.151 199.875 257.922C199.589 257.693 199.198 257.578 198.703 257.578C198.375 257.578 198.073 257.648 197.797 257.789C197.521 257.924 197.284 258.128 197.086 258.398C196.888 258.669 196.734 259 196.625 259.391C196.516 259.781 196.461 260.232 196.461 260.742V261.07C196.461 261.471 196.516 261.849 196.625 262.203C196.74 262.552 196.904 262.859 197.117 263.125C197.336 263.391 197.599 263.599 197.906 263.75C198.219 263.901 198.573 263.977 198.969 263.977C199.479 263.977 199.911 263.872 200.266 263.664C200.62 263.456 200.93 263.177 201.195 262.828L202.07 263.523C201.888 263.799 201.656 264.062 201.375 264.312C201.094 264.562 200.747 264.766 200.336 264.922C199.93 265.078 199.448 265.156 198.891 265.156ZM204.844 256.547L206.695 259.625L208.57 256.547H210.266L207.5 260.719L210.352 265H208.68L206.727 261.828L204.773 265H203.094L205.938 260.719L203.18 256.547H204.844ZM213.25 258.172V268.25H211.797V256.547H213.125L213.25 258.172ZM218.945 260.703V260.867C218.945 261.482 218.872 262.052 218.727 262.578C218.581 263.099 218.367 263.552 218.086 263.938C217.81 264.323 217.469 264.622 217.062 264.836C216.656 265.049 216.19 265.156 215.664 265.156C215.128 265.156 214.654 265.068 214.242 264.891C213.831 264.714 213.482 264.456 213.195 264.117C212.909 263.779 212.68 263.372 212.508 262.898C212.341 262.424 212.227 261.891 212.164 261.297V260.422C212.227 259.797 212.344 259.237 212.516 258.742C212.688 258.247 212.914 257.826 213.195 257.477C213.482 257.122 213.828 256.854 214.234 256.672C214.641 256.484 215.109 256.391 215.641 256.391C216.172 256.391 216.643 256.495 217.055 256.703C217.466 256.906 217.812 257.198 218.094 257.578C218.375 257.958 218.586 258.414 218.727 258.945C218.872 259.471 218.945 260.057 218.945 260.703ZM217.492 260.867V260.703C217.492 260.281 217.448 259.885 217.359 259.516C217.271 259.141 217.133 258.812 216.945 258.531C216.763 258.245 216.529 258.021 216.242 257.859C215.956 257.693 215.615 257.609 215.219 257.609C214.854 257.609 214.536 257.672 214.266 257.797C214 257.922 213.773 258.091 213.586 258.305C213.398 258.513 213.245 258.753 213.125 259.023C213.01 259.289 212.924 259.565 212.867 259.852V261.875C212.971 262.24 213.117 262.583 213.305 262.906C213.492 263.224 213.742 263.482 214.055 263.68C214.367 263.872 214.76 263.969 215.234 263.969C215.625 263.969 215.961 263.888 216.242 263.727C216.529 263.56 216.763 263.333 216.945 263.047C217.133 262.76 217.271 262.432 217.359 262.062C217.448 261.688 217.492 261.289 217.492 260.867ZM224.297 265.156C223.708 265.156 223.174 265.057 222.695 264.859C222.221 264.656 221.812 264.372 221.469 264.008C221.13 263.643 220.87 263.211 220.688 262.711C220.505 262.211 220.414 261.664 220.414 261.07V260.742C220.414 260.055 220.516 259.443 220.719 258.906C220.922 258.365 221.198 257.906 221.547 257.531C221.896 257.156 222.292 256.872 222.734 256.68C223.177 256.487 223.635 256.391 224.109 256.391C224.714 256.391 225.234 256.495 225.672 256.703C226.115 256.911 226.477 257.203 226.758 257.578C227.039 257.948 227.247 258.385 227.383 258.891C227.518 259.391 227.586 259.938 227.586 260.531V261.18H221.273V260H226.141V259.891C226.12 259.516 226.042 259.151 225.906 258.797C225.776 258.443 225.568 258.151 225.281 257.922C224.995 257.693 224.604 257.578 224.109 257.578C223.781 257.578 223.479 257.648 223.203 257.789C222.927 257.924 222.69 258.128 222.492 258.398C222.294 258.669 222.141 259 222.031 259.391C221.922 259.781 221.867 260.232 221.867 260.742V261.07C221.867 261.471 221.922 261.849 222.031 262.203C222.146 262.552 222.31 262.859 222.523 263.125C222.742 263.391 223.005 263.599 223.312 263.75C223.625 263.901 223.979 263.977 224.375 263.977C224.885 263.977 225.318 263.872 225.672 263.664C226.026 263.456 226.336 263.177 226.602 262.828L227.477 263.523C227.294 263.799 227.062 264.062 226.781 264.312C226.5 264.562 226.154 264.766 225.742 264.922C225.336 265.078 224.854 265.156 224.297 265.156ZM230.719 258.352V265H229.273V256.547H230.641L230.719 258.352ZM230.375 260.453L229.773 260.43C229.779 259.852 229.865 259.318 230.031 258.828C230.198 258.333 230.432 257.904 230.734 257.539C231.036 257.174 231.396 256.893 231.812 256.695C232.234 256.492 232.701 256.391 233.211 256.391C233.628 256.391 234.003 256.448 234.336 256.562C234.669 256.672 234.953 256.849 235.188 257.094C235.427 257.339 235.609 257.656 235.734 258.047C235.859 258.432 235.922 258.904 235.922 259.461V265H234.469V259.445C234.469 259.003 234.404 258.648 234.273 258.383C234.143 258.112 233.953 257.917 233.703 257.797C233.453 257.672 233.146 257.609 232.781 257.609C232.422 257.609 232.094 257.685 231.797 257.836C231.505 257.987 231.253 258.195 231.039 258.461C230.831 258.727 230.667 259.031 230.547 259.375C230.432 259.714 230.375 260.073 230.375 260.453ZM243.039 262.758C243.039 262.549 242.992 262.357 242.898 262.18C242.81 261.997 242.625 261.833 242.344 261.688C242.068 261.536 241.651 261.406 241.094 261.297C240.625 261.198 240.201 261.081 239.82 260.945C239.445 260.81 239.125 260.646 238.859 260.453C238.599 260.26 238.398 260.034 238.258 259.773C238.117 259.513 238.047 259.208 238.047 258.859C238.047 258.526 238.12 258.211 238.266 257.914C238.417 257.617 238.628 257.354 238.898 257.125C239.174 256.896 239.505 256.716 239.891 256.586C240.276 256.456 240.706 256.391 241.18 256.391C241.857 256.391 242.435 256.51 242.914 256.75C243.393 256.99 243.76 257.31 244.016 257.711C244.271 258.107 244.398 258.547 244.398 259.031H242.953C242.953 258.797 242.883 258.57 242.742 258.352C242.607 258.128 242.406 257.943 242.141 257.797C241.88 257.651 241.56 257.578 241.18 257.578C240.779 257.578 240.453 257.641 240.203 257.766C239.958 257.885 239.779 258.039 239.664 258.227C239.555 258.414 239.5 258.612 239.5 258.82C239.5 258.977 239.526 259.117 239.578 259.242C239.635 259.362 239.734 259.474 239.875 259.578C240.016 259.677 240.214 259.771 240.469 259.859C240.724 259.948 241.049 260.036 241.445 260.125C242.138 260.281 242.708 260.469 243.156 260.688C243.604 260.906 243.938 261.174 244.156 261.492C244.375 261.81 244.484 262.195 244.484 262.648C244.484 263.018 244.406 263.357 244.25 263.664C244.099 263.971 243.878 264.237 243.586 264.461C243.299 264.68 242.956 264.852 242.555 264.977C242.159 265.096 241.714 265.156 241.219 265.156C240.474 265.156 239.844 265.023 239.328 264.758C238.812 264.492 238.422 264.148 238.156 263.727C237.891 263.305 237.758 262.859 237.758 262.391H239.211C239.232 262.786 239.346 263.102 239.555 263.336C239.763 263.565 240.018 263.729 240.32 263.828C240.622 263.922 240.922 263.969 241.219 263.969C241.615 263.969 241.945 263.917 242.211 263.812C242.482 263.708 242.688 263.565 242.828 263.383C242.969 263.201 243.039 262.992 243.039 262.758ZM249.891 265.156C249.302 265.156 248.768 265.057 248.289 264.859C247.815 264.656 247.406 264.372 247.062 264.008C246.724 263.643 246.464 263.211 246.281 262.711C246.099 262.211 246.008 261.664 246.008 261.07V260.742C246.008 260.055 246.109 259.443 246.312 258.906C246.516 258.365 246.792 257.906 247.141 257.531C247.49 257.156 247.885 256.872 248.328 256.68C248.771 256.487 249.229 256.391 249.703 256.391C250.307 256.391 250.828 256.495 251.266 256.703C251.708 256.911 252.07 257.203 252.352 257.578C252.633 257.948 252.841 258.385 252.977 258.891C253.112 259.391 253.18 259.938 253.18 260.531V261.18H246.867V260H251.734V259.891C251.714 259.516 251.635 259.151 251.5 258.797C251.37 258.443 251.161 258.151 250.875 257.922C250.589 257.693 250.198 257.578 249.703 257.578C249.375 257.578 249.073 257.648 248.797 257.789C248.521 257.924 248.284 258.128 248.086 258.398C247.888 258.669 247.734 259 247.625 259.391C247.516 259.781 247.461 260.232 247.461 260.742V261.07C247.461 261.471 247.516 261.849 247.625 262.203C247.74 262.552 247.904 262.859 248.117 263.125C248.336 263.391 248.599 263.599 248.906 263.75C249.219 263.901 249.573 263.977 249.969 263.977C250.479 263.977 250.911 263.872 251.266 263.664C251.62 263.456 251.93 263.177 252.195 262.828L253.07 263.523C252.888 263.799 252.656 264.062 252.375 264.312C252.094 264.562 251.747 264.766 251.336 264.922C250.93 265.078 250.448 265.156 249.891 265.156ZM259.789 262.758C259.789 262.549 259.742 262.357 259.648 262.18C259.56 261.997 259.375 261.833 259.094 261.688C258.818 261.536 258.401 261.406 257.844 261.297C257.375 261.198 256.951 261.081 256.57 260.945C256.195 260.81 255.875 260.646 255.609 260.453C255.349 260.26 255.148 260.034 255.008 259.773C254.867 259.513 254.797 259.208 254.797 258.859C254.797 258.526 254.87 258.211 255.016 257.914C255.167 257.617 255.378 257.354 255.648 257.125C255.924 256.896 256.255 256.716 256.641 256.586C257.026 256.456 257.456 256.391 257.93 256.391C258.607 256.391 259.185 256.51 259.664 256.75C260.143 256.99 260.51 257.31 260.766 257.711C261.021 258.107 261.148 258.547 261.148 259.031H259.703C259.703 258.797 259.633 258.57 259.492 258.352C259.357 258.128 259.156 257.943 258.891 257.797C258.63 257.651 258.31 257.578 257.93 257.578C257.529 257.578 257.203 257.641 256.953 257.766C256.708 257.885 256.529 258.039 256.414 258.227C256.305 258.414 256.25 258.612 256.25 258.82C256.25 258.977 256.276 259.117 256.328 259.242C256.385 259.362 256.484 259.474 256.625 259.578C256.766 259.677 256.964 259.771 257.219 259.859C257.474 259.948 257.799 260.036 258.195 260.125C258.888 260.281 259.458 260.469 259.906 260.688C260.354 260.906 260.688 261.174 260.906 261.492C261.125 261.81 261.234 262.195 261.234 262.648C261.234 263.018 261.156 263.357 261 263.664C260.849 263.971 260.628 264.237 260.336 264.461C260.049 264.68 259.706 264.852 259.305 264.977C258.909 265.096 258.464 265.156 257.969 265.156C257.224 265.156 256.594 265.023 256.078 264.758C255.562 264.492 255.172 264.148 254.906 263.727C254.641 263.305 254.508 262.859 254.508 262.391H255.961C255.982 262.786 256.096 263.102 256.305 263.336C256.513 263.565 256.768 263.729 257.07 263.828C257.372 263.922 257.672 263.969 257.969 263.969C258.365 263.969 258.695 263.917 258.961 263.812C259.232 263.708 259.438 263.565 259.578 263.383C259.719 263.201 259.789 262.992 259.789 262.758Z" fill="#393939"/>
<path d="M33.3193 145.359L36.7568 152.653L40.2158 145.359H43.46L38.2607 155.274V161H35.2637V155.274L30.0537 145.359H33.3193ZM43.5996 155.307V155.081C43.5996 154.229 43.7214 153.445 43.9648 152.729C44.2083 152.005 44.5628 151.379 45.0283 150.849C45.4938 150.319 46.0632 149.907 46.7363 149.613C47.4095 149.312 48.1758 149.162 49.0352 149.162C49.9089 149.162 50.6823 149.312 51.3555 149.613C52.0358 149.907 52.6087 150.319 53.0742 150.849C53.5397 151.379 53.8942 152.005 54.1377 152.729C54.3812 153.445 54.5029 154.229 54.5029 155.081V155.307C54.5029 156.152 54.3812 156.936 54.1377 157.659C53.8942 158.375 53.5397 159.002 53.0742 159.539C52.6087 160.069 52.0394 160.481 51.3662 160.774C50.693 161.068 49.9232 161.215 49.0566 161.215C48.1973 161.215 47.4274 161.068 46.7471 160.774C46.0667 160.481 45.4938 160.069 45.0283 159.539C44.5628 159.002 44.2083 158.375 43.9648 157.659C43.7214 156.936 43.5996 156.152 43.5996 155.307ZM46.4355 155.081V155.307C46.4355 155.815 46.4857 156.291 46.5859 156.735C46.6862 157.179 46.8402 157.57 47.0479 157.906C47.2555 158.243 47.5241 158.508 47.8535 158.701C48.1901 158.887 48.5911 158.98 49.0566 158.98C49.515 158.98 49.9089 158.887 50.2383 158.701C50.5677 158.508 50.8363 158.243 51.0439 157.906C51.2588 157.57 51.4163 157.179 51.5166 156.735C51.6169 156.291 51.667 155.815 51.667 155.307V155.081C51.667 154.58 51.6169 154.111 51.5166 153.674C51.4163 153.23 51.2588 152.84 51.0439 152.503C50.8363 152.159 50.5641 151.891 50.2275 151.697C49.8981 151.497 49.5007 151.396 49.0352 151.396C48.5768 151.396 48.1829 151.497 47.8535 151.697C47.5241 151.891 47.2555 152.159 47.0479 152.503C46.8402 152.84 46.6862 153.23 46.5859 153.674C46.4857 154.111 46.4355 154.58 46.4355 155.081ZM63.4834 158.239V149.377H66.3408V161H63.6553L63.4834 158.239ZM63.8486 155.833L64.7295 155.812C64.7295 156.592 64.6436 157.312 64.4717 157.971C64.2998 158.63 64.0312 159.202 63.666 159.689C63.3079 160.169 62.8532 160.545 62.3018 160.817C61.7503 161.082 61.0986 161.215 60.3467 161.215C59.7738 161.215 59.251 161.136 58.7783 160.979C58.3057 160.814 57.8975 160.56 57.5537 160.216C57.2171 159.865 56.9557 159.417 56.7695 158.873C56.5833 158.322 56.4902 157.659 56.4902 156.886V149.377H59.3262V156.907C59.3262 157.294 59.3691 157.616 59.4551 157.874C59.5482 158.132 59.6735 158.343 59.8311 158.508C59.9958 158.665 60.1855 158.78 60.4004 158.852C60.6224 158.916 60.8587 158.948 61.1094 158.948C61.7969 158.948 62.3376 158.812 62.7314 158.54C63.1325 158.261 63.4189 157.888 63.5908 157.423C63.7627 156.95 63.8486 156.42 63.8486 155.833ZM71.6904 151.751V161H68.8545V149.377H71.54L71.6904 151.751ZM75.2246 149.302L75.1816 151.944C75.0241 151.916 74.8451 151.894 74.6445 151.88C74.4512 151.866 74.2686 151.858 74.0967 151.858C73.6598 151.858 73.2767 151.919 72.9473 152.041C72.6178 152.156 72.3421 152.324 72.1201 152.546C71.9053 152.768 71.7406 153.04 71.626 153.362C71.5114 153.677 71.4469 154.035 71.4326 154.437L70.8203 154.361C70.8203 153.624 70.8955 152.94 71.0459 152.31C71.1963 151.679 71.4147 151.128 71.7012 150.655C71.9876 150.183 72.3457 149.817 72.7754 149.56C73.2122 149.295 73.7135 149.162 74.2793 149.162C74.4368 149.162 74.6051 149.176 74.7842 149.205C74.9704 149.227 75.1172 149.259 75.2246 149.302ZM85.043 144.5V161H82.1963V144.5H85.043ZM84.5918 154.77H83.7539C83.7539 153.96 83.8613 153.215 84.0762 152.535C84.291 151.855 84.5954 151.264 84.9893 150.763C85.3831 150.254 85.8522 149.86 86.3965 149.581C86.9479 149.302 87.5566 149.162 88.2227 149.162C88.7956 149.162 89.3148 149.244 89.7803 149.409C90.2529 149.567 90.6576 149.821 90.9941 150.172C91.3307 150.523 91.5885 150.981 91.7676 151.547C91.9538 152.105 92.0469 152.786 92.0469 153.588V161H89.1895V153.566C89.1895 153.029 89.1107 152.607 88.9531 152.299C88.7956 151.984 88.57 151.758 88.2764 151.622C87.9899 151.486 87.6354 151.418 87.2129 151.418C86.7546 151.418 86.3607 151.507 86.0312 151.687C85.7018 151.858 85.4297 152.098 85.2148 152.406C85.0072 152.714 84.8496 153.069 84.7422 153.47C84.6419 153.871 84.5918 154.304 84.5918 154.77ZM99.7705 161.215C98.8896 161.215 98.0983 161.072 97.3965 160.785C96.6947 160.499 96.0967 160.101 95.6025 159.593C95.1156 159.077 94.7396 158.479 94.4746 157.799C94.2168 157.111 94.0879 156.374 94.0879 155.586V155.156C94.0879 154.261 94.2168 153.448 94.4746 152.718C94.7324 151.98 95.0977 151.346 95.5703 150.816C96.043 150.286 96.6087 149.878 97.2676 149.592C97.9264 149.305 98.6533 149.162 99.4482 149.162C100.272 149.162 100.999 149.302 101.629 149.581C102.259 149.853 102.785 150.24 103.208 150.741C103.631 151.243 103.949 151.844 104.164 152.546C104.379 153.241 104.486 154.01 104.486 154.855V156.048H95.377V154.093H101.693V153.878C101.679 153.427 101.593 153.015 101.436 152.643C101.278 152.263 101.035 151.962 100.705 151.74C100.376 151.511 99.9495 151.396 99.4268 151.396C99.0042 151.396 98.6354 151.49 98.3203 151.676C98.0124 151.855 97.7546 152.113 97.5469 152.449C97.3464 152.779 97.196 153.173 97.0957 153.631C96.9954 154.089 96.9453 154.598 96.9453 155.156V155.586C96.9453 156.073 97.0098 156.524 97.1387 156.939C97.2747 157.355 97.4717 157.716 97.7295 158.024C97.9945 158.325 98.3096 158.562 98.6748 158.733C99.0472 158.898 99.4697 158.98 99.9424 158.98C100.537 158.98 101.074 158.866 101.554 158.637C102.041 158.4 102.463 158.053 102.821 157.595L104.25 159.077C104.007 159.435 103.677 159.779 103.262 160.108C102.854 160.438 102.359 160.706 101.779 160.914C101.199 161.115 100.53 161.215 99.7705 161.215ZM112.79 158.529V153.169C112.79 152.775 112.722 152.435 112.586 152.148C112.45 151.862 112.242 151.64 111.963 151.482C111.684 151.325 111.329 151.246 110.899 151.246C110.52 151.246 110.187 151.311 109.9 151.439C109.621 151.568 109.406 151.751 109.256 151.987C109.105 152.216 109.03 152.481 109.03 152.782H106.184C106.184 152.302 106.298 151.848 106.527 151.418C106.757 150.981 107.082 150.594 107.505 150.258C107.935 149.914 108.447 149.646 109.041 149.452C109.643 149.259 110.316 149.162 111.061 149.162C111.941 149.162 112.726 149.312 113.413 149.613C114.108 149.907 114.652 150.351 115.046 150.945C115.447 151.54 115.647 152.288 115.647 153.19V158.261C115.647 158.841 115.683 159.339 115.755 159.754C115.834 160.162 115.948 160.517 116.099 160.817V161H113.209C113.073 160.706 112.969 160.334 112.897 159.883C112.826 159.424 112.79 158.973 112.79 158.529ZM113.188 153.921L113.209 155.607H111.415C110.971 155.607 110.581 155.654 110.244 155.747C109.908 155.833 109.632 155.962 109.417 156.134C109.202 156.299 109.041 156.499 108.934 156.735C108.826 156.965 108.772 157.226 108.772 157.52C108.772 157.806 108.837 158.064 108.966 158.293C109.102 158.522 109.295 158.705 109.546 158.841C109.804 158.97 110.104 159.034 110.448 159.034C110.95 159.034 111.386 158.934 111.759 158.733C112.131 158.526 112.421 158.275 112.629 157.981C112.837 157.688 112.948 157.409 112.962 157.144L113.778 158.368C113.678 158.662 113.528 158.973 113.327 159.303C113.127 159.632 112.869 159.94 112.554 160.227C112.239 160.513 111.859 160.749 111.415 160.936C110.971 161.122 110.455 161.215 109.868 161.215C109.116 161.215 108.443 161.064 107.849 160.764C107.254 160.463 106.785 160.051 106.441 159.528C106.098 159.006 105.926 158.411 105.926 157.745C105.926 157.129 106.04 156.585 106.27 156.112C106.499 155.64 106.839 155.242 107.29 154.92C107.741 154.59 108.3 154.343 108.966 154.179C109.639 154.007 110.409 153.921 111.275 153.921H113.188ZM121.212 144.5V161H118.365V144.5H121.212ZM129.419 149.377V151.418H122.759V149.377H129.419ZM124.542 146.52H127.389V157.648C127.389 157.992 127.435 158.257 127.528 158.443C127.621 158.63 127.761 158.755 127.947 158.819C128.133 158.884 128.355 158.916 128.613 158.916C128.799 158.916 128.971 158.905 129.129 158.884C129.286 158.862 129.419 158.841 129.526 158.819L129.537 160.946C129.301 161.025 129.032 161.09 128.731 161.14C128.438 161.19 128.105 161.215 127.732 161.215C127.095 161.215 126.536 161.107 126.057 160.893C125.577 160.671 125.204 160.316 124.939 159.829C124.674 159.335 124.542 158.683 124.542 157.874V146.52ZM134.092 144.5V161H131.245V144.5H134.092ZM133.641 154.77H132.803C132.803 153.96 132.91 153.215 133.125 152.535C133.34 151.855 133.644 151.264 134.038 150.763C134.432 150.254 134.901 149.86 135.445 149.581C135.997 149.302 136.605 149.162 137.271 149.162C137.844 149.162 138.364 149.244 138.829 149.409C139.302 149.567 139.706 149.821 140.043 150.172C140.38 150.523 140.637 150.981 140.816 151.547C141.003 152.105 141.096 152.786 141.096 153.588V161H138.238V153.566C138.238 153.029 138.16 152.607 138.002 152.299C137.844 151.984 137.619 151.758 137.325 151.622C137.039 151.486 136.684 151.418 136.262 151.418C135.803 151.418 135.41 151.507 135.08 151.687C134.751 151.858 134.479 152.098 134.264 152.406C134.056 152.714 133.898 153.069 133.791 153.47C133.691 153.871 133.641 154.304 133.641 154.77Z" fill="#464646"/>
<path d="M44.6515 188.452C44.1874 187.987 43.4337 187.988 42.969 188.452L35.3968 196.024L32.0313 192.659C31.5666 192.194 30.8133 192.194 30.3485 192.659C29.8838 193.124 29.8838 193.877 30.3485 194.342L34.5553 198.548C34.7875 198.781 35.092 198.897 35.3965 198.897C35.701 198.897 36.0058 198.781 36.238 198.548L44.6515 190.135C45.1162 189.67 45.1162 188.917 44.6515 188.452Z" fill="#12D80D"/>
<path d="M44.6515 221.452C44.1874 220.987 43.4337 220.988 42.969 221.452L35.3968 229.024L32.0313 225.659C31.5666 225.194 30.8133 225.194 30.3485 225.659C29.8838 226.124 29.8838 226.877 30.3485 227.342L34.5553 231.548C34.7875 231.781 35.092 231.897 35.3965 231.897C35.701 231.897 36.0058 231.781 36.238 231.548L44.6515 223.135C45.1162 222.67 45.1162 221.917 44.6515 221.452Z" fill="#12D80D"/>
<path d="M44.6515 254.452C44.1874 253.987 43.4337 253.988 42.969 254.452L35.3968 262.024L32.0313 258.659C31.5666 258.194 30.8133 258.194 30.3485 258.659C29.8838 259.124 29.8838 259.877 30.3485 260.342L34.5553 264.548C34.7875 264.781 35.092 264.897 35.3965 264.897C35.701 264.897 36.0058 264.781 36.238 264.548L44.6515 256.135C45.1162 255.67 45.1162 254.917 44.6515 254.452Z" fill="#12D80D"/>
<rect x="30" y="30" width="85" height="85" rx="15" fill="#E7F1FC"/>
<g clip-path="url(#clip0_2617_33338)">
<path d="M64.5708 90.7226C65.5266 91.5618 66.5132 92.4276 67.5282 93.3253L67.5492 93.3438L70.9256 96.2602C71.3779 96.651 71.9394 96.8464 72.5008 96.8464C73.0622 96.8464 73.6238 96.6509 74.0762 96.2602L77.4519 93.3438L77.4728 93.3254C84.1566 87.4145 89.1678 82.8892 92.7933 78.4758C97.0278 73.3211 99.0002 68.6605 99.0002 63.8084C99.0002 55.0301 92.1239 48.1538 83.3458 48.1538C79.4005 48.1538 75.5022 49.6394 72.5008 52.2147C69.4986 49.6393 65.6003 48.1538 61.6548 48.1538C52.8764 48.1536 46 55.0301 46 63.8083C46 74.4194 53.3879 80.9052 64.5708 90.7226ZM62.8615 67.681H69.287V61.2552H75.7128V67.681H82.1385V74.1067H75.7128V80.5322H69.287V74.1067H62.8615V67.681Z" fill="#22A1E7"/>
</g>
<defs>
<clipPath id="clip0_2617_33338">
<rect width="53" height="53" fill="white" transform="translate(46 46)"/>
</clipPath>
</defs>
</svg>
