<svg width="295" height="369" viewBox="0 0 295 369" fill="none" xmlns="http://www.w3.org/2000/svg">
<rect x="0.5" y="0.5" width="294" height="368" rx="17.5" fill="white" stroke="#CDCDCD"/>
<path d="M64.7266 193.336V197.5C64.5859 197.708 64.362 197.943 64.0547 198.203C63.7474 198.458 63.3229 198.682 62.7812 198.875C62.2448 199.062 61.5521 199.156 60.7031 199.156C60.0104 199.156 59.3724 199.036 58.7891 198.797C58.2109 198.552 57.7083 198.198 57.2812 197.734C56.8594 197.266 56.5312 196.698 56.2969 196.031C56.0677 195.359 55.9531 194.599 55.9531 193.75V192.867C55.9531 192.018 56.0521 191.26 56.25 190.594C56.4531 189.927 56.75 189.362 57.1406 188.898C57.5312 188.43 58.0104 188.076 58.5781 187.836C59.1458 187.591 59.7969 187.469 60.5312 187.469C61.401 187.469 62.1276 187.62 62.7109 187.922C63.2995 188.219 63.7578 188.63 64.0859 189.156C64.4193 189.682 64.6328 190.281 64.7266 190.953H63.2188C63.151 190.542 63.0156 190.167 62.8125 189.828C62.6146 189.49 62.3307 189.219 61.9609 189.016C61.5911 188.807 61.1146 188.703 60.5312 188.703C60.0052 188.703 59.5495 188.799 59.1641 188.992C58.7786 189.185 58.4609 189.461 58.2109 189.82C57.9609 190.18 57.7734 190.615 57.6484 191.125C57.5286 191.635 57.4688 192.211 57.4688 192.852V193.75C57.4688 194.406 57.5443 194.992 57.6953 195.508C57.8516 196.023 58.0729 196.464 58.3594 196.828C58.6458 197.188 58.987 197.461 59.3828 197.648C59.7839 197.836 60.2266 197.93 60.7109 197.93C61.2474 197.93 61.6823 197.885 62.0156 197.797C62.349 197.703 62.6094 197.594 62.7969 197.469C62.9844 197.339 63.1276 197.216 63.2266 197.102V194.555H60.5938V193.336H64.7266ZM71.9922 197.555V193.203C71.9922 192.87 71.9245 192.581 71.7891 192.336C71.6589 192.086 71.4609 191.893 71.1953 191.758C70.9297 191.622 70.6016 191.555 70.2109 191.555C69.8464 191.555 69.526 191.617 69.25 191.742C68.9792 191.867 68.7656 192.031 68.6094 192.234C68.4583 192.438 68.3828 192.656 68.3828 192.891H66.9375C66.9375 192.589 67.0156 192.289 67.1719 191.992C67.3281 191.695 67.5521 191.427 67.8438 191.188C68.1406 190.943 68.4948 190.75 68.9062 190.609C69.3229 190.464 69.7865 190.391 70.2969 190.391C70.9115 190.391 71.4531 190.495 71.9219 190.703C72.3958 190.911 72.7656 191.227 73.0312 191.648C73.3021 192.065 73.4375 192.589 73.4375 193.219V197.156C73.4375 197.438 73.4609 197.737 73.5078 198.055C73.5599 198.372 73.6354 198.646 73.7344 198.875V199H72.2266C72.1536 198.833 72.0964 198.612 72.0547 198.336C72.013 198.055 71.9922 197.794 71.9922 197.555ZM72.2422 193.875L72.2578 194.891H70.7969C70.3854 194.891 70.0182 194.924 69.6953 194.992C69.3724 195.055 69.1016 195.151 68.8828 195.281C68.6641 195.411 68.4974 195.576 68.3828 195.773C68.2682 195.966 68.2109 196.193 68.2109 196.453C68.2109 196.719 68.2708 196.961 68.3906 197.18C68.5104 197.398 68.6901 197.573 68.9297 197.703C69.1745 197.828 69.474 197.891 69.8281 197.891C70.2708 197.891 70.6615 197.797 71 197.609C71.3385 197.422 71.6068 197.193 71.8047 196.922C72.0078 196.651 72.1172 196.388 72.1328 196.133L72.75 196.828C72.7135 197.047 72.6146 197.289 72.4531 197.555C72.2917 197.82 72.0755 198.076 71.8047 198.32C71.5391 198.56 71.2214 198.76 70.8516 198.922C70.487 199.078 70.0755 199.156 69.6172 199.156C69.0443 199.156 68.5417 199.044 68.1094 198.82C67.6823 198.596 67.349 198.297 67.1094 197.922C66.875 197.542 66.7578 197.117 66.7578 196.648C66.7578 196.195 66.8464 195.797 67.0234 195.453C67.2005 195.104 67.4557 194.815 67.7891 194.586C68.1224 194.352 68.5234 194.174 68.9922 194.055C69.4609 193.935 69.9844 193.875 70.5625 193.875H72.2422ZM81.0391 197.359V187H82.4922V199H81.1641L81.0391 197.359ZM75.3516 194.867V194.703C75.3516 194.057 75.4297 193.471 75.5859 192.945C75.7474 192.414 75.974 191.958 76.2656 191.578C76.5625 191.198 76.9141 190.906 77.3203 190.703C77.7318 190.495 78.1901 190.391 78.6953 190.391C79.2266 190.391 79.6901 190.484 80.0859 190.672C80.487 190.854 80.8255 191.122 81.1016 191.477C81.3828 191.826 81.6042 192.247 81.7656 192.742C81.9271 193.237 82.0391 193.797 82.1016 194.422V195.141C82.0443 195.76 81.9323 196.318 81.7656 196.812C81.6042 197.307 81.3828 197.729 81.1016 198.078C80.8255 198.427 80.487 198.695 80.0859 198.883C79.6849 199.065 79.2161 199.156 78.6797 199.156C78.1849 199.156 77.7318 199.049 77.3203 198.836C76.9141 198.622 76.5625 198.323 76.2656 197.938C75.974 197.552 75.7474 197.099 75.5859 196.578C75.4297 196.052 75.3516 195.482 75.3516 194.867ZM76.8047 194.703V194.867C76.8047 195.289 76.8464 195.685 76.9297 196.055C77.0182 196.424 77.1536 196.75 77.3359 197.031C77.5182 197.312 77.75 197.534 78.0312 197.695C78.3125 197.852 78.6484 197.93 79.0391 197.93C79.5182 197.93 79.9115 197.828 80.2188 197.625C80.5312 197.422 80.7812 197.154 80.9688 196.82C81.1562 196.487 81.3021 196.125 81.4062 195.734V193.852C81.3438 193.565 81.2526 193.289 81.1328 193.023C81.0182 192.753 80.8672 192.513 80.6797 192.305C80.4974 192.091 80.2708 191.922 80 191.797C79.7344 191.672 79.4193 191.609 79.0547 191.609C78.6589 191.609 78.3177 191.693 78.0312 191.859C77.75 192.021 77.5182 192.245 77.3359 192.531C77.1536 192.812 77.0182 193.141 76.9297 193.516C76.8464 193.885 76.8047 194.281 76.8047 194.703ZM90.2188 190.547H91.5312V198.82C91.5312 199.565 91.3802 200.201 91.0781 200.727C90.776 201.253 90.3542 201.651 89.8125 201.922C89.276 202.198 88.6562 202.336 87.9531 202.336C87.6615 202.336 87.3177 202.289 86.9219 202.195C86.5312 202.107 86.1458 201.953 85.7656 201.734C85.3906 201.521 85.0755 201.232 84.8203 200.867L85.5781 200.008C85.9323 200.435 86.3021 200.732 86.6875 200.898C87.0781 201.065 87.4635 201.148 87.8438 201.148C88.3021 201.148 88.6979 201.062 89.0312 200.891C89.3646 200.719 89.6224 200.464 89.8047 200.125C89.9922 199.792 90.0859 199.38 90.0859 198.891V192.406L90.2188 190.547ZM84.3984 194.867V194.703C84.3984 194.057 84.474 193.471 84.625 192.945C84.7812 192.414 85.0026 191.958 85.2891 191.578C85.5807 191.198 85.9323 190.906 86.3438 190.703C86.7552 190.495 87.2188 190.391 87.7344 190.391C88.2656 190.391 88.7292 190.484 89.125 190.672C89.526 190.854 89.8646 191.122 90.1406 191.477C90.4219 191.826 90.6432 192.247 90.8047 192.742C90.9661 193.237 91.0781 193.797 91.1406 194.422V195.141C91.0833 195.76 90.9714 196.318 90.8047 196.812C90.6432 197.307 90.4219 197.729 90.1406 198.078C89.8646 198.427 89.526 198.695 89.125 198.883C88.724 199.065 88.2552 199.156 87.7188 199.156C87.2135 199.156 86.7552 199.049 86.3438 198.836C85.9375 198.622 85.5885 198.323 85.2969 197.938C85.0052 197.552 84.7812 197.099 84.625 196.578C84.474 196.052 84.3984 195.482 84.3984 194.867ZM85.8438 194.703V194.867C85.8438 195.289 85.8854 195.685 85.9688 196.055C86.0573 196.424 86.1901 196.75 86.3672 197.031C86.5495 197.312 86.7812 197.534 87.0625 197.695C87.3438 197.852 87.6797 197.93 88.0703 197.93C88.5495 197.93 88.9453 197.828 89.2578 197.625C89.5703 197.422 89.8177 197.154 90 196.82C90.1875 196.487 90.3333 196.125 90.4375 195.734V193.852C90.3802 193.565 90.2917 193.289 90.1719 193.023C90.0573 192.753 89.9062 192.513 89.7188 192.305C89.5365 192.091 89.3099 191.922 89.0391 191.797C88.7682 191.672 88.4505 191.609 88.0859 191.609C87.6901 191.609 87.349 191.693 87.0625 191.859C86.7812 192.021 86.5495 192.245 86.3672 192.531C86.1901 192.812 86.0573 193.141 85.9688 193.516C85.8854 193.885 85.8438 194.281 85.8438 194.703ZM97.2344 199.156C96.6458 199.156 96.112 199.057 95.6328 198.859C95.1589 198.656 94.75 198.372 94.4062 198.008C94.0677 197.643 93.8073 197.211 93.625 196.711C93.4427 196.211 93.3516 195.664 93.3516 195.07V194.742C93.3516 194.055 93.4531 193.443 93.6562 192.906C93.8594 192.365 94.1354 191.906 94.4844 191.531C94.8333 191.156 95.2292 190.872 95.6719 190.68C96.1146 190.487 96.5729 190.391 97.0469 190.391C97.651 190.391 98.1719 190.495 98.6094 190.703C99.0521 190.911 99.4141 191.203 99.6953 191.578C99.9766 191.948 100.185 192.385 100.32 192.891C100.456 193.391 100.523 193.938 100.523 194.531V195.18H94.2109V194H99.0781V193.891C99.0573 193.516 98.9792 193.151 98.8438 192.797C98.7135 192.443 98.5052 192.151 98.2188 191.922C97.9323 191.693 97.5417 191.578 97.0469 191.578C96.7188 191.578 96.4167 191.648 96.1406 191.789C95.8646 191.924 95.6276 192.128 95.4297 192.398C95.2318 192.669 95.0781 193 94.9688 193.391C94.8594 193.781 94.8047 194.232 94.8047 194.742V195.07C94.8047 195.471 94.8594 195.849 94.9688 196.203C95.0833 196.552 95.2474 196.859 95.4609 197.125C95.6797 197.391 95.9427 197.599 96.25 197.75C96.5625 197.901 96.9167 197.977 97.3125 197.977C97.8229 197.977 98.2552 197.872 98.6094 197.664C98.9635 197.456 99.2734 197.177 99.5391 196.828L100.414 197.523C100.232 197.799 100 198.062 99.7188 198.312C99.4375 198.562 99.0911 198.766 98.6797 198.922C98.2734 199.078 97.7917 199.156 97.2344 199.156ZM105.75 190.547V191.656H101.18V190.547H105.75ZM102.727 188.492H104.172V196.906C104.172 197.193 104.216 197.409 104.305 197.555C104.393 197.701 104.508 197.797 104.648 197.844C104.789 197.891 104.94 197.914 105.102 197.914C105.221 197.914 105.346 197.904 105.477 197.883C105.612 197.857 105.714 197.836 105.781 197.82L105.789 199C105.674 199.036 105.523 199.07 105.336 199.102C105.154 199.138 104.932 199.156 104.672 199.156C104.318 199.156 103.992 199.086 103.695 198.945C103.398 198.805 103.161 198.57 102.984 198.242C102.812 197.909 102.727 197.461 102.727 196.898V188.492ZM114.797 197.969C115.141 197.969 115.458 197.898 115.75 197.758C116.042 197.617 116.281 197.424 116.469 197.18C116.656 196.93 116.763 196.646 116.789 196.328H118.164C118.138 196.828 117.969 197.294 117.656 197.727C117.349 198.154 116.945 198.5 116.445 198.766C115.945 199.026 115.396 199.156 114.797 199.156C114.161 199.156 113.607 199.044 113.133 198.82C112.664 198.596 112.273 198.289 111.961 197.898C111.654 197.508 111.422 197.06 111.266 196.555C111.115 196.044 111.039 195.505 111.039 194.938V194.609C111.039 194.042 111.115 193.505 111.266 193C111.422 192.49 111.654 192.039 111.961 191.648C112.273 191.258 112.664 190.951 113.133 190.727C113.607 190.503 114.161 190.391 114.797 190.391C115.458 190.391 116.036 190.526 116.531 190.797C117.026 191.062 117.414 191.427 117.695 191.891C117.982 192.349 118.138 192.87 118.164 193.453H116.789C116.763 193.104 116.664 192.789 116.492 192.508C116.326 192.227 116.096 192.003 115.805 191.836C115.518 191.664 115.182 191.578 114.797 191.578C114.354 191.578 113.982 191.667 113.68 191.844C113.383 192.016 113.146 192.25 112.969 192.547C112.797 192.839 112.672 193.164 112.594 193.523C112.521 193.878 112.484 194.24 112.484 194.609V194.938C112.484 195.307 112.521 195.672 112.594 196.031C112.667 196.391 112.789 196.716 112.961 197.008C113.138 197.299 113.375 197.534 113.672 197.711C113.974 197.883 114.349 197.969 114.797 197.969ZM119.406 194.867V194.688C119.406 194.078 119.495 193.513 119.672 192.992C119.849 192.466 120.104 192.01 120.438 191.625C120.771 191.234 121.174 190.932 121.648 190.719C122.122 190.5 122.654 190.391 123.242 190.391C123.836 190.391 124.37 190.5 124.844 190.719C125.323 190.932 125.729 191.234 126.062 191.625C126.401 192.01 126.659 192.466 126.836 192.992C127.013 193.513 127.102 194.078 127.102 194.688V194.867C127.102 195.477 127.013 196.042 126.836 196.562C126.659 197.083 126.401 197.539 126.062 197.93C125.729 198.315 125.326 198.617 124.852 198.836C124.383 199.049 123.852 199.156 123.258 199.156C122.664 199.156 122.13 199.049 121.656 198.836C121.182 198.617 120.776 198.315 120.438 197.93C120.104 197.539 119.849 197.083 119.672 196.562C119.495 196.042 119.406 195.477 119.406 194.867ZM120.852 194.688V194.867C120.852 195.289 120.901 195.688 121 196.062C121.099 196.432 121.247 196.76 121.445 197.047C121.648 197.333 121.901 197.56 122.203 197.727C122.505 197.888 122.857 197.969 123.258 197.969C123.654 197.969 124 197.888 124.297 197.727C124.599 197.56 124.849 197.333 125.047 197.047C125.245 196.76 125.393 196.432 125.492 196.062C125.596 195.688 125.648 195.289 125.648 194.867V194.688C125.648 194.271 125.596 193.878 125.492 193.508C125.393 193.133 125.242 192.802 125.039 192.516C124.841 192.224 124.591 191.995 124.289 191.828C123.992 191.661 123.643 191.578 123.242 191.578C122.846 191.578 122.497 191.661 122.195 191.828C121.898 191.995 121.648 192.224 121.445 192.516C121.247 192.802 121.099 193.133 121 193.508C120.901 193.878 120.852 194.271 120.852 194.688ZM131.359 197.695L133.672 190.547H135.148L132.109 199H131.141L131.359 197.695ZM129.43 190.547L131.812 197.734L131.977 199H131.008L127.945 190.547H129.43ZM139.938 199.156C139.349 199.156 138.815 199.057 138.336 198.859C137.862 198.656 137.453 198.372 137.109 198.008C136.771 197.643 136.51 197.211 136.328 196.711C136.146 196.211 136.055 195.664 136.055 195.07V194.742C136.055 194.055 136.156 193.443 136.359 192.906C136.562 192.365 136.839 191.906 137.188 191.531C137.536 191.156 137.932 190.872 138.375 190.68C138.818 190.487 139.276 190.391 139.75 190.391C140.354 190.391 140.875 190.495 141.312 190.703C141.755 190.911 142.117 191.203 142.398 191.578C142.68 191.948 142.888 192.385 143.023 192.891C143.159 193.391 143.227 193.938 143.227 194.531V195.18H136.914V194H141.781V193.891C141.76 193.516 141.682 193.151 141.547 192.797C141.417 192.443 141.208 192.151 140.922 191.922C140.635 191.693 140.245 191.578 139.75 191.578C139.422 191.578 139.12 191.648 138.844 191.789C138.568 191.924 138.331 192.128 138.133 192.398C137.935 192.669 137.781 193 137.672 193.391C137.562 193.781 137.508 194.232 137.508 194.742V195.07C137.508 195.471 137.562 195.849 137.672 196.203C137.786 196.552 137.951 196.859 138.164 197.125C138.383 197.391 138.646 197.599 138.953 197.75C139.266 197.901 139.62 197.977 140.016 197.977C140.526 197.977 140.958 197.872 141.312 197.664C141.667 197.456 141.977 197.177 142.242 196.828L143.117 197.523C142.935 197.799 142.703 198.062 142.422 198.312C142.141 198.562 141.794 198.766 141.383 198.922C140.977 199.078 140.495 199.156 139.938 199.156ZM146.359 191.875V199H144.914V190.547H146.32L146.359 191.875ZM149 190.5L148.992 191.844C148.872 191.818 148.758 191.802 148.648 191.797C148.544 191.786 148.424 191.781 148.289 191.781C147.956 191.781 147.661 191.833 147.406 191.938C147.151 192.042 146.935 192.188 146.758 192.375C146.581 192.562 146.44 192.786 146.336 193.047C146.237 193.302 146.172 193.583 146.141 193.891L145.734 194.125C145.734 193.615 145.784 193.135 145.883 192.688C145.987 192.24 146.146 191.844 146.359 191.5C146.573 191.151 146.844 190.88 147.172 190.688C147.505 190.49 147.901 190.391 148.359 190.391C148.464 190.391 148.583 190.404 148.719 190.43C148.854 190.451 148.948 190.474 149 190.5ZM63.1875 228.383H64.6875C64.6094 229.102 64.4036 229.745 64.0703 230.312C63.737 230.88 63.2656 231.331 62.6562 231.664C62.0469 231.992 61.2865 232.156 60.375 232.156C59.7083 232.156 59.1016 232.031 58.5547 231.781C58.013 231.531 57.5469 231.177 57.1562 230.719C56.7656 230.255 56.4635 229.701 56.25 229.055C56.0417 228.404 55.9375 227.68 55.9375 226.883V225.75C55.9375 224.953 56.0417 224.232 56.25 223.586C56.4635 222.935 56.7682 222.378 57.1641 221.914C57.5651 221.451 58.0469 221.094 58.6094 220.844C59.1719 220.594 59.8047 220.469 60.5078 220.469C61.3672 220.469 62.0938 220.63 62.6875 220.953C63.2812 221.276 63.7422 221.724 64.0703 222.297C64.4036 222.865 64.6094 223.523 64.6875 224.273H63.1875C63.1146 223.742 62.9792 223.286 62.7812 222.906C62.5833 222.521 62.3021 222.224 61.9375 222.016C61.5729 221.807 61.0964 221.703 60.5078 221.703C60.0026 221.703 59.5573 221.799 59.1719 221.992C58.7917 222.185 58.4714 222.458 58.2109 222.812C57.9557 223.167 57.763 223.591 57.6328 224.086C57.5026 224.581 57.4375 225.13 57.4375 225.734V226.883C57.4375 227.44 57.4948 227.964 57.6094 228.453C57.7292 228.943 57.9089 229.372 58.1484 229.742C58.388 230.112 58.6927 230.404 59.0625 230.617C59.4323 230.826 59.8698 230.93 60.375 230.93C61.0156 230.93 61.526 230.828 61.9062 230.625C62.2865 230.422 62.5729 230.13 62.7656 229.75C62.9635 229.37 63.1042 228.914 63.1875 228.383ZM67.9688 224.875V232H66.5234V223.547H67.9297L67.9688 224.875ZM70.6094 223.5L70.6016 224.844C70.4818 224.818 70.3672 224.802 70.2578 224.797C70.1536 224.786 70.0339 224.781 69.8984 224.781C69.5651 224.781 69.2708 224.833 69.0156 224.938C68.7604 225.042 68.5443 225.188 68.3672 225.375C68.1901 225.562 68.0495 225.786 67.9453 226.047C67.8464 226.302 67.7812 226.583 67.75 226.891L67.3438 227.125C67.3438 226.615 67.3932 226.135 67.4922 225.688C67.5964 225.24 67.7552 224.844 67.9688 224.5C68.1823 224.151 68.4531 223.88 68.7812 223.688C69.1146 223.49 69.5104 223.391 69.9688 223.391C70.0729 223.391 70.1927 223.404 70.3281 223.43C70.4635 223.451 70.5573 223.474 70.6094 223.5ZM77.1172 230.047V223.547H78.5703V232H77.1875L77.1172 230.047ZM77.3906 228.266L77.9922 228.25C77.9922 228.812 77.9323 229.333 77.8125 229.812C77.6979 230.286 77.5104 230.698 77.25 231.047C76.9896 231.396 76.6484 231.669 76.2266 231.867C75.8047 232.06 75.2917 232.156 74.6875 232.156C74.276 232.156 73.8984 232.096 73.5547 231.977C73.2161 231.857 72.9245 231.672 72.6797 231.422C72.4349 231.172 72.2448 230.846 72.1094 230.445C71.9792 230.044 71.9141 229.562 71.9141 229V223.547H73.3594V229.016C73.3594 229.396 73.401 229.711 73.4844 229.961C73.5729 230.206 73.6901 230.401 73.8359 230.547C73.987 230.688 74.1536 230.786 74.3359 230.844C74.5234 230.901 74.7161 230.93 74.9141 230.93C75.5286 230.93 76.0156 230.812 76.375 230.578C76.7344 230.339 76.9922 230.018 77.1484 229.617C77.3099 229.211 77.3906 228.76 77.3906 228.266ZM82.3438 223.547V232H80.8906V223.547H82.3438ZM80.7812 221.305C80.7812 221.07 80.8516 220.872 80.9922 220.711C81.138 220.549 81.3516 220.469 81.6328 220.469C81.9089 220.469 82.1198 220.549 82.2656 220.711C82.4167 220.872 82.4922 221.07 82.4922 221.305C82.4922 221.529 82.4167 221.721 82.2656 221.883C82.1198 222.039 81.9089 222.117 81.6328 222.117C81.3516 222.117 81.138 222.039 80.9922 221.883C80.8516 221.721 80.7812 221.529 80.7812 221.305ZM89.5859 229.758C89.5859 229.549 89.5391 229.357 89.4453 229.18C89.3568 228.997 89.1719 228.833 88.8906 228.688C88.6146 228.536 88.1979 228.406 87.6406 228.297C87.1719 228.198 86.7474 228.081 86.3672 227.945C85.9922 227.81 85.6719 227.646 85.4062 227.453C85.1458 227.26 84.9453 227.034 84.8047 226.773C84.6641 226.513 84.5938 226.208 84.5938 225.859C84.5938 225.526 84.6667 225.211 84.8125 224.914C84.9635 224.617 85.1745 224.354 85.4453 224.125C85.7214 223.896 86.0521 223.716 86.4375 223.586C86.8229 223.456 87.2526 223.391 87.7266 223.391C88.4036 223.391 88.9818 223.51 89.4609 223.75C89.9401 223.99 90.3073 224.31 90.5625 224.711C90.8177 225.107 90.9453 225.547 90.9453 226.031H89.5C89.5 225.797 89.4297 225.57 89.2891 225.352C89.1536 225.128 88.9531 224.943 88.6875 224.797C88.4271 224.651 88.1068 224.578 87.7266 224.578C87.3255 224.578 87 224.641 86.75 224.766C86.5052 224.885 86.3255 225.039 86.2109 225.227C86.1016 225.414 86.0469 225.612 86.0469 225.82C86.0469 225.977 86.0729 226.117 86.125 226.242C86.1823 226.362 86.2812 226.474 86.4219 226.578C86.5625 226.677 86.7604 226.771 87.0156 226.859C87.2708 226.948 87.5964 227.036 87.9922 227.125C88.6849 227.281 89.2552 227.469 89.7031 227.688C90.151 227.906 90.4844 228.174 90.7031 228.492C90.9219 228.81 91.0312 229.195 91.0312 229.648C91.0312 230.018 90.9531 230.357 90.7969 230.664C90.6458 230.971 90.4245 231.237 90.1328 231.461C89.8464 231.68 89.5026 231.852 89.1016 231.977C88.7057 232.096 88.2604 232.156 87.7656 232.156C87.0208 232.156 86.3906 232.023 85.875 231.758C85.3594 231.492 84.9688 231.148 84.7031 230.727C84.4375 230.305 84.3047 229.859 84.3047 229.391H85.7578C85.7786 229.786 85.8932 230.102 86.1016 230.336C86.3099 230.565 86.5651 230.729 86.8672 230.828C87.1693 230.922 87.4688 230.969 87.7656 230.969C88.1615 230.969 88.4922 230.917 88.7578 230.812C89.0286 230.708 89.2344 230.565 89.375 230.383C89.5156 230.201 89.5859 229.992 89.5859 229.758ZM96.4375 232.156C95.849 232.156 95.3151 232.057 94.8359 231.859C94.362 231.656 93.9531 231.372 93.6094 231.008C93.2708 230.643 93.0104 230.211 92.8281 229.711C92.6458 229.211 92.5547 228.664 92.5547 228.07V227.742C92.5547 227.055 92.6562 226.443 92.8594 225.906C93.0625 225.365 93.3385 224.906 93.6875 224.531C94.0365 224.156 94.4323 223.872 94.875 223.68C95.3177 223.487 95.776 223.391 96.25 223.391C96.8542 223.391 97.375 223.495 97.8125 223.703C98.2552 223.911 98.6172 224.203 98.8984 224.578C99.1797 224.948 99.388 225.385 99.5234 225.891C99.6589 226.391 99.7266 226.938 99.7266 227.531V228.18H93.4141V227H98.2812V226.891C98.2604 226.516 98.1823 226.151 98.0469 225.797C97.9167 225.443 97.7083 225.151 97.4219 224.922C97.1354 224.693 96.7448 224.578 96.25 224.578C95.9219 224.578 95.6198 224.648 95.3438 224.789C95.0677 224.924 94.8307 225.128 94.6328 225.398C94.4349 225.669 94.2812 226 94.1719 226.391C94.0625 226.781 94.0078 227.232 94.0078 227.742V228.07C94.0078 228.471 94.0625 228.849 94.1719 229.203C94.2865 229.552 94.4505 229.859 94.6641 230.125C94.8828 230.391 95.1458 230.599 95.4531 230.75C95.7656 230.901 96.1198 230.977 96.5156 230.977C97.026 230.977 97.4583 230.872 97.8125 230.664C98.1667 230.456 98.4766 230.177 98.7422 229.828L99.6172 230.523C99.4349 230.799 99.2031 231.062 98.9219 231.312C98.6406 231.562 98.2943 231.766 97.8828 231.922C97.4766 232.078 96.9948 232.156 96.4375 232.156ZM108.766 230.969C109.109 230.969 109.427 230.898 109.719 230.758C110.01 230.617 110.25 230.424 110.438 230.18C110.625 229.93 110.732 229.646 110.758 229.328H112.133C112.107 229.828 111.938 230.294 111.625 230.727C111.318 231.154 110.914 231.5 110.414 231.766C109.914 232.026 109.365 232.156 108.766 232.156C108.13 232.156 107.576 232.044 107.102 231.82C106.633 231.596 106.242 231.289 105.93 230.898C105.622 230.508 105.391 230.06 105.234 229.555C105.083 229.044 105.008 228.505 105.008 227.938V227.609C105.008 227.042 105.083 226.505 105.234 226C105.391 225.49 105.622 225.039 105.93 224.648C106.242 224.258 106.633 223.951 107.102 223.727C107.576 223.503 108.13 223.391 108.766 223.391C109.427 223.391 110.005 223.526 110.5 223.797C110.995 224.062 111.383 224.427 111.664 224.891C111.951 225.349 112.107 225.87 112.133 226.453H110.758C110.732 226.104 110.633 225.789 110.461 225.508C110.294 225.227 110.065 225.003 109.773 224.836C109.487 224.664 109.151 224.578 108.766 224.578C108.323 224.578 107.951 224.667 107.648 224.844C107.352 225.016 107.115 225.25 106.938 225.547C106.766 225.839 106.641 226.164 106.562 226.523C106.49 226.878 106.453 227.24 106.453 227.609V227.938C106.453 228.307 106.49 228.672 106.562 229.031C106.635 229.391 106.758 229.716 106.93 230.008C107.107 230.299 107.344 230.534 107.641 230.711C107.943 230.883 108.318 230.969 108.766 230.969ZM113.375 227.867V227.688C113.375 227.078 113.464 226.513 113.641 225.992C113.818 225.466 114.073 225.01 114.406 224.625C114.74 224.234 115.143 223.932 115.617 223.719C116.091 223.5 116.622 223.391 117.211 223.391C117.805 223.391 118.339 223.5 118.812 223.719C119.292 223.932 119.698 224.234 120.031 224.625C120.37 225.01 120.628 225.466 120.805 225.992C120.982 226.513 121.07 227.078 121.07 227.688V227.867C121.07 228.477 120.982 229.042 120.805 229.562C120.628 230.083 120.37 230.539 120.031 230.93C119.698 231.315 119.294 231.617 118.82 231.836C118.352 232.049 117.82 232.156 117.227 232.156C116.633 232.156 116.099 232.049 115.625 231.836C115.151 231.617 114.745 231.315 114.406 230.93C114.073 230.539 113.818 230.083 113.641 229.562C113.464 229.042 113.375 228.477 113.375 227.867ZM114.82 227.688V227.867C114.82 228.289 114.87 228.688 114.969 229.062C115.068 229.432 115.216 229.76 115.414 230.047C115.617 230.333 115.87 230.56 116.172 230.727C116.474 230.888 116.826 230.969 117.227 230.969C117.622 230.969 117.969 230.888 118.266 230.727C118.568 230.56 118.818 230.333 119.016 230.047C119.214 229.76 119.362 229.432 119.461 229.062C119.565 228.688 119.617 228.289 119.617 227.867V227.688C119.617 227.271 119.565 226.878 119.461 226.508C119.362 226.133 119.211 225.802 119.008 225.516C118.81 225.224 118.56 224.995 118.258 224.828C117.961 224.661 117.612 224.578 117.211 224.578C116.815 224.578 116.466 224.661 116.164 224.828C115.867 224.995 115.617 225.224 115.414 225.516C115.216 225.802 115.068 226.133 114.969 226.508C114.87 226.878 114.82 227.271 114.82 227.688ZM125.328 230.695L127.641 223.547H129.117L126.078 232H125.109L125.328 230.695ZM123.398 223.547L125.781 230.734L125.945 232H124.977L121.914 223.547H123.398ZM133.906 232.156C133.318 232.156 132.784 232.057 132.305 231.859C131.831 231.656 131.422 231.372 131.078 231.008C130.74 230.643 130.479 230.211 130.297 229.711C130.115 229.211 130.023 228.664 130.023 228.07V227.742C130.023 227.055 130.125 226.443 130.328 225.906C130.531 225.365 130.807 224.906 131.156 224.531C131.505 224.156 131.901 223.872 132.344 223.68C132.786 223.487 133.245 223.391 133.719 223.391C134.323 223.391 134.844 223.495 135.281 223.703C135.724 223.911 136.086 224.203 136.367 224.578C136.648 224.948 136.857 225.385 136.992 225.891C137.128 226.391 137.195 226.938 137.195 227.531V228.18H130.883V227H135.75V226.891C135.729 226.516 135.651 226.151 135.516 225.797C135.385 225.443 135.177 225.151 134.891 224.922C134.604 224.693 134.214 224.578 133.719 224.578C133.391 224.578 133.089 224.648 132.812 224.789C132.536 224.924 132.299 225.128 132.102 225.398C131.904 225.669 131.75 226 131.641 226.391C131.531 226.781 131.477 227.232 131.477 227.742V228.07C131.477 228.471 131.531 228.849 131.641 229.203C131.755 229.552 131.919 229.859 132.133 230.125C132.352 230.391 132.615 230.599 132.922 230.75C133.234 230.901 133.589 230.977 133.984 230.977C134.495 230.977 134.927 230.872 135.281 230.664C135.635 230.456 135.945 230.177 136.211 229.828L137.086 230.523C136.904 230.799 136.672 231.062 136.391 231.312C136.109 231.562 135.763 231.766 135.352 231.922C134.945 232.078 134.464 232.156 133.906 232.156ZM140.328 224.875V232H138.883V223.547H140.289L140.328 224.875ZM142.969 223.5L142.961 224.844C142.841 224.818 142.727 224.802 142.617 224.797C142.513 224.786 142.393 224.781 142.258 224.781C141.924 224.781 141.63 224.833 141.375 224.938C141.12 225.042 140.904 225.188 140.727 225.375C140.549 225.562 140.409 225.786 140.305 226.047C140.206 226.302 140.141 226.583 140.109 226.891L139.703 227.125C139.703 226.615 139.753 226.135 139.852 225.688C139.956 225.24 140.115 224.844 140.328 224.5C140.542 224.151 140.812 223.88 141.141 223.688C141.474 223.49 141.87 223.391 142.328 223.391C142.432 223.391 142.552 223.404 142.688 223.43C142.823 223.451 142.917 223.474 142.969 223.5ZM60.5156 260.539H57.4766V259.312H60.5156C61.1042 259.312 61.5807 259.219 61.9453 259.031C62.3099 258.844 62.5755 258.583 62.7422 258.25C62.9141 257.917 63 257.536 63 257.109C63 256.719 62.9141 256.352 62.7422 256.008C62.5755 255.664 62.3099 255.388 61.9453 255.18C61.5807 254.966 61.1042 254.859 60.5156 254.859H57.8281V265H56.3203V253.625H60.5156C61.375 253.625 62.1016 253.773 62.6953 254.07C63.2891 254.367 63.7396 254.779 64.0469 255.305C64.3542 255.826 64.5078 256.422 64.5078 257.094C64.5078 257.823 64.3542 258.445 64.0469 258.961C63.7396 259.477 63.2891 259.87 62.6953 260.141C62.1016 260.406 61.375 260.539 60.5156 260.539ZM69.5938 265.156C69.0052 265.156 68.4714 265.057 67.9922 264.859C67.5182 264.656 67.1094 264.372 66.7656 264.008C66.4271 263.643 66.1667 263.211 65.9844 262.711C65.8021 262.211 65.7109 261.664 65.7109 261.07V260.742C65.7109 260.055 65.8125 259.443 66.0156 258.906C66.2188 258.365 66.4948 257.906 66.8438 257.531C67.1927 257.156 67.5885 256.872 68.0312 256.68C68.474 256.487 68.9323 256.391 69.4062 256.391C70.0104 256.391 70.5312 256.495 70.9688 256.703C71.4115 256.911 71.7734 257.203 72.0547 257.578C72.3359 257.948 72.5443 258.385 72.6797 258.891C72.8151 259.391 72.8828 259.938 72.8828 260.531V261.18H66.5703V260H71.4375V259.891C71.4167 259.516 71.3385 259.151 71.2031 258.797C71.0729 258.443 70.8646 258.151 70.5781 257.922C70.2917 257.693 69.901 257.578 69.4062 257.578C69.0781 257.578 68.776 257.648 68.5 257.789C68.224 257.924 67.987 258.128 67.7891 258.398C67.5911 258.669 67.4375 259 67.3281 259.391C67.2188 259.781 67.1641 260.232 67.1641 260.742V261.07C67.1641 261.471 67.2188 261.849 67.3281 262.203C67.4427 262.552 67.6068 262.859 67.8203 263.125C68.0391 263.391 68.3021 263.599 68.6094 263.75C68.9219 263.901 69.276 263.977 69.6719 263.977C70.1823 263.977 70.6146 263.872 70.9688 263.664C71.3229 263.456 71.6328 263.177 71.8984 262.828L72.7734 263.523C72.5911 263.799 72.3594 264.062 72.0781 264.312C71.7969 264.562 71.4505 264.766 71.0391 264.922C70.6328 265.078 70.151 265.156 69.5938 265.156ZM76.0156 257.875V265H74.5703V256.547H75.9766L76.0156 257.875ZM78.6562 256.5L78.6484 257.844C78.5286 257.818 78.4141 257.802 78.3047 257.797C78.2005 257.786 78.0807 257.781 77.9453 257.781C77.612 257.781 77.3177 257.833 77.0625 257.938C76.8073 258.042 76.5911 258.188 76.4141 258.375C76.237 258.562 76.0964 258.786 75.9922 259.047C75.8932 259.302 75.8281 259.583 75.7969 259.891L75.3906 260.125C75.3906 259.615 75.4401 259.135 75.5391 258.688C75.6432 258.24 75.8021 257.844 76.0156 257.5C76.2292 257.151 76.5 256.88 76.8281 256.688C77.1615 256.49 77.5573 256.391 78.0156 256.391C78.1198 256.391 78.2396 256.404 78.375 256.43C78.5104 256.451 78.6042 256.474 78.6562 256.5ZM84.9141 262.758C84.9141 262.549 84.8672 262.357 84.7734 262.18C84.6849 261.997 84.5 261.833 84.2188 261.688C83.9427 261.536 83.526 261.406 82.9688 261.297C82.5 261.198 82.0755 261.081 81.6953 260.945C81.3203 260.81 81 260.646 80.7344 260.453C80.474 260.26 80.2734 260.034 80.1328 259.773C79.9922 259.513 79.9219 259.208 79.9219 258.859C79.9219 258.526 79.9948 258.211 80.1406 257.914C80.2917 257.617 80.5026 257.354 80.7734 257.125C81.0495 256.896 81.3802 256.716 81.7656 256.586C82.151 256.456 82.5807 256.391 83.0547 256.391C83.7318 256.391 84.3099 256.51 84.7891 256.75C85.2682 256.99 85.6354 257.31 85.8906 257.711C86.1458 258.107 86.2734 258.547 86.2734 259.031H84.8281C84.8281 258.797 84.7578 258.57 84.6172 258.352C84.4818 258.128 84.2812 257.943 84.0156 257.797C83.7552 257.651 83.4349 257.578 83.0547 257.578C82.6536 257.578 82.3281 257.641 82.0781 257.766C81.8333 257.885 81.6536 258.039 81.5391 258.227C81.4297 258.414 81.375 258.612 81.375 258.82C81.375 258.977 81.401 259.117 81.4531 259.242C81.5104 259.362 81.6094 259.474 81.75 259.578C81.8906 259.677 82.0885 259.771 82.3438 259.859C82.599 259.948 82.9245 260.036 83.3203 260.125C84.013 260.281 84.5833 260.469 85.0312 260.688C85.4792 260.906 85.8125 261.174 86.0312 261.492C86.25 261.81 86.3594 262.195 86.3594 262.648C86.3594 263.018 86.2812 263.357 86.125 263.664C85.974 263.971 85.7526 264.237 85.4609 264.461C85.1745 264.68 84.8307 264.852 84.4297 264.977C84.0339 265.096 83.5885 265.156 83.0938 265.156C82.349 265.156 81.7188 265.023 81.2031 264.758C80.6875 264.492 80.2969 264.148 80.0312 263.727C79.7656 263.305 79.6328 262.859 79.6328 262.391H81.0859C81.1068 262.786 81.2214 263.102 81.4297 263.336C81.638 263.565 81.8932 263.729 82.1953 263.828C82.4974 263.922 82.7969 263.969 83.0938 263.969C83.4896 263.969 83.8203 263.917 84.0859 263.812C84.3568 263.708 84.5625 263.565 84.7031 263.383C84.8438 263.201 84.9141 262.992 84.9141 262.758ZM87.875 260.867V260.688C87.875 260.078 87.9635 259.513 88.1406 258.992C88.3177 258.466 88.5729 258.01 88.9062 257.625C89.2396 257.234 89.6432 256.932 90.1172 256.719C90.5911 256.5 91.1224 256.391 91.7109 256.391C92.3047 256.391 92.8385 256.5 93.3125 256.719C93.7917 256.932 94.1979 257.234 94.5312 257.625C94.8698 258.01 95.1276 258.466 95.3047 258.992C95.4818 259.513 95.5703 260.078 95.5703 260.688V260.867C95.5703 261.477 95.4818 262.042 95.3047 262.562C95.1276 263.083 94.8698 263.539 94.5312 263.93C94.1979 264.315 93.7943 264.617 93.3203 264.836C92.8516 265.049 92.3203 265.156 91.7266 265.156C91.1328 265.156 90.599 265.049 90.125 264.836C89.651 264.617 89.2448 264.315 88.9062 263.93C88.5729 263.539 88.3177 263.083 88.1406 262.562C87.9635 262.042 87.875 261.477 87.875 260.867ZM89.3203 260.688V260.867C89.3203 261.289 89.3698 261.688 89.4688 262.062C89.5677 262.432 89.7161 262.76 89.9141 263.047C90.1172 263.333 90.3698 263.56 90.6719 263.727C90.974 263.888 91.3255 263.969 91.7266 263.969C92.1224 263.969 92.4688 263.888 92.7656 263.727C93.0677 263.56 93.3177 263.333 93.5156 263.047C93.7135 262.76 93.862 262.432 93.9609 262.062C94.0651 261.688 94.1172 261.289 94.1172 260.867V260.688C94.1172 260.271 94.0651 259.878 93.9609 259.508C93.862 259.133 93.7109 258.802 93.5078 258.516C93.3099 258.224 93.0599 257.995 92.7578 257.828C92.4609 257.661 92.112 257.578 91.7109 257.578C91.3151 257.578 90.9661 257.661 90.6641 257.828C90.3672 257.995 90.1172 258.224 89.9141 258.516C89.7161 258.802 89.5677 259.133 89.4688 259.508C89.3698 259.878 89.3203 260.271 89.3203 260.688ZM98.8281 258.352V265H97.3828V256.547H98.75L98.8281 258.352ZM98.4844 260.453L97.8828 260.43C97.888 259.852 97.974 259.318 98.1406 258.828C98.3073 258.333 98.5417 257.904 98.8438 257.539C99.1458 257.174 99.5052 256.893 99.9219 256.695C100.344 256.492 100.81 256.391 101.32 256.391C101.737 256.391 102.112 256.448 102.445 256.562C102.779 256.672 103.062 256.849 103.297 257.094C103.536 257.339 103.719 257.656 103.844 258.047C103.969 258.432 104.031 258.904 104.031 259.461V265H102.578V259.445C102.578 259.003 102.513 258.648 102.383 258.383C102.253 258.112 102.062 257.917 101.812 257.797C101.562 257.672 101.255 257.609 100.891 257.609C100.531 257.609 100.203 257.685 99.9062 257.836C99.6146 257.987 99.362 258.195 99.1484 258.461C98.9401 258.727 98.776 259.031 98.6562 259.375C98.5417 259.714 98.4844 260.073 98.4844 260.453ZM111.211 263.555V259.203C111.211 258.87 111.143 258.581 111.008 258.336C110.878 258.086 110.68 257.893 110.414 257.758C110.148 257.622 109.82 257.555 109.43 257.555C109.065 257.555 108.745 257.617 108.469 257.742C108.198 257.867 107.984 258.031 107.828 258.234C107.677 258.438 107.602 258.656 107.602 258.891H106.156C106.156 258.589 106.234 258.289 106.391 257.992C106.547 257.695 106.771 257.427 107.062 257.188C107.359 256.943 107.714 256.75 108.125 256.609C108.542 256.464 109.005 256.391 109.516 256.391C110.13 256.391 110.672 256.495 111.141 256.703C111.615 256.911 111.984 257.227 112.25 257.648C112.521 258.065 112.656 258.589 112.656 259.219V263.156C112.656 263.438 112.68 263.737 112.727 264.055C112.779 264.372 112.854 264.646 112.953 264.875V265H111.445C111.372 264.833 111.315 264.612 111.273 264.336C111.232 264.055 111.211 263.794 111.211 263.555ZM111.461 259.875L111.477 260.891H110.016C109.604 260.891 109.237 260.924 108.914 260.992C108.591 261.055 108.32 261.151 108.102 261.281C107.883 261.411 107.716 261.576 107.602 261.773C107.487 261.966 107.43 262.193 107.43 262.453C107.43 262.719 107.49 262.961 107.609 263.18C107.729 263.398 107.909 263.573 108.148 263.703C108.393 263.828 108.693 263.891 109.047 263.891C109.49 263.891 109.88 263.797 110.219 263.609C110.557 263.422 110.826 263.193 111.023 262.922C111.227 262.651 111.336 262.388 111.352 262.133L111.969 262.828C111.932 263.047 111.833 263.289 111.672 263.555C111.51 263.82 111.294 264.076 111.023 264.32C110.758 264.56 110.44 264.76 110.07 264.922C109.706 265.078 109.294 265.156 108.836 265.156C108.263 265.156 107.76 265.044 107.328 264.82C106.901 264.596 106.568 264.297 106.328 263.922C106.094 263.542 105.977 263.117 105.977 262.648C105.977 262.195 106.065 261.797 106.242 261.453C106.419 261.104 106.674 260.815 107.008 260.586C107.341 260.352 107.742 260.174 108.211 260.055C108.68 259.935 109.203 259.875 109.781 259.875H111.461ZM116.5 253V265H115.047V253H116.5ZM124.359 253V265H122.906V253H124.359ZM128.25 256.547V265H126.797V256.547H128.25ZM126.688 254.305C126.688 254.07 126.758 253.872 126.898 253.711C127.044 253.549 127.258 253.469 127.539 253.469C127.815 253.469 128.026 253.549 128.172 253.711C128.323 253.872 128.398 254.07 128.398 254.305C128.398 254.529 128.323 254.721 128.172 254.883C128.026 255.039 127.815 255.117 127.539 255.117C127.258 255.117 127.044 255.039 126.898 254.883C126.758 254.721 126.688 254.529 126.688 254.305ZM135.555 263.555V259.203C135.555 258.87 135.487 258.581 135.352 258.336C135.221 258.086 135.023 257.893 134.758 257.758C134.492 257.622 134.164 257.555 133.773 257.555C133.409 257.555 133.089 257.617 132.812 257.742C132.542 257.867 132.328 258.031 132.172 258.234C132.021 258.438 131.945 258.656 131.945 258.891H130.5C130.5 258.589 130.578 258.289 130.734 257.992C130.891 257.695 131.115 257.427 131.406 257.188C131.703 256.943 132.057 256.75 132.469 256.609C132.885 256.464 133.349 256.391 133.859 256.391C134.474 256.391 135.016 256.495 135.484 256.703C135.958 256.911 136.328 257.227 136.594 257.648C136.865 258.065 137 258.589 137 259.219V263.156C137 263.438 137.023 263.737 137.07 264.055C137.122 264.372 137.198 264.646 137.297 264.875V265H135.789C135.716 264.833 135.659 264.612 135.617 264.336C135.576 264.055 135.555 263.794 135.555 263.555ZM135.805 259.875L135.82 260.891H134.359C133.948 260.891 133.581 260.924 133.258 260.992C132.935 261.055 132.664 261.151 132.445 261.281C132.227 261.411 132.06 261.576 131.945 261.773C131.831 261.966 131.773 262.193 131.773 262.453C131.773 262.719 131.833 262.961 131.953 263.18C132.073 263.398 132.253 263.573 132.492 263.703C132.737 263.828 133.036 263.891 133.391 263.891C133.833 263.891 134.224 263.797 134.562 263.609C134.901 263.422 135.169 263.193 135.367 262.922C135.57 262.651 135.68 262.388 135.695 262.133L136.312 262.828C136.276 263.047 136.177 263.289 136.016 263.555C135.854 263.82 135.638 264.076 135.367 264.32C135.102 264.56 134.784 264.76 134.414 264.922C134.049 265.078 133.638 265.156 133.18 265.156C132.607 265.156 132.104 265.044 131.672 264.82C131.245 264.596 130.911 264.297 130.672 263.922C130.438 263.542 130.32 263.117 130.32 262.648C130.32 262.195 130.409 261.797 130.586 261.453C130.763 261.104 131.018 260.815 131.352 260.586C131.685 260.352 132.086 260.174 132.555 260.055C133.023 259.935 133.547 259.875 134.125 259.875H135.805ZM139.266 253H140.719V263.359L140.594 265H139.266V253ZM146.43 260.703V260.867C146.43 261.482 146.357 262.052 146.211 262.578C146.065 263.099 145.852 263.552 145.57 263.938C145.289 264.323 144.945 264.622 144.539 264.836C144.133 265.049 143.667 265.156 143.141 265.156C142.604 265.156 142.133 265.065 141.727 264.883C141.326 264.695 140.987 264.427 140.711 264.078C140.435 263.729 140.214 263.307 140.047 262.812C139.885 262.318 139.773 261.76 139.711 261.141V260.422C139.773 259.797 139.885 259.237 140.047 258.742C140.214 258.247 140.435 257.826 140.711 257.477C140.987 257.122 141.326 256.854 141.727 256.672C142.128 256.484 142.594 256.391 143.125 256.391C143.656 256.391 144.128 256.495 144.539 256.703C144.951 256.906 145.294 257.198 145.57 257.578C145.852 257.958 146.065 258.414 146.211 258.945C146.357 259.471 146.43 260.057 146.43 260.703ZM144.977 260.867V260.703C144.977 260.281 144.938 259.885 144.859 259.516C144.781 259.141 144.656 258.812 144.484 258.531C144.312 258.245 144.086 258.021 143.805 257.859C143.523 257.693 143.177 257.609 142.766 257.609C142.401 257.609 142.083 257.672 141.812 257.797C141.547 257.922 141.32 258.091 141.133 258.305C140.945 258.513 140.792 258.753 140.672 259.023C140.557 259.289 140.471 259.565 140.414 259.852V261.734C140.497 262.099 140.633 262.451 140.82 262.789C141.013 263.122 141.268 263.396 141.586 263.609C141.909 263.823 142.307 263.93 142.781 263.93C143.172 263.93 143.505 263.852 143.781 263.695C144.062 263.534 144.289 263.312 144.461 263.031C144.638 262.75 144.768 262.424 144.852 262.055C144.935 261.685 144.977 261.289 144.977 260.867ZM149.828 256.547V265H148.375V256.547H149.828ZM148.266 254.305C148.266 254.07 148.336 253.872 148.477 253.711C148.622 253.549 148.836 253.469 149.117 253.469C149.393 253.469 149.604 253.549 149.75 253.711C149.901 253.872 149.977 254.07 149.977 254.305C149.977 254.529 149.901 254.721 149.75 254.883C149.604 255.039 149.393 255.117 149.117 255.117C148.836 255.117 148.622 255.039 148.477 254.883C148.336 254.721 148.266 254.529 148.266 254.305ZM153.719 253V265H152.266V253H153.719ZM157.609 256.547V265H156.156V256.547H157.609ZM156.047 254.305C156.047 254.07 156.117 253.872 156.258 253.711C156.404 253.549 156.617 253.469 156.898 253.469C157.174 253.469 157.385 253.549 157.531 253.711C157.682 253.872 157.758 254.07 157.758 254.305C157.758 254.529 157.682 254.721 157.531 254.883C157.385 255.039 157.174 255.117 156.898 255.117C156.617 255.117 156.404 255.039 156.258 254.883C156.117 254.721 156.047 254.529 156.047 254.305ZM163.469 256.547V257.656H158.898V256.547H163.469ZM160.445 254.492H161.891V262.906C161.891 263.193 161.935 263.409 162.023 263.555C162.112 263.701 162.227 263.797 162.367 263.844C162.508 263.891 162.659 263.914 162.82 263.914C162.94 263.914 163.065 263.904 163.195 263.883C163.331 263.857 163.432 263.836 163.5 263.82L163.508 265C163.393 265.036 163.242 265.07 163.055 265.102C162.872 265.138 162.651 265.156 162.391 265.156C162.036 265.156 161.711 265.086 161.414 264.945C161.117 264.805 160.88 264.57 160.703 264.242C160.531 263.909 160.445 263.461 160.445 262.898V254.492ZM167.539 264.125L169.891 256.547H171.438L168.047 266.305C167.969 266.513 167.865 266.737 167.734 266.977C167.609 267.221 167.448 267.453 167.25 267.672C167.052 267.891 166.812 268.068 166.531 268.203C166.255 268.344 165.924 268.414 165.539 268.414C165.424 268.414 165.279 268.398 165.102 268.367C164.924 268.336 164.799 268.31 164.727 268.289L164.719 267.117C164.76 267.122 164.826 267.128 164.914 267.133C165.008 267.143 165.073 267.148 165.109 267.148C165.438 267.148 165.716 267.104 165.945 267.016C166.174 266.932 166.367 266.789 166.523 266.586C166.685 266.388 166.823 266.115 166.938 265.766L167.539 264.125ZM165.812 256.547L168.008 263.109L168.383 264.633L167.344 265.164L164.234 256.547H165.812ZM60.5312 287.633L56.7656 298H55.2266L59.5625 286.625H60.5547L60.5312 287.633ZM63.6875 298L59.9141 287.633L59.8906 286.625H60.8828L65.2344 298H63.6875ZM63.4922 293.789V295.023H57.1016V293.789H63.4922ZM71.8672 296.359V286H73.3203V298H71.9922L71.8672 296.359ZM66.1797 293.867V293.703C66.1797 293.057 66.2578 292.471 66.4141 291.945C66.5755 291.414 66.8021 290.958 67.0938 290.578C67.3906 290.198 67.7422 289.906 68.1484 289.703C68.5599 289.495 69.0182 289.391 69.5234 289.391C70.0547 289.391 70.5182 289.484 70.9141 289.672C71.3151 289.854 71.6536 290.122 71.9297 290.477C72.2109 290.826 72.4323 291.247 72.5938 291.742C72.7552 292.237 72.8672 292.797 72.9297 293.422V294.141C72.8724 294.76 72.7604 295.318 72.5938 295.812C72.4323 296.307 72.2109 296.729 71.9297 297.078C71.6536 297.427 71.3151 297.695 70.9141 297.883C70.513 298.065 70.0443 298.156 69.5078 298.156C69.013 298.156 68.5599 298.049 68.1484 297.836C67.7422 297.622 67.3906 297.323 67.0938 296.938C66.8021 296.552 66.5755 296.099 66.4141 295.578C66.2578 295.052 66.1797 294.482 66.1797 293.867ZM67.6328 293.703V293.867C67.6328 294.289 67.6745 294.685 67.7578 295.055C67.8464 295.424 67.9818 295.75 68.1641 296.031C68.3464 296.312 68.5781 296.534 68.8594 296.695C69.1406 296.852 69.4766 296.93 69.8672 296.93C70.3464 296.93 70.7396 296.828 71.0469 296.625C71.3594 296.422 71.6094 296.154 71.7969 295.82C71.9844 295.487 72.1302 295.125 72.2344 294.734V292.852C72.1719 292.565 72.0807 292.289 71.9609 292.023C71.8464 291.753 71.6953 291.513 71.5078 291.305C71.3255 291.091 71.099 290.922 70.8281 290.797C70.5625 290.672 70.2474 290.609 69.8828 290.609C69.487 290.609 69.1458 290.693 68.8594 290.859C68.5781 291.021 68.3464 291.245 68.1641 291.531C67.9818 291.812 67.8464 292.141 67.7578 292.516C67.6745 292.885 67.6328 293.281 67.6328 293.703ZM78.1406 296.695L80.4531 289.547H81.9297L78.8906 298H77.9219L78.1406 296.695ZM76.2109 289.547L78.5938 296.734L78.7578 298H77.7891L74.7266 289.547H76.2109ZM86.7188 298.156C86.1302 298.156 85.5964 298.057 85.1172 297.859C84.6432 297.656 84.2344 297.372 83.8906 297.008C83.5521 296.643 83.2917 296.211 83.1094 295.711C82.9271 295.211 82.8359 294.664 82.8359 294.07V293.742C82.8359 293.055 82.9375 292.443 83.1406 291.906C83.3438 291.365 83.6198 290.906 83.9688 290.531C84.3177 290.156 84.7135 289.872 85.1562 289.68C85.599 289.487 86.0573 289.391 86.5312 289.391C87.1354 289.391 87.6562 289.495 88.0938 289.703C88.5365 289.911 88.8984 290.203 89.1797 290.578C89.4609 290.948 89.6693 291.385 89.8047 291.891C89.9401 292.391 90.0078 292.938 90.0078 293.531V294.18H83.6953V293H88.5625V292.891C88.5417 292.516 88.4635 292.151 88.3281 291.797C88.1979 291.443 87.9896 291.151 87.7031 290.922C87.4167 290.693 87.026 290.578 86.5312 290.578C86.2031 290.578 85.901 290.648 85.625 290.789C85.349 290.924 85.112 291.128 84.9141 291.398C84.7161 291.669 84.5625 292 84.4531 292.391C84.3438 292.781 84.2891 293.232 84.2891 293.742V294.07C84.2891 294.471 84.3438 294.849 84.4531 295.203C84.5677 295.552 84.7318 295.859 84.9453 296.125C85.1641 296.391 85.4271 296.599 85.7344 296.75C86.0469 296.901 86.401 296.977 86.7969 296.977C87.3073 296.977 87.7396 296.872 88.0938 296.664C88.4479 296.456 88.7578 296.177 89.0234 295.828L89.8984 296.523C89.7161 296.799 89.4844 297.062 89.2031 297.312C88.9219 297.562 88.5755 297.766 88.1641 297.922C87.7578 298.078 87.276 298.156 86.7188 298.156ZM93.1406 291.352V298H91.6953V289.547H93.0625L93.1406 291.352ZM92.7969 293.453L92.1953 293.43C92.2005 292.852 92.2865 292.318 92.4531 291.828C92.6198 291.333 92.8542 290.904 93.1562 290.539C93.4583 290.174 93.8177 289.893 94.2344 289.695C94.6562 289.492 95.1224 289.391 95.6328 289.391C96.0495 289.391 96.4245 289.448 96.7578 289.562C97.0911 289.672 97.375 289.849 97.6094 290.094C97.849 290.339 98.0312 290.656 98.1562 291.047C98.2812 291.432 98.3438 291.904 98.3438 292.461V298H96.8906V292.445C96.8906 292.003 96.8255 291.648 96.6953 291.383C96.5651 291.112 96.375 290.917 96.125 290.797C95.875 290.672 95.5677 290.609 95.2031 290.609C94.8438 290.609 94.5156 290.685 94.2188 290.836C93.9271 290.987 93.6745 291.195 93.4609 291.461C93.2526 291.727 93.0885 292.031 92.9688 292.375C92.8542 292.714 92.7969 293.073 92.7969 293.453ZM104.078 289.547V290.656H99.5078V289.547H104.078ZM101.055 287.492H102.5V295.906C102.5 296.193 102.544 296.409 102.633 296.555C102.721 296.701 102.836 296.797 102.977 296.844C103.117 296.891 103.268 296.914 103.43 296.914C103.549 296.914 103.674 296.904 103.805 296.883C103.94 296.857 104.042 296.836 104.109 296.82L104.117 298C104.003 298.036 103.852 298.07 103.664 298.102C103.482 298.138 103.26 298.156 103 298.156C102.646 298.156 102.32 298.086 102.023 297.945C101.727 297.805 101.49 297.57 101.312 297.242C101.141 296.909 101.055 296.461 101.055 295.898V287.492ZM110.945 296.047V289.547H112.398V298H111.016L110.945 296.047ZM111.219 294.266L111.82 294.25C111.82 294.812 111.76 295.333 111.641 295.812C111.526 296.286 111.339 296.698 111.078 297.047C110.818 297.396 110.477 297.669 110.055 297.867C109.633 298.06 109.12 298.156 108.516 298.156C108.104 298.156 107.727 298.096 107.383 297.977C107.044 297.857 106.753 297.672 106.508 297.422C106.263 297.172 106.073 296.846 105.938 296.445C105.807 296.044 105.742 295.562 105.742 295V289.547H107.188V295.016C107.188 295.396 107.229 295.711 107.312 295.961C107.401 296.206 107.518 296.401 107.664 296.547C107.815 296.688 107.982 296.786 108.164 296.844C108.352 296.901 108.544 296.93 108.742 296.93C109.357 296.93 109.844 296.812 110.203 296.578C110.562 296.339 110.82 296.018 110.977 295.617C111.138 295.211 111.219 294.76 111.219 294.266ZM116.047 290.875V298H114.602V289.547H116.008L116.047 290.875ZM118.688 289.5L118.68 290.844C118.56 290.818 118.445 290.802 118.336 290.797C118.232 290.786 118.112 290.781 117.977 290.781C117.643 290.781 117.349 290.833 117.094 290.938C116.839 291.042 116.622 291.188 116.445 291.375C116.268 291.562 116.128 291.786 116.023 292.047C115.924 292.302 115.859 292.583 115.828 292.891L115.422 293.125C115.422 292.615 115.471 292.135 115.57 291.688C115.674 291.24 115.833 290.844 116.047 290.5C116.26 290.151 116.531 289.88 116.859 289.688C117.193 289.49 117.589 289.391 118.047 289.391C118.151 289.391 118.271 289.404 118.406 289.43C118.542 289.451 118.635 289.474 118.688 289.5ZM123.375 298.156C122.786 298.156 122.253 298.057 121.773 297.859C121.299 297.656 120.891 297.372 120.547 297.008C120.208 296.643 119.948 296.211 119.766 295.711C119.583 295.211 119.492 294.664 119.492 294.07V293.742C119.492 293.055 119.594 292.443 119.797 291.906C120 291.365 120.276 290.906 120.625 290.531C120.974 290.156 121.37 289.872 121.812 289.68C122.255 289.487 122.714 289.391 123.188 289.391C123.792 289.391 124.312 289.495 124.75 289.703C125.193 289.911 125.555 290.203 125.836 290.578C126.117 290.948 126.326 291.385 126.461 291.891C126.596 292.391 126.664 292.938 126.664 293.531V294.18H120.352V293H125.219V292.891C125.198 292.516 125.12 292.151 124.984 291.797C124.854 291.443 124.646 291.151 124.359 290.922C124.073 290.693 123.682 290.578 123.188 290.578C122.859 290.578 122.557 290.648 122.281 290.789C122.005 290.924 121.768 291.128 121.57 291.398C121.372 291.669 121.219 292 121.109 292.391C121 292.781 120.945 293.232 120.945 293.742V294.07C120.945 294.471 121 294.849 121.109 295.203C121.224 295.552 121.388 295.859 121.602 296.125C121.82 296.391 122.083 296.599 122.391 296.75C122.703 296.901 123.057 296.977 123.453 296.977C123.964 296.977 124.396 296.872 124.75 296.664C125.104 296.456 125.414 296.177 125.68 295.828L126.555 296.523C126.372 296.799 126.141 297.062 125.859 297.312C125.578 297.562 125.232 297.766 124.82 297.922C124.414 298.078 123.932 298.156 123.375 298.156ZM137.305 296.555V292.203C137.305 291.87 137.237 291.581 137.102 291.336C136.971 291.086 136.773 290.893 136.508 290.758C136.242 290.622 135.914 290.555 135.523 290.555C135.159 290.555 134.839 290.617 134.562 290.742C134.292 290.867 134.078 291.031 133.922 291.234C133.771 291.438 133.695 291.656 133.695 291.891H132.25C132.25 291.589 132.328 291.289 132.484 290.992C132.641 290.695 132.865 290.427 133.156 290.188C133.453 289.943 133.807 289.75 134.219 289.609C134.635 289.464 135.099 289.391 135.609 289.391C136.224 289.391 136.766 289.495 137.234 289.703C137.708 289.911 138.078 290.227 138.344 290.648C138.615 291.065 138.75 291.589 138.75 292.219V296.156C138.75 296.438 138.773 296.737 138.82 297.055C138.872 297.372 138.948 297.646 139.047 297.875V298H137.539C137.466 297.833 137.409 297.612 137.367 297.336C137.326 297.055 137.305 296.794 137.305 296.555ZM137.555 292.875L137.57 293.891H136.109C135.698 293.891 135.331 293.924 135.008 293.992C134.685 294.055 134.414 294.151 134.195 294.281C133.977 294.411 133.81 294.576 133.695 294.773C133.581 294.966 133.523 295.193 133.523 295.453C133.523 295.719 133.583 295.961 133.703 296.18C133.823 296.398 134.003 296.573 134.242 296.703C134.487 296.828 134.786 296.891 135.141 296.891C135.583 296.891 135.974 296.797 136.312 296.609C136.651 296.422 136.919 296.193 137.117 295.922C137.32 295.651 137.43 295.388 137.445 295.133L138.062 295.828C138.026 296.047 137.927 296.289 137.766 296.555C137.604 296.82 137.388 297.076 137.117 297.32C136.852 297.56 136.534 297.76 136.164 297.922C135.799 298.078 135.388 298.156 134.93 298.156C134.357 298.156 133.854 298.044 133.422 297.82C132.995 297.596 132.661 297.297 132.422 296.922C132.188 296.542 132.07 296.117 132.07 295.648C132.07 295.195 132.159 294.797 132.336 294.453C132.513 294.104 132.768 293.815 133.102 293.586C133.435 293.352 133.836 293.174 134.305 293.055C134.773 292.935 135.297 292.875 135.875 292.875H137.555ZM142.469 291.352V298H141.023V289.547H142.391L142.469 291.352ZM142.125 293.453L141.523 293.43C141.529 292.852 141.615 292.318 141.781 291.828C141.948 291.333 142.182 290.904 142.484 290.539C142.786 290.174 143.146 289.893 143.562 289.695C143.984 289.492 144.451 289.391 144.961 289.391C145.378 289.391 145.753 289.448 146.086 289.562C146.419 289.672 146.703 289.849 146.938 290.094C147.177 290.339 147.359 290.656 147.484 291.047C147.609 291.432 147.672 291.904 147.672 292.461V298H146.219V292.445C146.219 292.003 146.154 291.648 146.023 291.383C145.893 291.112 145.703 290.917 145.453 290.797C145.203 290.672 144.896 290.609 144.531 290.609C144.172 290.609 143.844 290.685 143.547 290.836C143.255 290.987 143.003 291.195 142.789 291.461C142.581 291.727 142.417 292.031 142.297 292.375C142.182 292.714 142.125 293.073 142.125 293.453ZM155.195 296.359V286H156.648V298H155.32L155.195 296.359ZM149.508 293.867V293.703C149.508 293.057 149.586 292.471 149.742 291.945C149.904 291.414 150.13 290.958 150.422 290.578C150.719 290.198 151.07 289.906 151.477 289.703C151.888 289.495 152.346 289.391 152.852 289.391C153.383 289.391 153.846 289.484 154.242 289.672C154.643 289.854 154.982 290.122 155.258 290.477C155.539 290.826 155.76 291.247 155.922 291.742C156.083 292.237 156.195 292.797 156.258 293.422V294.141C156.201 294.76 156.089 295.318 155.922 295.812C155.76 296.307 155.539 296.729 155.258 297.078C154.982 297.427 154.643 297.695 154.242 297.883C153.841 298.065 153.372 298.156 152.836 298.156C152.341 298.156 151.888 298.049 151.477 297.836C151.07 297.622 150.719 297.323 150.422 296.938C150.13 296.552 149.904 296.099 149.742 295.578C149.586 295.052 149.508 294.482 149.508 293.867ZM150.961 293.703V293.867C150.961 294.289 151.003 294.685 151.086 295.055C151.174 295.424 151.31 295.75 151.492 296.031C151.674 296.312 151.906 296.534 152.188 296.695C152.469 296.852 152.805 296.93 153.195 296.93C153.674 296.93 154.068 296.828 154.375 296.625C154.688 296.422 154.938 296.154 155.125 295.82C155.312 295.487 155.458 295.125 155.562 294.734V292.852C155.5 292.565 155.409 292.289 155.289 292.023C155.174 291.753 155.023 291.513 154.836 291.305C154.654 291.091 154.427 290.922 154.156 290.797C153.891 290.672 153.576 290.609 153.211 290.609C152.815 290.609 152.474 290.693 152.188 290.859C151.906 291.021 151.674 291.245 151.492 291.531C151.31 291.812 151.174 292.141 151.086 292.516C151.003 292.885 150.961 293.281 150.961 293.703ZM170.344 298.156C169.755 298.156 169.221 298.057 168.742 297.859C168.268 297.656 167.859 297.372 167.516 297.008C167.177 296.643 166.917 296.211 166.734 295.711C166.552 295.211 166.461 294.664 166.461 294.07V293.742C166.461 293.055 166.562 292.443 166.766 291.906C166.969 291.365 167.245 290.906 167.594 290.531C167.943 290.156 168.339 289.872 168.781 289.68C169.224 289.487 169.682 289.391 170.156 289.391C170.76 289.391 171.281 289.495 171.719 289.703C172.161 289.911 172.523 290.203 172.805 290.578C173.086 290.948 173.294 291.385 173.43 291.891C173.565 292.391 173.633 292.938 173.633 293.531V294.18H167.32V293H172.188V292.891C172.167 292.516 172.089 292.151 171.953 291.797C171.823 291.443 171.615 291.151 171.328 290.922C171.042 290.693 170.651 290.578 170.156 290.578C169.828 290.578 169.526 290.648 169.25 290.789C168.974 290.924 168.737 291.128 168.539 291.398C168.341 291.669 168.188 292 168.078 292.391C167.969 292.781 167.914 293.232 167.914 293.742V294.07C167.914 294.471 167.969 294.849 168.078 295.203C168.193 295.552 168.357 295.859 168.57 296.125C168.789 296.391 169.052 296.599 169.359 296.75C169.672 296.901 170.026 296.977 170.422 296.977C170.932 296.977 171.365 296.872 171.719 296.664C172.073 296.456 172.383 296.177 172.648 295.828L173.523 296.523C173.341 296.799 173.109 297.062 172.828 297.312C172.547 297.562 172.201 297.766 171.789 297.922C171.383 298.078 170.901 298.156 170.344 298.156ZM176.297 289.547L178.148 292.625L180.023 289.547H181.719L178.953 293.719L181.805 298H180.133L178.18 294.828L176.227 298H174.547L177.391 293.719L174.633 289.547H176.297ZM186.797 289.547V290.656H182.227V289.547H186.797ZM183.773 287.492H185.219V295.906C185.219 296.193 185.263 296.409 185.352 296.555C185.44 296.701 185.555 296.797 185.695 296.844C185.836 296.891 185.987 296.914 186.148 296.914C186.268 296.914 186.393 296.904 186.523 296.883C186.659 296.857 186.76 296.836 186.828 296.82L186.836 298C186.721 298.036 186.57 298.07 186.383 298.102C186.201 298.138 185.979 298.156 185.719 298.156C185.365 298.156 185.039 298.086 184.742 297.945C184.445 297.805 184.208 297.57 184.031 297.242C183.859 296.909 183.773 296.461 183.773 295.898V287.492ZM189.938 290.875V298H188.492V289.547H189.898L189.938 290.875ZM192.578 289.5L192.57 290.844C192.451 290.818 192.336 290.802 192.227 290.797C192.122 290.786 192.003 290.781 191.867 290.781C191.534 290.781 191.24 290.833 190.984 290.938C190.729 291.042 190.513 291.188 190.336 291.375C190.159 291.562 190.018 291.786 189.914 292.047C189.815 292.302 189.75 292.583 189.719 292.891L189.312 293.125C189.312 292.615 189.362 292.135 189.461 291.688C189.565 291.24 189.724 290.844 189.938 290.5C190.151 290.151 190.422 289.88 190.75 289.688C191.083 289.49 191.479 289.391 191.938 289.391C192.042 289.391 192.161 289.404 192.297 289.43C192.432 289.451 192.526 289.474 192.578 289.5ZM197.266 298.156C196.677 298.156 196.143 298.057 195.664 297.859C195.19 297.656 194.781 297.372 194.438 297.008C194.099 296.643 193.839 296.211 193.656 295.711C193.474 295.211 193.383 294.664 193.383 294.07V293.742C193.383 293.055 193.484 292.443 193.688 291.906C193.891 291.365 194.167 290.906 194.516 290.531C194.865 290.156 195.26 289.872 195.703 289.68C196.146 289.487 196.604 289.391 197.078 289.391C197.682 289.391 198.203 289.495 198.641 289.703C199.083 289.911 199.445 290.203 199.727 290.578C200.008 290.948 200.216 291.385 200.352 291.891C200.487 292.391 200.555 292.938 200.555 293.531V294.18H194.242V293H199.109V292.891C199.089 292.516 199.01 292.151 198.875 291.797C198.745 291.443 198.536 291.151 198.25 290.922C197.964 290.693 197.573 290.578 197.078 290.578C196.75 290.578 196.448 290.648 196.172 290.789C195.896 290.924 195.659 291.128 195.461 291.398C195.263 291.669 195.109 292 195 292.391C194.891 292.781 194.836 293.232 194.836 293.742V294.07C194.836 294.471 194.891 294.849 195 295.203C195.115 295.552 195.279 295.859 195.492 296.125C195.711 296.391 195.974 296.599 196.281 296.75C196.594 296.901 196.948 296.977 197.344 296.977C197.854 296.977 198.286 296.872 198.641 296.664C198.995 296.456 199.305 296.177 199.57 295.828L200.445 296.523C200.263 296.799 200.031 297.062 199.75 297.312C199.469 297.562 199.122 297.766 198.711 297.922C198.305 298.078 197.823 298.156 197.266 298.156ZM203.68 291.227V298H202.227V289.547H203.602L203.68 291.227ZM203.383 293.453L202.711 293.43C202.716 292.852 202.792 292.318 202.938 291.828C203.083 291.333 203.299 290.904 203.586 290.539C203.872 290.174 204.229 289.893 204.656 289.695C205.083 289.492 205.578 289.391 206.141 289.391C206.536 289.391 206.901 289.448 207.234 289.562C207.568 289.672 207.857 289.846 208.102 290.086C208.346 290.326 208.536 290.633 208.672 291.008C208.807 291.383 208.875 291.836 208.875 292.367V298H207.43V292.438C207.43 291.995 207.354 291.641 207.203 291.375C207.057 291.109 206.849 290.917 206.578 290.797C206.307 290.672 205.99 290.609 205.625 290.609C205.198 290.609 204.841 290.685 204.555 290.836C204.268 290.987 204.039 291.195 203.867 291.461C203.695 291.727 203.57 292.031 203.492 292.375C203.419 292.714 203.383 293.073 203.383 293.453ZM208.859 292.656L207.891 292.953C207.896 292.49 207.971 292.044 208.117 291.617C208.268 291.19 208.484 290.81 208.766 290.477C209.052 290.143 209.404 289.88 209.82 289.688C210.237 289.49 210.714 289.391 211.25 289.391C211.703 289.391 212.104 289.451 212.453 289.57C212.807 289.69 213.104 289.875 213.344 290.125C213.589 290.37 213.773 290.685 213.898 291.07C214.023 291.456 214.086 291.914 214.086 292.445V298H212.633V292.43C212.633 291.956 212.557 291.589 212.406 291.328C212.26 291.062 212.052 290.878 211.781 290.773C211.516 290.664 211.198 290.609 210.828 290.609C210.51 290.609 210.229 290.664 209.984 290.773C209.74 290.883 209.534 291.034 209.367 291.227C209.201 291.414 209.073 291.63 208.984 291.875C208.901 292.12 208.859 292.38 208.859 292.656ZM219.781 298.156C219.193 298.156 218.659 298.057 218.18 297.859C217.706 297.656 217.297 297.372 216.953 297.008C216.615 296.643 216.354 296.211 216.172 295.711C215.99 295.211 215.898 294.664 215.898 294.07V293.742C215.898 293.055 216 292.443 216.203 291.906C216.406 291.365 216.682 290.906 217.031 290.531C217.38 290.156 217.776 289.872 218.219 289.68C218.661 289.487 219.12 289.391 219.594 289.391C220.198 289.391 220.719 289.495 221.156 289.703C221.599 289.911 221.961 290.203 222.242 290.578C222.523 290.948 222.732 291.385 222.867 291.891C223.003 292.391 223.07 292.938 223.07 293.531V294.18H216.758V293H221.625V292.891C221.604 292.516 221.526 292.151 221.391 291.797C221.26 291.443 221.052 291.151 220.766 290.922C220.479 290.693 220.089 290.578 219.594 290.578C219.266 290.578 218.964 290.648 218.688 290.789C218.411 290.924 218.174 291.128 217.977 291.398C217.779 291.669 217.625 292 217.516 292.391C217.406 292.781 217.352 293.232 217.352 293.742V294.07C217.352 294.471 217.406 294.849 217.516 295.203C217.63 295.552 217.794 295.859 218.008 296.125C218.227 296.391 218.49 296.599 218.797 296.75C219.109 296.901 219.464 296.977 219.859 296.977C220.37 296.977 220.802 296.872 221.156 296.664C221.51 296.456 221.82 296.177 222.086 295.828L222.961 296.523C222.779 296.799 222.547 297.062 222.266 297.312C221.984 297.562 221.638 297.766 221.227 297.922C220.82 298.078 220.339 298.156 219.781 298.156ZM233.648 295.758C233.648 295.549 233.602 295.357 233.508 295.18C233.419 294.997 233.234 294.833 232.953 294.688C232.677 294.536 232.26 294.406 231.703 294.297C231.234 294.198 230.81 294.081 230.43 293.945C230.055 293.81 229.734 293.646 229.469 293.453C229.208 293.26 229.008 293.034 228.867 292.773C228.727 292.513 228.656 292.208 228.656 291.859C228.656 291.526 228.729 291.211 228.875 290.914C229.026 290.617 229.237 290.354 229.508 290.125C229.784 289.896 230.115 289.716 230.5 289.586C230.885 289.456 231.315 289.391 231.789 289.391C232.466 289.391 233.044 289.51 233.523 289.75C234.003 289.99 234.37 290.31 234.625 290.711C234.88 291.107 235.008 291.547 235.008 292.031H233.562C233.562 291.797 233.492 291.57 233.352 291.352C233.216 291.128 233.016 290.943 232.75 290.797C232.49 290.651 232.169 290.578 231.789 290.578C231.388 290.578 231.062 290.641 230.812 290.766C230.568 290.885 230.388 291.039 230.273 291.227C230.164 291.414 230.109 291.612 230.109 291.82C230.109 291.977 230.135 292.117 230.188 292.242C230.245 292.362 230.344 292.474 230.484 292.578C230.625 292.677 230.823 292.771 231.078 292.859C231.333 292.948 231.659 293.036 232.055 293.125C232.747 293.281 233.318 293.469 233.766 293.688C234.214 293.906 234.547 294.174 234.766 294.492C234.984 294.81 235.094 295.195 235.094 295.648C235.094 296.018 235.016 296.357 234.859 296.664C234.708 296.971 234.487 297.237 234.195 297.461C233.909 297.68 233.565 297.852 233.164 297.977C232.768 298.096 232.323 298.156 231.828 298.156C231.083 298.156 230.453 298.023 229.938 297.758C229.422 297.492 229.031 297.148 228.766 296.727C228.5 296.305 228.367 295.859 228.367 295.391H229.82C229.841 295.786 229.956 296.102 230.164 296.336C230.372 296.565 230.628 296.729 230.93 296.828C231.232 296.922 231.531 296.969 231.828 296.969C232.224 296.969 232.555 296.917 232.82 296.812C233.091 296.708 233.297 296.565 233.438 296.383C233.578 296.201 233.648 295.992 233.648 295.758ZM238.438 291.172V301.25H236.984V289.547H238.312L238.438 291.172ZM244.133 293.703V293.867C244.133 294.482 244.06 295.052 243.914 295.578C243.768 296.099 243.555 296.552 243.273 296.938C242.997 297.323 242.656 297.622 242.25 297.836C241.844 298.049 241.378 298.156 240.852 298.156C240.315 298.156 239.841 298.068 239.43 297.891C239.018 297.714 238.669 297.456 238.383 297.117C238.096 296.779 237.867 296.372 237.695 295.898C237.529 295.424 237.414 294.891 237.352 294.297V293.422C237.414 292.797 237.531 292.237 237.703 291.742C237.875 291.247 238.102 290.826 238.383 290.477C238.669 290.122 239.016 289.854 239.422 289.672C239.828 289.484 240.297 289.391 240.828 289.391C241.359 289.391 241.831 289.495 242.242 289.703C242.654 289.906 243 290.198 243.281 290.578C243.562 290.958 243.773 291.414 243.914 291.945C244.06 292.471 244.133 293.057 244.133 293.703ZM242.68 293.867V293.703C242.68 293.281 242.635 292.885 242.547 292.516C242.458 292.141 242.32 291.812 242.133 291.531C241.951 291.245 241.716 291.021 241.43 290.859C241.143 290.693 240.802 290.609 240.406 290.609C240.042 290.609 239.724 290.672 239.453 290.797C239.188 290.922 238.961 291.091 238.773 291.305C238.586 291.513 238.432 291.753 238.312 292.023C238.198 292.289 238.112 292.565 238.055 292.852V294.875C238.159 295.24 238.305 295.583 238.492 295.906C238.68 296.224 238.93 296.482 239.242 296.68C239.555 296.872 239.948 296.969 240.422 296.969C240.812 296.969 241.148 296.888 241.43 296.727C241.716 296.56 241.951 296.333 242.133 296.047C242.32 295.76 242.458 295.432 242.547 295.062C242.635 294.688 242.68 294.289 242.68 293.867ZM245.594 293.867V293.688C245.594 293.078 245.682 292.513 245.859 291.992C246.036 291.466 246.292 291.01 246.625 290.625C246.958 290.234 247.362 289.932 247.836 289.719C248.31 289.5 248.841 289.391 249.43 289.391C250.023 289.391 250.557 289.5 251.031 289.719C251.51 289.932 251.917 290.234 252.25 290.625C252.589 291.01 252.846 291.466 253.023 291.992C253.201 292.513 253.289 293.078 253.289 293.688V293.867C253.289 294.477 253.201 295.042 253.023 295.562C252.846 296.083 252.589 296.539 252.25 296.93C251.917 297.315 251.513 297.617 251.039 297.836C250.57 298.049 250.039 298.156 249.445 298.156C248.852 298.156 248.318 298.049 247.844 297.836C247.37 297.617 246.964 297.315 246.625 296.93C246.292 296.539 246.036 296.083 245.859 295.562C245.682 295.042 245.594 294.477 245.594 293.867ZM247.039 293.688V293.867C247.039 294.289 247.089 294.688 247.188 295.062C247.286 295.432 247.435 295.76 247.633 296.047C247.836 296.333 248.089 296.56 248.391 296.727C248.693 296.888 249.044 296.969 249.445 296.969C249.841 296.969 250.188 296.888 250.484 296.727C250.786 296.56 251.036 296.333 251.234 296.047C251.432 295.76 251.581 295.432 251.68 295.062C251.784 294.688 251.836 294.289 251.836 293.867V293.688C251.836 293.271 251.784 292.878 251.68 292.508C251.581 292.133 251.43 291.802 251.227 291.516C251.029 291.224 250.779 290.995 250.477 290.828C250.18 290.661 249.831 290.578 249.43 290.578C249.034 290.578 248.685 290.661 248.383 290.828C248.086 290.995 247.836 291.224 247.633 291.516C247.435 291.802 247.286 292.133 247.188 292.508C247.089 292.878 247.039 293.271 247.039 293.688ZM256.547 290.875V298H255.102V289.547H256.508L256.547 290.875ZM259.188 289.5L259.18 290.844C259.06 290.818 258.945 290.802 258.836 290.797C258.732 290.786 258.612 290.781 258.477 290.781C258.143 290.781 257.849 290.833 257.594 290.938C257.339 291.042 257.122 291.188 256.945 291.375C256.768 291.562 256.628 291.786 256.523 292.047C256.424 292.302 256.359 292.583 256.328 292.891L255.922 293.125C255.922 292.615 255.971 292.135 256.07 291.688C256.174 291.24 256.333 290.844 256.547 290.5C256.76 290.151 257.031 289.88 257.359 289.688C257.693 289.49 258.089 289.391 258.547 289.391C258.651 289.391 258.771 289.404 258.906 289.43C259.042 289.451 259.135 289.474 259.188 289.5ZM264.453 289.547V290.656H259.883V289.547H264.453ZM261.43 287.492H262.875V295.906C262.875 296.193 262.919 296.409 263.008 296.555C263.096 296.701 263.211 296.797 263.352 296.844C263.492 296.891 263.643 296.914 263.805 296.914C263.924 296.914 264.049 296.904 264.18 296.883C264.315 296.857 264.417 296.836 264.484 296.82L264.492 298C264.378 298.036 264.227 298.07 264.039 298.102C263.857 298.138 263.635 298.156 263.375 298.156C263.021 298.156 262.695 298.086 262.398 297.945C262.102 297.805 261.865 297.57 261.688 297.242C261.516 296.909 261.43 296.461 261.43 295.898V287.492ZM271.07 295.758C271.07 295.549 271.023 295.357 270.93 295.18C270.841 294.997 270.656 294.833 270.375 294.688C270.099 294.536 269.682 294.406 269.125 294.297C268.656 294.198 268.232 294.081 267.852 293.945C267.477 293.81 267.156 293.646 266.891 293.453C266.63 293.26 266.43 293.034 266.289 292.773C266.148 292.513 266.078 292.208 266.078 291.859C266.078 291.526 266.151 291.211 266.297 290.914C266.448 290.617 266.659 290.354 266.93 290.125C267.206 289.896 267.536 289.716 267.922 289.586C268.307 289.456 268.737 289.391 269.211 289.391C269.888 289.391 270.466 289.51 270.945 289.75C271.424 289.99 271.792 290.31 272.047 290.711C272.302 291.107 272.43 291.547 272.43 292.031H270.984C270.984 291.797 270.914 291.57 270.773 291.352C270.638 291.128 270.438 290.943 270.172 290.797C269.911 290.651 269.591 290.578 269.211 290.578C268.81 290.578 268.484 290.641 268.234 290.766C267.99 290.885 267.81 291.039 267.695 291.227C267.586 291.414 267.531 291.612 267.531 291.82C267.531 291.977 267.557 292.117 267.609 292.242C267.667 292.362 267.766 292.474 267.906 292.578C268.047 292.677 268.245 292.771 268.5 292.859C268.755 292.948 269.081 293.036 269.477 293.125C270.169 293.281 270.74 293.469 271.188 293.688C271.635 293.906 271.969 294.174 272.188 294.492C272.406 294.81 272.516 295.195 272.516 295.648C272.516 296.018 272.438 296.357 272.281 296.664C272.13 296.971 271.909 297.237 271.617 297.461C271.331 297.68 270.987 297.852 270.586 297.977C270.19 298.096 269.745 298.156 269.25 298.156C268.505 298.156 267.875 298.023 267.359 297.758C266.844 297.492 266.453 297.148 266.188 296.727C265.922 296.305 265.789 295.859 265.789 295.391H267.242C267.263 295.786 267.378 296.102 267.586 296.336C267.794 296.565 268.049 296.729 268.352 296.828C268.654 296.922 268.953 296.969 269.25 296.969C269.646 296.969 269.977 296.917 270.242 296.812C270.513 296.708 270.719 296.565 270.859 296.383C271 296.201 271.07 295.992 271.07 295.758ZM56.7969 319.625H58.2578L61.9844 328.898L65.7031 319.625H67.1719L62.5469 331H61.4062L56.7969 319.625ZM56.3203 319.625H57.6094L57.8203 326.562V331H56.3203V319.625ZM66.3516 319.625H67.6406V331H66.1406V326.562L66.3516 319.625ZM69.6875 326.867V326.688C69.6875 326.078 69.776 325.513 69.9531 324.992C70.1302 324.466 70.3854 324.01 70.7188 323.625C71.0521 323.234 71.4557 322.932 71.9297 322.719C72.4036 322.5 72.9349 322.391 73.5234 322.391C74.1172 322.391 74.651 322.5 75.125 322.719C75.6042 322.932 76.0104 323.234 76.3438 323.625C76.6823 324.01 76.9401 324.466 77.1172 324.992C77.2943 325.513 77.3828 326.078 77.3828 326.688V326.867C77.3828 327.477 77.2943 328.042 77.1172 328.562C76.9401 329.083 76.6823 329.539 76.3438 329.93C76.0104 330.315 75.6068 330.617 75.1328 330.836C74.6641 331.049 74.1328 331.156 73.5391 331.156C72.9453 331.156 72.4115 331.049 71.9375 330.836C71.4635 330.617 71.0573 330.315 70.7188 329.93C70.3854 329.539 70.1302 329.083 69.9531 328.562C69.776 328.042 69.6875 327.477 69.6875 326.867ZM71.1328 326.688V326.867C71.1328 327.289 71.1823 327.688 71.2812 328.062C71.3802 328.432 71.5286 328.76 71.7266 329.047C71.9297 329.333 72.1823 329.56 72.4844 329.727C72.7865 329.888 73.138 329.969 73.5391 329.969C73.9349 329.969 74.2812 329.888 74.5781 329.727C74.8802 329.56 75.1302 329.333 75.3281 329.047C75.526 328.76 75.6745 328.432 75.7734 328.062C75.8776 327.688 75.9297 327.289 75.9297 326.867V326.688C75.9297 326.271 75.8776 325.878 75.7734 325.508C75.6745 325.133 75.5234 324.802 75.3203 324.516C75.1224 324.224 74.8724 323.995 74.5703 323.828C74.2734 323.661 73.9245 323.578 73.5234 323.578C73.1276 323.578 72.7786 323.661 72.4766 323.828C72.1797 323.995 71.9297 324.224 71.7266 324.516C71.5286 324.802 71.3802 325.133 71.2812 325.508C71.1823 325.878 71.1328 326.271 71.1328 326.688ZM80.6406 323.875V331H79.1953V322.547H80.6016L80.6406 323.875ZM83.2812 322.5L83.2734 323.844C83.1536 323.818 83.0391 323.802 82.9297 323.797C82.8255 323.786 82.7057 323.781 82.5703 323.781C82.237 323.781 81.9427 323.833 81.6875 323.938C81.4323 324.042 81.2161 324.188 81.0391 324.375C80.862 324.562 80.7214 324.786 80.6172 325.047C80.5182 325.302 80.4531 325.583 80.4219 325.891L80.0156 326.125C80.0156 325.615 80.0651 325.135 80.1641 324.688C80.2682 324.24 80.4271 323.844 80.6406 323.5C80.8542 323.151 81.125 322.88 81.4531 322.688C81.7865 322.49 82.1823 322.391 82.6406 322.391C82.7448 322.391 82.8646 322.404 83 322.43C83.1354 322.451 83.2292 322.474 83.2812 322.5ZM87.9688 331.156C87.3802 331.156 86.8464 331.057 86.3672 330.859C85.8932 330.656 85.4844 330.372 85.1406 330.008C84.8021 329.643 84.5417 329.211 84.3594 328.711C84.1771 328.211 84.0859 327.664 84.0859 327.07V326.742C84.0859 326.055 84.1875 325.443 84.3906 324.906C84.5938 324.365 84.8698 323.906 85.2188 323.531C85.5677 323.156 85.9635 322.872 86.4062 322.68C86.849 322.487 87.3073 322.391 87.7812 322.391C88.3854 322.391 88.9062 322.495 89.3438 322.703C89.7865 322.911 90.1484 323.203 90.4297 323.578C90.7109 323.948 90.9193 324.385 91.0547 324.891C91.1901 325.391 91.2578 325.938 91.2578 326.531V327.18H84.9453V326H89.8125V325.891C89.7917 325.516 89.7135 325.151 89.5781 324.797C89.4479 324.443 89.2396 324.151 88.9531 323.922C88.6667 323.693 88.276 323.578 87.7812 323.578C87.4531 323.578 87.151 323.648 86.875 323.789C86.599 323.924 86.362 324.128 86.1641 324.398C85.9661 324.669 85.8125 325 85.7031 325.391C85.5938 325.781 85.5391 326.232 85.5391 326.742V327.07C85.5391 327.471 85.5938 327.849 85.7031 328.203C85.8177 328.552 85.9818 328.859 86.1953 329.125C86.4141 329.391 86.6771 329.599 86.9844 329.75C87.2969 329.901 87.651 329.977 88.0469 329.977C88.5573 329.977 88.9896 329.872 89.3438 329.664C89.6979 329.456 90.0078 329.177 90.2734 328.828L91.1484 329.523C90.9661 329.799 90.7344 330.062 90.4531 330.312C90.1719 330.562 89.8255 330.766 89.4141 330.922C89.0078 331.078 88.526 331.156 87.9688 331.156Z" fill="#393939"/>
<path d="M38.7129 147.733L34.2549 161H31.1289L36.9727 145.359H38.9707L38.7129 147.733ZM42.4404 161L37.9609 147.733L37.6924 145.359H39.7012L45.5771 161H42.4404ZM42.2363 155.188V157.52H33.8467V155.188H42.2363ZM50.293 158.852L53 149.377H55.9648L51.9795 161H50.1748L50.293 158.852ZM48.3164 149.377L51.0557 158.873L51.1523 161H49.3369L45.3408 149.377H48.3164ZM63.6885 158.529V153.169C63.6885 152.775 63.6204 152.435 63.4844 152.148C63.3483 151.862 63.1406 151.64 62.8613 151.482C62.582 151.325 62.2275 151.246 61.7979 151.246C61.4183 151.246 61.0853 151.311 60.7988 151.439C60.5195 151.568 60.3047 151.751 60.1543 151.987C60.0039 152.216 59.9287 152.481 59.9287 152.782H57.082C57.082 152.302 57.1966 151.848 57.4258 151.418C57.6549 150.981 57.9808 150.594 58.4033 150.258C58.833 149.914 59.3451 149.646 59.9395 149.452C60.541 149.259 61.2142 149.162 61.959 149.162C62.8398 149.162 63.624 149.312 64.3115 149.613C65.0062 149.907 65.5505 150.351 65.9443 150.945C66.3454 151.54 66.5459 152.288 66.5459 153.19V158.261C66.5459 158.841 66.5817 159.339 66.6533 159.754C66.7321 160.162 66.8467 160.517 66.9971 160.817V161H64.1074C63.9714 160.706 63.8675 160.334 63.7959 159.883C63.7243 159.424 63.6885 158.973 63.6885 158.529ZM64.0859 153.921L64.1074 155.607H62.3135C61.8695 155.607 61.4792 155.654 61.1426 155.747C60.806 155.833 60.5303 155.962 60.3154 156.134C60.1006 156.299 59.9395 156.499 59.832 156.735C59.7246 156.965 59.6709 157.226 59.6709 157.52C59.6709 157.806 59.7354 158.064 59.8643 158.293C60.0003 158.522 60.1937 158.705 60.4443 158.841C60.7021 158.97 61.0029 159.034 61.3467 159.034C61.848 159.034 62.2848 158.934 62.6572 158.733C63.0296 158.526 63.3197 158.275 63.5273 157.981C63.735 157.688 63.846 157.409 63.8604 157.144L64.6768 158.368C64.5765 158.662 64.4261 158.973 64.2256 159.303C64.0251 159.632 63.7673 159.94 63.4521 160.227C63.137 160.513 62.7575 160.749 62.3135 160.936C61.8695 161.122 61.3538 161.215 60.7666 161.215C60.0146 161.215 59.3415 161.064 58.7471 160.764C58.1527 160.463 57.6836 160.051 57.3398 159.528C56.9961 159.006 56.8242 158.411 56.8242 157.745C56.8242 157.129 56.9388 156.585 57.168 156.112C57.3971 155.64 57.7373 155.242 58.1885 154.92C58.6396 154.59 59.1982 154.343 59.8643 154.179C60.5374 154.007 61.3073 153.921 62.1738 153.921H64.0859ZM72.1104 149.377V161H69.2637V149.377H72.1104ZM69.0703 146.337C69.0703 145.914 69.2135 145.563 69.5 145.284C69.7936 145.005 70.1875 144.865 70.6816 144.865C71.1758 144.865 71.5661 145.005 71.8525 145.284C72.1462 145.563 72.293 145.914 72.293 146.337C72.293 146.752 72.1462 147.1 71.8525 147.379C71.5661 147.658 71.1758 147.798 70.6816 147.798C70.1875 147.798 69.7936 147.658 69.5 147.379C69.2135 147.1 69.0703 146.752 69.0703 146.337ZM77.8252 144.5V161H74.9785V144.5H77.8252ZM86.9346 158.529V153.169C86.9346 152.775 86.8665 152.435 86.7305 152.148C86.5944 151.862 86.3867 151.64 86.1074 151.482C85.8281 151.325 85.4736 151.246 85.0439 151.246C84.6644 151.246 84.3314 151.311 84.0449 151.439C83.7656 151.568 83.5508 151.751 83.4004 151.987C83.25 152.216 83.1748 152.481 83.1748 152.782H80.3281C80.3281 152.302 80.4427 151.848 80.6719 151.418C80.901 150.981 81.2269 150.594 81.6494 150.258C82.0791 149.914 82.5911 149.646 83.1855 149.452C83.7871 149.259 84.4603 149.162 85.2051 149.162C86.0859 149.162 86.8701 149.312 87.5576 149.613C88.2523 149.907 88.7965 150.351 89.1904 150.945C89.5915 151.54 89.792 152.288 89.792 153.19V158.261C89.792 158.841 89.8278 159.339 89.8994 159.754C89.9782 160.162 90.0928 160.517 90.2432 160.817V161H87.3535C87.2174 160.706 87.1136 160.334 87.042 159.883C86.9704 159.424 86.9346 158.973 86.9346 158.529ZM87.332 153.921L87.3535 155.607H85.5596C85.1156 155.607 84.7253 155.654 84.3887 155.747C84.0521 155.833 83.7764 155.962 83.5615 156.134C83.3467 156.299 83.1855 156.499 83.0781 156.735C82.9707 156.965 82.917 157.226 82.917 157.52C82.917 157.806 82.9814 158.064 83.1104 158.293C83.2464 158.522 83.4398 158.705 83.6904 158.841C83.9482 158.97 84.249 159.034 84.5928 159.034C85.0941 159.034 85.5309 158.934 85.9033 158.733C86.2757 158.526 86.5658 158.275 86.7734 157.981C86.9811 157.688 87.0921 157.409 87.1064 157.144L87.9229 158.368C87.8226 158.662 87.6722 158.973 87.4717 159.303C87.2712 159.632 87.0133 159.94 86.6982 160.227C86.3831 160.513 86.0036 160.749 85.5596 160.936C85.1156 161.122 84.5999 161.215 84.0127 161.215C83.2607 161.215 82.5876 161.064 81.9932 160.764C81.3988 160.463 80.9297 160.051 80.5859 159.528C80.2422 159.006 80.0703 158.411 80.0703 157.745C80.0703 157.129 80.1849 156.585 80.4141 156.112C80.6432 155.64 80.9834 155.242 81.4346 154.92C81.8857 154.59 82.4443 154.343 83.1104 154.179C83.7835 154.007 84.5534 153.921 85.4199 153.921H87.332ZM92.3379 144.5H95.1846V158.433L94.9053 161H92.3379V144.5ZM102.661 155.07V155.296C102.661 156.162 102.564 156.957 102.371 157.681C102.185 158.404 101.902 159.031 101.522 159.561C101.143 160.083 100.67 160.492 100.104 160.785C99.5459 161.072 98.8906 161.215 98.1387 161.215C97.4225 161.215 96.7995 161.075 96.2695 160.796C95.7467 160.517 95.3063 160.123 94.9482 159.614C94.5902 159.099 94.3037 158.493 94.0889 157.799C93.874 157.097 93.7129 156.331 93.6055 155.5V154.888C93.7129 154.05 93.874 153.284 94.0889 152.589C94.3037 151.894 94.5902 151.289 94.9482 150.773C95.3063 150.258 95.7467 149.86 96.2695 149.581C96.7923 149.302 97.4082 149.162 98.1172 149.162C98.8763 149.162 99.5387 149.309 100.104 149.603C100.677 149.889 101.15 150.297 101.522 150.827C101.902 151.35 102.185 151.973 102.371 152.696C102.564 153.412 102.661 154.204 102.661 155.07ZM99.8145 155.296V155.07C99.8145 154.576 99.7751 154.111 99.6963 153.674C99.6175 153.23 99.4886 152.84 99.3096 152.503C99.1305 152.166 98.887 151.901 98.5791 151.708C98.2712 151.515 97.8844 151.418 97.4189 151.418C96.9749 151.418 96.5954 151.493 96.2803 151.644C95.9723 151.794 95.7145 152.002 95.5068 152.267C95.3063 152.532 95.1488 152.843 95.0342 153.201C94.9268 153.559 94.8551 153.946 94.8193 154.361V156.037C94.8695 156.589 94.9876 157.086 95.1738 157.53C95.36 157.967 95.6357 158.314 96.001 158.572C96.3734 158.83 96.8532 158.959 97.4404 158.959C97.8988 158.959 98.2819 158.869 98.5898 158.69C98.8978 158.504 99.1413 158.246 99.3203 157.917C99.4993 157.58 99.6247 157.19 99.6963 156.746C99.7751 156.302 99.8145 155.819 99.8145 155.296ZM107.731 144.5V161H104.885V144.5H107.731ZM115.659 161.215C114.778 161.215 113.987 161.072 113.285 160.785C112.583 160.499 111.985 160.101 111.491 159.593C111.004 159.077 110.628 158.479 110.363 157.799C110.105 157.111 109.977 156.374 109.977 155.586V155.156C109.977 154.261 110.105 153.448 110.363 152.718C110.621 151.98 110.986 151.346 111.459 150.816C111.932 150.286 112.497 149.878 113.156 149.592C113.815 149.305 114.542 149.162 115.337 149.162C116.16 149.162 116.887 149.302 117.518 149.581C118.148 149.853 118.674 150.24 119.097 150.741C119.519 151.243 119.838 151.844 120.053 152.546C120.268 153.241 120.375 154.01 120.375 154.855V156.048H111.266V154.093H117.582V153.878C117.568 153.427 117.482 153.015 117.324 152.643C117.167 152.263 116.923 151.962 116.594 151.74C116.264 151.511 115.838 151.396 115.315 151.396C114.893 151.396 114.524 151.49 114.209 151.676C113.901 151.855 113.643 152.113 113.436 152.449C113.235 152.779 113.085 153.173 112.984 153.631C112.884 154.089 112.834 154.598 112.834 155.156V155.586C112.834 156.073 112.898 156.524 113.027 156.939C113.163 157.355 113.36 157.716 113.618 158.024C113.883 158.325 114.198 158.562 114.563 158.733C114.936 158.898 115.358 158.98 115.831 158.98C116.425 158.98 116.963 158.866 117.442 158.637C117.929 158.4 118.352 158.053 118.71 157.595L120.139 159.077C119.895 159.435 119.566 159.779 119.15 160.108C118.742 160.438 118.248 160.706 117.668 160.914C117.088 161.115 116.418 161.215 115.659 161.215ZM132.976 161.215C132.095 161.215 131.303 161.072 130.602 160.785C129.9 160.499 129.302 160.101 128.808 159.593C128.321 159.077 127.945 158.479 127.68 157.799C127.422 157.111 127.293 156.374 127.293 155.586V155.156C127.293 154.261 127.422 153.448 127.68 152.718C127.938 151.98 128.303 151.346 128.775 150.816C129.248 150.286 129.814 149.878 130.473 149.592C131.132 149.305 131.858 149.162 132.653 149.162C133.477 149.162 134.204 149.302 134.834 149.581C135.464 149.853 135.991 150.24 136.413 150.741C136.836 151.243 137.154 151.844 137.369 152.546C137.584 153.241 137.691 154.01 137.691 154.855V156.048H128.582V154.093H134.898V153.878C134.884 153.427 134.798 153.015 134.641 152.643C134.483 152.263 134.24 151.962 133.91 151.74C133.581 151.511 133.155 151.396 132.632 151.396C132.209 151.396 131.84 151.49 131.525 151.676C131.217 151.855 130.96 152.113 130.752 152.449C130.551 152.779 130.401 153.173 130.301 153.631C130.201 154.089 130.15 154.598 130.15 155.156V155.586C130.15 156.073 130.215 156.524 130.344 156.939C130.48 157.355 130.677 157.716 130.935 158.024C131.2 158.325 131.515 158.562 131.88 158.733C132.252 158.898 132.675 158.98 133.147 158.98C133.742 158.98 134.279 158.866 134.759 158.637C135.246 158.4 135.668 158.053 136.026 157.595L137.455 159.077C137.212 159.435 136.882 159.779 136.467 160.108C136.059 160.438 135.564 160.706 134.984 160.914C134.404 161.115 133.735 161.215 132.976 161.215ZM141.816 149.377L143.89 153.072L145.995 149.377H149.078L145.662 155.07L149.218 161H146.135L143.911 157.122L141.677 161H138.594L142.139 155.07L138.744 149.377H141.816ZM156.222 149.377V151.418H149.562V149.377H156.222ZM151.345 146.52H154.191V157.648C154.191 157.992 154.238 158.257 154.331 158.443C154.424 158.63 154.564 158.755 154.75 158.819C154.936 158.884 155.158 158.916 155.416 158.916C155.602 158.916 155.774 158.905 155.932 158.884C156.089 158.862 156.222 158.841 156.329 158.819L156.34 160.946C156.104 161.025 155.835 161.09 155.534 161.14C155.241 161.19 154.908 161.215 154.535 161.215C153.898 161.215 153.339 161.107 152.859 160.893C152.38 160.671 152.007 160.316 151.742 159.829C151.477 159.335 151.345 158.683 151.345 157.874V146.52ZM160.948 151.751V161H158.112V149.377H160.798L160.948 151.751ZM164.482 149.302L164.439 151.944C164.282 151.916 164.103 151.894 163.902 151.88C163.709 151.866 163.526 151.858 163.354 151.858C162.918 151.858 162.535 151.919 162.205 152.041C161.876 152.156 161.6 152.324 161.378 152.546C161.163 152.768 160.998 153.04 160.884 153.362C160.769 153.677 160.705 154.035 160.69 154.437L160.078 154.361C160.078 153.624 160.153 152.94 160.304 152.31C160.454 151.679 160.673 151.128 160.959 150.655C161.245 150.183 161.604 149.817 162.033 149.56C162.47 149.295 162.971 149.162 163.537 149.162C163.695 149.162 163.863 149.176 164.042 149.205C164.228 149.227 164.375 149.259 164.482 149.302ZM172.077 158.529V153.169C172.077 152.775 172.009 152.435 171.873 152.148C171.737 151.862 171.529 151.64 171.25 151.482C170.971 151.325 170.616 151.246 170.187 151.246C169.807 151.246 169.474 151.311 169.188 151.439C168.908 151.568 168.693 151.751 168.543 151.987C168.393 152.216 168.317 152.481 168.317 152.782H165.471C165.471 152.302 165.585 151.848 165.814 151.418C166.044 150.981 166.369 150.594 166.792 150.258C167.222 149.914 167.734 149.646 168.328 149.452C168.93 149.259 169.603 149.162 170.348 149.162C171.229 149.162 172.013 149.312 172.7 149.613C173.395 149.907 173.939 150.351 174.333 150.945C174.734 151.54 174.935 152.288 174.935 153.19V158.261C174.935 158.841 174.97 159.339 175.042 159.754C175.121 160.162 175.235 160.517 175.386 160.817V161H172.496C172.36 160.706 172.256 160.334 172.185 159.883C172.113 159.424 172.077 158.973 172.077 158.529ZM172.475 153.921L172.496 155.607H170.702C170.258 155.607 169.868 155.654 169.531 155.747C169.195 155.833 168.919 155.962 168.704 156.134C168.489 156.299 168.328 156.499 168.221 156.735C168.113 156.965 168.06 157.226 168.06 157.52C168.06 157.806 168.124 158.064 168.253 158.293C168.389 158.522 168.582 158.705 168.833 158.841C169.091 158.97 169.392 159.034 169.735 159.034C170.237 159.034 170.674 158.934 171.046 158.733C171.418 158.526 171.708 158.275 171.916 157.981C172.124 157.688 172.235 157.409 172.249 157.144L173.065 158.368C172.965 158.662 172.815 158.973 172.614 159.303C172.414 159.632 172.156 159.94 171.841 160.227C171.526 160.513 171.146 160.749 170.702 160.936C170.258 161.122 169.743 161.215 169.155 161.215C168.403 161.215 167.73 161.064 167.136 160.764C166.541 160.463 166.072 160.051 165.729 159.528C165.385 159.006 165.213 158.411 165.213 157.745C165.213 157.129 165.327 156.585 165.557 156.112C165.786 155.64 166.126 155.242 166.577 154.92C167.028 154.59 167.587 154.343 168.253 154.179C168.926 154.007 169.696 153.921 170.562 153.921H172.475ZM183.883 157.82C183.883 157.577 183.818 157.358 183.689 157.165C183.561 156.972 183.317 156.796 182.959 156.639C182.608 156.474 182.092 156.32 181.412 156.177C180.811 156.048 180.256 155.887 179.747 155.693C179.239 155.5 178.802 155.267 178.437 154.995C178.071 154.716 177.785 154.39 177.577 154.018C177.377 153.638 177.276 153.201 177.276 152.707C177.276 152.227 177.38 151.776 177.588 151.354C177.796 150.924 178.096 150.548 178.49 150.226C178.884 149.896 179.364 149.638 179.93 149.452C180.495 149.259 181.133 149.162 181.842 149.162C182.83 149.162 183.679 149.323 184.388 149.646C185.104 149.968 185.652 150.412 186.031 150.978C186.411 151.536 186.601 152.166 186.601 152.868H183.765C183.765 152.56 183.693 152.281 183.55 152.03C183.414 151.78 183.202 151.579 182.916 151.429C182.63 151.271 182.268 151.192 181.831 151.192C181.437 151.192 181.104 151.257 180.832 151.386C180.567 151.515 180.367 151.683 180.23 151.891C180.094 152.098 180.026 152.327 180.026 152.578C180.026 152.764 180.062 152.933 180.134 153.083C180.213 153.226 180.338 153.359 180.51 153.48C180.682 153.602 180.914 153.713 181.208 153.813C181.509 153.914 181.878 154.01 182.314 154.104C183.181 154.275 183.937 154.505 184.581 154.791C185.233 155.07 185.741 155.443 186.106 155.908C186.472 156.374 186.654 156.968 186.654 157.691C186.654 158.207 186.543 158.68 186.321 159.109C186.099 159.532 185.777 159.901 185.354 160.216C184.932 160.531 184.427 160.778 183.84 160.957C183.253 161.129 182.59 161.215 181.853 161.215C180.785 161.215 179.883 161.025 179.146 160.646C178.408 160.259 177.849 159.772 177.47 159.185C177.09 158.59 176.9 157.974 176.9 157.337H179.618C179.64 157.788 179.761 158.15 179.983 158.422C180.205 158.694 180.485 158.891 180.821 159.013C181.165 159.127 181.527 159.185 181.906 159.185C182.336 159.185 182.698 159.127 182.991 159.013C183.285 158.891 183.507 158.73 183.657 158.529C183.808 158.322 183.883 158.085 183.883 157.82Z" fill="#464646"/>
<g opacity="0.9">
<path d="M40.8906 193.5H38.5M38.5 193.5H36.1094M38.5 193.5V195.89M38.5 193.5L38.5 191.109M44.875 193.5C44.875 197.021 42.0208 199.875 38.5 199.875C34.9792 199.875 32.125 197.021 32.125 193.5C32.125 189.979 34.9792 187.125 38.5 187.125C42.0208 187.125 44.875 189.979 44.875 193.5Z" stroke="#22A1E7" stroke-width="1.5" stroke-linecap="round"/>
</g>
<g opacity="0.9">
<path d="M40.8906 226.5H38.5M38.5 226.5H36.1094M38.5 226.5V228.89M38.5 226.5L38.5 224.109M44.875 226.5C44.875 230.021 42.0208 232.875 38.5 232.875C34.9792 232.875 32.125 230.021 32.125 226.5C32.125 222.979 34.9792 220.125 38.5 220.125C42.0208 220.125 44.875 222.979 44.875 226.5Z" stroke="#22A1E7" stroke-width="1.5" stroke-linecap="round"/>
</g>
<g opacity="0.9">
<path d="M40.8906 259.5H38.5M38.5 259.5H36.1094M38.5 259.5V261.89M38.5 259.5L38.5 257.109M44.875 259.5C44.875 263.021 42.0208 265.875 38.5 265.875C34.9792 265.875 32.125 263.021 32.125 259.5C32.125 255.979 34.9792 253.125 38.5 253.125C42.0208 253.125 44.875 255.979 44.875 259.5Z" stroke="#22A1E7" stroke-width="1.5" stroke-linecap="round"/>
</g>
<g opacity="0.9">
<path d="M40.8906 292.5H38.5M38.5 292.5H36.1094M38.5 292.5V294.89M38.5 292.5L38.5 290.109M44.875 292.5C44.875 296.021 42.0208 298.875 38.5 298.875C34.9792 298.875 32.125 296.021 32.125 292.5C32.125 288.979 34.9792 286.125 38.5 286.125C42.0208 286.125 44.875 288.979 44.875 292.5Z" stroke="#22A1E7" stroke-width="1.5" stroke-linecap="round"/>
</g>
<g opacity="0.9">
<path d="M40.8906 325.5H38.5M38.5 325.5H36.1094M38.5 325.5V327.89M38.5 325.5L38.5 323.109M44.875 325.5C44.875 329.021 42.0208 331.875 38.5 331.875C34.9792 331.875 32.125 329.021 32.125 325.5C32.125 321.979 34.9792 319.125 38.5 319.125C42.0208 319.125 44.875 321.979 44.875 325.5Z" stroke="#22A1E7" stroke-width="1.5" stroke-linecap="round"/>
</g>
<rect x="30" y="30" width="85" height="85" rx="15" fill="#E7F1FC"/>
<g clip-path="url(#clip0_2617_33324)">
<path d="M97.2798 70.9703L71.9458 48.4515C71.018 47.6276 69.244 46.9762 68.0044 47.0022L49.698 47.3956C49.0935 47.4155 48.5193 47.6646 48.0916 48.0922C47.664 48.5198 47.415 49.0941 47.395 49.6985L46.9998 68.0049C46.9738 69.2445 47.6251 71.0186 48.4491 71.9446L70.9679 97.2785C71.7918 98.2063 73.1836 98.2453 74.0613 97.3676L97.3688 74.0582C97.5762 73.8553 97.7394 73.6116 97.848 73.3425C97.9567 73.0735 98.0084 72.7848 98.0001 72.4948C97.9917 72.2047 97.9234 71.9196 97.7994 71.6572C97.6754 71.3948 97.4985 71.161 97.2798 70.9703ZM59.4032 59.4038C58.7629 60.0092 57.9118 60.341 57.0307 60.3288C56.1496 60.3165 55.308 59.9612 54.6848 59.3382C54.0616 58.7152 53.7059 57.8738 53.6933 56.9927C53.6807 56.1116 54.0122 55.2604 54.6174 54.6198C54.9314 54.3058 55.3041 54.0567 55.7144 53.8867C56.1247 53.7167 56.5644 53.6293 57.0085 53.6293C57.4525 53.6293 57.8923 53.7167 58.3025 53.8867C58.7128 54.0567 59.0855 54.3058 59.3995 54.6198C59.7145 54.9333 59.9646 55.306 60.1353 55.7163C60.306 56.1266 60.3941 56.5666 60.3944 57.0111C60.3948 57.4555 60.3074 57.8956 60.1373 58.3062C59.9672 58.7168 59.7177 59.0898 59.4032 59.4038ZM83.787 74.3607H75.3306V83.2587H71.3669V74.3607H62.9123V70.5602H71.3687V61.742H75.3325V70.5602H83.7889V74.3607H83.787Z" fill="#22A1E7"/>
</g>
<defs>
<clipPath id="clip0_2617_33324">
<rect width="51" height="51" fill="white" transform="translate(47 47)"/>
</clipPath>
</defs>
</svg>
