<svg width="295" height="369" viewBox="0 0 295 369" fill="none" xmlns="http://www.w3.org/2000/svg">
<rect x="0.5" y="0.5" width="294" height="368" rx="17.5" fill="white" stroke="#CDCDCD"/>
<path d="M62.5234 187.625V199H61.0391V187.625H62.5234ZM66.1797 187.625V188.859H57.3906V187.625H66.1797ZM68.5 191.875V199H67.0547V190.547H68.4609L68.5 191.875ZM71.1406 190.5L71.1328 191.844C71.013 191.818 70.8984 191.802 70.7891 191.797C70.6849 191.786 70.5651 191.781 70.4297 191.781C70.0964 191.781 69.8021 191.833 69.5469 191.938C69.2917 192.042 69.0755 192.188 68.8984 192.375C68.7214 192.562 68.5807 192.786 68.4766 193.047C68.3776 193.302 68.3125 193.583 68.2812 193.891L67.875 194.125C67.875 193.615 67.9245 193.135 68.0234 192.688C68.1276 192.24 68.2865 191.844 68.5 191.5C68.7135 191.151 68.9844 190.88 69.3125 190.688C69.6458 190.49 70.0417 190.391 70.5 190.391C70.6042 190.391 70.724 190.404 70.8594 190.43C70.9948 190.451 71.0885 190.474 71.1406 190.5ZM74.0469 190.547V199H72.5938V190.547H74.0469ZM72.4844 188.305C72.4844 188.07 72.5547 187.872 72.6953 187.711C72.8411 187.549 73.0547 187.469 73.3359 187.469C73.612 187.469 73.8229 187.549 73.9688 187.711C74.1198 187.872 74.1953 188.07 74.1953 188.305C74.1953 188.529 74.1198 188.721 73.9688 188.883C73.8229 189.039 73.612 189.117 73.3359 189.117C73.0547 189.117 72.8411 189.039 72.6953 188.883C72.5547 188.721 72.4844 188.529 72.4844 188.305ZM77.8125 192.172V202.25H76.3594V190.547H77.6875L77.8125 192.172ZM83.5078 194.703V194.867C83.5078 195.482 83.4349 196.052 83.2891 196.578C83.1432 197.099 82.9297 197.552 82.6484 197.938C82.3724 198.323 82.0312 198.622 81.625 198.836C81.2188 199.049 80.7526 199.156 80.2266 199.156C79.6901 199.156 79.2161 199.068 78.8047 198.891C78.3932 198.714 78.0443 198.456 77.7578 198.117C77.4714 197.779 77.2422 197.372 77.0703 196.898C76.9036 196.424 76.7891 195.891 76.7266 195.297V194.422C76.7891 193.797 76.9062 193.237 77.0781 192.742C77.25 192.247 77.4766 191.826 77.7578 191.477C78.0443 191.122 78.3906 190.854 78.7969 190.672C79.2031 190.484 79.6719 190.391 80.2031 190.391C80.7344 190.391 81.2057 190.495 81.6172 190.703C82.0286 190.906 82.375 191.198 82.6562 191.578C82.9375 191.958 83.1484 192.414 83.2891 192.945C83.4349 193.471 83.5078 194.057 83.5078 194.703ZM82.0547 194.867V194.703C82.0547 194.281 82.0104 193.885 81.9219 193.516C81.8333 193.141 81.6953 192.812 81.5078 192.531C81.3255 192.245 81.0911 192.021 80.8047 191.859C80.5182 191.693 80.1771 191.609 79.7812 191.609C79.4167 191.609 79.099 191.672 78.8281 191.797C78.5625 191.922 78.3359 192.091 78.1484 192.305C77.9609 192.513 77.8073 192.753 77.6875 193.023C77.5729 193.289 77.487 193.565 77.4297 193.852V195.875C77.5339 196.24 77.6797 196.583 77.8672 196.906C78.0547 197.224 78.3047 197.482 78.6172 197.68C78.9297 197.872 79.3229 197.969 79.7969 197.969C80.1875 197.969 80.5234 197.888 80.8047 197.727C81.0911 197.56 81.3255 197.333 81.5078 197.047C81.6953 196.76 81.8333 196.432 81.9219 196.062C82.0104 195.688 82.0547 195.289 82.0547 194.867ZM92.7031 197.969C93.0469 197.969 93.3646 197.898 93.6562 197.758C93.9479 197.617 94.1875 197.424 94.375 197.18C94.5625 196.93 94.6693 196.646 94.6953 196.328H96.0703C96.0443 196.828 95.875 197.294 95.5625 197.727C95.2552 198.154 94.8516 198.5 94.3516 198.766C93.8516 199.026 93.3021 199.156 92.7031 199.156C92.0677 199.156 91.513 199.044 91.0391 198.82C90.5703 198.596 90.1797 198.289 89.8672 197.898C89.5599 197.508 89.3281 197.06 89.1719 196.555C89.0208 196.044 88.9453 195.505 88.9453 194.938V194.609C88.9453 194.042 89.0208 193.505 89.1719 193C89.3281 192.49 89.5599 192.039 89.8672 191.648C90.1797 191.258 90.5703 190.951 91.0391 190.727C91.513 190.503 92.0677 190.391 92.7031 190.391C93.3646 190.391 93.9427 190.526 94.4375 190.797C94.9323 191.062 95.3203 191.427 95.6016 191.891C95.888 192.349 96.0443 192.87 96.0703 193.453H94.6953C94.6693 193.104 94.5703 192.789 94.3984 192.508C94.2318 192.227 94.0026 192.003 93.7109 191.836C93.4245 191.664 93.0885 191.578 92.7031 191.578C92.2604 191.578 91.888 191.667 91.5859 191.844C91.2891 192.016 91.0521 192.25 90.875 192.547C90.7031 192.839 90.5781 193.164 90.5 193.523C90.4271 193.878 90.3906 194.24 90.3906 194.609V194.938C90.3906 195.307 90.4271 195.672 90.5 196.031C90.5729 196.391 90.6953 196.716 90.8672 197.008C91.0443 197.299 91.2812 197.534 91.5781 197.711C91.8802 197.883 92.2552 197.969 92.7031 197.969ZM102.68 197.555V193.203C102.68 192.87 102.612 192.581 102.477 192.336C102.346 192.086 102.148 191.893 101.883 191.758C101.617 191.622 101.289 191.555 100.898 191.555C100.534 191.555 100.214 191.617 99.9375 191.742C99.6667 191.867 99.4531 192.031 99.2969 192.234C99.1458 192.438 99.0703 192.656 99.0703 192.891H97.625C97.625 192.589 97.7031 192.289 97.8594 191.992C98.0156 191.695 98.2396 191.427 98.5312 191.188C98.8281 190.943 99.1823 190.75 99.5938 190.609C100.01 190.464 100.474 190.391 100.984 190.391C101.599 190.391 102.141 190.495 102.609 190.703C103.083 190.911 103.453 191.227 103.719 191.648C103.99 192.065 104.125 192.589 104.125 193.219V197.156C104.125 197.438 104.148 197.737 104.195 198.055C104.247 198.372 104.323 198.646 104.422 198.875V199H102.914C102.841 198.833 102.784 198.612 102.742 198.336C102.701 198.055 102.68 197.794 102.68 197.555ZM102.93 193.875L102.945 194.891H101.484C101.073 194.891 100.706 194.924 100.383 194.992C100.06 195.055 99.7891 195.151 99.5703 195.281C99.3516 195.411 99.1849 195.576 99.0703 195.773C98.9557 195.966 98.8984 196.193 98.8984 196.453C98.8984 196.719 98.9583 196.961 99.0781 197.18C99.1979 197.398 99.3776 197.573 99.6172 197.703C99.862 197.828 100.161 197.891 100.516 197.891C100.958 197.891 101.349 197.797 101.688 197.609C102.026 197.422 102.294 197.193 102.492 196.922C102.695 196.651 102.805 196.388 102.82 196.133L103.438 196.828C103.401 197.047 103.302 197.289 103.141 197.555C102.979 197.82 102.763 198.076 102.492 198.32C102.227 198.56 101.909 198.76 101.539 198.922C101.174 199.078 100.763 199.156 100.305 199.156C99.7318 199.156 99.2292 199.044 98.7969 198.82C98.3698 198.596 98.0365 198.297 97.7969 197.922C97.5625 197.542 97.4453 197.117 97.4453 196.648C97.4453 196.195 97.5339 195.797 97.7109 195.453C97.888 195.104 98.1432 194.815 98.4766 194.586C98.8099 194.352 99.2109 194.174 99.6797 194.055C100.148 193.935 100.672 193.875 101.25 193.875H102.93ZM107.844 192.352V199H106.398V190.547H107.766L107.844 192.352ZM107.5 194.453L106.898 194.43C106.904 193.852 106.99 193.318 107.156 192.828C107.323 192.333 107.557 191.904 107.859 191.539C108.161 191.174 108.521 190.893 108.938 190.695C109.359 190.492 109.826 190.391 110.336 190.391C110.753 190.391 111.128 190.448 111.461 190.562C111.794 190.672 112.078 190.849 112.312 191.094C112.552 191.339 112.734 191.656 112.859 192.047C112.984 192.432 113.047 192.904 113.047 193.461V199H111.594V193.445C111.594 193.003 111.529 192.648 111.398 192.383C111.268 192.112 111.078 191.917 110.828 191.797C110.578 191.672 110.271 191.609 109.906 191.609C109.547 191.609 109.219 191.685 108.922 191.836C108.63 191.987 108.378 192.195 108.164 192.461C107.956 192.727 107.792 193.031 107.672 193.375C107.557 193.714 107.5 194.073 107.5 194.453ZM118.625 197.969C118.969 197.969 119.286 197.898 119.578 197.758C119.87 197.617 120.109 197.424 120.297 197.18C120.484 196.93 120.591 196.646 120.617 196.328H121.992C121.966 196.828 121.797 197.294 121.484 197.727C121.177 198.154 120.773 198.5 120.273 198.766C119.773 199.026 119.224 199.156 118.625 199.156C117.99 199.156 117.435 199.044 116.961 198.82C116.492 198.596 116.102 198.289 115.789 197.898C115.482 197.508 115.25 197.06 115.094 196.555C114.943 196.044 114.867 195.505 114.867 194.938V194.609C114.867 194.042 114.943 193.505 115.094 193C115.25 192.49 115.482 192.039 115.789 191.648C116.102 191.258 116.492 190.951 116.961 190.727C117.435 190.503 117.99 190.391 118.625 190.391C119.286 190.391 119.865 190.526 120.359 190.797C120.854 191.062 121.242 191.427 121.523 191.891C121.81 192.349 121.966 192.87 121.992 193.453H120.617C120.591 193.104 120.492 192.789 120.32 192.508C120.154 192.227 119.924 192.003 119.633 191.836C119.346 191.664 119.01 191.578 118.625 191.578C118.182 191.578 117.81 191.667 117.508 191.844C117.211 192.016 116.974 192.25 116.797 192.547C116.625 192.839 116.5 193.164 116.422 193.523C116.349 193.878 116.312 194.24 116.312 194.609V194.938C116.312 195.307 116.349 195.672 116.422 196.031C116.495 196.391 116.617 196.716 116.789 197.008C116.966 197.299 117.203 197.534 117.5 197.711C117.802 197.883 118.177 197.969 118.625 197.969ZM127.125 199.156C126.536 199.156 126.003 199.057 125.523 198.859C125.049 198.656 124.641 198.372 124.297 198.008C123.958 197.643 123.698 197.211 123.516 196.711C123.333 196.211 123.242 195.664 123.242 195.07V194.742C123.242 194.055 123.344 193.443 123.547 192.906C123.75 192.365 124.026 191.906 124.375 191.531C124.724 191.156 125.12 190.872 125.562 190.68C126.005 190.487 126.464 190.391 126.938 190.391C127.542 190.391 128.062 190.495 128.5 190.703C128.943 190.911 129.305 191.203 129.586 191.578C129.867 191.948 130.076 192.385 130.211 192.891C130.346 193.391 130.414 193.938 130.414 194.531V195.18H124.102V194H128.969V193.891C128.948 193.516 128.87 193.151 128.734 192.797C128.604 192.443 128.396 192.151 128.109 191.922C127.823 191.693 127.432 191.578 126.938 191.578C126.609 191.578 126.307 191.648 126.031 191.789C125.755 191.924 125.518 192.128 125.32 192.398C125.122 192.669 124.969 193 124.859 193.391C124.75 193.781 124.695 194.232 124.695 194.742V195.07C124.695 195.471 124.75 195.849 124.859 196.203C124.974 196.552 125.138 196.859 125.352 197.125C125.57 197.391 125.833 197.599 126.141 197.75C126.453 197.901 126.807 197.977 127.203 197.977C127.714 197.977 128.146 197.872 128.5 197.664C128.854 197.456 129.164 197.177 129.43 196.828L130.305 197.523C130.122 197.799 129.891 198.062 129.609 198.312C129.328 198.562 128.982 198.766 128.57 198.922C128.164 199.078 127.682 199.156 127.125 199.156ZM133.672 187V199H132.219V187H133.672ZM137.562 187V199H136.109V187H137.562ZM144.867 197.555V193.203C144.867 192.87 144.799 192.581 144.664 192.336C144.534 192.086 144.336 191.893 144.07 191.758C143.805 191.622 143.477 191.555 143.086 191.555C142.721 191.555 142.401 191.617 142.125 191.742C141.854 191.867 141.641 192.031 141.484 192.234C141.333 192.438 141.258 192.656 141.258 192.891H139.812C139.812 192.589 139.891 192.289 140.047 191.992C140.203 191.695 140.427 191.427 140.719 191.188C141.016 190.943 141.37 190.75 141.781 190.609C142.198 190.464 142.661 190.391 143.172 190.391C143.786 190.391 144.328 190.495 144.797 190.703C145.271 190.911 145.641 191.227 145.906 191.648C146.177 192.065 146.312 192.589 146.312 193.219V197.156C146.312 197.438 146.336 197.737 146.383 198.055C146.435 198.372 146.51 198.646 146.609 198.875V199H145.102C145.029 198.833 144.971 198.612 144.93 198.336C144.888 198.055 144.867 197.794 144.867 197.555ZM145.117 193.875L145.133 194.891H143.672C143.26 194.891 142.893 194.924 142.57 194.992C142.247 195.055 141.977 195.151 141.758 195.281C141.539 195.411 141.372 195.576 141.258 195.773C141.143 195.966 141.086 196.193 141.086 196.453C141.086 196.719 141.146 196.961 141.266 197.18C141.385 197.398 141.565 197.573 141.805 197.703C142.049 197.828 142.349 197.891 142.703 197.891C143.146 197.891 143.536 197.797 143.875 197.609C144.214 197.422 144.482 197.193 144.68 196.922C144.883 196.651 144.992 196.388 145.008 196.133L145.625 196.828C145.589 197.047 145.49 197.289 145.328 197.555C145.167 197.82 144.951 198.076 144.68 198.32C144.414 198.56 144.096 198.76 143.727 198.922C143.362 199.078 142.951 199.156 142.492 199.156C141.919 199.156 141.417 199.044 140.984 198.82C140.557 198.596 140.224 198.297 139.984 197.922C139.75 197.542 139.633 197.117 139.633 196.648C139.633 196.195 139.721 195.797 139.898 195.453C140.076 195.104 140.331 194.815 140.664 194.586C140.997 194.352 141.398 194.174 141.867 194.055C142.336 193.935 142.859 193.875 143.438 193.875H145.117ZM152.125 190.547V191.656H147.555V190.547H152.125ZM149.102 188.492H150.547V196.906C150.547 197.193 150.591 197.409 150.68 197.555C150.768 197.701 150.883 197.797 151.023 197.844C151.164 197.891 151.315 197.914 151.477 197.914C151.596 197.914 151.721 197.904 151.852 197.883C151.987 197.857 152.089 197.836 152.156 197.82L152.164 199C152.049 199.036 151.898 199.07 151.711 199.102C151.529 199.138 151.307 199.156 151.047 199.156C150.693 199.156 150.367 199.086 150.07 198.945C149.773 198.805 149.536 198.57 149.359 198.242C149.188 197.909 149.102 197.461 149.102 196.898V188.492ZM155.391 190.547V199H153.938V190.547H155.391ZM153.828 188.305C153.828 188.07 153.898 187.872 154.039 187.711C154.185 187.549 154.398 187.469 154.68 187.469C154.956 187.469 155.167 187.549 155.312 187.711C155.464 187.872 155.539 188.07 155.539 188.305C155.539 188.529 155.464 188.721 155.312 188.883C155.167 189.039 154.956 189.117 154.68 189.117C154.398 189.117 154.185 189.039 154.039 188.883C153.898 188.721 153.828 188.529 153.828 188.305ZM157.328 194.867V194.688C157.328 194.078 157.417 193.513 157.594 192.992C157.771 192.466 158.026 192.01 158.359 191.625C158.693 191.234 159.096 190.932 159.57 190.719C160.044 190.5 160.576 190.391 161.164 190.391C161.758 190.391 162.292 190.5 162.766 190.719C163.245 190.932 163.651 191.234 163.984 191.625C164.323 192.01 164.581 192.466 164.758 192.992C164.935 193.513 165.023 194.078 165.023 194.688V194.867C165.023 195.477 164.935 196.042 164.758 196.562C164.581 197.083 164.323 197.539 163.984 197.93C163.651 198.315 163.247 198.617 162.773 198.836C162.305 199.049 161.773 199.156 161.18 199.156C160.586 199.156 160.052 199.049 159.578 198.836C159.104 198.617 158.698 198.315 158.359 197.93C158.026 197.539 157.771 197.083 157.594 196.562C157.417 196.042 157.328 195.477 157.328 194.867ZM158.773 194.688V194.867C158.773 195.289 158.823 195.688 158.922 196.062C159.021 196.432 159.169 196.76 159.367 197.047C159.57 197.333 159.823 197.56 160.125 197.727C160.427 197.888 160.779 197.969 161.18 197.969C161.576 197.969 161.922 197.888 162.219 197.727C162.521 197.56 162.771 197.333 162.969 197.047C163.167 196.76 163.315 196.432 163.414 196.062C163.518 195.688 163.57 195.289 163.57 194.867V194.688C163.57 194.271 163.518 193.878 163.414 193.508C163.315 193.133 163.164 192.802 162.961 192.516C162.763 192.224 162.513 191.995 162.211 191.828C161.914 191.661 161.565 191.578 161.164 191.578C160.768 191.578 160.419 191.661 160.117 191.828C159.82 191.995 159.57 192.224 159.367 192.516C159.169 192.802 159.021 193.133 158.922 193.508C158.823 193.878 158.773 194.271 158.773 194.688ZM168.281 192.352V199H166.836V190.547H168.203L168.281 192.352ZM167.938 194.453L167.336 194.43C167.341 193.852 167.427 193.318 167.594 192.828C167.76 192.333 167.995 191.904 168.297 191.539C168.599 191.174 168.958 190.893 169.375 190.695C169.797 190.492 170.263 190.391 170.773 190.391C171.19 190.391 171.565 190.448 171.898 190.562C172.232 190.672 172.516 190.849 172.75 191.094C172.99 191.339 173.172 191.656 173.297 192.047C173.422 192.432 173.484 192.904 173.484 193.461V199H172.031V193.445C172.031 193.003 171.966 192.648 171.836 192.383C171.706 192.112 171.516 191.917 171.266 191.797C171.016 191.672 170.708 191.609 170.344 191.609C169.984 191.609 169.656 191.685 169.359 191.836C169.068 191.987 168.815 192.195 168.602 192.461C168.393 192.727 168.229 193.031 168.109 193.375C167.995 193.714 167.938 194.073 167.938 194.453ZM180.602 196.758C180.602 196.549 180.555 196.357 180.461 196.18C180.372 195.997 180.188 195.833 179.906 195.688C179.63 195.536 179.214 195.406 178.656 195.297C178.188 195.198 177.763 195.081 177.383 194.945C177.008 194.81 176.688 194.646 176.422 194.453C176.161 194.26 175.961 194.034 175.82 193.773C175.68 193.513 175.609 193.208 175.609 192.859C175.609 192.526 175.682 192.211 175.828 191.914C175.979 191.617 176.19 191.354 176.461 191.125C176.737 190.896 177.068 190.716 177.453 190.586C177.839 190.456 178.268 190.391 178.742 190.391C179.419 190.391 179.997 190.51 180.477 190.75C180.956 190.99 181.323 191.31 181.578 191.711C181.833 192.107 181.961 192.547 181.961 193.031H180.516C180.516 192.797 180.445 192.57 180.305 192.352C180.169 192.128 179.969 191.943 179.703 191.797C179.443 191.651 179.122 191.578 178.742 191.578C178.341 191.578 178.016 191.641 177.766 191.766C177.521 191.885 177.341 192.039 177.227 192.227C177.117 192.414 177.062 192.612 177.062 192.82C177.062 192.977 177.089 193.117 177.141 193.242C177.198 193.362 177.297 193.474 177.438 193.578C177.578 193.677 177.776 193.771 178.031 193.859C178.286 193.948 178.612 194.036 179.008 194.125C179.701 194.281 180.271 194.469 180.719 194.688C181.167 194.906 181.5 195.174 181.719 195.492C181.938 195.81 182.047 196.195 182.047 196.648C182.047 197.018 181.969 197.357 181.812 197.664C181.661 197.971 181.44 198.237 181.148 198.461C180.862 198.68 180.518 198.852 180.117 198.977C179.721 199.096 179.276 199.156 178.781 199.156C178.036 199.156 177.406 199.023 176.891 198.758C176.375 198.492 175.984 198.148 175.719 197.727C175.453 197.305 175.32 196.859 175.32 196.391H176.773C176.794 196.786 176.909 197.102 177.117 197.336C177.326 197.565 177.581 197.729 177.883 197.828C178.185 197.922 178.484 197.969 178.781 197.969C179.177 197.969 179.508 197.917 179.773 197.812C180.044 197.708 180.25 197.565 180.391 197.383C180.531 197.201 180.602 196.992 180.602 196.758ZM62.5234 220.625V232H61.0391V220.625H62.5234ZM66.1797 220.625V221.859H57.3906V220.625H66.1797ZM68.5 224.875V232H67.0547V223.547H68.4609L68.5 224.875ZM71.1406 223.5L71.1328 224.844C71.013 224.818 70.8984 224.802 70.7891 224.797C70.6849 224.786 70.5651 224.781 70.4297 224.781C70.0964 224.781 69.8021 224.833 69.5469 224.938C69.2917 225.042 69.0755 225.188 68.8984 225.375C68.7214 225.562 68.5807 225.786 68.4766 226.047C68.3776 226.302 68.3125 226.583 68.2812 226.891L67.875 227.125C67.875 226.615 67.9245 226.135 68.0234 225.688C68.1276 225.24 68.2865 224.844 68.5 224.5C68.7135 224.151 68.9844 223.88 69.3125 223.688C69.6458 223.49 70.0417 223.391 70.5 223.391C70.6042 223.391 70.724 223.404 70.8594 223.43C70.9948 223.451 71.0885 223.474 71.1406 223.5ZM74.0469 223.547V232H72.5938V223.547H74.0469ZM72.4844 221.305C72.4844 221.07 72.5547 220.872 72.6953 220.711C72.8411 220.549 73.0547 220.469 73.3359 220.469C73.612 220.469 73.8229 220.549 73.9688 220.711C74.1198 220.872 74.1953 221.07 74.1953 221.305C74.1953 221.529 74.1198 221.721 73.9688 221.883C73.8229 222.039 73.612 222.117 73.3359 222.117C73.0547 222.117 72.8411 222.039 72.6953 221.883C72.5547 221.721 72.4844 221.529 72.4844 221.305ZM77.8125 225.172V235.25H76.3594V223.547H77.6875L77.8125 225.172ZM83.5078 227.703V227.867C83.5078 228.482 83.4349 229.052 83.2891 229.578C83.1432 230.099 82.9297 230.552 82.6484 230.938C82.3724 231.323 82.0312 231.622 81.625 231.836C81.2188 232.049 80.7526 232.156 80.2266 232.156C79.6901 232.156 79.2161 232.068 78.8047 231.891C78.3932 231.714 78.0443 231.456 77.7578 231.117C77.4714 230.779 77.2422 230.372 77.0703 229.898C76.9036 229.424 76.7891 228.891 76.7266 228.297V227.422C76.7891 226.797 76.9062 226.237 77.0781 225.742C77.25 225.247 77.4766 224.826 77.7578 224.477C78.0443 224.122 78.3906 223.854 78.7969 223.672C79.2031 223.484 79.6719 223.391 80.2031 223.391C80.7344 223.391 81.2057 223.495 81.6172 223.703C82.0286 223.906 82.375 224.198 82.6562 224.578C82.9375 224.958 83.1484 225.414 83.2891 225.945C83.4349 226.471 83.5078 227.057 83.5078 227.703ZM82.0547 227.867V227.703C82.0547 227.281 82.0104 226.885 81.9219 226.516C81.8333 226.141 81.6953 225.812 81.5078 225.531C81.3255 225.245 81.0911 225.021 80.8047 224.859C80.5182 224.693 80.1771 224.609 79.7812 224.609C79.4167 224.609 79.099 224.672 78.8281 224.797C78.5625 224.922 78.3359 225.091 78.1484 225.305C77.9609 225.513 77.8073 225.753 77.6875 226.023C77.5729 226.289 77.487 226.565 77.4297 226.852V228.875C77.5339 229.24 77.6797 229.583 77.8672 229.906C78.0547 230.224 78.3047 230.482 78.6172 230.68C78.9297 230.872 79.3229 230.969 79.7969 230.969C80.1875 230.969 80.5234 230.888 80.8047 230.727C81.0911 230.56 81.3255 230.333 81.5078 230.047C81.6953 229.76 81.8333 229.432 81.9219 229.062C82.0104 228.688 82.0547 228.289 82.0547 227.867ZM94.6484 230.359V220H96.1016V232H94.7734L94.6484 230.359ZM88.9609 227.867V227.703C88.9609 227.057 89.0391 226.471 89.1953 225.945C89.3568 225.414 89.5833 224.958 89.875 224.578C90.1719 224.198 90.5234 223.906 90.9297 223.703C91.3411 223.495 91.7995 223.391 92.3047 223.391C92.8359 223.391 93.2995 223.484 93.6953 223.672C94.0964 223.854 94.4349 224.122 94.7109 224.477C94.9922 224.826 95.2135 225.247 95.375 225.742C95.5365 226.237 95.6484 226.797 95.7109 227.422V228.141C95.6536 228.76 95.5417 229.318 95.375 229.812C95.2135 230.307 94.9922 230.729 94.7109 231.078C94.4349 231.427 94.0964 231.695 93.6953 231.883C93.2943 232.065 92.8255 232.156 92.2891 232.156C91.7943 232.156 91.3411 232.049 90.9297 231.836C90.5234 231.622 90.1719 231.323 89.875 230.938C89.5833 230.552 89.3568 230.099 89.1953 229.578C89.0391 229.052 88.9609 228.482 88.9609 227.867ZM90.4141 227.703V227.867C90.4141 228.289 90.4557 228.685 90.5391 229.055C90.6276 229.424 90.763 229.75 90.9453 230.031C91.1276 230.312 91.3594 230.534 91.6406 230.695C91.9219 230.852 92.2578 230.93 92.6484 230.93C93.1276 230.93 93.5208 230.828 93.8281 230.625C94.1406 230.422 94.3906 230.154 94.5781 229.82C94.7656 229.487 94.9115 229.125 95.0156 228.734V226.852C94.9531 226.565 94.862 226.289 94.7422 226.023C94.6276 225.753 94.4766 225.513 94.2891 225.305C94.1068 225.091 93.8802 224.922 93.6094 224.797C93.3438 224.672 93.0286 224.609 92.6641 224.609C92.2682 224.609 91.9271 224.693 91.6406 224.859C91.3594 225.021 91.1276 225.245 90.9453 225.531C90.763 225.812 90.6276 226.141 90.5391 226.516C90.4557 226.885 90.4141 227.281 90.4141 227.703ZM101.859 232.156C101.271 232.156 100.737 232.057 100.258 231.859C99.7839 231.656 99.375 231.372 99.0312 231.008C98.6927 230.643 98.4323 230.211 98.25 229.711C98.0677 229.211 97.9766 228.664 97.9766 228.07V227.742C97.9766 227.055 98.0781 226.443 98.2812 225.906C98.4844 225.365 98.7604 224.906 99.1094 224.531C99.4583 224.156 99.8542 223.872 100.297 223.68C100.74 223.487 101.198 223.391 101.672 223.391C102.276 223.391 102.797 223.495 103.234 223.703C103.677 223.911 104.039 224.203 104.32 224.578C104.602 224.948 104.81 225.385 104.945 225.891C105.081 226.391 105.148 226.938 105.148 227.531V228.18H98.8359V227H103.703V226.891C103.682 226.516 103.604 226.151 103.469 225.797C103.339 225.443 103.13 225.151 102.844 224.922C102.557 224.693 102.167 224.578 101.672 224.578C101.344 224.578 101.042 224.648 100.766 224.789C100.49 224.924 100.253 225.128 100.055 225.398C99.8568 225.669 99.7031 226 99.5938 226.391C99.4844 226.781 99.4297 227.232 99.4297 227.742V228.07C99.4297 228.471 99.4844 228.849 99.5938 229.203C99.7083 229.552 99.8724 229.859 100.086 230.125C100.305 230.391 100.568 230.599 100.875 230.75C101.188 230.901 101.542 230.977 101.938 230.977C102.448 230.977 102.88 230.872 103.234 230.664C103.589 230.456 103.898 230.177 104.164 229.828L105.039 230.523C104.857 230.799 104.625 231.062 104.344 231.312C104.062 231.562 103.716 231.766 103.305 231.922C102.898 232.078 102.417 232.156 101.859 232.156ZM108.406 220V232H106.953V220H108.406ZM115.711 230.555V226.203C115.711 225.87 115.643 225.581 115.508 225.336C115.378 225.086 115.18 224.893 114.914 224.758C114.648 224.622 114.32 224.555 113.93 224.555C113.565 224.555 113.245 224.617 112.969 224.742C112.698 224.867 112.484 225.031 112.328 225.234C112.177 225.438 112.102 225.656 112.102 225.891H110.656C110.656 225.589 110.734 225.289 110.891 224.992C111.047 224.695 111.271 224.427 111.562 224.188C111.859 223.943 112.214 223.75 112.625 223.609C113.042 223.464 113.505 223.391 114.016 223.391C114.63 223.391 115.172 223.495 115.641 223.703C116.115 223.911 116.484 224.227 116.75 224.648C117.021 225.065 117.156 225.589 117.156 226.219V230.156C117.156 230.438 117.18 230.737 117.227 231.055C117.279 231.372 117.354 231.646 117.453 231.875V232H115.945C115.872 231.833 115.815 231.612 115.773 231.336C115.732 231.055 115.711 230.794 115.711 230.555ZM115.961 226.875L115.977 227.891H114.516C114.104 227.891 113.737 227.924 113.414 227.992C113.091 228.055 112.82 228.151 112.602 228.281C112.383 228.411 112.216 228.576 112.102 228.773C111.987 228.966 111.93 229.193 111.93 229.453C111.93 229.719 111.99 229.961 112.109 230.18C112.229 230.398 112.409 230.573 112.648 230.703C112.893 230.828 113.193 230.891 113.547 230.891C113.99 230.891 114.38 230.797 114.719 230.609C115.057 230.422 115.326 230.193 115.523 229.922C115.727 229.651 115.836 229.388 115.852 229.133L116.469 229.828C116.432 230.047 116.333 230.289 116.172 230.555C116.01 230.82 115.794 231.076 115.523 231.32C115.258 231.56 114.94 231.76 114.57 231.922C114.206 232.078 113.794 232.156 113.336 232.156C112.763 232.156 112.26 232.044 111.828 231.82C111.401 231.596 111.068 231.297 110.828 230.922C110.594 230.542 110.477 230.117 110.477 229.648C110.477 229.195 110.565 228.797 110.742 228.453C110.919 228.104 111.174 227.815 111.508 227.586C111.841 227.352 112.242 227.174 112.711 227.055C113.18 226.935 113.703 226.875 114.281 226.875H115.961ZM121.68 231.125L124.031 223.547H125.578L122.188 233.305C122.109 233.513 122.005 233.737 121.875 233.977C121.75 234.221 121.589 234.453 121.391 234.672C121.193 234.891 120.953 235.068 120.672 235.203C120.396 235.344 120.065 235.414 119.68 235.414C119.565 235.414 119.419 235.398 119.242 235.367C119.065 235.336 118.94 235.31 118.867 235.289L118.859 234.117C118.901 234.122 118.966 234.128 119.055 234.133C119.148 234.143 119.214 234.148 119.25 234.148C119.578 234.148 119.857 234.104 120.086 234.016C120.315 233.932 120.508 233.789 120.664 233.586C120.826 233.388 120.964 233.115 121.078 232.766L121.68 231.125ZM119.953 223.547L122.148 230.109L122.523 231.633L121.484 232.164L118.375 223.547H119.953ZM62.5234 253.625V265H61.0391V253.625H62.5234ZM66.1797 253.625V254.859H57.3906V253.625H66.1797ZM68.5 257.875V265H67.0547V256.547H68.4609L68.5 257.875ZM71.1406 256.5L71.1328 257.844C71.013 257.818 70.8984 257.802 70.7891 257.797C70.6849 257.786 70.5651 257.781 70.4297 257.781C70.0964 257.781 69.8021 257.833 69.5469 257.938C69.2917 258.042 69.0755 258.188 68.8984 258.375C68.7214 258.562 68.5807 258.786 68.4766 259.047C68.3776 259.302 68.3125 259.583 68.2812 259.891L67.875 260.125C67.875 259.615 67.9245 259.135 68.0234 258.688C68.1276 258.24 68.2865 257.844 68.5 257.5C68.7135 257.151 68.9844 256.88 69.3125 256.688C69.6458 256.49 70.0417 256.391 70.5 256.391C70.6042 256.391 70.724 256.404 70.8594 256.43C70.9948 256.451 71.0885 256.474 71.1406 256.5ZM74.0469 256.547V265H72.5938V256.547H74.0469ZM72.4844 254.305C72.4844 254.07 72.5547 253.872 72.6953 253.711C72.8411 253.549 73.0547 253.469 73.3359 253.469C73.612 253.469 73.8229 253.549 73.9688 253.711C74.1198 253.872 74.1953 254.07 74.1953 254.305C74.1953 254.529 74.1198 254.721 73.9688 254.883C73.8229 255.039 73.612 255.117 73.3359 255.117C73.0547 255.117 72.8411 255.039 72.6953 254.883C72.5547 254.721 72.4844 254.529 72.4844 254.305ZM77.8125 258.172V268.25H76.3594V256.547H77.6875L77.8125 258.172ZM83.5078 260.703V260.867C83.5078 261.482 83.4349 262.052 83.2891 262.578C83.1432 263.099 82.9297 263.552 82.6484 263.938C82.3724 264.323 82.0312 264.622 81.625 264.836C81.2188 265.049 80.7526 265.156 80.2266 265.156C79.6901 265.156 79.2161 265.068 78.8047 264.891C78.3932 264.714 78.0443 264.456 77.7578 264.117C77.4714 263.779 77.2422 263.372 77.0703 262.898C76.9036 262.424 76.7891 261.891 76.7266 261.297V260.422C76.7891 259.797 76.9062 259.237 77.0781 258.742C77.25 258.247 77.4766 257.826 77.7578 257.477C78.0443 257.122 78.3906 256.854 78.7969 256.672C79.2031 256.484 79.6719 256.391 80.2031 256.391C80.7344 256.391 81.2057 256.495 81.6172 256.703C82.0286 256.906 82.375 257.198 82.6562 257.578C82.9375 257.958 83.1484 258.414 83.2891 258.945C83.4349 259.471 83.5078 260.057 83.5078 260.703ZM82.0547 260.867V260.703C82.0547 260.281 82.0104 259.885 81.9219 259.516C81.8333 259.141 81.6953 258.812 81.5078 258.531C81.3255 258.245 81.0911 258.021 80.8047 257.859C80.5182 257.693 80.1771 257.609 79.7812 257.609C79.4167 257.609 79.099 257.672 78.8281 257.797C78.5625 257.922 78.3359 258.091 78.1484 258.305C77.9609 258.513 77.8073 258.753 77.6875 259.023C77.5729 259.289 77.487 259.565 77.4297 259.852V261.875C77.5339 262.24 77.6797 262.583 77.8672 262.906C78.0547 263.224 78.3047 263.482 78.6172 263.68C78.9297 263.872 79.3229 263.969 79.7969 263.969C80.1875 263.969 80.5234 263.888 80.8047 263.727C81.0911 263.56 81.3255 263.333 81.5078 263.047C81.6953 262.76 81.8333 262.432 81.9219 262.062C82.0104 261.688 82.0547 261.289 82.0547 260.867ZM90.8906 256.547V265H89.4375V256.547H90.8906ZM89.3281 254.305C89.3281 254.07 89.3984 253.872 89.5391 253.711C89.6849 253.549 89.8984 253.469 90.1797 253.469C90.4557 253.469 90.6667 253.549 90.8125 253.711C90.9635 253.872 91.0391 254.07 91.0391 254.305C91.0391 254.529 90.9635 254.721 90.8125 254.883C90.6667 255.039 90.4557 255.117 90.1797 255.117C89.8984 255.117 89.6849 255.039 89.5391 254.883C89.3984 254.721 89.3281 254.529 89.3281 254.305ZM94.6562 258.352V265H93.2109V256.547H94.5781L94.6562 258.352ZM94.3125 260.453L93.7109 260.43C93.7161 259.852 93.8021 259.318 93.9688 258.828C94.1354 258.333 94.3698 257.904 94.6719 257.539C94.974 257.174 95.3333 256.893 95.75 256.695C96.1719 256.492 96.638 256.391 97.1484 256.391C97.5651 256.391 97.9401 256.448 98.2734 256.562C98.6068 256.672 98.8906 256.849 99.125 257.094C99.3646 257.339 99.5469 257.656 99.6719 258.047C99.7969 258.432 99.8594 258.904 99.8594 259.461V265H98.4062V259.445C98.4062 259.003 98.3411 258.648 98.2109 258.383C98.0807 258.112 97.8906 257.917 97.6406 257.797C97.3906 257.672 97.0833 257.609 96.7188 257.609C96.3594 257.609 96.0312 257.685 95.7344 257.836C95.4427 257.987 95.1901 258.195 94.9766 258.461C94.7682 258.727 94.6042 259.031 94.4844 259.375C94.3698 259.714 94.3125 260.073 94.3125 260.453ZM105.594 256.547V257.656H101.023V256.547H105.594ZM102.57 254.492H104.016V262.906C104.016 263.193 104.06 263.409 104.148 263.555C104.237 263.701 104.352 263.797 104.492 263.844C104.633 263.891 104.784 263.914 104.945 263.914C105.065 263.914 105.19 263.904 105.32 263.883C105.456 263.857 105.557 263.836 105.625 263.82L105.633 265C105.518 265.036 105.367 265.07 105.18 265.102C104.997 265.138 104.776 265.156 104.516 265.156C104.161 265.156 103.836 265.086 103.539 264.945C103.242 264.805 103.005 264.57 102.828 264.242C102.656 263.909 102.57 263.461 102.57 262.898V254.492ZM110.797 265.156C110.208 265.156 109.674 265.057 109.195 264.859C108.721 264.656 108.312 264.372 107.969 264.008C107.63 263.643 107.37 263.211 107.188 262.711C107.005 262.211 106.914 261.664 106.914 261.07V260.742C106.914 260.055 107.016 259.443 107.219 258.906C107.422 258.365 107.698 257.906 108.047 257.531C108.396 257.156 108.792 256.872 109.234 256.68C109.677 256.487 110.135 256.391 110.609 256.391C111.214 256.391 111.734 256.495 112.172 256.703C112.615 256.911 112.977 257.203 113.258 257.578C113.539 257.948 113.747 258.385 113.883 258.891C114.018 259.391 114.086 259.938 114.086 260.531V261.18H107.773V260H112.641V259.891C112.62 259.516 112.542 259.151 112.406 258.797C112.276 258.443 112.068 258.151 111.781 257.922C111.495 257.693 111.104 257.578 110.609 257.578C110.281 257.578 109.979 257.648 109.703 257.789C109.427 257.924 109.19 258.128 108.992 258.398C108.794 258.669 108.641 259 108.531 259.391C108.422 259.781 108.367 260.232 108.367 260.742V261.07C108.367 261.471 108.422 261.849 108.531 262.203C108.646 262.552 108.81 262.859 109.023 263.125C109.242 263.391 109.505 263.599 109.812 263.75C110.125 263.901 110.479 263.977 110.875 263.977C111.385 263.977 111.818 263.872 112.172 263.664C112.526 263.456 112.836 263.177 113.102 262.828L113.977 263.523C113.794 263.799 113.562 264.062 113.281 264.312C113 264.562 112.654 264.766 112.242 264.922C111.836 265.078 111.354 265.156 110.797 265.156ZM117.219 257.875V265H115.773V256.547H117.18L117.219 257.875ZM119.859 256.5L119.852 257.844C119.732 257.818 119.617 257.802 119.508 257.797C119.404 257.786 119.284 257.781 119.148 257.781C118.815 257.781 118.521 257.833 118.266 257.938C118.01 258.042 117.794 258.188 117.617 258.375C117.44 258.562 117.299 258.786 117.195 259.047C117.096 259.302 117.031 259.583 117 259.891L116.594 260.125C116.594 259.615 116.643 259.135 116.742 258.688C116.846 258.24 117.005 257.844 117.219 257.5C117.432 257.151 117.703 256.88 118.031 256.688C118.365 256.49 118.76 256.391 119.219 256.391C119.323 256.391 119.443 256.404 119.578 256.43C119.714 256.451 119.807 256.474 119.859 256.5ZM122.641 257.875V265H121.195V256.547H122.602L122.641 257.875ZM125.281 256.5L125.273 257.844C125.154 257.818 125.039 257.802 124.93 257.797C124.826 257.786 124.706 257.781 124.57 257.781C124.237 257.781 123.943 257.833 123.688 257.938C123.432 258.042 123.216 258.188 123.039 258.375C122.862 258.562 122.721 258.786 122.617 259.047C122.518 259.302 122.453 259.583 122.422 259.891L122.016 260.125C122.016 259.615 122.065 259.135 122.164 258.688C122.268 258.24 122.427 257.844 122.641 257.5C122.854 257.151 123.125 256.88 123.453 256.688C123.786 256.49 124.182 256.391 124.641 256.391C124.745 256.391 124.865 256.404 125 256.43C125.135 256.451 125.229 256.474 125.281 256.5ZM131.789 263.047V256.547H133.242V265H131.859L131.789 263.047ZM132.062 261.266L132.664 261.25C132.664 261.812 132.604 262.333 132.484 262.812C132.37 263.286 132.182 263.698 131.922 264.047C131.661 264.396 131.32 264.669 130.898 264.867C130.477 265.06 129.964 265.156 129.359 265.156C128.948 265.156 128.57 265.096 128.227 264.977C127.888 264.857 127.596 264.672 127.352 264.422C127.107 264.172 126.917 263.846 126.781 263.445C126.651 263.044 126.586 262.562 126.586 262V256.547H128.031V262.016C128.031 262.396 128.073 262.711 128.156 262.961C128.245 263.206 128.362 263.401 128.508 263.547C128.659 263.688 128.826 263.786 129.008 263.844C129.195 263.901 129.388 263.93 129.586 263.93C130.201 263.93 130.688 263.812 131.047 263.578C131.406 263.339 131.664 263.018 131.82 262.617C131.982 262.211 132.062 261.76 132.062 261.266ZM136.891 258.172V268.25H135.438V256.547H136.766L136.891 258.172ZM142.586 260.703V260.867C142.586 261.482 142.513 262.052 142.367 262.578C142.221 263.099 142.008 263.552 141.727 263.938C141.451 264.323 141.109 264.622 140.703 264.836C140.297 265.049 139.831 265.156 139.305 265.156C138.768 265.156 138.294 265.068 137.883 264.891C137.471 264.714 137.122 264.456 136.836 264.117C136.549 263.779 136.32 263.372 136.148 262.898C135.982 262.424 135.867 261.891 135.805 261.297V260.422C135.867 259.797 135.984 259.237 136.156 258.742C136.328 258.247 136.555 257.826 136.836 257.477C137.122 257.122 137.469 256.854 137.875 256.672C138.281 256.484 138.75 256.391 139.281 256.391C139.812 256.391 140.284 256.495 140.695 256.703C141.107 256.906 141.453 257.198 141.734 257.578C142.016 257.958 142.227 258.414 142.367 258.945C142.513 259.471 142.586 260.057 142.586 260.703ZM141.133 260.867V260.703C141.133 260.281 141.089 259.885 141 259.516C140.911 259.141 140.773 258.812 140.586 258.531C140.404 258.245 140.169 258.021 139.883 257.859C139.596 257.693 139.255 257.609 138.859 257.609C138.495 257.609 138.177 257.672 137.906 257.797C137.641 257.922 137.414 258.091 137.227 258.305C137.039 258.513 136.885 258.753 136.766 259.023C136.651 259.289 136.565 259.565 136.508 259.852V261.875C136.612 262.24 136.758 262.583 136.945 262.906C137.133 263.224 137.383 263.482 137.695 263.68C138.008 263.872 138.401 263.969 138.875 263.969C139.266 263.969 139.602 263.888 139.883 263.727C140.169 263.56 140.404 263.333 140.586 263.047C140.773 262.76 140.911 262.432 141 262.062C141.089 261.688 141.133 261.289 141.133 260.867ZM147.969 256.547V257.656H143.398V256.547H147.969ZM144.945 254.492H146.391V262.906C146.391 263.193 146.435 263.409 146.523 263.555C146.612 263.701 146.727 263.797 146.867 263.844C147.008 263.891 147.159 263.914 147.32 263.914C147.44 263.914 147.565 263.904 147.695 263.883C147.831 263.857 147.932 263.836 148 263.82L148.008 265C147.893 265.036 147.742 265.07 147.555 265.102C147.372 265.138 147.151 265.156 146.891 265.156C146.536 265.156 146.211 265.086 145.914 264.945C145.617 264.805 145.38 264.57 145.203 264.242C145.031 263.909 144.945 263.461 144.945 262.898V254.492ZM151.234 256.547V265H149.781V256.547H151.234ZM149.672 254.305C149.672 254.07 149.742 253.872 149.883 253.711C150.029 253.549 150.242 253.469 150.523 253.469C150.799 253.469 151.01 253.549 151.156 253.711C151.307 253.872 151.383 254.07 151.383 254.305C151.383 254.529 151.307 254.721 151.156 254.883C151.01 255.039 150.799 255.117 150.523 255.117C150.242 255.117 150.029 255.039 149.883 254.883C149.742 254.721 149.672 254.529 149.672 254.305ZM153.172 260.867V260.688C153.172 260.078 153.26 259.513 153.438 258.992C153.615 258.466 153.87 258.01 154.203 257.625C154.536 257.234 154.94 256.932 155.414 256.719C155.888 256.5 156.419 256.391 157.008 256.391C157.602 256.391 158.135 256.5 158.609 256.719C159.089 256.932 159.495 257.234 159.828 257.625C160.167 258.01 160.424 258.466 160.602 258.992C160.779 259.513 160.867 260.078 160.867 260.688V260.867C160.867 261.477 160.779 262.042 160.602 262.562C160.424 263.083 160.167 263.539 159.828 263.93C159.495 264.315 159.091 264.617 158.617 264.836C158.148 265.049 157.617 265.156 157.023 265.156C156.43 265.156 155.896 265.049 155.422 264.836C154.948 264.617 154.542 264.315 154.203 263.93C153.87 263.539 153.615 263.083 153.438 262.562C153.26 262.042 153.172 261.477 153.172 260.867ZM154.617 260.688V260.867C154.617 261.289 154.667 261.688 154.766 262.062C154.865 262.432 155.013 262.76 155.211 263.047C155.414 263.333 155.667 263.56 155.969 263.727C156.271 263.888 156.622 263.969 157.023 263.969C157.419 263.969 157.766 263.888 158.062 263.727C158.365 263.56 158.615 263.333 158.812 263.047C159.01 262.76 159.159 262.432 159.258 262.062C159.362 261.688 159.414 261.289 159.414 260.867V260.688C159.414 260.271 159.362 259.878 159.258 259.508C159.159 259.133 159.008 258.802 158.805 258.516C158.607 258.224 158.357 257.995 158.055 257.828C157.758 257.661 157.409 257.578 157.008 257.578C156.612 257.578 156.263 257.661 155.961 257.828C155.664 257.995 155.414 258.224 155.211 258.516C155.013 258.802 154.865 259.133 154.766 259.508C154.667 259.878 154.617 260.271 154.617 260.688ZM164.125 258.352V265H162.68V256.547H164.047L164.125 258.352ZM163.781 260.453L163.18 260.43C163.185 259.852 163.271 259.318 163.438 258.828C163.604 258.333 163.839 257.904 164.141 257.539C164.443 257.174 164.802 256.893 165.219 256.695C165.641 256.492 166.107 256.391 166.617 256.391C167.034 256.391 167.409 256.448 167.742 256.562C168.076 256.672 168.359 256.849 168.594 257.094C168.833 257.339 169.016 257.656 169.141 258.047C169.266 258.432 169.328 258.904 169.328 259.461V265H167.875V259.445C167.875 259.003 167.81 258.648 167.68 258.383C167.549 258.112 167.359 257.917 167.109 257.797C166.859 257.672 166.552 257.609 166.188 257.609C165.828 257.609 165.5 257.685 165.203 257.836C164.911 257.987 164.659 258.195 164.445 258.461C164.237 258.727 164.073 259.031 163.953 259.375C163.839 259.714 163.781 260.073 163.781 260.453Z" fill="#393939"/>
<path d="M33.3193 145.359L36.7568 152.653L40.2158 145.359H43.46L38.2607 155.274V161H35.2637V155.274L30.0537 145.359H33.3193ZM43.5996 155.307V155.081C43.5996 154.229 43.7214 153.445 43.9648 152.729C44.2083 152.005 44.5628 151.379 45.0283 150.849C45.4938 150.319 46.0632 149.907 46.7363 149.613C47.4095 149.312 48.1758 149.162 49.0352 149.162C49.9089 149.162 50.6823 149.312 51.3555 149.613C52.0358 149.907 52.6087 150.319 53.0742 150.849C53.5397 151.379 53.8942 152.005 54.1377 152.729C54.3812 153.445 54.5029 154.229 54.5029 155.081V155.307C54.5029 156.152 54.3812 156.936 54.1377 157.659C53.8942 158.375 53.5397 159.002 53.0742 159.539C52.6087 160.069 52.0394 160.481 51.3662 160.774C50.693 161.068 49.9232 161.215 49.0566 161.215C48.1973 161.215 47.4274 161.068 46.7471 160.774C46.0667 160.481 45.4938 160.069 45.0283 159.539C44.5628 159.002 44.2083 158.375 43.9648 157.659C43.7214 156.936 43.5996 156.152 43.5996 155.307ZM46.4355 155.081V155.307C46.4355 155.815 46.4857 156.291 46.5859 156.735C46.6862 157.179 46.8402 157.57 47.0479 157.906C47.2555 158.243 47.5241 158.508 47.8535 158.701C48.1901 158.887 48.5911 158.98 49.0566 158.98C49.515 158.98 49.9089 158.887 50.2383 158.701C50.5677 158.508 50.8363 158.243 51.0439 157.906C51.2588 157.57 51.4163 157.179 51.5166 156.735C51.6169 156.291 51.667 155.815 51.667 155.307V155.081C51.667 154.58 51.6169 154.111 51.5166 153.674C51.4163 153.23 51.2588 152.84 51.0439 152.503C50.8363 152.159 50.5641 151.891 50.2275 151.697C49.8981 151.497 49.5007 151.396 49.0352 151.396C48.5768 151.396 48.1829 151.497 47.8535 151.697C47.5241 151.891 47.2555 152.159 47.0479 152.503C46.8402 152.84 46.6862 153.23 46.5859 153.674C46.4857 154.111 46.4355 154.58 46.4355 155.081ZM63.4834 158.239V149.377H66.3408V161H63.6553L63.4834 158.239ZM63.8486 155.833L64.7295 155.812C64.7295 156.592 64.6436 157.312 64.4717 157.971C64.2998 158.63 64.0312 159.202 63.666 159.689C63.3079 160.169 62.8532 160.545 62.3018 160.817C61.7503 161.082 61.0986 161.215 60.3467 161.215C59.7738 161.215 59.251 161.136 58.7783 160.979C58.3057 160.814 57.8975 160.56 57.5537 160.216C57.2171 159.865 56.9557 159.417 56.7695 158.873C56.5833 158.322 56.4902 157.659 56.4902 156.886V149.377H59.3262V156.907C59.3262 157.294 59.3691 157.616 59.4551 157.874C59.5482 158.132 59.6735 158.343 59.8311 158.508C59.9958 158.665 60.1855 158.78 60.4004 158.852C60.6224 158.916 60.8587 158.948 61.1094 158.948C61.7969 158.948 62.3376 158.812 62.7314 158.54C63.1325 158.261 63.4189 157.888 63.5908 157.423C63.7627 156.95 63.8486 156.42 63.8486 155.833ZM71.6904 151.751V161H68.8545V149.377H71.54L71.6904 151.751ZM75.2246 149.302L75.1816 151.944C75.0241 151.916 74.8451 151.894 74.6445 151.88C74.4512 151.866 74.2686 151.858 74.0967 151.858C73.6598 151.858 73.2767 151.919 72.9473 152.041C72.6178 152.156 72.3421 152.324 72.1201 152.546C71.9053 152.768 71.7406 153.04 71.626 153.362C71.5114 153.677 71.4469 154.035 71.4326 154.437L70.8203 154.361C70.8203 153.624 70.8955 152.94 71.0459 152.31C71.1963 151.679 71.4147 151.128 71.7012 150.655C71.9876 150.183 72.3457 149.817 72.7754 149.56C73.2122 149.295 73.7135 149.162 74.2793 149.162C74.4368 149.162 74.6051 149.176 74.7842 149.205C74.9704 149.227 75.1172 149.259 75.2246 149.302ZM87.7607 149.377V151.418H81.1006V149.377H87.7607ZM82.8838 146.52H85.7305V157.648C85.7305 157.992 85.777 158.257 85.8701 158.443C85.9632 158.63 86.1029 158.755 86.2891 158.819C86.4753 158.884 86.6973 158.916 86.9551 158.916C87.1413 158.916 87.3132 158.905 87.4707 158.884C87.6283 158.862 87.7607 158.841 87.8682 158.819L87.8789 160.946C87.6426 161.025 87.374 161.09 87.0732 161.14C86.7796 161.19 86.4466 161.215 86.0742 161.215C85.4368 161.215 84.8783 161.107 84.3984 160.893C83.9186 160.671 83.5462 160.316 83.2812 159.829C83.0163 159.335 82.8838 158.683 82.8838 157.874V146.52ZM92.4873 151.751V161H89.6514V149.377H92.3369L92.4873 151.751ZM96.0215 149.302L95.9785 151.944C95.821 151.916 95.6419 151.894 95.4414 151.88C95.248 151.866 95.0654 151.858 94.8936 151.858C94.4567 151.858 94.0736 151.919 93.7441 152.041C93.4147 152.156 93.139 152.324 92.917 152.546C92.7021 152.768 92.5374 153.04 92.4229 153.362C92.3083 153.677 92.2438 154.035 92.2295 154.437L91.6172 154.361C91.6172 153.624 91.6924 152.94 91.8428 152.31C91.9932 151.679 92.2116 151.128 92.498 150.655C92.7845 150.183 93.1426 149.817 93.5723 149.56C94.0091 149.295 94.5104 149.162 95.0762 149.162C95.2337 149.162 95.402 149.176 95.5811 149.205C95.7673 149.227 95.9141 149.259 96.0215 149.302ZM100.587 149.377V161H97.7402V149.377H100.587ZM97.5469 146.337C97.5469 145.914 97.6901 145.563 97.9766 145.284C98.2702 145.005 98.6641 144.865 99.1582 144.865C99.6523 144.865 100.043 145.005 100.329 145.284C100.623 145.563 100.77 145.914 100.77 146.337C100.77 146.752 100.623 147.1 100.329 147.379C100.043 147.658 99.6523 147.798 99.1582 147.798C98.6641 147.798 98.2702 147.658 97.9766 147.379C97.6901 147.1 97.5469 146.752 97.5469 146.337ZM106.13 151.611V165.469H103.283V149.377H105.915L106.13 151.611ZM113.596 155.07V155.296C113.596 156.141 113.495 156.925 113.295 157.648C113.102 158.365 112.815 158.991 112.436 159.528C112.056 160.058 111.583 160.474 111.018 160.774C110.459 161.068 109.814 161.215 109.084 161.215C108.368 161.215 107.745 161.079 107.215 160.807C106.685 160.527 106.237 160.133 105.872 159.625C105.507 159.117 105.213 158.526 104.991 157.853C104.776 157.172 104.615 156.431 104.508 155.629V154.909C104.615 154.057 104.776 153.284 104.991 152.589C105.213 151.887 105.507 151.282 105.872 150.773C106.237 150.258 106.681 149.86 107.204 149.581C107.734 149.302 108.354 149.162 109.062 149.162C109.8 149.162 110.448 149.302 111.007 149.581C111.573 149.86 112.049 150.261 112.436 150.784C112.822 151.307 113.112 151.93 113.306 152.653C113.499 153.377 113.596 154.182 113.596 155.07ZM110.749 155.296V155.07C110.749 154.555 110.702 154.078 110.609 153.642C110.516 153.198 110.373 152.811 110.18 152.481C109.986 152.145 109.736 151.883 109.428 151.697C109.12 151.511 108.747 151.418 108.311 151.418C107.874 151.418 107.498 151.49 107.183 151.633C106.868 151.776 106.61 151.98 106.409 152.245C106.209 152.51 106.051 152.825 105.937 153.19C105.829 153.549 105.757 153.946 105.722 154.383V156.166C105.786 156.696 105.911 157.172 106.098 157.595C106.284 158.017 106.556 158.354 106.914 158.604C107.279 158.855 107.752 158.98 108.332 158.98C108.769 158.98 109.141 158.884 109.449 158.69C109.757 158.497 110.008 158.232 110.201 157.896C110.395 157.552 110.534 157.158 110.62 156.714C110.706 156.27 110.749 155.797 110.749 155.296Z" fill="#464646"/>
<path d="M44.6515 188.452C44.1874 187.987 43.4337 187.988 42.969 188.452L35.3968 196.024L32.0313 192.659C31.5666 192.194 30.8133 192.194 30.3485 192.659C29.8838 193.124 29.8838 193.877 30.3485 194.342L34.5553 198.548C34.7875 198.781 35.092 198.897 35.3965 198.897C35.701 198.897 36.0058 198.781 36.238 198.548L44.6515 190.135C45.1162 189.67 45.1162 188.917 44.6515 188.452Z" fill="#12D80D"/>
<path d="M44.6515 221.452C44.1874 220.987 43.4337 220.988 42.969 221.452L35.3968 229.024L32.0313 225.659C31.5666 225.194 30.8133 225.194 30.3485 225.659C29.8838 226.124 29.8838 226.877 30.3485 227.342L34.5553 231.548C34.7875 231.781 35.092 231.897 35.3965 231.897C35.701 231.897 36.0058 231.781 36.238 231.548L44.6515 223.135C45.1162 222.67 45.1162 221.917 44.6515 221.452Z" fill="#12D80D"/>
<path d="M44.6515 254.452C44.1874 253.987 43.4337 253.988 42.969 254.452L35.3968 262.024L32.0313 258.659C31.5666 258.194 30.8133 258.194 30.3485 258.659C29.8838 259.124 29.8838 259.877 30.3485 260.342L34.5553 264.548C34.7875 264.781 35.092 264.897 35.3965 264.897C35.701 264.897 36.0058 264.781 36.238 264.548L44.6515 256.135C45.1162 255.67 45.1162 254.917 44.6515 254.452Z" fill="#12D80D"/>
<rect x="30" y="30" width="85" height="85" rx="15" fill="#E7F1FC"/>
<path d="M95.4379 49.1446C94.2583 47.978 92.8523 47.0653 91.3065 46.4627C89.7607 45.8601 88.1079 45.5804 86.4499 45.6409C83.2616 45.7578 80.2385 47.0891 77.9996 49.362C75.7606 51.635 74.4751 54.6778 74.4063 57.8676C74.3613 60.5719 75.2178 63.2143 76.8405 65.3782C77.0693 65.7194 82.626 73.4454 84.3302 75.8092C84.6056 76.1822 84.9644 76.4857 85.378 76.6954C85.7915 76.9051 86.2484 77.0153 86.712 77.0172C87.1757 77.019 87.6334 76.9125 88.0486 76.7061C88.4638 76.4996 88.825 76.199 89.1034 75.8283C89.1034 75.8283 96.452 65.788 96.6751 65.504C98.2958 63.3468 99.1769 60.724 99.1875 58.0258C99.1933 56.3692 98.8641 54.7284 98.2197 53.2022C97.5754 51.676 96.6292 50.2958 95.4379 49.1446ZM86.7969 62.9687C85.8543 62.9687 84.9329 62.6892 84.1492 62.1655C83.3655 61.6419 82.7547 60.8976 82.394 60.0268C82.0333 59.156 81.9389 58.1978 82.1228 57.2733C82.3067 56.3489 82.7606 55.4998 83.4271 54.8333C84.0936 54.1668 84.9427 53.7129 85.8672 53.529C86.7916 53.3451 87.7498 53.4395 88.6206 53.8002C89.4914 54.1609 90.2357 54.7717 90.7594 55.5554C91.283 56.3391 91.5625 57.2605 91.5625 58.2031C91.561 59.4665 91.0584 60.6778 90.165 61.5712C89.2716 62.4646 88.0603 62.9672 86.7969 62.9687ZM55.3438 94.4218C55.3438 95.3644 55.0643 96.2858 54.5406 97.0695C54.0169 97.8532 53.2727 98.464 52.4019 98.8247C51.531 99.1854 50.5728 99.2798 49.6484 99.0959C48.724 98.912 47.8748 98.4581 47.2083 97.7916C46.5418 97.1251 46.088 96.276 45.9041 95.3516C45.7202 94.4271 45.8146 93.4689 46.1753 92.5981C46.536 91.7273 47.1468 90.983 47.9305 90.4594C48.7142 89.9357 49.6356 89.6562 50.5781 89.6562C51.8416 89.6577 53.0529 90.1603 53.9463 91.0537C54.8397 91.9471 55.3422 93.1584 55.3438 94.4218ZM76.3125 89.6562C76.311 91.1724 75.708 92.6261 74.6358 93.6983C73.5637 94.7704 72.11 95.3734 70.5938 95.3749H59.0609C59.2495 94.0882 59.101 92.7746 58.6301 91.5624H70.5938C71.0993 91.5624 71.5842 91.3616 71.9417 91.0041C72.2992 90.6466 72.5 90.1618 72.5 89.6562C72.5 89.1506 72.2992 88.6658 71.9417 88.3083C71.5842 87.9508 71.0993 87.7499 70.5938 87.7499H62.9688C61.4525 87.7484 59.9988 87.1454 58.9267 86.0733C57.8545 85.0011 57.2515 83.5474 57.25 82.0312V80.1249C57.2515 78.6087 57.8545 77.155 58.9267 76.0828C59.9988 75.0107 61.4525 74.4077 62.9688 74.4062H78.6229C79.8391 76.0608 80.6893 77.3552 81.4041 78.2187H62.9688C62.4633 78.2192 61.9788 78.4202 61.6214 78.7776C61.264 79.135 61.063 79.6195 61.0625 80.1249V82.0312C61.063 82.5366 61.264 83.0212 61.6214 83.3786C61.9788 83.7359 62.4633 83.9369 62.9688 83.9374H70.5938C72.11 83.939 73.5637 84.542 74.6358 85.6141C75.708 86.6862 76.311 88.14 76.3125 89.6562Z" fill="#22A1E7"/>
</svg>
