<svg width="295" height="369" viewBox="0 0 295 369" fill="none" xmlns="http://www.w3.org/2000/svg">
<rect x="0.5" y="0.5" width="294" height="368" rx="17.5" fill="white" stroke="#CDCDCD"/>
<path d="M65.2188 197.773V199H59.5312V197.773H65.2188ZM59.8281 187.625V199H58.3203V187.625H59.8281ZM66.3438 194.867V194.688C66.3438 194.078 66.4323 193.513 66.6094 192.992C66.7865 192.466 67.0417 192.01 67.375 191.625C67.7083 191.234 68.112 190.932 68.5859 190.719C69.0599 190.5 69.5911 190.391 70.1797 190.391C70.7734 190.391 71.3073 190.5 71.7812 190.719C72.2604 190.932 72.6667 191.234 73 191.625C73.3385 192.01 73.5964 192.466 73.7734 192.992C73.9505 193.513 74.0391 194.078 74.0391 194.688V194.867C74.0391 195.477 73.9505 196.042 73.7734 196.562C73.5964 197.083 73.3385 197.539 73 197.93C72.6667 198.315 72.263 198.617 71.7891 198.836C71.3203 199.049 70.7891 199.156 70.1953 199.156C69.6016 199.156 69.0677 199.049 68.5938 198.836C68.1198 198.617 67.7135 198.315 67.375 197.93C67.0417 197.539 66.7865 197.083 66.6094 196.562C66.4323 196.042 66.3438 195.477 66.3438 194.867ZM67.7891 194.688V194.867C67.7891 195.289 67.8385 195.688 67.9375 196.062C68.0365 196.432 68.1849 196.76 68.3828 197.047C68.5859 197.333 68.8385 197.56 69.1406 197.727C69.4427 197.888 69.7943 197.969 70.1953 197.969C70.5911 197.969 70.9375 197.888 71.2344 197.727C71.5365 197.56 71.7865 197.333 71.9844 197.047C72.1823 196.76 72.3307 196.432 72.4297 196.062C72.5339 195.688 72.5859 195.289 72.5859 194.867V194.688C72.5859 194.271 72.5339 193.878 72.4297 193.508C72.3307 193.133 72.1797 192.802 71.9766 192.516C71.7786 192.224 71.5286 191.995 71.2266 191.828C70.9297 191.661 70.5807 191.578 70.1797 191.578C69.7839 191.578 69.4349 191.661 69.1328 191.828C68.8359 191.995 68.5859 192.224 68.3828 192.516C68.1849 192.802 68.0365 193.133 67.9375 193.508C67.8385 193.878 67.7891 194.271 67.7891 194.688ZM80.7734 196.758C80.7734 196.549 80.7266 196.357 80.6328 196.18C80.5443 195.997 80.3594 195.833 80.0781 195.688C79.8021 195.536 79.3854 195.406 78.8281 195.297C78.3594 195.198 77.9349 195.081 77.5547 194.945C77.1797 194.81 76.8594 194.646 76.5938 194.453C76.3333 194.26 76.1328 194.034 75.9922 193.773C75.8516 193.513 75.7812 193.208 75.7812 192.859C75.7812 192.526 75.8542 192.211 76 191.914C76.151 191.617 76.362 191.354 76.6328 191.125C76.9089 190.896 77.2396 190.716 77.625 190.586C78.0104 190.456 78.4401 190.391 78.9141 190.391C79.5911 190.391 80.1693 190.51 80.6484 190.75C81.1276 190.99 81.4948 191.31 81.75 191.711C82.0052 192.107 82.1328 192.547 82.1328 193.031H80.6875C80.6875 192.797 80.6172 192.57 80.4766 192.352C80.3411 192.128 80.1406 191.943 79.875 191.797C79.6146 191.651 79.2943 191.578 78.9141 191.578C78.513 191.578 78.1875 191.641 77.9375 191.766C77.6927 191.885 77.513 192.039 77.3984 192.227C77.2891 192.414 77.2344 192.612 77.2344 192.82C77.2344 192.977 77.2604 193.117 77.3125 193.242C77.3698 193.362 77.4688 193.474 77.6094 193.578C77.75 193.677 77.9479 193.771 78.2031 193.859C78.4583 193.948 78.7839 194.036 79.1797 194.125C79.8724 194.281 80.4427 194.469 80.8906 194.688C81.3385 194.906 81.6719 195.174 81.8906 195.492C82.1094 195.81 82.2188 196.195 82.2188 196.648C82.2188 197.018 82.1406 197.357 81.9844 197.664C81.8333 197.971 81.612 198.237 81.3203 198.461C81.0339 198.68 80.6901 198.852 80.2891 198.977C79.8932 199.096 79.4479 199.156 78.9531 199.156C78.2083 199.156 77.5781 199.023 77.0625 198.758C76.5469 198.492 76.1562 198.148 75.8906 197.727C75.625 197.305 75.4922 196.859 75.4922 196.391H76.9453C76.9661 196.786 77.0807 197.102 77.2891 197.336C77.4974 197.565 77.7526 197.729 78.0547 197.828C78.3568 197.922 78.6562 197.969 78.9531 197.969C79.349 197.969 79.6797 197.917 79.9453 197.812C80.2161 197.708 80.4219 197.565 80.5625 197.383C80.7031 197.201 80.7734 196.992 80.7734 196.758ZM89.0391 196.758C89.0391 196.549 88.9922 196.357 88.8984 196.18C88.8099 195.997 88.625 195.833 88.3438 195.688C88.0677 195.536 87.651 195.406 87.0938 195.297C86.625 195.198 86.2005 195.081 85.8203 194.945C85.4453 194.81 85.125 194.646 84.8594 194.453C84.599 194.26 84.3984 194.034 84.2578 193.773C84.1172 193.513 84.0469 193.208 84.0469 192.859C84.0469 192.526 84.1198 192.211 84.2656 191.914C84.4167 191.617 84.6276 191.354 84.8984 191.125C85.1745 190.896 85.5052 190.716 85.8906 190.586C86.276 190.456 86.7057 190.391 87.1797 190.391C87.8568 190.391 88.4349 190.51 88.9141 190.75C89.3932 190.99 89.7604 191.31 90.0156 191.711C90.2708 192.107 90.3984 192.547 90.3984 193.031H88.9531C88.9531 192.797 88.8828 192.57 88.7422 192.352C88.6068 192.128 88.4062 191.943 88.1406 191.797C87.8802 191.651 87.5599 191.578 87.1797 191.578C86.7786 191.578 86.4531 191.641 86.2031 191.766C85.9583 191.885 85.7786 192.039 85.6641 192.227C85.5547 192.414 85.5 192.612 85.5 192.82C85.5 192.977 85.526 193.117 85.5781 193.242C85.6354 193.362 85.7344 193.474 85.875 193.578C86.0156 193.677 86.2135 193.771 86.4688 193.859C86.724 193.948 87.0495 194.036 87.4453 194.125C88.138 194.281 88.7083 194.469 89.1562 194.688C89.6042 194.906 89.9375 195.174 90.1562 195.492C90.375 195.81 90.4844 196.195 90.4844 196.648C90.4844 197.018 90.4062 197.357 90.25 197.664C90.099 197.971 89.8776 198.237 89.5859 198.461C89.2995 198.68 88.9557 198.852 88.5547 198.977C88.1589 199.096 87.7135 199.156 87.2188 199.156C86.474 199.156 85.8438 199.023 85.3281 198.758C84.8125 198.492 84.4219 198.148 84.1562 197.727C83.8906 197.305 83.7578 196.859 83.7578 196.391H85.2109C85.2318 196.786 85.3464 197.102 85.5547 197.336C85.763 197.565 86.0182 197.729 86.3203 197.828C86.6224 197.922 86.9219 197.969 87.2188 197.969C87.6146 197.969 87.9453 197.917 88.2109 197.812C88.4818 197.708 88.6875 197.565 88.8281 197.383C88.9688 197.201 89.0391 196.992 89.0391 196.758ZM95.9688 194.867V194.688C95.9688 194.078 96.0573 193.513 96.2344 192.992C96.4115 192.466 96.6667 192.01 97 191.625C97.3333 191.234 97.737 190.932 98.2109 190.719C98.6849 190.5 99.2161 190.391 99.8047 190.391C100.398 190.391 100.932 190.5 101.406 190.719C101.885 190.932 102.292 191.234 102.625 191.625C102.964 192.01 103.221 192.466 103.398 192.992C103.576 193.513 103.664 194.078 103.664 194.688V194.867C103.664 195.477 103.576 196.042 103.398 196.562C103.221 197.083 102.964 197.539 102.625 197.93C102.292 198.315 101.888 198.617 101.414 198.836C100.945 199.049 100.414 199.156 99.8203 199.156C99.2266 199.156 98.6927 199.049 98.2188 198.836C97.7448 198.617 97.3385 198.315 97 197.93C96.6667 197.539 96.4115 197.083 96.2344 196.562C96.0573 196.042 95.9688 195.477 95.9688 194.867ZM97.4141 194.688V194.867C97.4141 195.289 97.4635 195.688 97.5625 196.062C97.6615 196.432 97.8099 196.76 98.0078 197.047C98.2109 197.333 98.4635 197.56 98.7656 197.727C99.0677 197.888 99.4193 197.969 99.8203 197.969C100.216 197.969 100.562 197.888 100.859 197.727C101.161 197.56 101.411 197.333 101.609 197.047C101.807 196.76 101.956 196.432 102.055 196.062C102.159 195.688 102.211 195.289 102.211 194.867V194.688C102.211 194.271 102.159 193.878 102.055 193.508C101.956 193.133 101.805 192.802 101.602 192.516C101.404 192.224 101.154 191.995 100.852 191.828C100.555 191.661 100.206 191.578 99.8047 191.578C99.4089 191.578 99.0599 191.661 98.7578 191.828C98.4609 191.995 98.2109 192.224 98.0078 192.516C97.8099 192.802 97.6615 193.133 97.5625 193.508C97.4635 193.878 97.4141 194.271 97.4141 194.688ZM106.922 191.875V199H105.477V190.547H106.883L106.922 191.875ZM109.562 190.5L109.555 191.844C109.435 191.818 109.32 191.802 109.211 191.797C109.107 191.786 108.987 191.781 108.852 191.781C108.518 191.781 108.224 191.833 107.969 191.938C107.714 192.042 107.497 192.188 107.32 192.375C107.143 192.562 107.003 192.786 106.898 193.047C106.799 193.302 106.734 193.583 106.703 193.891L106.297 194.125C106.297 193.615 106.346 193.135 106.445 192.688C106.549 192.24 106.708 191.844 106.922 191.5C107.135 191.151 107.406 190.88 107.734 190.688C108.068 190.49 108.464 190.391 108.922 190.391C109.026 190.391 109.146 190.404 109.281 190.43C109.417 190.451 109.51 190.474 109.562 190.5ZM120.195 197.359V187H121.648V199H120.32L120.195 197.359ZM114.508 194.867V194.703C114.508 194.057 114.586 193.471 114.742 192.945C114.904 192.414 115.13 191.958 115.422 191.578C115.719 191.198 116.07 190.906 116.477 190.703C116.888 190.495 117.346 190.391 117.852 190.391C118.383 190.391 118.846 190.484 119.242 190.672C119.643 190.854 119.982 191.122 120.258 191.477C120.539 191.826 120.76 192.247 120.922 192.742C121.083 193.237 121.195 193.797 121.258 194.422V195.141C121.201 195.76 121.089 196.318 120.922 196.812C120.76 197.307 120.539 197.729 120.258 198.078C119.982 198.427 119.643 198.695 119.242 198.883C118.841 199.065 118.372 199.156 117.836 199.156C117.341 199.156 116.888 199.049 116.477 198.836C116.07 198.622 115.719 198.323 115.422 197.938C115.13 197.552 114.904 197.099 114.742 196.578C114.586 196.052 114.508 195.482 114.508 194.867ZM115.961 194.703V194.867C115.961 195.289 116.003 195.685 116.086 196.055C116.174 196.424 116.31 196.75 116.492 197.031C116.674 197.312 116.906 197.534 117.188 197.695C117.469 197.852 117.805 197.93 118.195 197.93C118.674 197.93 119.068 197.828 119.375 197.625C119.688 197.422 119.938 197.154 120.125 196.82C120.312 196.487 120.458 196.125 120.562 195.734V193.852C120.5 193.565 120.409 193.289 120.289 193.023C120.174 192.753 120.023 192.513 119.836 192.305C119.654 192.091 119.427 191.922 119.156 191.797C118.891 191.672 118.576 191.609 118.211 191.609C117.815 191.609 117.474 191.693 117.188 191.859C116.906 192.021 116.674 192.245 116.492 192.531C116.31 192.812 116.174 193.141 116.086 193.516C116.003 193.885 115.961 194.281 115.961 194.703ZM128.883 197.555V193.203C128.883 192.87 128.815 192.581 128.68 192.336C128.549 192.086 128.352 191.893 128.086 191.758C127.82 191.622 127.492 191.555 127.102 191.555C126.737 191.555 126.417 191.617 126.141 191.742C125.87 191.867 125.656 192.031 125.5 192.234C125.349 192.438 125.273 192.656 125.273 192.891H123.828C123.828 192.589 123.906 192.289 124.062 191.992C124.219 191.695 124.443 191.427 124.734 191.188C125.031 190.943 125.385 190.75 125.797 190.609C126.214 190.464 126.677 190.391 127.188 190.391C127.802 190.391 128.344 190.495 128.812 190.703C129.286 190.911 129.656 191.227 129.922 191.648C130.193 192.065 130.328 192.589 130.328 193.219V197.156C130.328 197.438 130.352 197.737 130.398 198.055C130.451 198.372 130.526 198.646 130.625 198.875V199H129.117C129.044 198.833 128.987 198.612 128.945 198.336C128.904 198.055 128.883 197.794 128.883 197.555ZM129.133 193.875L129.148 194.891H127.688C127.276 194.891 126.909 194.924 126.586 194.992C126.263 195.055 125.992 195.151 125.773 195.281C125.555 195.411 125.388 195.576 125.273 195.773C125.159 195.966 125.102 196.193 125.102 196.453C125.102 196.719 125.161 196.961 125.281 197.18C125.401 197.398 125.581 197.573 125.82 197.703C126.065 197.828 126.365 197.891 126.719 197.891C127.161 197.891 127.552 197.797 127.891 197.609C128.229 197.422 128.497 197.193 128.695 196.922C128.898 196.651 129.008 196.388 129.023 196.133L129.641 196.828C129.604 197.047 129.505 197.289 129.344 197.555C129.182 197.82 128.966 198.076 128.695 198.32C128.43 198.56 128.112 198.76 127.742 198.922C127.378 199.078 126.966 199.156 126.508 199.156C125.935 199.156 125.432 199.044 125 198.82C124.573 198.596 124.24 198.297 124 197.922C123.766 197.542 123.648 197.117 123.648 196.648C123.648 196.195 123.737 195.797 123.914 195.453C124.091 195.104 124.346 194.815 124.68 194.586C125.013 194.352 125.414 194.174 125.883 194.055C126.352 193.935 126.875 193.875 127.453 193.875H129.133ZM134.039 192.227V199H132.586V190.547H133.961L134.039 192.227ZM133.742 194.453L133.07 194.43C133.076 193.852 133.151 193.318 133.297 192.828C133.443 192.333 133.659 191.904 133.945 191.539C134.232 191.174 134.589 190.893 135.016 190.695C135.443 190.492 135.938 190.391 136.5 190.391C136.896 190.391 137.26 190.448 137.594 190.562C137.927 190.672 138.216 190.846 138.461 191.086C138.706 191.326 138.896 191.633 139.031 192.008C139.167 192.383 139.234 192.836 139.234 193.367V199H137.789V193.438C137.789 192.995 137.714 192.641 137.562 192.375C137.417 192.109 137.208 191.917 136.938 191.797C136.667 191.672 136.349 191.609 135.984 191.609C135.557 191.609 135.201 191.685 134.914 191.836C134.628 191.987 134.398 192.195 134.227 192.461C134.055 192.727 133.93 193.031 133.852 193.375C133.779 193.714 133.742 194.073 133.742 194.453ZM139.219 193.656L138.25 193.953C138.255 193.49 138.331 193.044 138.477 192.617C138.628 192.19 138.844 191.81 139.125 191.477C139.411 191.143 139.763 190.88 140.18 190.688C140.596 190.49 141.073 190.391 141.609 190.391C142.062 190.391 142.464 190.451 142.812 190.57C143.167 190.69 143.464 190.875 143.703 191.125C143.948 191.37 144.133 191.685 144.258 192.07C144.383 192.456 144.445 192.914 144.445 193.445V199H142.992V193.43C142.992 192.956 142.917 192.589 142.766 192.328C142.62 192.062 142.411 191.878 142.141 191.773C141.875 191.664 141.557 191.609 141.188 191.609C140.87 191.609 140.589 191.664 140.344 191.773C140.099 191.883 139.893 192.034 139.727 192.227C139.56 192.414 139.432 192.63 139.344 192.875C139.26 193.12 139.219 193.38 139.219 193.656ZM151.617 197.555V193.203C151.617 192.87 151.549 192.581 151.414 192.336C151.284 192.086 151.086 191.893 150.82 191.758C150.555 191.622 150.227 191.555 149.836 191.555C149.471 191.555 149.151 191.617 148.875 191.742C148.604 191.867 148.391 192.031 148.234 192.234C148.083 192.438 148.008 192.656 148.008 192.891H146.562C146.562 192.589 146.641 192.289 146.797 191.992C146.953 191.695 147.177 191.427 147.469 191.188C147.766 190.943 148.12 190.75 148.531 190.609C148.948 190.464 149.411 190.391 149.922 190.391C150.536 190.391 151.078 190.495 151.547 190.703C152.021 190.911 152.391 191.227 152.656 191.648C152.927 192.065 153.062 192.589 153.062 193.219V197.156C153.062 197.438 153.086 197.737 153.133 198.055C153.185 198.372 153.26 198.646 153.359 198.875V199H151.852C151.779 198.833 151.721 198.612 151.68 198.336C151.638 198.055 151.617 197.794 151.617 197.555ZM151.867 193.875L151.883 194.891H150.422C150.01 194.891 149.643 194.924 149.32 194.992C148.997 195.055 148.727 195.151 148.508 195.281C148.289 195.411 148.122 195.576 148.008 195.773C147.893 195.966 147.836 196.193 147.836 196.453C147.836 196.719 147.896 196.961 148.016 197.18C148.135 197.398 148.315 197.573 148.555 197.703C148.799 197.828 149.099 197.891 149.453 197.891C149.896 197.891 150.286 197.797 150.625 197.609C150.964 197.422 151.232 197.193 151.43 196.922C151.633 196.651 151.742 196.388 151.758 196.133L152.375 196.828C152.339 197.047 152.24 197.289 152.078 197.555C151.917 197.82 151.701 198.076 151.43 198.32C151.164 198.56 150.846 198.76 150.477 198.922C150.112 199.078 149.701 199.156 149.242 199.156C148.669 199.156 148.167 199.044 147.734 198.82C147.307 198.596 146.974 198.297 146.734 197.922C146.5 197.542 146.383 197.117 146.383 196.648C146.383 196.195 146.471 195.797 146.648 195.453C146.826 195.104 147.081 194.815 147.414 194.586C147.747 194.352 148.148 194.174 148.617 194.055C149.086 193.935 149.609 193.875 150.188 193.875H151.867ZM160.812 190.547H162.125V198.82C162.125 199.565 161.974 200.201 161.672 200.727C161.37 201.253 160.948 201.651 160.406 201.922C159.87 202.198 159.25 202.336 158.547 202.336C158.255 202.336 157.911 202.289 157.516 202.195C157.125 202.107 156.74 201.953 156.359 201.734C155.984 201.521 155.669 201.232 155.414 200.867L156.172 200.008C156.526 200.435 156.896 200.732 157.281 200.898C157.672 201.065 158.057 201.148 158.438 201.148C158.896 201.148 159.292 201.062 159.625 200.891C159.958 200.719 160.216 200.464 160.398 200.125C160.586 199.792 160.68 199.38 160.68 198.891V192.406L160.812 190.547ZM154.992 194.867V194.703C154.992 194.057 155.068 193.471 155.219 192.945C155.375 192.414 155.596 191.958 155.883 191.578C156.174 191.198 156.526 190.906 156.938 190.703C157.349 190.495 157.812 190.391 158.328 190.391C158.859 190.391 159.323 190.484 159.719 190.672C160.12 190.854 160.458 191.122 160.734 191.477C161.016 191.826 161.237 192.247 161.398 192.742C161.56 193.237 161.672 193.797 161.734 194.422V195.141C161.677 195.76 161.565 196.318 161.398 196.812C161.237 197.307 161.016 197.729 160.734 198.078C160.458 198.427 160.12 198.695 159.719 198.883C159.318 199.065 158.849 199.156 158.312 199.156C157.807 199.156 157.349 199.049 156.938 198.836C156.531 198.622 156.182 198.323 155.891 197.938C155.599 197.552 155.375 197.099 155.219 196.578C155.068 196.052 154.992 195.482 154.992 194.867ZM156.438 194.703V194.867C156.438 195.289 156.479 195.685 156.562 196.055C156.651 196.424 156.784 196.75 156.961 197.031C157.143 197.312 157.375 197.534 157.656 197.695C157.938 197.852 158.273 197.93 158.664 197.93C159.143 197.93 159.539 197.828 159.852 197.625C160.164 197.422 160.411 197.154 160.594 196.82C160.781 196.487 160.927 196.125 161.031 195.734V193.852C160.974 193.565 160.885 193.289 160.766 193.023C160.651 192.753 160.5 192.513 160.312 192.305C160.13 192.091 159.904 191.922 159.633 191.797C159.362 191.672 159.044 191.609 158.68 191.609C158.284 191.609 157.943 191.693 157.656 191.859C157.375 192.021 157.143 192.245 156.961 192.531C156.784 192.812 156.651 193.141 156.562 193.516C156.479 193.885 156.438 194.281 156.438 194.703ZM167.828 199.156C167.24 199.156 166.706 199.057 166.227 198.859C165.753 198.656 165.344 198.372 165 198.008C164.661 197.643 164.401 197.211 164.219 196.711C164.036 196.211 163.945 195.664 163.945 195.07V194.742C163.945 194.055 164.047 193.443 164.25 192.906C164.453 192.365 164.729 191.906 165.078 191.531C165.427 191.156 165.823 190.872 166.266 190.68C166.708 190.487 167.167 190.391 167.641 190.391C168.245 190.391 168.766 190.495 169.203 190.703C169.646 190.911 170.008 191.203 170.289 191.578C170.57 191.948 170.779 192.385 170.914 192.891C171.049 193.391 171.117 193.938 171.117 194.531V195.18H164.805V194H169.672V193.891C169.651 193.516 169.573 193.151 169.438 192.797C169.307 192.443 169.099 192.151 168.812 191.922C168.526 191.693 168.135 191.578 167.641 191.578C167.312 191.578 167.01 191.648 166.734 191.789C166.458 191.924 166.221 192.128 166.023 192.398C165.826 192.669 165.672 193 165.562 193.391C165.453 193.781 165.398 194.232 165.398 194.742V195.07C165.398 195.471 165.453 195.849 165.562 196.203C165.677 196.552 165.841 196.859 166.055 197.125C166.273 197.391 166.536 197.599 166.844 197.75C167.156 197.901 167.51 197.977 167.906 197.977C168.417 197.977 168.849 197.872 169.203 197.664C169.557 197.456 169.867 197.177 170.133 196.828L171.008 197.523C170.826 197.799 170.594 198.062 170.312 198.312C170.031 198.562 169.685 198.766 169.273 198.922C168.867 199.078 168.385 199.156 167.828 199.156ZM180.312 190.547V191.656H175.742V190.547H180.312ZM177.289 188.492H178.734V196.906C178.734 197.193 178.779 197.409 178.867 197.555C178.956 197.701 179.07 197.797 179.211 197.844C179.352 197.891 179.503 197.914 179.664 197.914C179.784 197.914 179.909 197.904 180.039 197.883C180.174 197.857 180.276 197.836 180.344 197.82L180.352 199C180.237 199.036 180.086 199.07 179.898 199.102C179.716 199.138 179.495 199.156 179.234 199.156C178.88 199.156 178.555 199.086 178.258 198.945C177.961 198.805 177.724 198.57 177.547 198.242C177.375 197.909 177.289 197.461 177.289 196.898V188.492ZM181.469 194.867V194.688C181.469 194.078 181.557 193.513 181.734 192.992C181.911 192.466 182.167 192.01 182.5 191.625C182.833 191.234 183.237 190.932 183.711 190.719C184.185 190.5 184.716 190.391 185.305 190.391C185.898 190.391 186.432 190.5 186.906 190.719C187.385 190.932 187.792 191.234 188.125 191.625C188.464 192.01 188.721 192.466 188.898 192.992C189.076 193.513 189.164 194.078 189.164 194.688V194.867C189.164 195.477 189.076 196.042 188.898 196.562C188.721 197.083 188.464 197.539 188.125 197.93C187.792 198.315 187.388 198.617 186.914 198.836C186.445 199.049 185.914 199.156 185.32 199.156C184.727 199.156 184.193 199.049 183.719 198.836C183.245 198.617 182.839 198.315 182.5 197.93C182.167 197.539 181.911 197.083 181.734 196.562C181.557 196.042 181.469 195.477 181.469 194.867ZM182.914 194.688V194.867C182.914 195.289 182.964 195.688 183.062 196.062C183.161 196.432 183.31 196.76 183.508 197.047C183.711 197.333 183.964 197.56 184.266 197.727C184.568 197.888 184.919 197.969 185.32 197.969C185.716 197.969 186.062 197.888 186.359 197.727C186.661 197.56 186.911 197.333 187.109 197.047C187.307 196.76 187.456 196.432 187.555 196.062C187.659 195.688 187.711 195.289 187.711 194.867V194.688C187.711 194.271 187.659 193.878 187.555 193.508C187.456 193.133 187.305 192.802 187.102 192.516C186.904 192.224 186.654 191.995 186.352 191.828C186.055 191.661 185.706 191.578 185.305 191.578C184.909 191.578 184.56 191.661 184.258 191.828C183.961 191.995 183.711 192.224 183.508 192.516C183.31 192.802 183.161 193.133 183.062 193.508C182.964 193.878 182.914 194.271 182.914 194.688ZM200.359 192.172V202.25H198.906V190.547H200.234L200.359 192.172ZM206.055 194.703V194.867C206.055 195.482 205.982 196.052 205.836 196.578C205.69 197.099 205.477 197.552 205.195 197.938C204.919 198.323 204.578 198.622 204.172 198.836C203.766 199.049 203.299 199.156 202.773 199.156C202.237 199.156 201.763 199.068 201.352 198.891C200.94 198.714 200.591 198.456 200.305 198.117C200.018 197.779 199.789 197.372 199.617 196.898C199.451 196.424 199.336 195.891 199.273 195.297V194.422C199.336 193.797 199.453 193.237 199.625 192.742C199.797 192.247 200.023 191.826 200.305 191.477C200.591 191.122 200.938 190.854 201.344 190.672C201.75 190.484 202.219 190.391 202.75 190.391C203.281 190.391 203.753 190.495 204.164 190.703C204.576 190.906 204.922 191.198 205.203 191.578C205.484 191.958 205.695 192.414 205.836 192.945C205.982 193.471 206.055 194.057 206.055 194.703ZM204.602 194.867V194.703C204.602 194.281 204.557 193.885 204.469 193.516C204.38 193.141 204.242 192.812 204.055 192.531C203.872 192.245 203.638 192.021 203.352 191.859C203.065 191.693 202.724 191.609 202.328 191.609C201.964 191.609 201.646 191.672 201.375 191.797C201.109 191.922 200.883 192.091 200.695 192.305C200.508 192.513 200.354 192.753 200.234 193.023C200.12 193.289 200.034 193.565 199.977 193.852V195.875C200.081 196.24 200.227 196.583 200.414 196.906C200.602 197.224 200.852 197.482 201.164 197.68C201.477 197.872 201.87 197.969 202.344 197.969C202.734 197.969 203.07 197.888 203.352 197.727C203.638 197.56 203.872 197.333 204.055 197.047C204.242 196.76 204.38 196.432 204.469 196.062C204.557 195.688 204.602 195.289 204.602 194.867ZM211.406 199.156C210.818 199.156 210.284 199.057 209.805 198.859C209.331 198.656 208.922 198.372 208.578 198.008C208.24 197.643 207.979 197.211 207.797 196.711C207.615 196.211 207.523 195.664 207.523 195.07V194.742C207.523 194.055 207.625 193.443 207.828 192.906C208.031 192.365 208.307 191.906 208.656 191.531C209.005 191.156 209.401 190.872 209.844 190.68C210.286 190.487 210.745 190.391 211.219 190.391C211.823 190.391 212.344 190.495 212.781 190.703C213.224 190.911 213.586 191.203 213.867 191.578C214.148 191.948 214.357 192.385 214.492 192.891C214.628 193.391 214.695 193.938 214.695 194.531V195.18H208.383V194H213.25V193.891C213.229 193.516 213.151 193.151 213.016 192.797C212.885 192.443 212.677 192.151 212.391 191.922C212.104 191.693 211.714 191.578 211.219 191.578C210.891 191.578 210.589 191.648 210.312 191.789C210.036 191.924 209.799 192.128 209.602 192.398C209.404 192.669 209.25 193 209.141 193.391C209.031 193.781 208.977 194.232 208.977 194.742V195.07C208.977 195.471 209.031 195.849 209.141 196.203C209.255 196.552 209.419 196.859 209.633 197.125C209.852 197.391 210.115 197.599 210.422 197.75C210.734 197.901 211.089 197.977 211.484 197.977C211.995 197.977 212.427 197.872 212.781 197.664C213.135 197.456 213.445 197.177 213.711 196.828L214.586 197.523C214.404 197.799 214.172 198.062 213.891 198.312C213.609 198.562 213.263 198.766 212.852 198.922C212.445 199.078 211.964 199.156 211.406 199.156ZM217.828 191.875V199H216.383V190.547H217.789L217.828 191.875ZM220.469 190.5L220.461 191.844C220.341 191.818 220.227 191.802 220.117 191.797C220.013 191.786 219.893 191.781 219.758 191.781C219.424 191.781 219.13 191.833 218.875 191.938C218.62 192.042 218.404 192.188 218.227 192.375C218.049 192.562 217.909 192.786 217.805 193.047C217.706 193.302 217.641 193.583 217.609 193.891L217.203 194.125C217.203 193.615 217.253 193.135 217.352 192.688C217.456 192.24 217.615 191.844 217.828 191.5C218.042 191.151 218.312 190.88 218.641 190.688C218.974 190.49 219.37 190.391 219.828 190.391C219.932 190.391 220.052 190.404 220.188 190.43C220.323 190.451 220.417 190.474 220.469 190.5ZM226.727 196.758C226.727 196.549 226.68 196.357 226.586 196.18C226.497 195.997 226.312 195.833 226.031 195.688C225.755 195.536 225.339 195.406 224.781 195.297C224.312 195.198 223.888 195.081 223.508 194.945C223.133 194.81 222.812 194.646 222.547 194.453C222.286 194.26 222.086 194.034 221.945 193.773C221.805 193.513 221.734 193.208 221.734 192.859C221.734 192.526 221.807 192.211 221.953 191.914C222.104 191.617 222.315 191.354 222.586 191.125C222.862 190.896 223.193 190.716 223.578 190.586C223.964 190.456 224.393 190.391 224.867 190.391C225.544 190.391 226.122 190.51 226.602 190.75C227.081 190.99 227.448 191.31 227.703 191.711C227.958 192.107 228.086 192.547 228.086 193.031H226.641C226.641 192.797 226.57 192.57 226.43 192.352C226.294 192.128 226.094 191.943 225.828 191.797C225.568 191.651 225.247 191.578 224.867 191.578C224.466 191.578 224.141 191.641 223.891 191.766C223.646 191.885 223.466 192.039 223.352 192.227C223.242 192.414 223.188 192.612 223.188 192.82C223.188 192.977 223.214 193.117 223.266 193.242C223.323 193.362 223.422 193.474 223.562 193.578C223.703 193.677 223.901 193.771 224.156 193.859C224.411 193.948 224.737 194.036 225.133 194.125C225.826 194.281 226.396 194.469 226.844 194.688C227.292 194.906 227.625 195.174 227.844 195.492C228.062 195.81 228.172 196.195 228.172 196.648C228.172 197.018 228.094 197.357 227.938 197.664C227.786 197.971 227.565 198.237 227.273 198.461C226.987 198.68 226.643 198.852 226.242 198.977C225.846 199.096 225.401 199.156 224.906 199.156C224.161 199.156 223.531 199.023 223.016 198.758C222.5 198.492 222.109 198.148 221.844 197.727C221.578 197.305 221.445 196.859 221.445 196.391H222.898C222.919 196.786 223.034 197.102 223.242 197.336C223.451 197.565 223.706 197.729 224.008 197.828C224.31 197.922 224.609 197.969 224.906 197.969C225.302 197.969 225.633 197.917 225.898 197.812C226.169 197.708 226.375 197.565 226.516 197.383C226.656 197.201 226.727 196.992 226.727 196.758ZM229.688 194.867V194.688C229.688 194.078 229.776 193.513 229.953 192.992C230.13 192.466 230.385 192.01 230.719 191.625C231.052 191.234 231.456 190.932 231.93 190.719C232.404 190.5 232.935 190.391 233.523 190.391C234.117 190.391 234.651 190.5 235.125 190.719C235.604 190.932 236.01 191.234 236.344 191.625C236.682 192.01 236.94 192.466 237.117 192.992C237.294 193.513 237.383 194.078 237.383 194.688V194.867C237.383 195.477 237.294 196.042 237.117 196.562C236.94 197.083 236.682 197.539 236.344 197.93C236.01 198.315 235.607 198.617 235.133 198.836C234.664 199.049 234.133 199.156 233.539 199.156C232.945 199.156 232.411 199.049 231.938 198.836C231.464 198.617 231.057 198.315 230.719 197.93C230.385 197.539 230.13 197.083 229.953 196.562C229.776 196.042 229.688 195.477 229.688 194.867ZM231.133 194.688V194.867C231.133 195.289 231.182 195.688 231.281 196.062C231.38 196.432 231.529 196.76 231.727 197.047C231.93 197.333 232.182 197.56 232.484 197.727C232.786 197.888 233.138 197.969 233.539 197.969C233.935 197.969 234.281 197.888 234.578 197.727C234.88 197.56 235.13 197.333 235.328 197.047C235.526 196.76 235.674 196.432 235.773 196.062C235.878 195.688 235.93 195.289 235.93 194.867V194.688C235.93 194.271 235.878 193.878 235.773 193.508C235.674 193.133 235.523 192.802 235.32 192.516C235.122 192.224 234.872 191.995 234.57 191.828C234.273 191.661 233.924 191.578 233.523 191.578C233.128 191.578 232.779 191.661 232.477 191.828C232.18 191.995 231.93 192.224 231.727 192.516C231.529 192.802 231.38 193.133 231.281 193.508C231.182 193.878 231.133 194.271 231.133 194.688ZM240.641 192.352V199H239.195V190.547H240.562L240.641 192.352ZM240.297 194.453L239.695 194.43C239.701 193.852 239.786 193.318 239.953 192.828C240.12 192.333 240.354 191.904 240.656 191.539C240.958 191.174 241.318 190.893 241.734 190.695C242.156 190.492 242.622 190.391 243.133 190.391C243.549 190.391 243.924 190.448 244.258 190.562C244.591 190.672 244.875 190.849 245.109 191.094C245.349 191.339 245.531 191.656 245.656 192.047C245.781 192.432 245.844 192.904 245.844 193.461V199H244.391V193.445C244.391 193.003 244.326 192.648 244.195 192.383C244.065 192.112 243.875 191.917 243.625 191.797C243.375 191.672 243.068 191.609 242.703 191.609C242.344 191.609 242.016 191.685 241.719 191.836C241.427 191.987 241.174 192.195 240.961 192.461C240.753 192.727 240.589 193.031 240.469 193.375C240.354 193.714 240.297 194.073 240.297 194.453ZM253.023 197.555V193.203C253.023 192.87 252.956 192.581 252.82 192.336C252.69 192.086 252.492 191.893 252.227 191.758C251.961 191.622 251.633 191.555 251.242 191.555C250.878 191.555 250.557 191.617 250.281 191.742C250.01 191.867 249.797 192.031 249.641 192.234C249.49 192.438 249.414 192.656 249.414 192.891H247.969C247.969 192.589 248.047 192.289 248.203 191.992C248.359 191.695 248.583 191.427 248.875 191.188C249.172 190.943 249.526 190.75 249.938 190.609C250.354 190.464 250.818 190.391 251.328 190.391C251.943 190.391 252.484 190.495 252.953 190.703C253.427 190.911 253.797 191.227 254.062 191.648C254.333 192.065 254.469 192.589 254.469 193.219V197.156C254.469 197.438 254.492 197.737 254.539 198.055C254.591 198.372 254.667 198.646 254.766 198.875V199H253.258C253.185 198.833 253.128 198.612 253.086 198.336C253.044 198.055 253.023 197.794 253.023 197.555ZM253.273 193.875L253.289 194.891H251.828C251.417 194.891 251.049 194.924 250.727 194.992C250.404 195.055 250.133 195.151 249.914 195.281C249.695 195.411 249.529 195.576 249.414 195.773C249.299 195.966 249.242 196.193 249.242 196.453C249.242 196.719 249.302 196.961 249.422 197.18C249.542 197.398 249.721 197.573 249.961 197.703C250.206 197.828 250.505 197.891 250.859 197.891C251.302 197.891 251.693 197.797 252.031 197.609C252.37 197.422 252.638 197.193 252.836 196.922C253.039 196.651 253.148 196.388 253.164 196.133L253.781 196.828C253.745 197.047 253.646 197.289 253.484 197.555C253.323 197.82 253.107 198.076 252.836 198.32C252.57 198.56 252.253 198.76 251.883 198.922C251.518 199.078 251.107 199.156 250.648 199.156C250.076 199.156 249.573 199.044 249.141 198.82C248.714 198.596 248.38 198.297 248.141 197.922C247.906 197.542 247.789 197.117 247.789 196.648C247.789 196.195 247.878 195.797 248.055 195.453C248.232 195.104 248.487 194.815 248.82 194.586C249.154 194.352 249.555 194.174 250.023 194.055C250.492 193.935 251.016 193.875 251.594 193.875H253.273ZM258.312 187V199H256.859V187H258.312ZM59.5469 210.172V220.25H58.0938V208.547H59.4219L59.5469 210.172ZM65.2422 212.703V212.867C65.2422 213.482 65.1693 214.052 65.0234 214.578C64.8776 215.099 64.6641 215.552 64.3828 215.938C64.1068 216.323 63.7656 216.622 63.3594 216.836C62.9531 217.049 62.487 217.156 61.9609 217.156C61.4245 217.156 60.9505 217.068 60.5391 216.891C60.1276 216.714 59.7786 216.456 59.4922 216.117C59.2057 215.779 58.9766 215.372 58.8047 214.898C58.638 214.424 58.5234 213.891 58.4609 213.297V212.422C58.5234 211.797 58.6406 211.237 58.8125 210.742C58.9844 210.247 59.2109 209.826 59.4922 209.477C59.7786 209.122 60.125 208.854 60.5312 208.672C60.9375 208.484 61.4062 208.391 61.9375 208.391C62.4688 208.391 62.9401 208.495 63.3516 208.703C63.763 208.906 64.1094 209.198 64.3906 209.578C64.6719 209.958 64.8828 210.414 65.0234 210.945C65.1693 211.471 65.2422 212.057 65.2422 212.703ZM63.7891 212.867V212.703C63.7891 212.281 63.7448 211.885 63.6562 211.516C63.5677 211.141 63.4297 210.812 63.2422 210.531C63.0599 210.245 62.8255 210.021 62.5391 209.859C62.2526 209.693 61.9115 209.609 61.5156 209.609C61.151 209.609 60.8333 209.672 60.5625 209.797C60.2969 209.922 60.0703 210.091 59.8828 210.305C59.6953 210.513 59.5417 210.753 59.4219 211.023C59.3073 211.289 59.2214 211.565 59.1641 211.852V213.875C59.2682 214.24 59.4141 214.583 59.6016 214.906C59.7891 215.224 60.0391 215.482 60.3516 215.68C60.6641 215.872 61.0573 215.969 61.5312 215.969C61.9219 215.969 62.2578 215.888 62.5391 215.727C62.8255 215.56 63.0599 215.333 63.2422 215.047C63.4297 214.76 63.5677 214.432 63.6562 214.062C63.7448 213.688 63.7891 213.289 63.7891 212.867ZM68.5312 209.875V217H67.0859V208.547H68.4922L68.5312 209.875ZM71.1719 208.5L71.1641 209.844C71.0443 209.818 70.9297 209.802 70.8203 209.797C70.7161 209.786 70.5964 209.781 70.4609 209.781C70.1276 209.781 69.8333 209.833 69.5781 209.938C69.3229 210.042 69.1068 210.188 68.9297 210.375C68.7526 210.562 68.612 210.786 68.5078 211.047C68.4089 211.302 68.3438 211.583 68.3125 211.891L67.9062 212.125C67.9062 211.615 67.9557 211.135 68.0547 210.688C68.1589 210.24 68.3177 209.844 68.5312 209.5C68.7448 209.151 69.0156 208.88 69.3438 208.688C69.6771 208.49 70.0729 208.391 70.5312 208.391C70.6354 208.391 70.7552 208.404 70.8906 208.43C71.026 208.451 71.1198 208.474 71.1719 208.5ZM71.9688 212.867V212.688C71.9688 212.078 72.0573 211.513 72.2344 210.992C72.4115 210.466 72.6667 210.01 73 209.625C73.3333 209.234 73.737 208.932 74.2109 208.719C74.6849 208.5 75.2161 208.391 75.8047 208.391C76.3984 208.391 76.9323 208.5 77.4062 208.719C77.8854 208.932 78.2917 209.234 78.625 209.625C78.9635 210.01 79.2214 210.466 79.3984 210.992C79.5755 211.513 79.6641 212.078 79.6641 212.688V212.867C79.6641 213.477 79.5755 214.042 79.3984 214.562C79.2214 215.083 78.9635 215.539 78.625 215.93C78.2917 216.315 77.888 216.617 77.4141 216.836C76.9453 217.049 76.4141 217.156 75.8203 217.156C75.2266 217.156 74.6927 217.049 74.2188 216.836C73.7448 216.617 73.3385 216.315 73 215.93C72.6667 215.539 72.4115 215.083 72.2344 214.562C72.0573 214.042 71.9688 213.477 71.9688 212.867ZM73.4141 212.688V212.867C73.4141 213.289 73.4635 213.688 73.5625 214.062C73.6615 214.432 73.8099 214.76 74.0078 215.047C74.2109 215.333 74.4635 215.56 74.7656 215.727C75.0677 215.888 75.4193 215.969 75.8203 215.969C76.2161 215.969 76.5625 215.888 76.8594 215.727C77.1615 215.56 77.4115 215.333 77.6094 215.047C77.8073 214.76 77.9557 214.432 78.0547 214.062C78.1589 213.688 78.2109 213.289 78.2109 212.867V212.688C78.2109 212.271 78.1589 211.878 78.0547 211.508C77.9557 211.133 77.8047 210.802 77.6016 210.516C77.4036 210.224 77.1536 209.995 76.8516 209.828C76.5547 209.661 76.2057 209.578 75.8047 209.578C75.4089 209.578 75.0599 209.661 74.7578 209.828C74.4609 209.995 74.2109 210.224 74.0078 210.516C73.8099 210.802 73.6615 211.133 73.5625 211.508C73.4635 211.878 73.4141 212.271 73.4141 212.688ZM82.9219 210.172V220.25H81.4688V208.547H82.7969L82.9219 210.172ZM88.6172 212.703V212.867C88.6172 213.482 88.5443 214.052 88.3984 214.578C88.2526 215.099 88.0391 215.552 87.7578 215.938C87.4818 216.323 87.1406 216.622 86.7344 216.836C86.3281 217.049 85.862 217.156 85.3359 217.156C84.7995 217.156 84.3255 217.068 83.9141 216.891C83.5026 216.714 83.1536 216.456 82.8672 216.117C82.5807 215.779 82.3516 215.372 82.1797 214.898C82.013 214.424 81.8984 213.891 81.8359 213.297V212.422C81.8984 211.797 82.0156 211.237 82.1875 210.742C82.3594 210.247 82.5859 209.826 82.8672 209.477C83.1536 209.122 83.5 208.854 83.9062 208.672C84.3125 208.484 84.7812 208.391 85.3125 208.391C85.8438 208.391 86.3151 208.495 86.7266 208.703C87.138 208.906 87.4844 209.198 87.7656 209.578C88.0469 209.958 88.2578 210.414 88.3984 210.945C88.5443 211.471 88.6172 212.057 88.6172 212.703ZM87.1641 212.867V212.703C87.1641 212.281 87.1198 211.885 87.0312 211.516C86.9427 211.141 86.8047 210.812 86.6172 210.531C86.4349 210.245 86.2005 210.021 85.9141 209.859C85.6276 209.693 85.2865 209.609 84.8906 209.609C84.526 209.609 84.2083 209.672 83.9375 209.797C83.6719 209.922 83.4453 210.091 83.2578 210.305C83.0703 210.513 82.9167 210.753 82.7969 211.023C82.6823 211.289 82.5964 211.565 82.5391 211.852V213.875C82.6432 214.24 82.7891 214.583 82.9766 214.906C83.1641 215.224 83.4141 215.482 83.7266 215.68C84.0391 215.872 84.4323 215.969 84.9062 215.969C85.2969 215.969 85.6328 215.888 85.9141 215.727C86.2005 215.56 86.4349 215.333 86.6172 215.047C86.8047 214.76 86.9427 214.432 87.0312 214.062C87.1198 213.688 87.1641 213.289 87.1641 212.867ZM93.9688 217.156C93.3802 217.156 92.8464 217.057 92.3672 216.859C91.8932 216.656 91.4844 216.372 91.1406 216.008C90.8021 215.643 90.5417 215.211 90.3594 214.711C90.1771 214.211 90.0859 213.664 90.0859 213.07V212.742C90.0859 212.055 90.1875 211.443 90.3906 210.906C90.5938 210.365 90.8698 209.906 91.2188 209.531C91.5677 209.156 91.9635 208.872 92.4062 208.68C92.849 208.487 93.3073 208.391 93.7812 208.391C94.3854 208.391 94.9062 208.495 95.3438 208.703C95.7865 208.911 96.1484 209.203 96.4297 209.578C96.7109 209.948 96.9193 210.385 97.0547 210.891C97.1901 211.391 97.2578 211.938 97.2578 212.531V213.18H90.9453V212H95.8125V211.891C95.7917 211.516 95.7135 211.151 95.5781 210.797C95.4479 210.443 95.2396 210.151 94.9531 209.922C94.6667 209.693 94.276 209.578 93.7812 209.578C93.4531 209.578 93.151 209.648 92.875 209.789C92.599 209.924 92.362 210.128 92.1641 210.398C91.9661 210.669 91.8125 211 91.7031 211.391C91.5938 211.781 91.5391 212.232 91.5391 212.742V213.07C91.5391 213.471 91.5938 213.849 91.7031 214.203C91.8177 214.552 91.9818 214.859 92.1953 215.125C92.4141 215.391 92.6771 215.599 92.9844 215.75C93.2969 215.901 93.651 215.977 94.0469 215.977C94.5573 215.977 94.9896 215.872 95.3438 215.664C95.6979 215.456 96.0078 215.177 96.2734 214.828L97.1484 215.523C96.9661 215.799 96.7344 216.062 96.4531 216.312C96.1719 216.562 95.8255 216.766 95.4141 216.922C95.0078 217.078 94.526 217.156 93.9688 217.156ZM100.391 209.875V217H98.9453V208.547H100.352L100.391 209.875ZM103.031 208.5L103.023 209.844C102.904 209.818 102.789 209.802 102.68 209.797C102.576 209.786 102.456 209.781 102.32 209.781C101.987 209.781 101.693 209.833 101.438 209.938C101.182 210.042 100.966 210.188 100.789 210.375C100.612 210.562 100.471 210.786 100.367 211.047C100.268 211.302 100.203 211.583 100.172 211.891L99.7656 212.125C99.7656 211.615 99.8151 211.135 99.9141 210.688C100.018 210.24 100.177 209.844 100.391 209.5C100.604 209.151 100.875 208.88 101.203 208.688C101.536 208.49 101.932 208.391 102.391 208.391C102.495 208.391 102.615 208.404 102.75 208.43C102.885 208.451 102.979 208.474 103.031 208.5ZM108.297 208.547V209.656H103.727V208.547H108.297ZM105.273 206.492H106.719V214.906C106.719 215.193 106.763 215.409 106.852 215.555C106.94 215.701 107.055 215.797 107.195 215.844C107.336 215.891 107.487 215.914 107.648 215.914C107.768 215.914 107.893 215.904 108.023 215.883C108.159 215.857 108.26 215.836 108.328 215.82L108.336 217C108.221 217.036 108.07 217.07 107.883 217.102C107.701 217.138 107.479 217.156 107.219 217.156C106.865 217.156 106.539 217.086 106.242 216.945C105.945 216.805 105.708 216.57 105.531 216.242C105.359 215.909 105.273 215.461 105.273 214.898V206.492ZM112.367 216.125L114.719 208.547H116.266L112.875 218.305C112.797 218.513 112.693 218.737 112.562 218.977C112.438 219.221 112.276 219.453 112.078 219.672C111.88 219.891 111.641 220.068 111.359 220.203C111.083 220.344 110.753 220.414 110.367 220.414C110.253 220.414 110.107 220.398 109.93 220.367C109.753 220.336 109.628 220.31 109.555 220.289L109.547 219.117C109.589 219.122 109.654 219.128 109.742 219.133C109.836 219.143 109.901 219.148 109.938 219.148C110.266 219.148 110.544 219.104 110.773 219.016C111.003 218.932 111.195 218.789 111.352 218.586C111.513 218.388 111.651 218.115 111.766 217.766L112.367 216.125ZM110.641 208.547L112.836 215.109L113.211 216.633L112.172 217.164L109.062 208.547H110.641ZM65.2188 248.773V250H59.5312V248.773H65.2188ZM59.8281 238.625V250H58.3203V238.625H59.8281ZM66.3438 245.867V245.688C66.3438 245.078 66.4323 244.513 66.6094 243.992C66.7865 243.466 67.0417 243.01 67.375 242.625C67.7083 242.234 68.112 241.932 68.5859 241.719C69.0599 241.5 69.5911 241.391 70.1797 241.391C70.7734 241.391 71.3073 241.5 71.7812 241.719C72.2604 241.932 72.6667 242.234 73 242.625C73.3385 243.01 73.5964 243.466 73.7734 243.992C73.9505 244.513 74.0391 245.078 74.0391 245.688V245.867C74.0391 246.477 73.9505 247.042 73.7734 247.562C73.5964 248.083 73.3385 248.539 73 248.93C72.6667 249.315 72.263 249.617 71.7891 249.836C71.3203 250.049 70.7891 250.156 70.1953 250.156C69.6016 250.156 69.0677 250.049 68.5938 249.836C68.1198 249.617 67.7135 249.315 67.375 248.93C67.0417 248.539 66.7865 248.083 66.6094 247.562C66.4323 247.042 66.3438 246.477 66.3438 245.867ZM67.7891 245.688V245.867C67.7891 246.289 67.8385 246.688 67.9375 247.062C68.0365 247.432 68.1849 247.76 68.3828 248.047C68.5859 248.333 68.8385 248.56 69.1406 248.727C69.4427 248.888 69.7943 248.969 70.1953 248.969C70.5911 248.969 70.9375 248.888 71.2344 248.727C71.5365 248.56 71.7865 248.333 71.9844 248.047C72.1823 247.76 72.3307 247.432 72.4297 247.062C72.5339 246.688 72.5859 246.289 72.5859 245.867V245.688C72.5859 245.271 72.5339 244.878 72.4297 244.508C72.3307 244.133 72.1797 243.802 71.9766 243.516C71.7786 243.224 71.5286 242.995 71.2266 242.828C70.9297 242.661 70.5807 242.578 70.1797 242.578C69.7839 242.578 69.4349 242.661 69.1328 242.828C68.8359 242.995 68.5859 243.224 68.3828 243.516C68.1849 243.802 68.0365 244.133 67.9375 244.508C67.8385 244.878 67.7891 245.271 67.7891 245.688ZM80.7734 247.758C80.7734 247.549 80.7266 247.357 80.6328 247.18C80.5443 246.997 80.3594 246.833 80.0781 246.688C79.8021 246.536 79.3854 246.406 78.8281 246.297C78.3594 246.198 77.9349 246.081 77.5547 245.945C77.1797 245.81 76.8594 245.646 76.5938 245.453C76.3333 245.26 76.1328 245.034 75.9922 244.773C75.8516 244.513 75.7812 244.208 75.7812 243.859C75.7812 243.526 75.8542 243.211 76 242.914C76.151 242.617 76.362 242.354 76.6328 242.125C76.9089 241.896 77.2396 241.716 77.625 241.586C78.0104 241.456 78.4401 241.391 78.9141 241.391C79.5911 241.391 80.1693 241.51 80.6484 241.75C81.1276 241.99 81.4948 242.31 81.75 242.711C82.0052 243.107 82.1328 243.547 82.1328 244.031H80.6875C80.6875 243.797 80.6172 243.57 80.4766 243.352C80.3411 243.128 80.1406 242.943 79.875 242.797C79.6146 242.651 79.2943 242.578 78.9141 242.578C78.513 242.578 78.1875 242.641 77.9375 242.766C77.6927 242.885 77.513 243.039 77.3984 243.227C77.2891 243.414 77.2344 243.612 77.2344 243.82C77.2344 243.977 77.2604 244.117 77.3125 244.242C77.3698 244.362 77.4688 244.474 77.6094 244.578C77.75 244.677 77.9479 244.771 78.2031 244.859C78.4583 244.948 78.7839 245.036 79.1797 245.125C79.8724 245.281 80.4427 245.469 80.8906 245.688C81.3385 245.906 81.6719 246.174 81.8906 246.492C82.1094 246.81 82.2188 247.195 82.2188 247.648C82.2188 248.018 82.1406 248.357 81.9844 248.664C81.8333 248.971 81.612 249.237 81.3203 249.461C81.0339 249.68 80.6901 249.852 80.2891 249.977C79.8932 250.096 79.4479 250.156 78.9531 250.156C78.2083 250.156 77.5781 250.023 77.0625 249.758C76.5469 249.492 76.1562 249.148 75.8906 248.727C75.625 248.305 75.4922 247.859 75.4922 247.391H76.9453C76.9661 247.786 77.0807 248.102 77.2891 248.336C77.4974 248.565 77.7526 248.729 78.0547 248.828C78.3568 248.922 78.6562 248.969 78.9531 248.969C79.349 248.969 79.6797 248.917 79.9453 248.812C80.2161 248.708 80.4219 248.565 80.5625 248.383C80.7031 248.201 80.7734 247.992 80.7734 247.758ZM89.0391 247.758C89.0391 247.549 88.9922 247.357 88.8984 247.18C88.8099 246.997 88.625 246.833 88.3438 246.688C88.0677 246.536 87.651 246.406 87.0938 246.297C86.625 246.198 86.2005 246.081 85.8203 245.945C85.4453 245.81 85.125 245.646 84.8594 245.453C84.599 245.26 84.3984 245.034 84.2578 244.773C84.1172 244.513 84.0469 244.208 84.0469 243.859C84.0469 243.526 84.1198 243.211 84.2656 242.914C84.4167 242.617 84.6276 242.354 84.8984 242.125C85.1745 241.896 85.5052 241.716 85.8906 241.586C86.276 241.456 86.7057 241.391 87.1797 241.391C87.8568 241.391 88.4349 241.51 88.9141 241.75C89.3932 241.99 89.7604 242.31 90.0156 242.711C90.2708 243.107 90.3984 243.547 90.3984 244.031H88.9531C88.9531 243.797 88.8828 243.57 88.7422 243.352C88.6068 243.128 88.4062 242.943 88.1406 242.797C87.8802 242.651 87.5599 242.578 87.1797 242.578C86.7786 242.578 86.4531 242.641 86.2031 242.766C85.9583 242.885 85.7786 243.039 85.6641 243.227C85.5547 243.414 85.5 243.612 85.5 243.82C85.5 243.977 85.526 244.117 85.5781 244.242C85.6354 244.362 85.7344 244.474 85.875 244.578C86.0156 244.677 86.2135 244.771 86.4688 244.859C86.724 244.948 87.0495 245.036 87.4453 245.125C88.138 245.281 88.7083 245.469 89.1562 245.688C89.6042 245.906 89.9375 246.174 90.1562 246.492C90.375 246.81 90.4844 247.195 90.4844 247.648C90.4844 248.018 90.4062 248.357 90.25 248.664C90.099 248.971 89.8776 249.237 89.5859 249.461C89.2995 249.68 88.9557 249.852 88.5547 249.977C88.1589 250.096 87.7135 250.156 87.2188 250.156C86.474 250.156 85.8438 250.023 85.3281 249.758C84.8125 249.492 84.4219 249.148 84.1562 248.727C83.8906 248.305 83.7578 247.859 83.7578 247.391H85.2109C85.2318 247.786 85.3464 248.102 85.5547 248.336C85.763 248.565 86.0182 248.729 86.3203 248.828C86.6224 248.922 86.9219 248.969 87.2188 248.969C87.6146 248.969 87.9453 248.917 88.2109 248.812C88.4818 248.708 88.6875 248.565 88.8281 248.383C88.9688 248.201 89.0391 247.992 89.0391 247.758ZM95.9688 245.867V245.688C95.9688 245.078 96.0573 244.513 96.2344 243.992C96.4115 243.466 96.6667 243.01 97 242.625C97.3333 242.234 97.737 241.932 98.2109 241.719C98.6849 241.5 99.2161 241.391 99.8047 241.391C100.398 241.391 100.932 241.5 101.406 241.719C101.885 241.932 102.292 242.234 102.625 242.625C102.964 243.01 103.221 243.466 103.398 243.992C103.576 244.513 103.664 245.078 103.664 245.688V245.867C103.664 246.477 103.576 247.042 103.398 247.562C103.221 248.083 102.964 248.539 102.625 248.93C102.292 249.315 101.888 249.617 101.414 249.836C100.945 250.049 100.414 250.156 99.8203 250.156C99.2266 250.156 98.6927 250.049 98.2188 249.836C97.7448 249.617 97.3385 249.315 97 248.93C96.6667 248.539 96.4115 248.083 96.2344 247.562C96.0573 247.042 95.9688 246.477 95.9688 245.867ZM97.4141 245.688V245.867C97.4141 246.289 97.4635 246.688 97.5625 247.062C97.6615 247.432 97.8099 247.76 98.0078 248.047C98.2109 248.333 98.4635 248.56 98.7656 248.727C99.0677 248.888 99.4193 248.969 99.8203 248.969C100.216 248.969 100.562 248.888 100.859 248.727C101.161 248.56 101.411 248.333 101.609 248.047C101.807 247.76 101.956 247.432 102.055 247.062C102.159 246.688 102.211 246.289 102.211 245.867V245.688C102.211 245.271 102.159 244.878 102.055 244.508C101.956 244.133 101.805 243.802 101.602 243.516C101.404 243.224 101.154 242.995 100.852 242.828C100.555 242.661 100.206 242.578 99.8047 242.578C99.4089 242.578 99.0599 242.661 98.7578 242.828C98.4609 242.995 98.2109 243.224 98.0078 243.516C97.8099 243.802 97.6615 244.133 97.5625 244.508C97.4635 244.878 97.4141 245.271 97.4141 245.688ZM107.633 250H106.188V240.656C106.188 240.047 106.297 239.534 106.516 239.117C106.74 238.695 107.06 238.378 107.477 238.164C107.893 237.945 108.388 237.836 108.961 237.836C109.128 237.836 109.294 237.846 109.461 237.867C109.633 237.888 109.799 237.919 109.961 237.961L109.883 239.141C109.773 239.115 109.648 239.096 109.508 239.086C109.372 239.076 109.237 239.07 109.102 239.07C108.794 239.07 108.529 239.133 108.305 239.258C108.086 239.378 107.919 239.555 107.805 239.789C107.69 240.023 107.633 240.312 107.633 240.656V250ZM109.43 241.547V242.656H104.852V241.547H109.43ZM116.445 243.227V250H114.992V241.547H116.367L116.445 243.227ZM116.148 245.453L115.477 245.43C115.482 244.852 115.557 244.318 115.703 243.828C115.849 243.333 116.065 242.904 116.352 242.539C116.638 242.174 116.995 241.893 117.422 241.695C117.849 241.492 118.344 241.391 118.906 241.391C119.302 241.391 119.667 241.448 120 241.562C120.333 241.672 120.622 241.846 120.867 242.086C121.112 242.326 121.302 242.633 121.438 243.008C121.573 243.383 121.641 243.836 121.641 244.367V250H120.195V244.438C120.195 243.995 120.12 243.641 119.969 243.375C119.823 243.109 119.615 242.917 119.344 242.797C119.073 242.672 118.755 242.609 118.391 242.609C117.964 242.609 117.607 242.685 117.32 242.836C117.034 242.987 116.805 243.195 116.633 243.461C116.461 243.727 116.336 244.031 116.258 244.375C116.185 244.714 116.148 245.073 116.148 245.453ZM121.625 244.656L120.656 244.953C120.661 244.49 120.737 244.044 120.883 243.617C121.034 243.19 121.25 242.81 121.531 242.477C121.818 242.143 122.169 241.88 122.586 241.688C123.003 241.49 123.479 241.391 124.016 241.391C124.469 241.391 124.87 241.451 125.219 241.57C125.573 241.69 125.87 241.875 126.109 242.125C126.354 242.37 126.539 242.685 126.664 243.07C126.789 243.456 126.852 243.914 126.852 244.445V250H125.398V244.43C125.398 243.956 125.323 243.589 125.172 243.328C125.026 243.062 124.818 242.878 124.547 242.773C124.281 242.664 123.964 242.609 123.594 242.609C123.276 242.609 122.995 242.664 122.75 242.773C122.505 242.883 122.299 243.034 122.133 243.227C121.966 243.414 121.839 243.63 121.75 243.875C121.667 244.12 121.625 244.38 121.625 244.656ZM128.656 245.867V245.688C128.656 245.078 128.745 244.513 128.922 243.992C129.099 243.466 129.354 243.01 129.688 242.625C130.021 242.234 130.424 241.932 130.898 241.719C131.372 241.5 131.904 241.391 132.492 241.391C133.086 241.391 133.62 241.5 134.094 241.719C134.573 241.932 134.979 242.234 135.312 242.625C135.651 243.01 135.909 243.466 136.086 243.992C136.263 244.513 136.352 245.078 136.352 245.688V245.867C136.352 246.477 136.263 247.042 136.086 247.562C135.909 248.083 135.651 248.539 135.312 248.93C134.979 249.315 134.576 249.617 134.102 249.836C133.633 250.049 133.102 250.156 132.508 250.156C131.914 250.156 131.38 250.049 130.906 249.836C130.432 249.617 130.026 249.315 129.688 248.93C129.354 248.539 129.099 248.083 128.922 247.562C128.745 247.042 128.656 246.477 128.656 245.867ZM130.102 245.688V245.867C130.102 246.289 130.151 246.688 130.25 247.062C130.349 247.432 130.497 247.76 130.695 248.047C130.898 248.333 131.151 248.56 131.453 248.727C131.755 248.888 132.107 248.969 132.508 248.969C132.904 248.969 133.25 248.888 133.547 248.727C133.849 248.56 134.099 248.333 134.297 248.047C134.495 247.76 134.643 247.432 134.742 247.062C134.846 246.688 134.898 246.289 134.898 245.867V245.688C134.898 245.271 134.846 244.878 134.742 244.508C134.643 244.133 134.492 243.802 134.289 243.516C134.091 243.224 133.841 242.995 133.539 242.828C133.242 242.661 132.893 242.578 132.492 242.578C132.096 242.578 131.747 242.661 131.445 242.828C131.148 242.995 130.898 243.224 130.695 243.516C130.497 243.802 130.349 244.133 130.25 244.508C130.151 244.878 130.102 245.271 130.102 245.688ZM139.609 243.352V250H138.164V241.547H139.531L139.609 243.352ZM139.266 245.453L138.664 245.43C138.669 244.852 138.755 244.318 138.922 243.828C139.089 243.333 139.323 242.904 139.625 242.539C139.927 242.174 140.286 241.893 140.703 241.695C141.125 241.492 141.591 241.391 142.102 241.391C142.518 241.391 142.893 241.448 143.227 241.562C143.56 241.672 143.844 241.849 144.078 242.094C144.318 242.339 144.5 242.656 144.625 243.047C144.75 243.432 144.812 243.904 144.812 244.461V250H143.359V244.445C143.359 244.003 143.294 243.648 143.164 243.383C143.034 243.112 142.844 242.917 142.594 242.797C142.344 242.672 142.036 242.609 141.672 242.609C141.312 242.609 140.984 242.685 140.688 242.836C140.396 242.987 140.143 243.195 139.93 243.461C139.721 243.727 139.557 244.031 139.438 244.375C139.323 244.714 139.266 245.073 139.266 245.453ZM150.516 250.156C149.927 250.156 149.393 250.057 148.914 249.859C148.44 249.656 148.031 249.372 147.688 249.008C147.349 248.643 147.089 248.211 146.906 247.711C146.724 247.211 146.633 246.664 146.633 246.07V245.742C146.633 245.055 146.734 244.443 146.938 243.906C147.141 243.365 147.417 242.906 147.766 242.531C148.115 242.156 148.51 241.872 148.953 241.68C149.396 241.487 149.854 241.391 150.328 241.391C150.932 241.391 151.453 241.495 151.891 241.703C152.333 241.911 152.695 242.203 152.977 242.578C153.258 242.948 153.466 243.385 153.602 243.891C153.737 244.391 153.805 244.938 153.805 245.531V246.18H147.492V245H152.359V244.891C152.339 244.516 152.26 244.151 152.125 243.797C151.995 243.443 151.786 243.151 151.5 242.922C151.214 242.693 150.823 242.578 150.328 242.578C150 242.578 149.698 242.648 149.422 242.789C149.146 242.924 148.909 243.128 148.711 243.398C148.513 243.669 148.359 244 148.25 244.391C148.141 244.781 148.086 245.232 148.086 245.742V246.07C148.086 246.471 148.141 246.849 148.25 247.203C148.365 247.552 148.529 247.859 148.742 248.125C148.961 248.391 149.224 248.599 149.531 248.75C149.844 248.901 150.198 248.977 150.594 248.977C151.104 248.977 151.536 248.872 151.891 248.664C152.245 248.456 152.555 248.177 152.82 247.828L153.695 248.523C153.513 248.799 153.281 249.062 153 249.312C152.719 249.562 152.372 249.766 151.961 249.922C151.555 250.078 151.073 250.156 150.516 250.156ZM157.758 249.125L160.109 241.547H161.656L158.266 251.305C158.188 251.513 158.083 251.737 157.953 251.977C157.828 252.221 157.667 252.453 157.469 252.672C157.271 252.891 157.031 253.068 156.75 253.203C156.474 253.344 156.143 253.414 155.758 253.414C155.643 253.414 155.497 253.398 155.32 253.367C155.143 253.336 155.018 253.31 154.945 253.289L154.938 252.117C154.979 252.122 155.044 252.128 155.133 252.133C155.227 252.143 155.292 252.148 155.328 252.148C155.656 252.148 155.935 252.104 156.164 252.016C156.393 251.932 156.586 251.789 156.742 251.586C156.904 251.388 157.042 251.115 157.156 250.766L157.758 249.125ZM156.031 241.547L158.227 248.109L158.602 249.633L157.562 250.164L154.453 241.547H156.031ZM65.75 276.516V277.742H59.5938V276.516H65.75ZM59.8281 271.625V283H58.3203V271.625H59.8281ZM67.0625 271.625V283H65.5625V271.625H67.0625ZM69.1406 278.867V278.688C69.1406 278.078 69.2292 277.513 69.4062 276.992C69.5833 276.466 69.8385 276.01 70.1719 275.625C70.5052 275.234 70.9089 274.932 71.3828 274.719C71.8568 274.5 72.388 274.391 72.9766 274.391C73.5703 274.391 74.1042 274.5 74.5781 274.719C75.0573 274.932 75.4635 275.234 75.7969 275.625C76.1354 276.01 76.3932 276.466 76.5703 276.992C76.7474 277.513 76.8359 278.078 76.8359 278.688V278.867C76.8359 279.477 76.7474 280.042 76.5703 280.562C76.3932 281.083 76.1354 281.539 75.7969 281.93C75.4635 282.315 75.0599 282.617 74.5859 282.836C74.1172 283.049 73.5859 283.156 72.9922 283.156C72.3984 283.156 71.8646 283.049 71.3906 282.836C70.9167 282.617 70.5104 282.315 70.1719 281.93C69.8385 281.539 69.5833 281.083 69.4062 280.562C69.2292 280.042 69.1406 279.477 69.1406 278.867ZM70.5859 278.688V278.867C70.5859 279.289 70.6354 279.688 70.7344 280.062C70.8333 280.432 70.9818 280.76 71.1797 281.047C71.3828 281.333 71.6354 281.56 71.9375 281.727C72.2396 281.888 72.5911 281.969 72.9922 281.969C73.388 281.969 73.7344 281.888 74.0312 281.727C74.3333 281.56 74.5833 281.333 74.7812 281.047C74.9792 280.76 75.1276 280.432 75.2266 280.062C75.3307 279.688 75.3828 279.289 75.3828 278.867V278.688C75.3828 278.271 75.3307 277.878 75.2266 277.508C75.1276 277.133 74.9766 276.802 74.7734 276.516C74.5755 276.224 74.3255 275.995 74.0234 275.828C73.7266 275.661 73.3776 275.578 72.9766 275.578C72.5807 275.578 72.2318 275.661 71.9297 275.828C71.6328 275.995 71.3828 276.224 71.1797 276.516C70.9818 276.802 70.8333 277.133 70.7344 277.508C70.6354 277.878 70.5859 278.271 70.5859 278.688ZM80.0859 276.227V283H78.6328V274.547H80.0078L80.0859 276.227ZM79.7891 278.453L79.1172 278.43C79.1224 277.852 79.1979 277.318 79.3438 276.828C79.4896 276.333 79.7057 275.904 79.9922 275.539C80.2786 275.174 80.6354 274.893 81.0625 274.695C81.4896 274.492 81.9844 274.391 82.5469 274.391C82.9427 274.391 83.3073 274.448 83.6406 274.562C83.974 274.672 84.263 274.846 84.5078 275.086C84.7526 275.326 84.9427 275.633 85.0781 276.008C85.2135 276.383 85.2812 276.836 85.2812 277.367V283H83.8359V277.438C83.8359 276.995 83.7604 276.641 83.6094 276.375C83.4635 276.109 83.2552 275.917 82.9844 275.797C82.7135 275.672 82.3958 275.609 82.0312 275.609C81.6042 275.609 81.2474 275.685 80.9609 275.836C80.6745 275.987 80.4453 276.195 80.2734 276.461C80.1016 276.727 79.9766 277.031 79.8984 277.375C79.8255 277.714 79.7891 278.073 79.7891 278.453ZM85.2656 277.656L84.2969 277.953C84.3021 277.49 84.3776 277.044 84.5234 276.617C84.6745 276.19 84.8906 275.81 85.1719 275.477C85.4583 275.143 85.8099 274.88 86.2266 274.688C86.6432 274.49 87.1198 274.391 87.6562 274.391C88.1094 274.391 88.5104 274.451 88.8594 274.57C89.2135 274.69 89.5104 274.875 89.75 275.125C89.9948 275.37 90.1797 275.685 90.3047 276.07C90.4297 276.456 90.4922 276.914 90.4922 277.445V283H89.0391V277.43C89.0391 276.956 88.9635 276.589 88.8125 276.328C88.6667 276.062 88.4583 275.878 88.1875 275.773C87.9219 275.664 87.6042 275.609 87.2344 275.609C86.9167 275.609 86.6354 275.664 86.3906 275.773C86.1458 275.883 85.9401 276.034 85.7734 276.227C85.6068 276.414 85.4792 276.63 85.3906 276.875C85.3073 277.12 85.2656 277.38 85.2656 277.656ZM96.1875 283.156C95.599 283.156 95.0651 283.057 94.5859 282.859C94.112 282.656 93.7031 282.372 93.3594 282.008C93.0208 281.643 92.7604 281.211 92.5781 280.711C92.3958 280.211 92.3047 279.664 92.3047 279.07V278.742C92.3047 278.055 92.4062 277.443 92.6094 276.906C92.8125 276.365 93.0885 275.906 93.4375 275.531C93.7865 275.156 94.1823 274.872 94.625 274.68C95.0677 274.487 95.526 274.391 96 274.391C96.6042 274.391 97.125 274.495 97.5625 274.703C98.0052 274.911 98.3672 275.203 98.6484 275.578C98.9297 275.948 99.138 276.385 99.2734 276.891C99.4089 277.391 99.4766 277.938 99.4766 278.531V279.18H93.1641V278H98.0312V277.891C98.0104 277.516 97.9323 277.151 97.7969 276.797C97.6667 276.443 97.4583 276.151 97.1719 275.922C96.8854 275.693 96.4948 275.578 96 275.578C95.6719 275.578 95.3698 275.648 95.0938 275.789C94.8177 275.924 94.5807 276.128 94.3828 276.398C94.1849 276.669 94.0312 277 93.9219 277.391C93.8125 277.781 93.7578 278.232 93.7578 278.742V279.07C93.7578 279.471 93.8125 279.849 93.9219 280.203C94.0365 280.552 94.2005 280.859 94.4141 281.125C94.6328 281.391 94.8958 281.599 95.2031 281.75C95.5156 281.901 95.8698 281.977 96.2656 281.977C96.776 281.977 97.2083 281.872 97.5625 281.664C97.9167 281.456 98.2266 281.177 98.4922 280.828L99.3672 281.523C99.1849 281.799 98.9531 282.062 98.6719 282.312C98.3906 282.562 98.0443 282.766 97.6328 282.922C97.2266 283.078 96.7448 283.156 96.1875 283.156ZM108.516 281.969C108.859 281.969 109.177 281.898 109.469 281.758C109.76 281.617 110 281.424 110.188 281.18C110.375 280.93 110.482 280.646 110.508 280.328H111.883C111.857 280.828 111.688 281.294 111.375 281.727C111.068 282.154 110.664 282.5 110.164 282.766C109.664 283.026 109.115 283.156 108.516 283.156C107.88 283.156 107.326 283.044 106.852 282.82C106.383 282.596 105.992 282.289 105.68 281.898C105.372 281.508 105.141 281.06 104.984 280.555C104.833 280.044 104.758 279.505 104.758 278.938V278.609C104.758 278.042 104.833 277.505 104.984 277C105.141 276.49 105.372 276.039 105.68 275.648C105.992 275.258 106.383 274.951 106.852 274.727C107.326 274.503 107.88 274.391 108.516 274.391C109.177 274.391 109.755 274.526 110.25 274.797C110.745 275.062 111.133 275.427 111.414 275.891C111.701 276.349 111.857 276.87 111.883 277.453H110.508C110.482 277.104 110.383 276.789 110.211 276.508C110.044 276.227 109.815 276.003 109.523 275.836C109.237 275.664 108.901 275.578 108.516 275.578C108.073 275.578 107.701 275.667 107.398 275.844C107.102 276.016 106.865 276.25 106.688 276.547C106.516 276.839 106.391 277.164 106.312 277.523C106.24 277.878 106.203 278.24 106.203 278.609V278.938C106.203 279.307 106.24 279.672 106.312 280.031C106.385 280.391 106.508 280.716 106.68 281.008C106.857 281.299 107.094 281.534 107.391 281.711C107.693 281.883 108.068 281.969 108.516 281.969ZM113.125 278.867V278.688C113.125 278.078 113.214 277.513 113.391 276.992C113.568 276.466 113.823 276.01 114.156 275.625C114.49 275.234 114.893 274.932 115.367 274.719C115.841 274.5 116.372 274.391 116.961 274.391C117.555 274.391 118.089 274.5 118.562 274.719C119.042 274.932 119.448 275.234 119.781 275.625C120.12 276.01 120.378 276.466 120.555 276.992C120.732 277.513 120.82 278.078 120.82 278.688V278.867C120.82 279.477 120.732 280.042 120.555 280.562C120.378 281.083 120.12 281.539 119.781 281.93C119.448 282.315 119.044 282.617 118.57 282.836C118.102 283.049 117.57 283.156 116.977 283.156C116.383 283.156 115.849 283.049 115.375 282.836C114.901 282.617 114.495 282.315 114.156 281.93C113.823 281.539 113.568 281.083 113.391 280.562C113.214 280.042 113.125 279.477 113.125 278.867ZM114.57 278.688V278.867C114.57 279.289 114.62 279.688 114.719 280.062C114.818 280.432 114.966 280.76 115.164 281.047C115.367 281.333 115.62 281.56 115.922 281.727C116.224 281.888 116.576 281.969 116.977 281.969C117.372 281.969 117.719 281.888 118.016 281.727C118.318 281.56 118.568 281.333 118.766 281.047C118.964 280.76 119.112 280.432 119.211 280.062C119.315 279.688 119.367 279.289 119.367 278.867V278.688C119.367 278.271 119.315 277.878 119.211 277.508C119.112 277.133 118.961 276.802 118.758 276.516C118.56 276.224 118.31 275.995 118.008 275.828C117.711 275.661 117.362 275.578 116.961 275.578C116.565 275.578 116.216 275.661 115.914 275.828C115.617 275.995 115.367 276.224 115.164 276.516C114.966 276.802 114.818 277.133 114.719 277.508C114.62 277.878 114.57 278.271 114.57 278.688ZM124.078 276.352V283H122.633V274.547H124L124.078 276.352ZM123.734 278.453L123.133 278.43C123.138 277.852 123.224 277.318 123.391 276.828C123.557 276.333 123.792 275.904 124.094 275.539C124.396 275.174 124.755 274.893 125.172 274.695C125.594 274.492 126.06 274.391 126.57 274.391C126.987 274.391 127.362 274.448 127.695 274.562C128.029 274.672 128.312 274.849 128.547 275.094C128.786 275.339 128.969 275.656 129.094 276.047C129.219 276.432 129.281 276.904 129.281 277.461V283H127.828V277.445C127.828 277.003 127.763 276.648 127.633 276.383C127.503 276.112 127.312 275.917 127.062 275.797C126.812 275.672 126.505 275.609 126.141 275.609C125.781 275.609 125.453 275.685 125.156 275.836C124.865 275.987 124.612 276.195 124.398 276.461C124.19 276.727 124.026 277.031 123.906 277.375C123.792 277.714 123.734 278.073 123.734 278.453ZM135.016 274.547V275.656H130.445V274.547H135.016ZM131.992 272.492H133.438V280.906C133.438 281.193 133.482 281.409 133.57 281.555C133.659 281.701 133.773 281.797 133.914 281.844C134.055 281.891 134.206 281.914 134.367 281.914C134.487 281.914 134.612 281.904 134.742 281.883C134.878 281.857 134.979 281.836 135.047 281.82L135.055 283C134.94 283.036 134.789 283.07 134.602 283.102C134.419 283.138 134.198 283.156 133.938 283.156C133.583 283.156 133.258 283.086 132.961 282.945C132.664 282.805 132.427 282.57 132.25 282.242C132.078 281.909 131.992 281.461 131.992 280.898V272.492ZM140.219 283.156C139.63 283.156 139.096 283.057 138.617 282.859C138.143 282.656 137.734 282.372 137.391 282.008C137.052 281.643 136.792 281.211 136.609 280.711C136.427 280.211 136.336 279.664 136.336 279.07V278.742C136.336 278.055 136.438 277.443 136.641 276.906C136.844 276.365 137.12 275.906 137.469 275.531C137.818 275.156 138.214 274.872 138.656 274.68C139.099 274.487 139.557 274.391 140.031 274.391C140.635 274.391 141.156 274.495 141.594 274.703C142.036 274.911 142.398 275.203 142.68 275.578C142.961 275.948 143.169 276.385 143.305 276.891C143.44 277.391 143.508 277.938 143.508 278.531V279.18H137.195V278H142.062V277.891C142.042 277.516 141.964 277.151 141.828 276.797C141.698 276.443 141.49 276.151 141.203 275.922C140.917 275.693 140.526 275.578 140.031 275.578C139.703 275.578 139.401 275.648 139.125 275.789C138.849 275.924 138.612 276.128 138.414 276.398C138.216 276.669 138.062 277 137.953 277.391C137.844 277.781 137.789 278.232 137.789 278.742V279.07C137.789 279.471 137.844 279.849 137.953 280.203C138.068 280.552 138.232 280.859 138.445 281.125C138.664 281.391 138.927 281.599 139.234 281.75C139.547 281.901 139.901 281.977 140.297 281.977C140.807 281.977 141.24 281.872 141.594 281.664C141.948 281.456 142.258 281.177 142.523 280.828L143.398 281.523C143.216 281.799 142.984 282.062 142.703 282.312C142.422 282.562 142.076 282.766 141.664 282.922C141.258 283.078 140.776 283.156 140.219 283.156ZM146.641 276.352V283H145.195V274.547H146.562L146.641 276.352ZM146.297 278.453L145.695 278.43C145.701 277.852 145.786 277.318 145.953 276.828C146.12 276.333 146.354 275.904 146.656 275.539C146.958 275.174 147.318 274.893 147.734 274.695C148.156 274.492 148.622 274.391 149.133 274.391C149.549 274.391 149.924 274.448 150.258 274.562C150.591 274.672 150.875 274.849 151.109 275.094C151.349 275.339 151.531 275.656 151.656 276.047C151.781 276.432 151.844 276.904 151.844 277.461V283H150.391V277.445C150.391 277.003 150.326 276.648 150.195 276.383C150.065 276.112 149.875 275.917 149.625 275.797C149.375 275.672 149.068 275.609 148.703 275.609C148.344 275.609 148.016 275.685 147.719 275.836C147.427 275.987 147.174 276.195 146.961 276.461C146.753 276.727 146.589 277.031 146.469 277.375C146.354 277.714 146.297 278.073 146.297 278.453ZM157.578 274.547V275.656H153.008V274.547H157.578ZM154.555 272.492H156V280.906C156 281.193 156.044 281.409 156.133 281.555C156.221 281.701 156.336 281.797 156.477 281.844C156.617 281.891 156.768 281.914 156.93 281.914C157.049 281.914 157.174 281.904 157.305 281.883C157.44 281.857 157.542 281.836 157.609 281.82L157.617 283C157.503 283.036 157.352 283.07 157.164 283.102C156.982 283.138 156.76 283.156 156.5 283.156C156.146 283.156 155.82 283.086 155.523 282.945C155.227 282.805 154.99 282.57 154.812 282.242C154.641 281.909 154.555 281.461 154.555 280.898V272.492ZM164.195 280.758C164.195 280.549 164.148 280.357 164.055 280.18C163.966 279.997 163.781 279.833 163.5 279.688C163.224 279.536 162.807 279.406 162.25 279.297C161.781 279.198 161.357 279.081 160.977 278.945C160.602 278.81 160.281 278.646 160.016 278.453C159.755 278.26 159.555 278.034 159.414 277.773C159.273 277.513 159.203 277.208 159.203 276.859C159.203 276.526 159.276 276.211 159.422 275.914C159.573 275.617 159.784 275.354 160.055 275.125C160.331 274.896 160.661 274.716 161.047 274.586C161.432 274.456 161.862 274.391 162.336 274.391C163.013 274.391 163.591 274.51 164.07 274.75C164.549 274.99 164.917 275.31 165.172 275.711C165.427 276.107 165.555 276.547 165.555 277.031H164.109C164.109 276.797 164.039 276.57 163.898 276.352C163.763 276.128 163.562 275.943 163.297 275.797C163.036 275.651 162.716 275.578 162.336 275.578C161.935 275.578 161.609 275.641 161.359 275.766C161.115 275.885 160.935 276.039 160.82 276.227C160.711 276.414 160.656 276.612 160.656 276.82C160.656 276.977 160.682 277.117 160.734 277.242C160.792 277.362 160.891 277.474 161.031 277.578C161.172 277.677 161.37 277.771 161.625 277.859C161.88 277.948 162.206 278.036 162.602 278.125C163.294 278.281 163.865 278.469 164.312 278.688C164.76 278.906 165.094 279.174 165.312 279.492C165.531 279.81 165.641 280.195 165.641 280.648C165.641 281.018 165.562 281.357 165.406 281.664C165.255 281.971 165.034 282.237 164.742 282.461C164.456 282.68 164.112 282.852 163.711 282.977C163.315 283.096 162.87 283.156 162.375 283.156C161.63 283.156 161 283.023 160.484 282.758C159.969 282.492 159.578 282.148 159.312 281.727C159.047 281.305 158.914 280.859 158.914 280.391H160.367C160.388 280.786 160.503 281.102 160.711 281.336C160.919 281.565 161.174 281.729 161.477 281.828C161.779 281.922 162.078 281.969 162.375 281.969C162.771 281.969 163.102 281.917 163.367 281.812C163.638 281.708 163.844 281.565 163.984 281.383C164.125 281.201 164.195 280.992 164.195 280.758Z" fill="#393939"/>
<path d="M33.3193 145.359L36.7568 152.653L40.2158 145.359H43.46L38.2607 155.274V161H35.2637V155.274L30.0537 145.359H33.3193ZM43.5996 155.307V155.081C43.5996 154.229 43.7214 153.445 43.9648 152.729C44.2083 152.005 44.5628 151.379 45.0283 150.849C45.4938 150.319 46.0632 149.907 46.7363 149.613C47.4095 149.312 48.1758 149.162 49.0352 149.162C49.9089 149.162 50.6823 149.312 51.3555 149.613C52.0358 149.907 52.6087 150.319 53.0742 150.849C53.5397 151.379 53.8942 152.005 54.1377 152.729C54.3812 153.445 54.5029 154.229 54.5029 155.081V155.307C54.5029 156.152 54.3812 156.936 54.1377 157.659C53.8942 158.375 53.5397 159.002 53.0742 159.539C52.6087 160.069 52.0394 160.481 51.3662 160.774C50.693 161.068 49.9232 161.215 49.0566 161.215C48.1973 161.215 47.4274 161.068 46.7471 160.774C46.0667 160.481 45.4938 160.069 45.0283 159.539C44.5628 159.002 44.2083 158.375 43.9648 157.659C43.7214 156.936 43.5996 156.152 43.5996 155.307ZM46.4355 155.081V155.307C46.4355 155.815 46.4857 156.291 46.5859 156.735C46.6862 157.179 46.8402 157.57 47.0479 157.906C47.2555 158.243 47.5241 158.508 47.8535 158.701C48.1901 158.887 48.5911 158.98 49.0566 158.98C49.515 158.98 49.9089 158.887 50.2383 158.701C50.5677 158.508 50.8363 158.243 51.0439 157.906C51.2588 157.57 51.4163 157.179 51.5166 156.735C51.6169 156.291 51.667 155.815 51.667 155.307V155.081C51.667 154.58 51.6169 154.111 51.5166 153.674C51.4163 153.23 51.2588 152.84 51.0439 152.503C50.8363 152.159 50.5641 151.891 50.2275 151.697C49.8981 151.497 49.5007 151.396 49.0352 151.396C48.5768 151.396 48.1829 151.497 47.8535 151.697C47.5241 151.891 47.2555 152.159 47.0479 152.503C46.8402 152.84 46.6862 153.23 46.5859 153.674C46.4857 154.111 46.4355 154.58 46.4355 155.081ZM63.4834 158.239V149.377H66.3408V161H63.6553L63.4834 158.239ZM63.8486 155.833L64.7295 155.812C64.7295 156.592 64.6436 157.312 64.4717 157.971C64.2998 158.63 64.0312 159.202 63.666 159.689C63.3079 160.169 62.8532 160.545 62.3018 160.817C61.7503 161.082 61.0986 161.215 60.3467 161.215C59.7738 161.215 59.251 161.136 58.7783 160.979C58.3057 160.814 57.8975 160.56 57.5537 160.216C57.2171 159.865 56.9557 159.417 56.7695 158.873C56.5833 158.322 56.4902 157.659 56.4902 156.886V149.377H59.3262V156.907C59.3262 157.294 59.3691 157.616 59.4551 157.874C59.5482 158.132 59.6735 158.343 59.8311 158.508C59.9958 158.665 60.1855 158.78 60.4004 158.852C60.6224 158.916 60.8587 158.948 61.1094 158.948C61.7969 158.948 62.3376 158.812 62.7314 158.54C63.1325 158.261 63.4189 157.888 63.5908 157.423C63.7627 156.95 63.8486 156.42 63.8486 155.833ZM71.6904 151.751V161H68.8545V149.377H71.54L71.6904 151.751ZM75.2246 149.302L75.1816 151.944C75.0241 151.916 74.8451 151.894 74.6445 151.88C74.4512 151.866 74.2686 151.858 74.0967 151.858C73.6598 151.858 73.2767 151.919 72.9473 152.041C72.6178 152.156 72.3421 152.324 72.1201 152.546C71.9053 152.768 71.7406 153.04 71.626 153.362C71.5114 153.677 71.4469 154.035 71.4326 154.437L70.8203 154.361C70.8203 153.624 70.8955 152.94 71.0459 152.31C71.1963 151.679 71.4147 151.128 71.7012 150.655C71.9876 150.183 72.3457 149.817 72.7754 149.56C73.2122 149.295 73.7135 149.162 74.2793 149.162C74.4368 149.162 74.6051 149.176 74.7842 149.205C74.9704 149.227 75.1172 149.259 75.2246 149.302ZM88.6523 157.82C88.6523 157.577 88.5879 157.358 88.459 157.165C88.3301 156.972 88.0866 156.796 87.7285 156.639C87.3776 156.474 86.862 156.32 86.1816 156.177C85.5801 156.048 85.0251 155.887 84.5166 155.693C84.0081 155.5 83.5713 155.267 83.2061 154.995C82.8408 154.716 82.5544 154.39 82.3467 154.018C82.1462 153.638 82.0459 153.201 82.0459 152.707C82.0459 152.227 82.1497 151.776 82.3574 151.354C82.5651 150.924 82.8659 150.548 83.2598 150.226C83.6536 149.896 84.1335 149.638 84.6992 149.452C85.265 149.259 85.9023 149.162 86.6113 149.162C87.5996 149.162 88.4482 149.323 89.1572 149.646C89.8734 149.968 90.4212 150.412 90.8008 150.978C91.1803 151.536 91.3701 152.166 91.3701 152.868H88.5342C88.5342 152.56 88.4626 152.281 88.3193 152.03C88.1833 151.78 87.972 151.579 87.6855 151.429C87.3991 151.271 87.0374 151.192 86.6006 151.192C86.2067 151.192 85.8737 151.257 85.6016 151.386C85.3366 151.515 85.1361 151.683 85 151.891C84.8639 152.098 84.7959 152.327 84.7959 152.578C84.7959 152.764 84.8317 152.933 84.9033 153.083C84.9821 153.226 85.1074 153.359 85.2793 153.48C85.4512 153.602 85.6839 153.713 85.9775 153.813C86.2783 153.914 86.6471 154.01 87.084 154.104C87.9505 154.275 88.7061 154.505 89.3506 154.791C90.0023 155.07 90.5107 155.443 90.876 155.908C91.2412 156.374 91.4238 156.968 91.4238 157.691C91.4238 158.207 91.3128 158.68 91.0908 159.109C90.8688 159.532 90.5465 159.901 90.124 160.216C89.7015 160.531 89.1966 160.778 88.6094 160.957C88.0221 161.129 87.3597 161.215 86.6221 161.215C85.555 161.215 84.6527 161.025 83.915 160.646C83.1774 160.259 82.6188 159.772 82.2393 159.185C81.8597 158.59 81.6699 157.974 81.6699 157.337H84.3877C84.4092 157.788 84.5309 158.15 84.7529 158.422C84.9749 158.694 85.2542 158.891 85.5908 159.013C85.9346 159.127 86.2962 159.185 86.6758 159.185C87.1055 159.185 87.4671 159.127 87.7607 159.013C88.0544 158.891 88.2764 158.73 88.4268 158.529C88.5771 158.322 88.6523 158.085 88.6523 157.82ZM99.083 149.377V151.418H92.4229V149.377H99.083ZM94.2061 146.52H97.0527V157.648C97.0527 157.992 97.0993 158.257 97.1924 158.443C97.2855 158.63 97.4251 158.755 97.6113 158.819C97.7975 158.884 98.0195 158.916 98.2773 158.916C98.4635 158.916 98.6354 158.905 98.793 158.884C98.9505 158.862 99.083 158.841 99.1904 158.819L99.2012 160.946C98.9648 161.025 98.6963 161.09 98.3955 161.14C98.1019 161.19 97.7689 161.215 97.3965 161.215C96.7591 161.215 96.2005 161.107 95.7207 160.893C95.2409 160.671 94.8685 160.316 94.6035 159.829C94.3385 159.335 94.2061 158.683 94.2061 157.874V146.52ZM107.892 158.239V149.377H110.749V161H108.063L107.892 158.239ZM108.257 155.833L109.138 155.812C109.138 156.592 109.052 157.312 108.88 157.971C108.708 158.63 108.439 159.202 108.074 159.689C107.716 160.169 107.261 160.545 106.71 160.817C106.159 161.082 105.507 161.215 104.755 161.215C104.182 161.215 103.659 161.136 103.187 160.979C102.714 160.814 102.306 160.56 101.962 160.216C101.625 159.865 101.364 159.417 101.178 158.873C100.992 158.322 100.898 157.659 100.898 156.886V149.377H103.734V156.907C103.734 157.294 103.777 157.616 103.863 157.874C103.956 158.132 104.082 158.343 104.239 158.508C104.404 158.665 104.594 158.78 104.809 158.852C105.031 158.916 105.267 158.948 105.518 158.948C106.205 158.948 106.746 158.812 107.14 158.54C107.541 158.261 107.827 157.888 107.999 157.423C108.171 156.95 108.257 156.42 108.257 155.833ZM116.979 161H114.122V148.303C114.122 147.429 114.29 146.695 114.627 146.101C114.964 145.499 115.443 145.044 116.066 144.736C116.689 144.428 117.424 144.274 118.269 144.274C118.548 144.274 118.813 144.292 119.063 144.328C119.321 144.364 119.576 144.414 119.826 144.479L119.772 146.638C119.636 146.602 119.486 146.577 119.321 146.562C119.164 146.548 118.988 146.541 118.795 146.541C118.408 146.541 118.079 146.609 117.807 146.745C117.535 146.881 117.327 147.082 117.184 147.347C117.048 147.604 116.979 147.923 116.979 148.303V161ZM119.332 149.377V151.418H112.371V149.377H119.332ZM124.8 161H121.942V148.303C121.942 147.429 122.111 146.695 122.447 146.101C122.784 145.499 123.264 145.044 123.887 144.736C124.51 144.428 125.244 144.274 126.089 144.274C126.368 144.274 126.633 144.292 126.884 144.328C127.142 144.364 127.396 144.414 127.646 144.479L127.593 146.638C127.457 146.602 127.306 146.577 127.142 146.562C126.984 146.548 126.809 146.541 126.615 146.541C126.229 146.541 125.899 146.609 125.627 146.745C125.355 146.881 125.147 147.082 125.004 147.347C124.868 147.604 124.8 147.923 124.8 148.303V161ZM127.152 149.377V151.418H120.191V149.377H127.152Z" fill="#464646"/>
<path d="M44.6515 188.452C44.1874 187.987 43.4337 187.988 42.969 188.452L35.3968 196.024L32.0313 192.659C31.5666 192.194 30.8133 192.194 30.3485 192.659C29.8838 193.124 29.8838 193.877 30.3485 194.342L34.5553 198.548C34.7875 198.781 35.092 198.897 35.3965 198.897C35.701 198.897 36.0058 198.781 36.238 198.548L44.6515 190.135C45.1162 189.67 45.1162 188.917 44.6515 188.452Z" fill="#12D80D"/>
<path d="M44.6515 239.452C44.1874 238.987 43.4337 238.988 42.969 239.452L35.3968 247.024L32.0313 243.659C31.5666 243.194 30.8133 243.194 30.3485 243.659C29.8838 244.124 29.8838 244.877 30.3485 245.342L34.5553 249.548C34.7875 249.781 35.092 249.897 35.3965 249.897C35.701 249.897 36.0058 249.781 36.238 249.548L44.6515 241.135C45.1162 240.67 45.1162 239.917 44.6515 239.452Z" fill="#12D80D"/>
<path d="M44.6515 272.452C44.1874 271.987 43.4337 271.988 42.969 272.452L35.3968 280.024L32.0313 276.659C31.5666 276.194 30.8133 276.194 30.3485 276.659C29.8838 277.124 29.8838 277.877 30.3485 278.342L34.5553 282.548C34.7875 282.781 35.092 282.897 35.3965 282.897C35.701 282.897 36.0058 282.781 36.238 282.548L44.6515 274.135C45.1162 273.67 45.1162 272.917 44.6515 272.452Z" fill="#12D80D"/>
<rect x="30" y="30" width="85" height="85" rx="15" fill="#E7F1FC"/>
<g clip-path="url(#clip0_2617_33386)">
<path fill-rule="evenodd" clip-rule="evenodd" d="M90.3177 65.1379C90.0245 65.1379 86.3961 63.4861 85.8228 63.2374C85.5085 63.101 85.3638 62.7346 85.5011 62.4203L90.5897 50.7266C91.1161 49.5167 92.5157 48.9605 93.7204 49.4515C93.5558 49.6428 90.622 56.4982 90.2562 57.3394C89.9295 58.091 91.0708 58.581 91.3953 57.8351C91.7624 56.9913 94.7768 50.1788 94.8054 49.9251C95.9715 50.4847 96.4967 51.8757 95.9759 53.0713L90.8872 64.7643C90.8389 64.8754 90.7593 64.9699 90.6581 65.0363C90.5569 65.1027 90.4384 65.1381 90.3174 65.1382L90.3177 65.1379Z" fill="#22A1E7"/>
<path fill-rule="evenodd" clip-rule="evenodd" d="M89.0228 67.663H84.4842C84.059 67.663 83.7538 67.2357 83.9006 66.8305L85.4854 62.4558C85.5922 62.1608 91.1044 64.3411 90.87 64.7989L89.5759 67.3245C89.5237 67.4264 89.4444 67.5118 89.3468 67.5715C89.2492 67.6312 89.1369 67.6627 89.0225 67.6627L89.0228 67.663ZM95.2996 51.2139C94.8611 51.2139 92.3711 49.995 92.3156 49.9708C91.5569 49.6395 92.187 48.7097 92.5581 47.8572C93.3615 46.0116 96.0452 47.2457 96.4558 48.2892C96.7884 49.1348 96.2825 49.891 95.8698 50.8397C95.8217 50.9509 95.7421 51.0456 95.6408 51.1122C95.5396 51.1787 95.4211 51.2142 95.2999 51.2142L95.2996 51.2139Z" fill="#22A1E7"/>
<path fill-rule="evenodd" clip-rule="evenodd" d="M84.485 67.6631C84.1422 67.6631 84.2067 67.0448 83.8639 67.042L68.6567 66.9237C68.8619 66.2393 68.9048 65.6073 68.9824 64.9024C68.5138 60.7218 65.8844 57.6219 61.4271 57.6219C61.2184 57.6219 61.0113 57.6306 60.806 57.647V46.6226C60.806 46.2797 61.0843 46.0015 61.4271 46.0015H84.485C84.8278 46.0015 85.1061 46.2797 85.1061 46.6226V67.042C85.1061 67.3849 84.8278 67.6631 84.485 67.6631ZM81.9795 50.5184H63.9317C63.114 50.5184 63.114 49.2762 63.9317 49.2762H81.9795C82.7972 49.2762 82.7972 50.5184 81.9795 50.5184ZM81.9795 54.2117H63.9317C63.114 54.2117 63.114 52.9695 63.9317 52.9695H81.9795C82.7972 52.9695 82.7972 54.2117 81.9795 54.2117ZM81.9795 57.9054H63.9317C63.114 57.9054 63.114 56.6632 63.9317 56.6632H81.9795C82.7972 56.6632 82.7972 57.9054 81.9795 57.9054ZM81.9795 61.5984H69.4085C68.5908 61.5984 68.5908 60.3562 69.4085 60.3562H81.9795C82.7972 60.3562 82.7972 61.5984 81.9795 61.5984ZM89.1178 98.9987H55.881C54.1963 98.9987 52.8262 97.6282 52.8262 95.9435V77.2988H92.172V95.9435C92.1726 97.6285 90.8022 98.9987 89.1174 98.9987H89.1178ZM83.2894 92.9905H61.7097C61.3669 92.9905 61.0886 92.7119 61.0886 92.3694V81.6505C61.0886 81.3077 61.3669 81.0294 61.7097 81.0294H83.2894C83.6322 81.0294 83.9105 81.308 83.9105 81.6505V92.3694C83.9105 92.7119 83.6325 92.9905 83.2894 92.9905ZM62.3308 91.748H82.668V82.2716H62.3308V91.748Z" fill="#22A1E7"/>
<path fill-rule="evenodd" clip-rule="evenodd" d="M66.8555 67.6631C63.113 67.6631 55.7478 68.0339 55.4282 67.2861C55.1649 66.67 55.013 66.0445 54.959 65.4259C55.3357 65.6157 56.0034 65.5275 56.5757 65.5275C57.3937 65.5275 57.3931 64.2853 56.5757 64.2853C56.0034 64.2853 55.336 64.1971 54.9593 64.3868C55.2341 61.3059 57.9014 58.6572 61.4274 58.6572C64.9478 58.6572 67.6073 61.2963 67.893 64.3654C67.8057 64.3151 67.6989 64.2853 67.5725 64.2853C66.7207 64.2853 65.6577 64.09 65.6577 64.9064C65.6577 65.7228 66.721 65.5275 67.5725 65.5275C67.6992 65.5275 67.8067 65.4977 67.8939 65.4471C67.8461 65.9759 67.6399 67.6631 66.8555 67.6631ZM61.4109 65.3359L59.4964 65.2679C58.6775 65.239 58.7253 63.9906 59.5405 64.0269L60.7895 64.0713C60.7895 63.23 60.5961 62.1733 61.4106 62.1733C62.2836 62.1733 62.0317 63.4844 62.0317 64.7148C62.0317 65.0573 61.7532 65.3356 61.4112 65.3356L61.4109 65.3359ZM61.4277 61.1929C60.6113 61.1929 60.8066 60.1298 60.8066 59.2777C60.8066 58.46 62.0488 58.46 62.0488 59.2777C62.0488 60.1302 62.2441 61.1929 61.4277 61.1929Z" fill="#22A1E7"/>
<path fill-rule="evenodd" clip-rule="evenodd" d="M94.07 76.2639H50.9374C50.5377 76.2639 50.2402 75.8853 50.3337 75.4968L52.4035 66.8968C52.4709 66.618 52.7203 66.4214 53.0072 66.4214H91.9916C92.2785 66.4214 92.5282 66.618 92.5953 66.8968L94.6905 75.6422C94.6911 75.985 94.4132 76.2639 94.07 76.2639Z" fill="#22A1E7"/>
<path fill-rule="evenodd" clip-rule="evenodd" d="M46.8675 75.1014C45.8572 75.1014 45.3473 73.8726 46.0625 73.1574L52.4651 66.7548C53.5219 65.698 55.1318 67.3079 54.0753 68.3647L47.6727 74.7676C47.5671 74.8734 47.4416 74.9573 47.3035 75.0146C47.1654 75.0718 47.0173 75.1012 46.8678 75.1011L46.8675 75.1014ZM98.1417 75.1033C97.8393 75.1033 97.5501 74.9837 97.3365 74.7698L90.9339 68.3669C89.8774 67.3104 91.4883 65.7008 92.5444 66.757L98.947 73.1596C99.6619 73.8745 99.1526 75.1036 98.1417 75.1036V75.1033Z" fill="#22A1E7"/>
</g>
<defs>
<clipPath id="clip0_2617_33386">
<rect width="53" height="53" fill="white" transform="translate(46 46)"/>
</clipPath>
</defs>
</svg>
