<svg width="367" height="252" viewBox="0 0 367 252" fill="none" xmlns="http://www.w3.org/2000/svg">
<path fill-rule="evenodd" clip-rule="evenodd" d="M247.571 189.88C247.571 189.88 197.68 171.977 135.012 175.16C72.3437 178.343 -1.06447 154.517 9.47646 115.178C20.0174 75.8382 89.6639 68.3703 140.762 88.2166C164.97 53.0791 192.835 40.3546 224.409 50.0566C255.933 59.745 271.756 89.1427 271.906 138.149C319.38 155.404 358.181 177.624 388.259 204.795C377.487 221.02 361.597 227.938 340.602 225.497C288.98 219.493 247.571 189.88 247.571 189.88Z" fill="#FADDBC"/>
<path fill-rule="evenodd" clip-rule="evenodd" d="M224.409 50.0564C255.933 59.7448 271.756 89.1425 271.906 138.149C319.379 155.404 358.181 177.624 388.259 204.795C377.487 221.02 361.597 227.937 340.602 225.497C329.29 224.194 318.504 221.735 308.511 218.734L307.265 218.346C303.967 217.354 300.761 216.225 297.655 215.123L296.473 214.698C296.272 214.644 296.084 214.54 295.882 214.486L294.751 214.075C294.549 214.021 294.361 213.917 294.16 213.863L293.028 213.451L291.91 212.99C291.709 212.936 291.521 212.832 291.37 212.791L290.252 212.33L289.184 211.881L288.116 211.433L287.049 210.985C286.847 210.931 286.709 210.841 286.508 210.787L285.44 210.339C285.252 210.234 285.101 210.194 284.913 210.089L283.896 209.655C283.708 209.55 283.557 209.51 283.369 209.406L282.352 208.971L281.334 208.536C281.197 208.446 280.995 208.392 280.858 208.301L279.84 207.866C238.415 177.709 235.241 140.795 233.508 112.204L233.235 107.38C232.586 97.1104 231.851 88.1676 229.122 81.2278C223.649 67.3985 213.683 56.0362 199.108 47.1641C207.255 46.3778 215.675 47.3922 224.409 50.0564Z" fill="#F9D8B4"/>
<path fill-rule="evenodd" clip-rule="evenodd" d="M198.817 89.3573L199.881 90.0204C226.485 106.381 246.299 113.633 270.609 115.99C271.411 122.468 271.839 129.331 271.918 136.694L271.906 138.148C260.976 140.457 245.436 135.591 225.272 123.601L224.671 123.225C211.134 115.116 194.391 107.283 174.343 99.6976L172.534 98.9967C172.245 98.8654 171.892 98.7709 171.604 98.6396L169.73 97.9756C169.441 97.8442 169.089 97.7498 168.8 97.6184L166.926 96.9544C165.644 96.5028 164.361 96.0511 163.078 95.5994L161.154 94.922C160.802 94.8275 160.513 94.6961 160.161 94.6017L158.186 93.9107L156.212 93.2197C153.885 92.4342 151.508 91.6353 149.117 90.8867L147.028 90.2191L144.94 89.5515C144.587 89.457 144.248 89.3122 143.896 89.2177L141.807 88.5501C141.454 88.4556 141.115 88.3108 140.763 88.2163C145.702 81.064 150.765 74.8624 155.951 69.6116C157.274 69.9121 158.634 70.2766 160.031 70.7048L160.773 70.9577L161.566 71.224C161.818 71.2915 162.056 71.4093 162.358 71.4903L163.151 71.7566C163.54 71.915 163.943 72.0229 164.333 72.1813L165.125 72.4476C165.514 72.6059 165.954 72.7778 166.357 72.8857L167.187 73.2159C167.626 73.3878 168.016 73.5461 168.456 73.718L169.285 74.0481C169.574 74.1795 169.876 74.2605 170.165 74.3918L171.044 74.7355C171.195 74.776 171.333 74.8669 171.484 74.9073L172.35 75.3014C172.501 75.3419 172.639 75.4328 172.79 75.4732L173.656 75.8673C173.807 75.9078 173.945 75.9986 174.083 76.0895L174.999 76.4971L175.916 76.9046C176.053 76.9955 176.205 77.036 176.342 77.1268L177.259 77.5344L178.162 77.9923C178.299 78.0831 178.45 78.1236 178.638 78.228L179.592 78.6994L180.545 79.1708C180.683 79.2617 180.884 79.3157 181.022 79.4065L181.975 79.8779L182.929 80.3494L183.869 80.8711L184.859 81.4064C185.185 81.6016 185.524 81.7465 185.849 81.9417L186.84 82.477L187.83 83.0123C188.018 83.1166 188.156 83.2075 188.344 83.3119L189.334 83.8471C189.522 83.9515 189.659 84.0424 189.847 84.1467L190.875 84.7459L191.902 85.345C192.09 85.4494 192.227 85.5402 192.415 85.6446L193.442 86.2437L194.47 86.8429L195.547 87.4555L196.625 88.0682L197.689 88.7312L198.817 89.3573Z" fill="#F4A950"/>
<path fill-rule="evenodd" clip-rule="evenodd" d="M113.41 104.264C159.952 116.735 204.259 144.803 246.316 188.518L247.584 189.83L247.044 189.631L246.403 189.405L245.812 189.193L245.12 188.954L244.327 188.687L243.434 188.394C243.283 188.353 243.132 188.313 242.931 188.259L241.886 187.925L240.741 187.564C225.046 182.873 183.92 172.555 135.052 175.009C72.3571 178.293 -1.06458 154.517 9.47635 115.178C9.73279 114.221 10.0396 113.277 10.3329 112.384C24.9217 92.5927 66.9685 91.8201 113.41 104.264Z" fill="#F4A950"/>
<path d="M114.692 99.4787C160.831 111.842 204.752 139.536 246.468 182.512L247.686 183.81L249.075 184.669C295.131 213.259 332.322 225.168 360.535 220.419L361.385 220.268L361.465 220.776C332.98 225.938 295.409 214.036 248.803 185.081L247.363 184.21L247.312 184.196C205.292 140.545 161.036 112.49 114.544 100.033C81.4503 91.1654 51.7816 89.2623 32.0634 95.154L31.4787 95.3213L31.3348 94.8508C51.1341 88.6568 81.1455 90.4899 114.692 99.4787Z" stroke="white" stroke-width="4.42372" stroke-linecap="round"/>
</svg>
