<svg width="146" height="146" viewBox="0 0 146 146" fill="none" xmlns="http://www.w3.org/2000/svg">
<g filter="url(#filter0_d_2617_33306)">
<rect x="30" y="24" width="86" height="86" rx="14" fill="white"/>
</g>
<g clip-path="url(#clip0_2617_33306)">
<path d="M95.1667 64.3333H91.6667V55C91.6667 52.4217 89.5784 50.3333 87 50.3333H77.6667V46.8333C77.6667 43.6133 75.0533 41 71.8333 41C68.6133 41 66 43.6133 66 46.8333V50.3333H56.6667C54.0884 50.3333 52.0234 52.4216 52.0234 55L52.0117 63.8667H55.5C58.9767 63.8667 61.8 66.69 61.8 70.1667C61.8 73.6434 58.9767 76.4667 55.5 76.4667H52.0117L52 85.3333C52 87.9117 54.0883 90 56.6667 90H65.5334V86.5C65.5334 83.0233 68.3567 80.2 71.8334 80.2C75.3101 80.2 78.1334 83.0233 78.1334 86.5V90H87C89.5783 90 91.6667 87.9117 91.6667 85.3333V76H95.1667C98.3867 76 101 73.3867 101 70.1667C101 66.9467 98.3867 64.3333 95.1667 64.3333Z" fill="#22A1E7"/>
</g>
<defs>
<filter id="filter0_d_2617_33306" x="0" y="0" width="146" height="146" filterUnits="userSpaceOnUse" color-interpolation-filters="sRGB">
<feFlood flood-opacity="0" result="BackgroundImageFix"/>
<feColorMatrix in="SourceAlpha" type="matrix" values="0 0 0 0 0 0 0 0 0 0 0 0 0 0 0 0 0 0 127 0" result="hardAlpha"/>
<feOffset dy="6"/>
<feGaussianBlur stdDeviation="15"/>
<feComposite in2="hardAlpha" operator="out"/>
<feColorMatrix type="matrix" values="0 0 0 0 0.0122222 0 0 0 0 0.477101 0 0 0 0 0.733333 0 0 0 0.2 0"/>
<feBlend mode="normal" in2="BackgroundImageFix" result="effect1_dropShadow_2617_33306"/>
<feBlend mode="normal" in="SourceGraphic" in2="effect1_dropShadow_2617_33306" result="shape"/>
</filter>
<clipPath id="clip0_2617_33306">
<rect width="49" height="49" fill="white" transform="translate(52 41)"/>
</clipPath>
</defs>
</svg>
