<svg width="146" height="146" viewBox="0 0 146 146" fill="none" xmlns="http://www.w3.org/2000/svg">
<g filter="url(#filter0_d_2617_33311)">
<rect x="30" y="24" width="86" height="86" rx="14" fill="white"/>
</g>
<g clip-path="url(#clip0_2617_33311)">
<path d="M96.065 47.7499C86.5093 47.7499 79.1889 45.0198 72.9983 39C66.8086 45.0198 59.4884 47.7499 49.9336 47.7499C49.9336 63.4251 46.6899 85.8812 72.9983 95C99.3085 85.8811 96.065 63.4251 96.065 47.7499Z" fill="#22A1E7"/>
<path d="M73 54.8594C66.3076 54.8594 60.8594 60.3076 60.8594 67C60.8594 73.6924 66.3076 79.1406 73 79.1406C79.6924 79.1406 85.1406 73.6924 85.1406 67C85.1406 60.3076 79.6924 54.8594 73 54.8594ZM73 76.6272C67.6922 76.6272 63.3728 72.3078 63.3728 67C63.3728 61.6922 67.6922 57.3728 73 57.3728C78.3078 57.3728 82.6272 61.6922 82.6272 67C82.6272 72.3078 78.3078 76.6272 73 76.6272Z" fill="white"/>
<path d="M75.0718 66.3176C74.4849 65.9915 73.8628 65.7507 73.2457 65.4948C72.8895 65.3494 72.5484 65.1738 72.2474 64.933C71.6554 64.4564 71.7658 63.6888 72.4631 63.3828C72.6588 63.2975 72.8644 63.2674 73.0751 63.2574C73.8829 63.2122 74.6454 63.3627 75.3779 63.7139C75.7391 63.8895 75.8595 63.8343 75.9849 63.458C76.1153 63.0567 76.2257 62.6503 76.3411 62.249C76.4213 61.9781 76.321 61.7975 76.0652 61.6871C75.5986 61.4814 75.117 61.3309 74.6103 61.2557C73.9531 61.1503 73.9531 61.1503 73.9481 60.4881C73.9431 59.5499 73.9431 59.5499 73.0099 59.555C72.8745 59.555 72.739 59.5499 72.6036 59.555C72.1671 59.57 72.0919 59.6453 72.0818 60.0817C72.0768 60.2774 72.0818 60.4781 72.0818 60.6737C72.0768 61.2607 72.0768 61.2506 71.5149 61.4513C70.1604 61.943 69.3226 62.866 69.2323 64.346C69.152 65.6554 69.8343 66.5383 70.9079 67.1805C71.5701 67.5768 72.3026 67.8126 73.0049 68.1236C73.2808 68.244 73.5417 68.3845 73.7675 68.5751C74.4447 69.132 74.3193 70.0601 73.5166 70.4113C73.0852 70.5969 72.6337 70.6471 72.1721 70.5869C71.4547 70.4966 70.7674 70.311 70.1253 69.9748C69.749 69.7792 69.6386 69.8293 69.5082 70.2407C69.3978 70.5969 69.2975 70.9531 69.2022 71.3093C69.0718 71.7909 69.1169 71.9063 69.5784 72.127C70.1604 72.408 70.7875 72.5535 71.4246 72.6588C71.9213 72.7391 71.9414 72.7591 71.9464 73.2759C71.9464 73.5117 71.9514 73.7475 71.9514 73.9782C71.9564 74.2742 72.0969 74.4448 72.4029 74.4498C72.7491 74.4548 73.0952 74.4548 73.4414 74.4498C73.7223 74.4448 73.8678 74.2893 73.8728 74.0033C73.8728 73.6822 73.8879 73.3612 73.8778 73.0401C73.8628 72.714 74.0033 72.5484 74.3193 72.4632C75.0417 72.2675 75.6588 71.8762 76.1354 71.2993C77.4398 69.6939 76.9381 67.3511 75.0718 66.3176Z" fill="white"/>
</g>
<defs>
<filter id="filter0_d_2617_33311" x="0" y="0" width="146" height="146" filterUnits="userSpaceOnUse" color-interpolation-filters="sRGB">
<feFlood flood-opacity="0" result="BackgroundImageFix"/>
<feColorMatrix in="SourceAlpha" type="matrix" values="0 0 0 0 0 0 0 0 0 0 0 0 0 0 0 0 0 0 127 0" result="hardAlpha"/>
<feOffset dy="6"/>
<feGaussianBlur stdDeviation="15"/>
<feComposite in2="hardAlpha" operator="out"/>
<feColorMatrix type="matrix" values="0 0 0 0 0.0122222 0 0 0 0 0.477101 0 0 0 0 0.733333 0 0 0 0.2 0"/>
<feBlend mode="normal" in2="BackgroundImageFix" result="effect1_dropShadow_2617_33311"/>
<feBlend mode="normal" in="SourceGraphic" in2="effect1_dropShadow_2617_33311" result="shape"/>
</filter>
<clipPath id="clip0_2617_33311">
<rect width="56" height="56" fill="white" transform="translate(45 39)"/>
</clipPath>
</defs>
</svg>
