<svg width="146" height="146" viewBox="0 0 146 146" fill="none" xmlns="http://www.w3.org/2000/svg">
<g filter="url(#filter0_d_2617_33319)">
<rect x="30" y="24" width="86" height="86" rx="14" fill="white"/>
</g>
<path d="M95.7012 56.0199L91.135 74.2881C90.96 74.9919 90.5542 75.6168 89.9825 76.063C89.4108 76.5092 88.7061 76.7511 87.9809 76.75H59.8212C59.0246 76.7502 58.2557 76.4576 57.6607 75.9279C57.0657 75.3982 56.6861 74.6683 56.594 73.877L53.3034 47.5H51.0625C50.416 47.5 49.796 47.2432 49.3389 46.7861C48.8818 46.329 48.625 45.709 48.625 45.0625C48.625 44.416 48.8818 43.796 49.3389 43.3389C49.796 42.8818 50.416 42.625 51.0625 42.625H55.4289C56.0179 42.625 56.587 42.8383 57.0309 43.2255C57.4748 43.6126 57.7635 44.1475 57.8436 44.731L59.1144 54H94.125C94.372 54 94.6158 54.0563 94.8377 54.1647C95.0597 54.273 95.2541 54.4305 95.406 54.6253C95.558 54.82 95.6636 55.0468 95.7147 55.2885C95.7659 55.5301 95.7613 55.7803 95.7012 56.0199ZM58.375 84.875C58.375 87.5628 60.5623 89.75 63.25 89.75C65.9377 89.75 68.125 87.5628 68.125 84.875C68.125 82.1872 65.9377 80 63.25 80C60.5623 80 58.375 82.1872 58.375 84.875ZM87.625 84.875C87.625 82.1872 85.4378 80 82.75 80C80.0623 80 77.875 82.1872 77.875 84.875C77.875 87.5628 80.0623 89.75 82.75 89.75C85.4378 89.75 87.625 87.5628 87.625 84.875Z" fill="#22A1E7"/>
<defs>
<filter id="filter0_d_2617_33319" x="0" y="0" width="146" height="146" filterUnits="userSpaceOnUse" color-interpolation-filters="sRGB">
<feFlood flood-opacity="0" result="BackgroundImageFix"/>
<feColorMatrix in="SourceAlpha" type="matrix" values="0 0 0 0 0 0 0 0 0 0 0 0 0 0 0 0 0 0 127 0" result="hardAlpha"/>
<feOffset dy="6"/>
<feGaussianBlur stdDeviation="15"/>
<feComposite in2="hardAlpha" operator="out"/>
<feColorMatrix type="matrix" values="0 0 0 0 0.0122222 0 0 0 0 0.477101 0 0 0 0 0.733333 0 0 0 0.2 0"/>
<feBlend mode="normal" in2="BackgroundImageFix" result="effect1_dropShadow_2617_33319"/>
<feBlend mode="normal" in="SourceGraphic" in2="effect1_dropShadow_2617_33319" result="shape"/>
</filter>
</defs>
</svg>
