<svg width="160" height="102" viewBox="0 0 160 102" fill="none" xmlns="http://www.w3.org/2000/svg">
<circle cx="80" cy="22" r="80" fill="#22A1E7"/>
<path d="M61.2744 59.75H37.251V24.7402H42.5488V55.7705H61.2744V59.75ZM70.6602 34.75V47.25C70.6602 52.9303 72.7272 55.7705 76.8613 55.7705C80.9954 55.7705 83.0706 52.9548 83.0869 47.3232V34.75H88.4092V59.75C88.4092 66.6185 84.4785 70.0527 76.6172 70.0527C69.3743 70.0527 65.6309 67.0824 65.3867 61.1416H70.3428C70.3428 64.4294 72.4342 66.0732 76.6172 66.0732C80.9303 66.0732 83.0869 63.9655 83.0869 59.75V56.9912C81.7197 58.8304 79.4167 59.75 76.1777 59.75C68.9674 59.75 65.3623 55.5833 65.3623 47.25V34.75H70.6602ZM97.0625 24.7402V59.75H91.7646V24.7402H97.0625ZM114.969 54.7939C115.913 54.1266 116.385 53.085 116.385 51.6689V48.0801C115.311 48.5195 113.292 48.902 110.33 49.2275C107.384 49.5531 105.911 50.7087 105.911 52.6943C105.911 54.7451 107.506 55.7705 110.696 55.7705C112.617 55.7705 114.041 55.445 114.969 54.7939ZM116.385 42.1963C116.368 40.1455 114.757 38.998 111.551 38.7539C108.589 38.7539 107.042 39.9827 106.912 42.4404H101.443C101.525 37.3298 104.894 34.7744 111.551 34.7744C118.289 35.0023 121.666 37.875 121.683 43.3926V59.75H117.093V57.748C115.84 59.0827 113.707 59.75 110.696 59.75C103.86 59.75 100.442 57.3981 100.442 52.6943C100.442 48.3812 103.266 46.0212 108.914 45.6143C110.932 45.484 112.682 45.2725 114.163 44.9795C115.644 44.6702 116.385 43.7425 116.385 42.1963Z" fill="white"/>
</svg>
