<svg width="337" height="329" viewBox="0 0 337 329" fill="none" xmlns="http://www.w3.org/2000/svg">
<path fill-rule="evenodd" clip-rule="evenodd" d="M112.204 30.4106L13.4067 115.739C12.3807 116.63 11.886 118.048 12.1602 119.396C33.1358 228.229 100.072 288.825 213.031 301.229C268.394 219.538 277.664 141.581 240.733 67.3749L115.815 29.6583C114.578 29.2457 113.238 29.5743 112.204 30.4106Z" fill="#FADDBC"/>
<path fill-rule="evenodd" clip-rule="evenodd" d="M207.646 300.319L213.031 301.229C100.072 288.825 33.1278 228.175 12.161 119.396C11.8956 118.102 12.3448 116.748 13.3165 115.866L13.4163 115.794L24.0661 106.546C31.8328 152.765 65.1634 273.194 203.408 299.612L207.646 300.319Z" fill="#F4A950"/>
<path fill-rule="evenodd" clip-rule="evenodd" d="M127.513 52.4888L50.196 119.403C49.3609 120.096 48.985 121.215 49.2065 122.238C65.667 207.673 118.12 255.235 206.529 265.041C249.866 200.957 257.062 139.775 228.116 81.4949L130.31 51.8685C129.371 51.5748 128.294 51.8051 127.513 52.4888Z" fill="#FFF4E8"/>
<path fill-rule="evenodd" clip-rule="evenodd" d="M198.954 190.794L194.375 179.557L197.947 174.605C199.33 172.686 198.895 169.998 196.976 168.615C195.058 167.231 192.37 167.667 190.987 169.585L190.536 170.21L189.025 166.475L192.242 162.013C193.626 160.095 193.19 157.407 191.272 156.023C189.353 154.64 186.666 155.075 185.282 156.994L185.218 157.083L179.741 143.706L197.083 119.658C199.593 116.178 198.734 110.879 195.254 108.369C191.774 105.86 186.476 106.718 183.966 110.198L166.623 134.247L149.657 133.134L150.526 131.929C151.877 130.055 151.454 127.444 149.689 126.036L149.6 125.972C147.681 124.588 144.994 125.023 143.61 126.942L139.62 132.474L135.599 132.22L136.822 130.524C138.173 128.65 137.75 126.039 135.985 124.631L135.896 124.567C133.978 123.183 131.29 123.618 129.906 125.537L125.884 131.114C125.756 131.293 125.659 131.426 125.575 131.637L115.935 130.992L109.661 139.692L152.479 153.955L135.136 178.003L121.661 178.255L116.932 184.814L135.388 191.478L147.539 206.886L152.268 200.328L148.253 187.463L165.596 163.414L192.648 199.539L198.954 190.794Z" fill="#F4A950"/>
<path fill-rule="evenodd" clip-rule="evenodd" d="M202.291 264.335L206.529 265.041C118.074 255.298 65.6667 207.673 49.2062 122.238C48.9847 121.215 49.3694 120.15 50.0959 119.475L50.1957 119.403L58.5485 112.143C64.6511 148.434 90.774 242.948 199.011 263.696L202.291 264.335Z" fill="#F4A950"/>
<path d="M260.771 145.471C234.98 149.649 217.456 173.919 221.629 199.68C225.803 225.441 250.093 242.937 275.884 238.758C301.675 234.58 319.199 210.31 315.026 184.549C310.852 158.788 286.561 141.292 260.771 145.471Z" fill="#F4A950"/>
<path d="M266.007 143.397C240.216 147.575 222.692 171.846 226.865 197.606C231.039 223.367 255.33 240.863 281.121 236.685C306.911 232.506 324.435 208.236 320.262 182.475C316.088 156.714 291.798 139.219 266.007 143.397Z" fill="#FFF4E8"/>
<path d="M265.919 142.854C292.037 138.622 316.582 156.323 320.805 182.387C325.028 208.451 307.273 233.005 281.209 237.227C255.144 241.45 230.545 223.758 226.323 197.694C222.1 171.63 239.801 147.085 265.919 142.854ZM266.095 143.94C240.574 148.074 223.283 172.051 227.409 197.518C231.534 222.985 255.511 240.276 281.033 236.141C306.554 232.007 323.845 208.03 319.719 182.563C315.593 157.096 291.562 139.814 266.095 143.94Z" fill="#F4A950"/>
<path fill-rule="evenodd" clip-rule="evenodd" d="M287.249 165.477L271.995 198.932L257.238 192.462C255.857 191.85 254.235 192.503 253.623 193.884L250.279 201.447C249.667 202.828 250.32 204.45 251.7 205.062L272.883 214.391C276.186 215.862 280.064 214.342 281.543 211.093L299.712 171.204C300.324 169.823 299.725 168.193 298.344 167.58L290.827 164.173C289.546 163.489 287.915 164.088 287.249 165.477Z" fill="#F4A950"/>
</svg>
