<svg width="319" height="392" viewBox="0 0 319 392" fill="none" xmlns="http://www.w3.org/2000/svg">
<path fill-rule="evenodd" clip-rule="evenodd" d="M217.381 36.4575L224.636 40.6462L172.364 131.183L165.109 126.995L217.381 36.4575Z" fill="#F4A950"/>
<path fill-rule="evenodd" clip-rule="evenodd" d="M260.91 61.5896L268.165 65.7783L215.894 156.315L208.639 152.127L260.91 61.5896Z" fill="#F4A950"/>
<path fill-rule="evenodd" clip-rule="evenodd" d="M233.629 40.1955C230.203 38.2175 225.832 39.3886 223.854 42.8146L215.592 38.0442L218.821 32.4517C219.926 30.5372 221.93 29.2761 224.161 29.0191C226.442 28.7911 228.756 29.3209 230.772 30.4845L266.795 51.2826C268.81 52.4461 270.426 54.1851 271.369 56.2747C272.291 58.2849 272.201 60.6513 271.067 62.6162L267.838 68.2087L259.575 63.4382C261.553 60.0122 260.382 55.6413 256.956 53.6633L233.629 40.1955Z" fill="#DD9B4A"/>
<path d="M138.754 101.433L250.301 165.835C258.311 170.46 261.058 180.711 256.433 188.722L160.035 355.689C155.41 363.7 145.158 366.447 137.147 361.822L25.601 297.421C17.5902 292.795 14.8433 282.544 19.4683 274.533L115.867 107.566C120.492 99.5552 130.743 96.8083 138.754 101.433Z" fill="#F6BB74"/>
<path fill-rule="evenodd" clip-rule="evenodd" d="M147.825 106.669L241.233 160.599C249.244 165.224 251.991 175.476 247.366 183.487L150.968 350.453C146.343 358.464 136.091 361.211 128.08 356.586L34.6713 302.657C26.6605 298.032 23.9136 287.78 28.5386 279.769L124.937 112.802C129.562 104.791 139.814 102.044 147.825 106.669Z" fill="#FADDBC"/>
<path fill-rule="evenodd" clip-rule="evenodd" d="M40.467 284.238C49.8885 289.678 53.4665 301.282 49.0793 310.976L25.6011 297.421C17.5904 292.795 14.8434 282.544 19.4685 274.533L20.5156 272.719L40.467 284.238ZM161.082 353.875L160.035 355.689C155.41 363.7 145.158 366.447 137.148 361.822L113.669 348.267C119.812 339.722 131.471 336.981 140.829 342.182L141.131 342.356L161.082 353.875Z" fill="#F4A950"/>
<path opacity="0.060292" d="M138.754 101.433L250.301 165.835C258.311 170.46 261.058 180.711 256.433 188.722L252.768 195.07L112.202 113.914L115.867 107.566C120.492 99.5552 130.743 96.8083 138.754 101.433Z" fill="#656565"/>
<path d="M128.695 143.992C131.214 145.446 132.065 148.625 130.611 151.144L60.9447 271.81C59.4903 274.329 56.3115 275.181 53.7923 273.726C51.2732 272.272 50.4215 269.093 51.8759 266.574L121.542 145.908C122.968 143.44 126.175 142.538 128.695 143.992ZM146.832 154.464C149.351 155.918 150.203 159.097 148.749 161.616L79.0823 282.282C77.6279 284.801 74.4491 285.653 71.93 284.198C69.4109 282.744 68.5591 279.565 70.0135 277.046L139.68 156.38C141.105 153.911 144.313 153.009 146.832 154.464ZM164.97 164.936C167.489 166.39 168.341 169.569 166.886 172.088L97.22 292.753C95.7655 295.273 92.5867 296.124 90.0676 294.67C87.5485 293.216 86.6967 290.037 88.1511 287.518L157.817 166.852C159.243 164.383 162.451 163.481 164.97 164.936ZM183.107 175.407C185.627 176.862 186.478 180.04 185.024 182.56L115.358 303.225C113.903 305.744 110.724 306.596 108.205 305.142C105.686 303.687 104.834 300.508 106.289 297.989L175.955 177.324C177.38 174.855 180.588 173.953 183.107 175.407ZM201.245 185.879C203.764 187.333 204.616 190.512 203.162 193.031L133.495 313.697C132.041 316.216 128.862 317.068 126.343 315.613C123.824 314.159 122.972 310.98 124.426 308.461L194.093 187.795C195.518 185.327 198.726 184.425 201.245 185.879ZM219.383 196.351C221.902 197.805 222.754 200.984 221.299 203.503L151.633 324.169C150.178 326.688 147 327.54 144.481 326.085C141.961 324.631 141.11 321.452 142.564 318.933L212.23 198.267C213.656 195.799 216.864 194.896 219.383 196.351Z" fill="#FFF4E8"/>
<path d="M19.4371 321.655C24.6961 324.692 31.4207 322.89 34.457 317.631C37.4933 312.372 35.6914 305.647 30.4324 302.611C25.1734 299.575 18.4488 301.377 15.4125 306.636C12.3762 311.895 14.1781 318.619 19.4371 321.655Z" fill="#BD8846"/>
<path d="M21.0083 318.935C24.7648 321.104 29.5681 319.817 31.7369 316.06C33.9056 312.304 32.6186 307.5 28.8622 305.332C25.1057 303.163 20.3024 304.45 18.1336 308.206C15.9649 311.963 17.2519 316.766 21.0083 318.935Z" fill="#DD9B4A"/>
<path fill-rule="evenodd" clip-rule="evenodd" d="M19.6758 290.758L21.3499 310.198C21.5623 312.739 23.4145 314.883 25.93 315.529C27.7032 315.948 29.4615 314.881 29.8807 313.108C29.9757 312.827 29.97 312.487 29.9856 312.228C29.8683 309.406 30.6096 306.609 32.0058 304.191L34.7401 299.455L19.6758 290.758Z" fill="#F4A950"/>
<path d="M130.163 360.19C124.904 357.154 118.18 358.956 115.143 364.215C112.107 369.474 113.909 376.199 119.168 379.235C124.427 382.271 131.152 380.469 134.188 375.21C137.224 369.951 135.422 363.227 130.163 360.19Z" fill="#BD8846"/>
<path d="M128.593 362.911C124.836 360.742 120.033 362.029 117.864 365.785C115.696 369.542 116.983 374.345 120.739 376.514C124.496 378.683 129.299 377.396 131.468 373.639C133.636 369.883 132.349 365.08 128.593 362.911Z" fill="#DD9B4A"/>
<path fill-rule="evenodd" clip-rule="evenodd" d="M145.807 363.579L128.134 371.85C125.827 372.936 123.044 372.404 121.227 370.549C119.977 369.223 120.022 367.166 121.349 365.917C121.544 365.694 121.841 365.529 122.058 365.386C124.561 364.076 126.612 362.036 128.008 359.618L130.742 354.882L145.807 363.579Z" fill="#F4A950"/>
<path d="M200.085 124.011L200.437 124.215C212.299 131.13 220.634 137.286 225.408 142.864C227.189 144.899 227.457 147.809 226.119 150.126L225.363 151.436L214.48 145.153L214.416 144.915C213.809 142.011 212.089 139.406 209.614 137.641L197.242 128.819L183.415 122.515C180.7 121.284 177.584 121.097 174.715 121.993L174.477 122.057L163.544 115.745L164.3 114.435C165.638 112.117 168.292 110.895 170.945 111.419C178.133 112.815 187.662 116.906 199.581 123.72L199.934 123.924L200.085 124.011Z" fill="#F6BB74"/>
</svg>
